<?xml version="1.0" encoding="utf-8"?>
<!-- Generator: Adobe Illustrator 26.0.2, SVG Export Plug-In . SVG Version: 6.00 Build 0)  -->
<svg version="1.1" id="Layer_1" xmlns="http://www.w3.org/2000/svg" xmlns:xlink="http://www.w3.org/1999/xlink" x="0px" y="0px"
	 viewBox="0 0 1920 1080" style="enable-background:new 0 0 1920 1080;" xml:space="preserve">
<style type="text/css">
	.st0{fill:#2C1C3F;stroke:#FFFFFF;stroke-width:2;stroke-miterlimit:10;}
	.st1{fill:#FDFF94;}
	.st2{fill:#FFFFFF;}
	.st3{clip-path:url(#SVGID_00000034767986034738963650000005130258577165252739_);fill:#FFFFFF;}
	.st4{clip-path:url(#SVGID_00000125599874272767175020000012093269306228062872_);fill:#B1C681;}
	.st5{fill:#CE31F4;}
	.st6{opacity:0.2;}
	.st7{opacity:0.5;}
	.st8{opacity:0.77;}
	.st9{fill:#7AFC95;}
	.st10{fill:#733EC6;}
	.st11{fill:#6D686D;}
	.st12{fill:#F9F9F9;}
	.st13{opacity:0.54;}
	.st14{fill:#F5A5F9;}
	.st15{fill:#660A59;}
	.st16{fill:#932A9E;}
	.st17{fill:#314993;}
	.st18{fill:#4F3CC9;}
</style>
<g>
	<rect x="0" y="-0.8" width="1920" height="1080.8"/>
	<g>
		<g>
			<g>
				<ellipse class="st0" cx="1321.9" cy="163.5" rx="105.7" ry="102"/>
				<path class="st1" d="M1427,152.6c-0.7-5.1-1.6-10.1-3-15c-1.4-4.9-3.1-9.7-5.2-14.3c-2.1-4.6-4.6-9.1-7.3-13.4
					c-2.8-4.3-5.9-8.3-9.2-12.1c-13.5-15.2-31.5-26.3-51.1-31.7c-19.5-5.6-40.6-5.4-60.1,0.3c-9.8,2.8-19.1,7.1-27.7,12.6
					c-4.3,2.8-8.4,5.7-12.3,9.1c-3.8,3.3-7.5,6.9-10.8,10.8c3.3-3.9,6.9-7.6,10.7-11c3.8-3.4,7.9-6.5,12.1-9.3
					c8.6-5.6,18-9.9,27.8-12.8c19.6-5.9,40.9-6.2,60.7-0.7c19.7,5.6,37.8,16.9,51.3,32.3c3.3,3.9,6.4,8,9.2,12.3
					c2.7,4.3,5.2,8.8,7.2,13.5c2,4.7,3.7,9.5,5,14.5C1425.5,142.5,1426.4,147.5,1427,152.6z"/>
			</g>
			
				<ellipse transform="matrix(0.9947 -0.1027 0.1027 0.9947 -19.395 138.1967)" class="st0" cx="1332.4" cy="257.4" rx="343.1" ry="77.6"/>
			<g>
				<path class="st2" d="M1005.8,307.6c11.5-8.3,23.5-16,35.8-23.1l9.4-5.1l4.7-2.5c1.6-0.8,3.2-1.6,4.8-2.4l9.6-4.7
					c3.2-1.6,6.5-3,9.7-4.4c26-11.6,52.9-21.1,80.2-28.9c27.3-7.9,55.2-14,83.2-19.1l21-3.6c7-1.1,14.1-2,21.1-3.1l10.6-1.5
					l10.6-1.2l21.2-2.5l21.3-1.9c3.6-0.3,7.1-0.7,10.6-0.9l10.7-0.6l10.7-0.6c3.6-0.2,7.1-0.5,10.7-0.5l21.3-0.7
					c28.5-0.5,56.9-0.1,85.3,2c28.4,2,56.7,5.5,84.6,10.9c3.5,0.7,7,1.5,10.4,2.2c3.5,0.8,7,1.4,10.4,2.4c6.9,1.8,13.8,3.4,20.6,5.6
					l5.1,1.6l2.6,0.8l2.5,0.9l10,3.6l9.8,4.3c3.2,1.6,6.3,3.3,9.4,5c-12.4-6.9-26-11.4-39.6-15.3c-6.8-2.1-13.7-3.6-20.6-5.3
					c-3.4-0.9-6.9-1.4-10.4-2.2c-3.5-0.7-6.9-1.4-10.4-2.1c-27.9-5.1-56.2-8.2-84.5-10c-28.3-1.7-56.7-2.1-85.1-1.5l-21.3,0.7
					c-3.6,0.1-7.1,0.3-10.6,0.6l-10.6,0.7l-10.6,0.7c-3.5,0.2-7.1,0.6-10.6,0.9l-21.2,1.9l-21.1,2.4l-10.6,1.2l-10.5,1.5
					c-7,1-14.1,1.9-21.1,3l-21,3.5c-27.9,5-55.7,11.1-83,18.6c-27.3,7.5-54.3,16.7-80.3,28c-3.2,1.4-6.5,2.8-9.7,4.3l-9.6,4.6
					c-1.6,0.8-3.2,1.5-4.8,2.3l-4.7,2.5l-9.4,4.9C1029.6,292.1,1017.5,299.5,1005.8,307.6z"/>
			</g>
			<g>
				<g>
					<defs>
						<path id="SVGID_1_" d="M1311.2,182.3c185.5-38.7,342.9-36.1,351.7,5.9s-58,187-243.5,225.7c-132.1,49.3-393.5-38.3-428.2-85.5
							C965.8,293.8,1125.7,221,1311.2,182.3z"/>
					</defs>
					<clipPath id="SVGID_00000047776743201881594280000003597617289345753275_">
						<use xlink:href="#SVGID_1_"  style="overflow:visible;"/>
					</clipPath>
					
						<ellipse transform="matrix(0.9947 -0.1027 0.1027 0.9947 -24.9467 138.6739)" style="clip-path:url(#SVGID_00000047776743201881594280000003597617289345753275_);fill:#FFFFFF;" cx="1334.2" cy="311.6" rx="159.2" ry="36"/>
				</g>
				<g>
					<defs>
						
							<ellipse id="SVGID_00000162317673887247924980000008350753252807046295_" transform="matrix(0.9947 -0.1027 0.1027 0.9947 -19.395 138.1967)" cx="1332.4" cy="257.4" rx="343.1" ry="77.6"/>
					</defs>
					<clipPath id="SVGID_00000078021006234819927060000011729854938504999583_">
						<use xlink:href="#SVGID_00000162317673887247924980000008350753252807046295_"  style="overflow:visible;"/>
					</clipPath>
					<path style="clip-path:url(#SVGID_00000078021006234819927060000011729854938504999583_);fill:#B1C681;" d="M1455.1,302.8
						c0.9,8.1-38,24.5-114.1,32.4c-65.9,6.8-117.7-0.1-118.6-8.3c-1.2-11.2,49.8-25.7,114.1-32.4S1453.9,291.6,1455.1,302.8z"/>
				</g>
			</g>
			<g>
				<path class="st5" d="M1357.9,886.8l14.1-28.5c3.5-7.1,0.4-15.5-6.9-18.9l-86.2-39.8c-7.3-3.4-10.4-11.8-6.9-18.9l14.2-28.7
					c1.3-2.7,3.5-4.8,6.1-6.3l163.1-87c4.2-2.2,9.2-2.4,13.4-0.4l39,18c7.3,3.4,10.4,11.8,6.9,18.9l-58.8,118.5
					c-3.5,7.1-0.4,15.5,6.9,18.9l2,0.9c7.9,3.6,10.7,13.1,6.1,20.3l-10.3,15.9c-4,6.1-12,8.4-18.8,5.2l0,0
					c-7.3-3.4-16.1-0.4-19.6,6.6l-14.1,28.5c-3.5,7.1-12.3,10-19.6,6.6l-23.8-11C1357.5,902.3,1354.4,893.9,1357.9,886.8z
					 M1420.6,760.5c1.3-2.7,2.6-5.2,3.8-7.7c6.3-12.7-8.4-25.5-20.8-18.2c-14.2,8.3-29.8,17.1-44.7,25.4c-10.2,5.7-9.7,20.1,1,25
					l26.2,12.1c7.3,3.4,16.1,0.4,19.6-6.6L1420.6,760.5z"/>
			</g>
			<g class="st6">
				<path class="st2" d="M1688.4,989.7L1688.4,989.7c0-0.7-0.2-1.3-0.7-2l-232.7-686c0,0-3.6-17.9-114.7-7.3
					c-114.8,10.9-118.1,31.4-118.1,31.4l-63.8,663.3c0,0.2-0.1,0.4-0.1,0.6c0,12.8,81.9,23.5,193.6,26.8c22.7,0.7,46.7,1,71.4,1
					c31.8,0,62.2-0.6,90.4-1.7C1615.7,1012,1688.4,1001.7,1688.4,989.7L1688.4,989.7z"/>
			</g>
			<g class="st7">
				<path class="st2" d="M1513.8,1015.9c-28.2,1.1-58.7,1.7-90.4,1.7c-24.7,0-48.7-0.4-71.4-1l-10-53.3l-119.7-637.4
					c0,0,3.2-20.5,118.1-31.4c111.1-10.6,114.7,7.3,114.7,7.3l54.5,661.7L1513.8,1015.9z"/>
			</g>
			<g>
				<path class="st2" d="M1674.9,216.9c-20.1-23.7-108.9-115.7-357.1-89.9C1081.4,151.5,999.3,263.3,988,289.3
					c26.1-17.5,128-87,341.5-109.1C1537.8,158.6,1646.5,203.8,1674.9,216.9z"/>
				<path class="st1" d="M1674.9,216.9c-10.3-12.1-22.4-22.5-35.3-31.8c-13-9.1-26.7-17.1-41.1-23.9c-28.7-13.6-59.3-22.7-90.4-28.7
					c-15.6-2.9-31.3-5.1-47.1-6.6c-15.8-1.4-31.6-2.4-47.5-2.6c-31.7-0.5-63.5,1.1-95,4.4c-31.6,3.2-62.9,8.3-93.8,15.6l-5.8,1.4
					c-1.9,0.5-3.8,1-5.8,1.5l-11.5,3c-3.8,1.1-7.6,2.2-11.4,3.3l-5.7,1.7l-5.7,1.9c-15.1,4.8-29.9,10.5-44.5,16.7
					c-3.6,1.6-7.3,3.1-10.9,4.8l-10.7,5.1l-10.6,5.4c-3.5,1.8-6.9,3.8-10.4,5.7c-13.8,7.8-27.1,16.5-39.8,26
					c-12.7,9.5-24.7,19.9-35.7,31.3c-5.5,5.7-10.7,11.7-15.5,18c-4.8,6.3-9.3,12.9-12.7,20.1c3.3-7.2,7.8-13.8,12.5-20.2
					c4.8-6.3,10-12.4,15.4-18.2c11-11.5,22.9-22.1,35.6-31.7c12.7-9.6,26-18.3,39.8-26.1c3.5-1.9,6.9-3.9,10.4-5.8l10.6-5.5
					l10.8-5.1c3.6-1.7,7.3-3.2,10.9-4.9c14.6-6.3,29.4-12,44.6-16.9l5.7-1.9l5.7-1.7c3.8-1.1,7.6-2.3,11.4-3.4l11.5-3.1
					c1.9-0.5,3.8-1,5.8-1.5l5.8-1.4c30.9-7.4,62.3-12.6,93.9-15.9c31.6-3.2,63.4-4.7,95.2-4.1c15.9,0.2,31.8,1.3,47.6,2.7
					c15.8,1.5,31.6,3.8,47.2,6.8c31.2,6.1,61.9,15.3,90.6,29.1c14.3,6.9,28.1,15,41,24.2C1652.7,194.2,1664.7,204.8,1674.9,216.9z"
					/>
			</g>
			<g id="Cat_1_" class="st8">
				<g>
					<g>
						<g>
							<path class="st9" d="M1344.5,422.9c-0.3-0.3-8-8.1-11.8-20.8c-3.5-11.7-4.2-30,12.1-50.4l0.6-0.8c8-9.8,11-16.9,3.1-24.2
								c-3.7-3.4-9.1-4.7-14.3-3.5c-3.2,0.8-5.9,2.2-8.2,4.2c-1.5,1.3-3.7,1.3-5.2,0.1l0,0c-2-1.6-2.1-4.6-0.2-6.3
								c3.3-2.9,7.2-4.9,11.6-6c7.9-1.9,16,0.1,21.8,5.4c6.5,5.9,8.7,13.2,6.4,21c-1.8,6-5.9,11.1-8.6,14.4l-0.6,0.8
								c-11.4,14.2-15,28.6-10.7,42.9c3.2,10.7,9.7,17.3,9.7,17.3L1344.5,422.9z"/>
						</g>
						<g>
							<path class="st10" d="M1344.5,424.8l-1-1c-0.3-0.3-8.3-8.4-12.1-21.4c-3.6-12-4.4-30.8,12.4-51.6l0.6-0.8
								c8.8-10.9,9.6-16.5,3.2-22.4c-3.4-3.1-8.3-4.3-13.1-3.1c-2.9,0.7-5.5,2-7.6,3.9c-2,1.7-4.9,1.8-6.9,0.1c-1.3-1-2-2.5-2.1-4.2
								c0-1.6,0.6-3.1,1.8-4.2c3.5-3,7.6-5.1,12.2-6.3c8.3-2,16.9,0.1,23,5.7c6.9,6.3,9.2,14,6.7,22.4c-1.9,6.3-6.1,11.5-8.8,14.9
								l-0.6,0.8c-11.1,13.8-14.6,27.8-10.4,41.7c3.1,10.3,9.3,16.7,9.4,16.8l0.9,1L1344.5,424.8z M1334.2,321.9
								c5.6-1.2,11.3,0.2,15.3,3.8c8.7,8,5.3,15.9-2.9,26.1l-0.6,0.8c-16,20-15.3,37.8-11.9,49.2c3,9.9,8.4,16.8,10.5,19.2l3.9-3.9
								c-2-2.3-6.6-8.3-9.2-16.9c-4.4-14.8-0.7-29.6,10.9-44.2l0.6-0.8c2.6-3.3,6.6-8.2,8.4-14c2.2-7.3,0.1-14-6-19.6
								c-5.4-5-13.1-6.8-20.6-5.1c-4.2,1-7.9,2.9-11.1,5.7c-0.6,0.5-0.9,1.3-0.9,2.1c0,0.8,0.4,1.6,1,2.1c1,0.8,2.5,0.8,3.5-0.1
								c2.4-2.1,5.4-3.6,8.7-4.5C1334,322,1334.1,321.9,1334.2,321.9z"/>
						</g>
					</g>
				</g>
				<g>
					<g>
						<path class="st9" d="M1320.6,403.8l-7-25.5c-1.2-4.2-5.5-6.7-9.8-5.5c-4.2,1.2-6.7,5.5-5.5,9.8l7.1,25.7l7.1,53.2
							c0,0,23.7,3.7,30.5-9.4C1348.9,440.4,1339.3,412.6,1320.6,403.8z"/>
					</g>
					<g>
						<path class="st10" d="M1329.8,462.2c-8.4,1.9-17,0.6-17.6,0.5l-1-0.2l-7.2-54.1l-7.1-25.6c-0.7-2.4-0.3-4.9,0.9-7.1
							c1.2-2.2,3.2-3.7,5.6-4.4c2.4-0.7,4.9-0.3,7.1,0.9c2.2,1.2,3.7,3.2,4.4,5.6l6.9,24.9c9.6,4.7,17.7,14.8,21.8,27
							c3,9,3.2,17.5,0.5,22.8C1341.2,458.2,1335.6,460.9,1329.8,462.2z M1313.6,460.1c4.5,0.5,22.6,1.8,28.1-8.8
							c2.4-4.6,2.1-12.4-0.7-20.7c-4-11.8-11.8-21.4-21-25.7l-0.6-0.3l-7.2-26.1c-0.5-1.7-1.6-3.1-3.1-4c-1.5-0.9-3.3-1.1-5-0.6
							c-1.7,0.5-3.1,1.6-4,3.1c-0.9,1.5-1.1,3.3-0.6,5l7.1,25.8l0,0.1L1313.6,460.1z"/>
					</g>
				</g>
				<g>
					<g>
						<path class="st9" d="M1394.4,423.8l-7.6-27.4c-1.2-4.2-5.5-6.7-9.8-5.5l0,0c-4.2,1.2-6.7,5.5-5.5,9.8l7.6,27.4L1394.4,423.8z"
							/>
					</g>
					<g>
						<path class="st10" d="M1378.1,429.7l-7.9-28.7c-1.4-4.9,1.5-10.1,6.5-11.4c4.9-1.4,10.1,1.5,11.4,6.5l7.9,28.7L1378.1,429.7z
							 M1377.7,392.1c-0.1,0-0.2,0.1-0.3,0.1c-3.5,1-5.6,4.6-4.6,8.1l7.2,26.1l12.7-3.5l-7.2-26.1
							C1384.6,393.4,1381.1,391.3,1377.7,392.1z"/>
					</g>
				</g>
				<g>
					<g>
						
							<rect x="1381.2" y="390.5" transform="matrix(0.964 -0.2658 0.2658 0.964 -55.743 381.6288)" class="st10" width="1.8" height="12.6"/>
					</g>
				</g>
				<g>
					<g>
						
							<rect x="1376.6" y="391" transform="matrix(0.964 -0.2658 0.2658 0.964 -56.0117 380.3722)" class="st10" width="1.8" height="12.3"/>
					</g>
				</g>
				<g>
					<g>
						
							<rect x="1301.6" y="374.1" transform="matrix(0.964 -0.2658 0.2658 0.964 -54.2452 359.8399)" class="st10" width="1.8" height="12.6"/>
					</g>
				</g>
				<g>
					<g>
						
							<rect x="1305.8" y="372.1" transform="matrix(0.964 -0.2658 0.2658 0.964 -53.5433 360.9073)" class="st10" width="1.8" height="12.3"/>
					</g>
				</g>
				<g>
					<g class="st7">
						<path class="st11" d="M1448.8,547.8c-3.3-8.1-8.5-15.2-15.1-20.9c-9.9-8.5-14.1-13.2-14.1-13.2l-39.3,8.5l0,0l-4.7,1.1l-4.8,1
							l0,0l-39.2,8.9c0,0-1.8,6-7.2,17.9c-3.6,7.9-5.3,16.6-4.9,25.3c0.9,17.6,9.9,49.9,36.1,66.1c0,0,8.9,7.2,42.9-1.7
							c2-0.5,4-1,6-1.3c34.6-6.3,39.6-16.6,39.6-16.6C1460.9,597.2,1455.4,564.1,1448.8,547.8z"/>
					</g>
					<g>
						<path class="st10" d="M1411.3,639.5c-2.1,0.5-4.3,0.9-6.7,1.3c-2,0.4-4,0.8-5.9,1.3c-33,8.6-42.9,2.3-44,1.5
							c-27-16.8-35.8-50.1-36.7-67.2c-0.5-8.8,1.3-17.8,5-26c5.3-11.6,7.2-17.7,7.2-17.7l0.2-0.7l38.7-8.8l0-0.1l6.1-1.3l6.1-1.4
							l0,0.1l38.8-8.4l0.5,0.6c0,0,4.3,4.7,14,13c6.8,5.8,12.2,13.2,15.5,21.4l0,0c6.4,15.8,12.5,49.7-4.9,76.4
							C1444.6,624.7,1439,633.4,1411.3,639.5z M1332.6,534.4c-0.7,2-2.7,7.7-7.1,17.3c-3.6,7.8-5.2,16.3-4.8,24.7
							c0.9,16.5,9.3,48.8,35.4,65.1l0.1,0.1c0.1,0.1,9.2,6.5,41.7-2c2-0.5,4.1-1,6.1-1.4c33.1-6,38.6-15.8,38.7-15.9l0.1-0.1
							c16.8-25.7,10.8-58.6,4.6-73.9c-3.1-7.8-8.2-14.8-14.7-20.4c-8-6.8-12.3-11.2-13.7-12.7l-39.9,8.6l0,0l-3.4,0.8l-3.4,0.7l0,0
							L1332.6,534.4z"/>
					</g>
				</g>
				<g>
					<g>
						<path class="st12" d="M1434.3,545.7c-1.3-1.9-2.7-3.7-4.2-5.5c-0.2-0.3-0.2-0.7,0.1-1l1-0.9c0.3-0.3,0.7-0.2,1,0.1
							c1.6,1.8,3.1,3.8,4.4,5.7c0.2,0.3,0.1,0.8-0.2,1l-1.1,0.7C1434.9,546.1,1434.5,546,1434.3,545.7z"/>
					</g>
				</g>
				<g>
					<g>
						<path class="st12" d="M1442,576.2l-1.3,0.4c-0.4,0.1-0.7-0.1-0.8-0.5c-1.9-6.3-4.8-12.1-8.7-17.2c-0.2-0.3-0.2-0.7,0.1-0.9
							l1.1-0.8c0.3-0.2,0.7-0.2,1,0.1c4.1,5.4,7.2,11.5,9.1,18.1C1442.6,575.7,1442.4,576.1,1442,576.2z"/>
					</g>
				</g>
				<g>
					<g>
						<path class="st9" d="M1317.2,427c0,0-31,28.4,6.7,91.9c0,0,6.5,31.6,17.9,47.5c0,0-1.1,16.5,3.9,27c0,0,18.8-7.3,24-17.4
							c0,0,22.2,0.8,37-8.2c0,0,13.9,3.7,22.9,1.7c0,0-1.5-9.1-7.3-23.6c0,0-0.1-28.8-6.5-45.8c0,0,4.4-53.5-20.6-78.9
							C1395.1,421.3,1359.4,392.5,1317.2,427z"/>
					</g>
					<g>
						<path class="st10" d="M1344.9,595l-0.5-1.1c-4.6-9.8-4.2-24.3-4-27.1c-10.9-15.5-17.1-44.3-17.8-47.4
							c-8.6-14.6-14.3-28.5-17-41.4c-2.2-10.4-2.3-20.2-0.5-29.2c3.1-15.3,10.9-22.6,11.2-22.9l0.1,0c22.2-18.2,42.7-18.8,55.9-16.1
							c14.4,2.9,23.4,10.1,23.7,10.4l0.1,0.1c13.2,13.4,18.2,34.4,20.1,49.7c1.9,15.1,1.1,27.8,0.9,29.9c6,16.3,6.4,42.6,6.5,45.7
							c5.7,14.3,7.2,23.2,7.3,23.6l0.2,1.3l-1.2,0.3c-8.3,1.8-20.3-0.9-23-1.6c-13.5,8-32.2,8.2-36.4,8.1c-5.8,10-23.5,17-24.3,17.3
							L1344.9,595z M1318,428c-0.5,0.4-7.6,7.5-10.4,21.6c-2.7,13.5-1.8,36.3,17.4,68.6l0.1,0.2l0,0.2c0.1,0.3,6.6,31.5,17.6,46.9
							l0.3,0.4l0,0.5c0,0.2-0.9,15.1,3.2,25.1c4.2-1.8,18-8.2,22.1-16.2l0.4-0.8l0.9,0c0.2,0,22,0.7,36.3-8l0.5-0.3l0.6,0.1
							c0.1,0,12.4,3.3,21,2c-0.6-3-2.5-10.9-7-22l-0.1-0.2l0-0.3c0-0.3-0.2-28.8-6.4-45.3l-0.1-0.3l0-0.3c0-0.5,4.1-53-20.2-77.7
							c-0.8-0.6-9.4-7.1-22.6-9.8C1353.2,408.8,1335.2,414,1318,428z M1318.1,428L1318.1,428L1318.1,428z"/>
					</g>
				</g>
				<g>
					<g>
						<path class="st10" d="M1366.2,571.5c-0.4,0.1-0.6,0.1-0.6,0.1l-0.1,0l-0.1,0c-13-1-26.4-33.1-27-34.5l2.5-1
							c3.7,8.8,15.2,31.8,24.5,32.8c0.7-0.1,3.8-0.8,4.8-3.2c0.9-2,0.2-5-2.2-8.7l0-0.1c-0.3-0.4-6.2-11-8.6-22.1l2.6-0.6
							c2.3,10.4,8,20.7,8.3,21.3c2.9,4.5,3.7,8.3,2.3,11.3C1371.2,570.1,1367.7,571.2,1366.2,571.5z"/>
					</g>
				</g>
				<g>
					<g>
						<path class="st10" d="M1414.2,559.6c-0.4,0.1-0.7,0.1-0.7,0.1l-0.1,0c-2.4,0.1-4.5-0.7-6-2.2c-3-2.9-3.2-7.6-3.2-8.3
							c-1.4-13-5-22.5-5-22.6l2.5-1c0.2,0.4,3.8,10,5.2,23.4l0,0.1c0,0,0,4.2,2.4,6.5c1,1,2.4,1.5,4,1.5c0.2,0,2.5-0.3,4.5-3
							c2.5-3.2,4.9-10.4,2.1-25.8l2.7-0.5c2.4,13.3,1.5,22.7-2.7,28C1417.8,558.5,1415.4,559.3,1414.2,559.6z"/>
					</g>
				</g>
				<g>
					<g>
						
							<ellipse transform="matrix(0.964 -0.2658 0.2658 0.964 -94.2875 387.8825)" class="st10" cx="1386" cy="542.3" rx="4.4" ry="3.1"/>
					</g>
				</g>
				<g>
					<g>
						<path class="st10" d="M1384.6,541.1c-0.9-3.9-0.5-7.3,1.3-10c2.7-4.1,7.6-5,7.8-5l0.5,2.7c0,0-3.9,0.8-6,3.9
							c-1.3,2-1.6,4.7-0.9,7.9L1384.6,541.1z"/>
					</g>
				</g>
				<g>
					<g>
						<path class="st10" d="M1384.1,541.3c-1-3.1-2.6-5.2-4.8-6.3c-3.4-1.6-7.1-0.3-7.1-0.2l-1-2.5c0.2-0.1,4.8-1.8,9.3,0.3
							c2.9,1.4,5,4,6.2,7.9L1384.1,541.3z"/>
					</g>
				</g>
				<g>
					<g class="st13">
						<path class="st2" d="M1324.6,519.1c11.4-2,66.9-13.3,90.1-19.7c1.1-0.3,2.3,0.3,2.5,1.4l2.4,11c0.4,1.9-0.8,3.7-2.6,4.1
							l-87.3,19.3c-1.9,0.4-3.7-0.8-4.1-2.6l-2.5-11.2C1322.9,520.3,1323.6,519.3,1324.6,519.1z"/>
					</g>
					<g>
						<path class="st10" d="M1417.3,517.1l-87.3,19.3c-2.6,0.6-5.2-1.1-5.7-3.6l-2.5-11.2c-0.2-0.9,0-1.8,0.5-2.5
							c0.5-0.7,1.3-1.2,2.1-1.4c11.9-2.1,67.3-13.5,89.9-19.7c0.9-0.3,1.9-0.1,2.7,0.3c0.8,0.5,1.3,1.2,1.5,2l2.4,11
							C1421.5,514,1419.9,516.6,1417.3,517.1z M1324.8,520.4c-0.2,0-0.3,0.2-0.3,0.2c0,0.1-0.1,0.2-0.1,0.4l2.5,11.2
							c0.3,1.1,1.4,1.9,2.5,1.6l87.3-19.3c1.1-0.3,1.9-1.4,1.6-2.5l-2.4-11c0-0.1-0.1-0.2-0.2-0.3c-0.2-0.1-0.4-0.1-0.6-0.1
							C1392.4,506.9,1336.8,518.3,1324.8,520.4L1324.8,520.4C1324.9,520.4,1324.9,520.4,1324.8,520.4z"/>
					</g>
				</g>
				<g>
					<g>
						<path class="st10" d="M1381.6,514c-22.6,5-53.8,11.2-54.2,11.2l-0.5-2.6c0.5-0.1,53.2-10.5,71-15.2l0.7,2.6
							C1394.4,511.1,1388.4,512.5,1381.6,514z"/>
					</g>
				</g>
				<g>
					<g>
						<path class="st10" d="M1375.8,521.6c-16.4,3.6-30.7,6.6-31,6.6l-0.5-2.6c0.5-0.1,48.6-10,69.8-16l0.7,2.6
							C1405.1,515,1389.7,518.5,1375.8,521.6z"/>
					</g>
				</g>
				<g>
					<g>
						<circle class="st10" cx="1375.1" cy="554.8" r="3.8"/>
					</g>
				</g>
				<g>
					<g>
						<circle class="st10" cx="1400.4" cy="549.2" r="3.8"/>
					</g>
				</g>
				<g>
					<g>
						<circle class="st10" cx="1369.4" cy="604.6" r="1.5"/>
					</g>
				</g>
				<g>
					<g>
						<circle class="st10" cx="1363.7" cy="599.3" r="2.3"/>
					</g>
				</g>
				<g>
					<g>
						<path class="st10" d="M1327.7,608.5l-1.7-2.1l3.6-2.9c1.8-1.5,4.3-1.8,6.4-0.8l0.4,0.2c1.4,0.6,3.1,0.3,4.1-0.9
							c1.7-1.9,4.5-2.6,6.9-1.7l0.8,0.3c1.3,0.5,2.8,0.2,3.8-0.8l3.4-3.3l1.9,1.9l-3.4,3.3c-1.7,1.7-4.3,2.2-6.6,1.3l-0.8-0.3
							c-1.4-0.5-3-0.2-3.9,1c-1.8,2-4.7,2.7-7.2,1.6l-0.4-0.2c-1.2-0.5-2.6-0.3-3.6,0.5L1327.7,608.5z"/>
					</g>
				</g>
				<g>
					<g>
						<path class="st10" d="M1426.4,587.7l-1.7-2.1l3.6-2.9c1.8-1.5,4.3-1.8,6.4-0.8l0.4,0.2c1.4,0.6,3.1,0.3,4.1-0.9
							c1.7-1.9,4.5-2.6,6.9-1.7l0.8,0.3c1.3,0.5,2.8,0.2,3.8-0.8l3.4-3.3l1.9,1.9l-3.4,3.3c-1.7,1.7-4.3,2.2-6.6,1.3l-0.8-0.3
							c-1.4-0.5-3-0.1-3.9,1c-1.8,2-4.7,2.7-7.2,1.6l-0.4-0.2c-1.2-0.5-2.6-0.3-3.6,0.5L1426.4,587.7z"/>
					</g>
				</g>
			</g>
			<g id="Fish_1_" class="st8">
				<g>
					<g>
						<path class="st10" d="M1393.7,615c0,0,0.2,5.4,3.8,8.7c0,0,7.1-3.3,1.8-11.1L1393.7,615z"/>
					</g>
				</g>
				<g>
					<g>
						<path class="st14" d="M1397.1,614c0,0,2.5,12.1,11.4,15.5c0,0,2.4-11.5-7.8-17.2L1397.1,614z"/>
					</g>
					<g>
						<path class="st10" d="M1409.5,631.3l-1.5-0.5c-9.5-3.5-12.1-15.9-12.2-16.5l-0.2-1l5.1-2.5l0.6,0.3c11,6.1,8.5,18.5,8.5,18.7
							L1409.5,631.3z M1398.7,614.8c0.7,2.6,3.2,9.7,8.7,12.7c0.2-3.1-0.3-9.7-6.8-13.7L1398.7,614.8z"/>
					</g>
				</g>
				<g>
					<g>
						<path class="st14" d="M1406.8,605.5c0,0,5.5-10.4,16.9-12.9c0,0,3.8,5.8-5.8,14c0,0,5.7,7,6.1,13.6c0,0-8.8,0-16.4-10.1
							L1406.8,605.5z"/>
					</g>
					<g>
						<path class="st10" d="M1425.5,621.6l-1.4,0c-0.4,0-9.5-0.1-17.5-10.7l-0.2-0.3l-1-5.4l0.2-0.4c0.2-0.4,5.9-11,17.8-13.6
							l0.9-0.2l0.5,0.8c0.2,0.3,4.1,6.5-5.1,15c1.6,2.3,5.3,7.9,5.6,13.4L1425.5,621.6z M1408.9,609.5c5.2,6.8,10.9,8.6,13.6,9.1
							c-1-5.6-5.5-11.2-5.6-11.3l-0.8-1l1-0.9c6.5-5.6,6.4-9.8,5.9-11.4c-8.8,2.4-13.7,9.8-14.7,11.6L1408.9,609.5z"/>
					</g>
				</g>
				<g>
					<g>
						<path class="st14" d="M1387.1,596c0,0,4-10.8,16.1-6.8c1.3,0.4,1.7,2.2,0.7,3.1c-1.5,1.4-3,4-2.5,8.9L1387.1,596z"/>
					</g>
					<g>
						<path class="st10" d="M1402.8,603.3l-17.5-6.4l0.5-1.3c0-0.1,4.6-12,17.8-7.6c1.1,0.4,1.9,1.2,2.1,2.4c0.2,1.1-0.1,2.2-1,3
							c-1.7,1.6-2.4,4.3-2.1,7.8L1402.8,603.3z M1388.9,595.3l11,4c0.1-4.2,1.6-6.6,3-7.9c0.2-0.2,0.2-0.4,0.2-0.5
							c0-0.1-0.1-0.3-0.3-0.4C1394.2,587.7,1390.3,592.8,1388.9,595.3z"/>
					</g>
				</g>
				<g>
					<g>
						<path class="st14" d="M1373.6,606.9c0.3,2.1,9,15.3,24.4,8.5c1.1-0.5,1.9-1.4,3.9-2.8c1.3-0.9,4.6-1.6,5.9-1.9
							c0,0,1.7-3,0-6.7c0,0-4.3-1.5-8.1-5.7c0,0-8.4-8.3-17.7-0.4C1377.3,601.8,1373.2,604.4,1373.6,606.9z"/>
					</g>
					<g>
						<path class="st10" d="M1393.9,618.2c-5.8,1.3-10.4-0.2-13.4-1.9c-5-2.8-8-7.5-8.2-9.2c-0.4-2.8,2.5-5.1,6.4-8.3
							c0.8-0.6,1.6-1.3,2.4-2c10.2-8.5,19.4,0.4,19.5,0.5l0,0c3.6,3.9,7.5,5.3,7.6,5.3l0.5,0.2l0.2,0.5c2.1,4.3,0.1,7.8,0,7.9
							l-0.3,0.5l-0.6,0.1c0,0,0,0,0,0c-2.9,0.6-4.7,1.2-5.3,1.7c-0.8,0.6-1.4,1-1.9,1.4c-0.8,0.7-1.5,1.2-2.3,1.5
							C1396.9,617.4,1395.3,617.9,1393.9,618.2z M1374.9,606.8c0.1,0.7,2.5,4.9,7.3,7.5c4.6,2.4,9.7,2.4,15.1,0
							c0.5-0.2,1-0.6,1.7-1.2c0.5-0.4,1.1-0.9,2-1.5c1.2-0.9,3.5-1.5,5.7-2c0.3-0.8,0.7-2.4-0.1-4.4c-1.3-0.6-4.8-2.3-8.1-5.8
							c-0.5-0.5-7.8-7.1-15.9-0.3c-0.8,0.7-1.7,1.4-2.4,2C1377.4,603.3,1374.7,605.4,1374.9,606.8z"/>
					</g>
				</g>
				<g>
					<g>
						<circle class="st10" cx="1381.2" cy="604.2" r="1.8"/>
					</g>
				</g>
			</g>
		</g>
	</g>
	<g>
		<path class="st0" d="M1047.2,568.7v379.7c0,40.4-34,73.2-75.8,73.2H208.2c-41.9,0-75.8-32.8-75.8-73.2V568.7
			c0-40.4,34-73.2,75.8-73.2h763.1C1013.2,495.5,1047.2,528.3,1047.2,568.7z"/>
		<path class="st2" d="M1047.2,568.7v10.5H132.3v-10.5c0-40.4,34-73.2,75.8-73.2h763.1C1013.2,495.5,1047.2,528.3,1047.2,568.7z"/>
		<ellipse class="st15" cx="236.7" cy="537.4" rx="28.1" ry="27.1"/>
		<ellipse class="st16" cx="325.4" cy="537.4" rx="28.1" ry="27.1"/>
		<ellipse class="st17" cx="414.2" cy="537.4" rx="28.1" ry="27.1"/>
		<g>
			<g>
				<path class="st5" d="M364.1,929.9v-36.6c0-9-7.6-16.4-17-16.4H236.4c-9.4,0-17-7.3-17-16.4v-36.9c0-3.4,1.1-6.7,3.1-9.5
					l125.2-169.6c3.2-4.3,8.3-6.9,13.8-6.9h50c9.4,0,17,7.3,17,16.4v152.2c0,9,7.6,16.4,17,16.4h2.5c10.1,0,18,8.5,16.9,18.3
					l-2.5,21.5c-1,8.3-8.2,14.5-16.9,14.5l0,0c-9.4,0-17,7.3-17,16.4v36.6c0,9-7.6,16.4-17,16.4h-30.6
					C371.7,946.3,364.1,938.9,364.1,929.9z M364.1,767.7c0-3.4,0-6.7,0-9.9c0-16.3-22-22.6-31.2-9c-10.5,15.6-22.2,32.3-33.5,48.1
					c-7.7,10.9,0.4,25.7,14,25.7h33.7c9.4,0,17-7.3,17-16.4L364.1,767.7L364.1,767.7z"/>
			</g>
			<g>
				<path class="st5" d="M753.8,790c0,84.9-27.9,161.9-122.9,161.9C537.1,951.9,508,877.4,508,792c0-84.6,32.2-159.9,124.3-159.9
					C721.5,632,753.8,702.4,753.8,790z M579.8,791.2c0,56.7,6.7,107.2,52,107.2c44.2,0,50-47.2,50-108c0-59.9-7.5-104.9-49.3-104.9
					C591.5,685.5,579.8,724.4,579.8,791.2z"/>
			</g>
		</g>
	</g>
	<g>
		<g>
			<path class="st2" d="M200.7,378.5l-7,32.8c-1.7,8,0.2,14.4,9.6,14.4c9.1,0,12-5.9,13.8-14.5l6.9-32.7h6.3l-7,32.8
				c-2.3,10.9-6.1,19.7-20.8,19.7c-12.5,0-17.9-7.4-15.3-19.6l7-32.9H200.7z"/>
			<path class="st2" d="M248,375.6l-4.7,22.3c2.6-3.8,6.4-6.4,11.9-6.4c5.8,0,11.3,3.4,9,14.1l-5.2,24.5h-6l5-23.9
				c1.2-5.8,0.1-9.5-5.3-9.5c-6.3,0-10.2,4.7-11.9,12.5l-4.4,20.9h-6l11.5-54.5L248,375.6L248,375.6z"/>
			<path class="st2" d="M334.6,397.6c0,14.2-6.8,33.3-25.5,33.3c-11.7,0-17.8-7.4-17.8-20.4c0-12.5,7.2-32.7,25.4-32.7
				C329.1,377.7,334.6,386.6,334.6,397.6z M297.7,410.7c0,9.9,4.5,15,12.1,15c13.7,0,18.3-17.2,18.3-27.9c0-9.1-3.9-14.8-12.3-14.8
				C303.4,382.9,297.7,399.6,297.7,410.7z"/>
			<path class="st2" d="M355.6,375.6l-4.7,22.3c2.6-3.8,6.4-6.4,11.9-6.4c5.8,0,11.3,3.4,9,14.1l-5.2,24.5h-6l5-23.9
				c1.2-5.8,0.1-9.5-5.3-9.5c-6.3,0-10.2,4.7-11.9,12.5l-4.4,20.9h-6l11.5-54.5L355.6,375.6L355.6,375.6z"/>
			<path class="st2" d="M380.8,430.2l2-9.6h6.1l-2,9.6H380.8z M384.9,412.9l4.7-25.4l2-9.1h6.5l-2,9.1l-5.9,25.4H384.9z"/>
			<path class="st9" d="M431.8,433.8v14h-9.7v-35.2c0-4.5,0-7.6-0.1-9.6h9.3c0.1,0.9,0.2,2.2,0.3,3.4c1-1.9,2.9-4,7.3-4
				c5.9,0,9.4,4.8,9.4,16.7c0,13.2-4,17.8-10.4,17.8C434.9,436.9,432.8,435.7,431.8,433.8z M438.4,419.4c0-7.7-1.1-9.3-3.5-9.3
				c-2.8,0-3.3,2.5-3.3,9.1c0,7.4,0.3,10,3.3,10C437.3,429.2,438.4,426.8,438.4,419.4z"/>
			<path class="st9" d="M476.5,428.1c0,2.3,0.1,6.5,0.2,8.2H468c-0.2-0.7-0.4-2-0.4-2.9c-1.6,2.2-3.9,3.5-7.4,3.5
				c-5.9,0-8.9-4.6-8.9-10.3c0-7.3,4.9-10.9,13-10.9c1,0,2,0,2.6,0v-3.2c0-1.8-0.2-3.3-2.6-3.3c-2.2,0-2.6,1.4-2.7,3.8h-9.1
				c0.1-5.9,3-10.5,12.2-10.5c7.7,0,11.8,3.1,11.8,10L476.5,428.1L476.5,428.1z M467.1,421.8c-0.6-0.1-1.1-0.1-1.8-0.1
				c-3.4,0-4.4,1.8-4.4,4c0,1.9,0.8,3.6,2.9,3.6c2.9,0,3.4-2.2,3.4-5.9V421.8z"/>
			<path class="st9" d="M507.2,433.3c0,9.6-2.8,15-13.6,15c-9.5,0-12-5.3-12.2-9.9h9.5c0.1,1.1,0.4,2.8,3.2,2.8
				c2.9,0,3.5-2.3,3.5-6.8v-2.2c-1.4,2.5-3.7,3.6-6.9,3.6c-7,0-9.7-6-9.7-16c0-11.6,3.8-17.2,10.4-17.2c4,0,5.6,1.8,6.2,3.3
				c0.1-0.8,0.2-2,0.4-2.7h9.3c-0.1,2-0.1,5.7-0.1,10.5L507.2,433.3L507.2,433.3z M491,419.4c0,6.6,1.1,8.7,3.4,8.7
				c2.8,0,3.3-2.7,3.3-9.5c0-5.8-0.1-8.5-3.2-8.5C492.2,410.1,491,412.3,491,419.4z"/>
			<path class="st9" d="M521.4,421.9c0,4.3,0.4,7.7,3.4,7.7c2.7,0,3.1-2.2,3.2-3.7h9.2c-0.2,2.2-1.2,11-12.6,11
				c-11.1,0-12.9-8.5-12.9-17.5c0-11.2,4.5-17,13.1-17c9.8,0,12.7,6.7,12.7,15.9c0,1.1,0,3-0.1,3.6H521.4z M528,415.8
				c0-3.2-0.1-6.2-3.2-6.2c-3.1,0-3.3,3.2-3.3,6.2H528z"/>
			<path class="st9" d="M552.8,413.4c0-6.9,0-8.7-0.1-10.5h9.3c0.1,0.7,0.2,2.1,0.3,3.1c1-1.7,3.2-3.6,7.2-3.6
				c5.6,0,8.4,3.6,8.4,9.9v24h-9.7v-22.1c0-2.6-0.5-4-2.8-4c-2.1,0-3,1.1-3,4.8v21.4h-9.7L552.8,413.4L552.8,413.4z"/>
			<path class="st9" d="M608.8,419.3c0,13.2-5.2,17.6-13.3,17.6c-7.8,0-13-4.3-13-17.5c0-12.6,5.7-17,13.3-17
				C603.8,402.4,608.8,407.2,608.8,419.3z M592.3,419.4c0,7.1,0.7,10,3.5,10c2.6,0,3.3-2.9,3.3-10c0-7.3-0.7-9.4-3.3-9.4
				C593.2,410,592.3,412.3,592.3,419.4z"/>
			<path class="st9" d="M610.5,403h4v-7.9h9.6v7.9h4.6v7.6H624v15.9c0,1.8,0.4,2.6,2.5,2.6c0.6,0,1,0,1.6-0.1v6.9
				c-1.7,0.6-4.1,0.7-5.4,0.7c-6.3,0-8.3-2.4-8.3-8.5v-17.6h-3.9L610.5,403L610.5,403z"/>
			<path class="st9" d="M644,436.3v-25.7h-3.5V403h3.5v-2.2c0-5.9,2.5-9.8,9.6-9.8c1.5,0,3.1,0.2,3.9,0.4v7.2
				c-0.5-0.1-1-0.1-1.5-0.1c-1.8,0-2.3,0.9-2.3,2.7v1.8h4.2v7.6h-4.2v25.7L644,436.3L644,436.3z"/>
			<path class="st9" d="M685.6,419.3c0,13.2-5.2,17.6-13.3,17.6c-7.8,0-13-4.3-13-17.5c0-12.6,5.7-17,13.3-17
				C680.6,402.4,685.6,407.2,685.6,419.3z M669.1,419.4c0,7.1,0.7,10,3.5,10c2.6,0,3.3-2.9,3.3-10c0-7.3-0.7-9.4-3.3-9.4
				C670,410,669.1,412.3,669.1,419.4z"/>
			<path class="st9" d="M715.2,425.8c0,5.5,0,8.8,0.1,10.4h-9.2c-0.2-1-0.3-2.5-0.4-3.4c-1.7,2.9-4,3.9-7.4,3.9
				c-4.9,0-8.2-2.5-8.2-9.9v-24h9.7v22.2c0,2.6,0.5,3.9,2.6,3.9c2.2,0,3.2-1.3,3.2-5V403h9.7L715.2,425.8L715.2,425.8z"/>
			<path class="st9" d="M720.8,413.4c0-6.9,0-8.7-0.1-10.5h9.3c0.1,0.7,0.2,2.1,0.3,3.1c1-1.7,3.2-3.6,7.2-3.6
				c5.6,0,8.4,3.6,8.4,9.9v24h-9.7v-22.1c0-2.6-0.5-4-2.8-4c-2.1,0-3,1.1-3,4.8v21.4h-9.7L720.8,413.4L720.8,413.4z"/>
			<path class="st9" d="M776.6,391.5v34.9c0,4.5,0,8.2,0.1,9.9h-9.3c-0.1-0.9-0.2-2.4-0.3-3.3c-1.2,2.5-3.4,3.8-7.2,3.8
				c-6.4,0-9.5-5.3-9.5-17.6c0-11.1,3.6-16.9,10.7-16.9c3.3,0,5.1,1.2,5.7,2.4v-13.3L776.6,391.5L776.6,391.5z M760.3,419.5
				c0,7.4,0.9,9.8,3.3,9.8c2.9,0,3.5-2.2,3.5-10c0-7.1-0.4-9.1-3.2-9.1C761.7,410.1,760.3,411.7,760.3,419.5z"/>
			<path class="st9" d="M781.4,436.3v-11.1h9.6v11.1H781.4z"/>
			<path class="st9" d="M795.1,436.3v-11.1h9.6v11.1H795.1z"/>
		</g>
	</g>
	<path class="st5" d="M1209.1,937.7H809.7c-3.9,0-7.1-3.2-7.1-7.1l0,0c0-3.9,3.2-7.1,7.1-7.1h399.4c3.9,0,7.1,3.2,7.1,7.1l0,0
		C1216.2,934.5,1213.1,937.7,1209.1,937.7z"/>
	<g>
		<path class="st2" d="M1701.2,199.7c2.4,7.2,6,13.9,8.8,21c2.5,6.6,3.8,13.4,3.3,20.6c-1,13.6-7.9,26.5-17.1,36.3
			c-10,10.7-22.9,18.3-35.9,24.7c-14.3,7-29,13-43.6,19.3c-17.6,7.7-35.3,15.3-52.9,23c-2.8,1.2-0.4,5.2,2.4,4
			c16.1-7,32.2-14,48.3-21c15.2-6.6,30.5-12.9,45.5-20c13.5-6.4,26.8-13.9,37.4-24.5c9.9-9.8,17.6-22.6,20-36.4
			c1.4-7.9,0.9-16-1.5-23.7c-2.7-8.4-7.2-16.1-10-24.5C1704.7,195.6,1700.2,196.8,1701.2,199.7L1701.2,199.7z"/>
	</g>
	<g>
		<path class="st2" d="M1162.4,127.4c-34.2,4.8-67.3,16.1-97.4,32.8c-30.1,16.7-57.3,38.9-79.3,65.4c-13.1,15.7-24.8,33.5-28.2,54
			c-0.5,2.9,4,4.2,4.5,1.2c2.9-17.9,12.5-33.8,23.6-47.9c10.6-13.3,22.6-25.6,35.5-36.6c25.7-22,55.5-39.3,87.3-50.8
			c17.9-6.4,36.4-11,55.2-13.6C1166.6,131.5,1165.3,127,1162.4,127.4L1162.4,127.4z"/>
	</g>
	<g>
		<path class="st2" d="M1101.9,104.8c-21.6,3.5-42.6,10-62.5,19.1c-19.9,9.1-38.4,20.9-55.2,35c-9.4,7.9-18.2,16.5-26.2,25.8
			c-2,2.3,1.3,5.6,3.3,3.3c14.2-16.3,30.5-30.5,48.5-42.4c17.9-11.8,37.4-21.2,57.8-27.8c11.6-3.8,23.5-6.6,35.5-8.5
			C1106.1,108.9,1104.9,104.4,1101.9,104.8L1101.9,104.8z"/>
	</g>
	<g>
		<path class="st2" d="M1735.8,254.3c3.2,13.7-1.3,27.8-9.1,39.1c-8.5,12.4-21.2,21.1-34.3,28c-7.6,4-15.5,7.5-23.4,11
			c-2.7,1.2-0.4,5.2,2.4,4c27.7-12.3,59-27.3,68.1-58.9c2.3-8,2.7-16.4,0.8-24.5C1739.6,250.1,1735.1,251.3,1735.8,254.3
			L1735.8,254.3z"/>
	</g>
	<g>
		<path class="st2" d="M403.2,139.9c17.5,29.8,39.7,56.6,65.5,79.6c25.8,23,54.9,42.2,86.2,56.9c31.1,14.6,64.3,24.8,98.3,29.8
			c17,2.5,34.2,3.7,51.5,3.6c16.1-0.2,32.3-1.4,48.1-5.1c27.8-6.5,58.4-21,70.5-48.6c7.2-16.6,6.2-34.9-0.1-51.6
			c-3.5-9.2-8.2-17.9-13.5-26.2c-5.1-8-10.5-16.3-16.9-23.4c-5.5-6-12.9-9.5-21.1-7.9c-7.6,1.5-14.1,7-18.9,12.8
			c-10.7,13.1-14.4,30.6-15.9,47.1c-3,33.9,7.2,68.3,25.3,96.9c19.2,30.3,47.3,53.3,79.7,68.2c34.2,15.7,72,22.6,109.5,22.9
			c9.2,0.1,18.5-0.3,27.7-1c3-0.2,3-4.9,0-4.7c-36.1,2.8-72.9-0.1-107.6-10.9c-33.5-10.4-65.1-28.4-88.6-54.8
			c-21.8-24.4-36.9-55.6-40.8-88.2c-1.9-16.2-1.1-32.7,2.9-48.5c2.1-8.1,5-15.8,10.1-22.5c4.5-5.9,10.9-11.9,18.6-13
			c9.2-1.3,15.2,5.8,20.2,12.4c5.7,7.7,11.1,15.5,15.9,23.7c9.5,16.3,16.6,35.3,13,54.4c-5.5,29.3-32.7,46.5-59.2,55
			c-29.9,9.5-62.5,9.8-93.5,6.8c-32.9-3.2-65.4-11.4-96-23.9c-30.8-12.5-59.8-29.4-85.9-50c-26-20.5-49.1-44.7-67.9-71.9
			c-4.6-6.6-8.9-13.3-12.9-20.3C405.7,134.9,401.7,137.3,403.2,139.9L403.2,139.9z"/>
	</g>
	<circle class="st2" cx="1673.7" cy="751.5" r="10.2"/>
	<circle class="st2" cx="1543.2" cy="447.3" r="10.2"/>
	<circle class="st2" cx="1543.2" cy="447.3" r="10.2"/>
	<circle class="st2" cx="1149.2" cy="430.2" r="10.2"/>
	<circle class="st2" cx="1222.3" cy="764.3" r="10.2"/>
	<path class="st2" d="M1777.3,552.2c3.7-0.8,6.9,2.4,6.1,6.1c-0.4,1.9-1.9,3.4-3.8,3.8c-3.7,0.8-6.9-2.4-6.1-6.1
		C1773.9,554.1,1775.4,552.6,1777.3,552.2z"/>
	<circle class="st2" cx="1580.1" cy="977.9" r="5.1"/>
</g>
<g id="Stars_1_">
	<g>
		<g>
			<path class="st18" d="M1281.2,528.4l-4.9,0l-2.1-4.4c-0.1-0.2-0.2-0.2-0.4-0.2c-0.2,0-0.3,0.2-0.3,0.4l0,4.9l-4.4,2.1
				c-0.2,0.1-0.2,0.2-0.2,0.4c0,0.2,0.2,0.3,0.4,0.3l4.9,0l2.1,4.4c0.1,0.2,0.2,0.2,0.4,0.2c0.2,0,0.3-0.2,0.3-0.4l0-4.9l4.4-2.1
				c0.2-0.1,0.2-0.2,0.2-0.4C1281.5,528.6,1281.4,528.4,1281.2,528.4z"/>
		</g>
	</g>
	<g>
		<g>
			<path class="st18" d="M1443,413.4l-4.9,0l-2.1-4.4c-0.1-0.2-0.2-0.2-0.4-0.2c-0.2,0-0.3,0.2-0.3,0.4l0,4.9l-4.4,2.1
				c-0.2,0.1-0.2,0.2-0.2,0.4c0,0.2,0.2,0.3,0.4,0.3l4.9,0l2.1,4.4c0.1,0.2,0.2,0.2,0.4,0.2c0.2,0,0.3-0.2,0.3-0.4l0-4.9l4.4-2.1
				c0.2-0.1,0.2-0.2,0.2-0.4C1443.3,413.6,1443.1,413.4,1443,413.4z"/>
		</g>
	</g>
	<g>
		<g>
			<path class="st18" d="M1253.5,515l-2.5,0l-1.1-2.3c0-0.1-0.1-0.1-0.2-0.1c-0.1,0-0.1,0.1-0.2,0.2l0,2.5l-2.3,1.1
				c-0.1,0-0.1,0.1-0.1,0.2c0,0.1,0.1,0.1,0.2,0.1l2.5,0l1.1,2.3c0,0.1,0.1,0.1,0.2,0.1c0.1,0,0.1-0.1,0.2-0.2l0-2.5l2.3-1.1
				c0.1,0,0.1-0.1,0.1-0.2C1253.7,515.1,1253.6,515,1253.5,515z"/>
		</g>
	</g>
</g>
</svg>
