<?xml version="1.0" encoding="utf-8"?>
<!-- Generator: Adobe Illustrator 26.0.2, SVG Export Plug-In . SVG Version: 6.00 Build 0)  -->
<svg version="1.1" id="Layer_1" xmlns="http://www.w3.org/2000/svg" xmlns:xlink="http://www.w3.org/1999/xlink" x="0px" y="0px"
	 viewBox="0 0 1159 771" style="enable-background:new 0 0 1159 771;" xml:space="preserve">
<style type="text/css">
	.st0{fill:#5220A0;}
	.st1{fill:#864BC5;}
	.st2{fill:#5C31AF;}
	.st3{fill:#376472;}
	.st4{fill:#2C525B;}
	.st5{fill:#B52CB5;}
	.st6{fill:#932696;}
	.st7{fill:#F3AF9F;}
	.st8{fill:#F8F8F8;}
	.st9{fill:#E5A3E2;}
	.st10{fill:#DBD2D8;}
	.st11{fill:#A59B9B;}
	.st12{fill:#F5938C;}
	.st13{fill:#E6DCE2;}
	.st14{fill:#66195B;}
	.st15{fill:#440A3F;}
	.st16{fill:#F4948B;}
	.st17{fill:#8C59C1;}
	.st18{fill:#6C489B;}
	.st19{fill:#9A4BA0;}
	.st20{fill:#B255B7;}
	.st21{fill:#F8928C;}
	.st22{fill:#E6817A;}
	.st23{fill:#F9F8F7;}
	.st24{fill:#F3AEA0;}
	.st25{fill:#3D3936;}
	.st26{fill:#B64AC6;}
	.st27{fill:#E9D7F2;}
	.st28{fill:#DF5AF2;}
	.st29{fill:#F8A399;}
	.st30{fill:#A3BCEF;}
	.st31{fill:#609CD8;}
	.st32{fill:none;stroke:#5D78A0;stroke-miterlimit:10;}
	.st33{opacity:0.53;}
	.st34{fill:#824289;}
	.st35{fill:#EAC7EF;}
	.st36{fill:#7546B2;}
</style>
<g id="Rectangle">
	<rect width="1159" height="771"/>
</g>
<g id="Background">
	<g>
		<path class="st0" d="M1020.5,659.4h-874c-3.4,0-6.2-2.8-6.2-6.2v-1c0-3.4,2.8-6.2,6.2-6.2h874c3.4,0,6.2,2.8,6.2,6.2v1
			C1026.8,656.6,1024,659.4,1020.5,659.4z"/>
	</g>
	<g>
		<g>
			
				<ellipse transform="matrix(0.2773 -0.9608 0.9608 0.2773 -325.9051 547.4139)" class="st0" cx="200.9" cy="490.3" rx="15.3" ry="33.1"/>
		</g>
		<g>
			
				<ellipse transform="matrix(0.6377 -0.7703 0.7703 0.6377 -262.8366 374.6433)" class="st0" cx="266.8" cy="466.7" rx="33.1" ry="15.3"/>
		</g>
		<g>
			
				<ellipse transform="matrix(0.2549 -0.967 0.967 0.2549 -280.655 499.071)" class="st0" cx="183.5" cy="431.6" rx="15.3" ry="33.1"/>
		</g>
		<g>
			
				<ellipse transform="matrix(0.9688 -0.2477 0.2477 0.9688 -89.0238 62.6269)" class="st0" cx="204.4" cy="385.1" rx="15.3" ry="33.1"/>
		</g>
		<g>
			<path class="st0" d="M266.3,385.2c0.5,2.5,3.6,20-8.6,35.4s-30,16.4-32.5,16.5c-0.5-2.5-3.6-20,8.6-35.4
				C246,386.3,263.8,385.3,266.3,385.2z"/>
		</g>
		<g>
			
				<rect x="230.6" y="368.7" transform="matrix(0.9552 -0.2959 0.2959 0.9552 -130.6101 89.7929)" class="st1" width="1.5" height="215.4"/>
		</g>
		<g>
			<polygon class="st1" points="220.9,443.6 174.2,428.1 174.6,426.6 220.4,441.8 252.2,404.8 253.3,405.8 			"/>
		</g>
		<g>
			<polygon class="st1" points="239.4,502.9 181.8,487.7 182.1,486.2 238.8,501.1 267.7,461.2 269,462.1 			"/>
		</g>
		<g>
			
				<rect x="187" y="437.5" transform="matrix(0.9552 -0.2961 0.2961 0.9552 -121.0709 77.1003)" class="st1" width="14" height="1.5"/>
		</g>
		<g>
			
				<rect x="202.2" y="426.7" transform="matrix(0.8078 -0.5895 0.5895 0.8078 -216.1643 202.8371)" class="st1" width="1.5" height="12.3"/>
		</g>
		<g>
			
				<rect x="185.1" y="421" transform="matrix(0.8078 -0.5895 0.5895 0.8078 -216.0601 191.6591)" class="st1" width="1.5" height="12.3"/>
		</g>
		<g>
			
				<rect x="235.6" y="421.6" transform="matrix(0.9627 -0.2705 0.2705 0.9627 -105.1964 81.3689)" class="st1" width="14" height="1.5"/>
		</g>
		<g>
			
				<rect x="226.1" y="421.9" transform="matrix(5.509895e-02 -0.9985 0.9985 5.509895e-02 -202.6254 631.2623)" class="st1" width="12.3" height="1.5"/>
		</g>
		<g>
			
				<rect x="237.3" y="407.8" transform="matrix(5.509895e-02 -0.9985 0.9985 5.509895e-02 -177.9251 629.0967)" class="st1" width="12.3" height="1.5"/>
		</g>
		<g>
			
				<rect x="210.3" y="500" transform="matrix(0.9002 -0.4355 0.4355 0.9002 -196.4223 144.4639)" class="st1" width="13.3" height="1.5"/>
		</g>
		<g>
			
				<rect x="186.4" y="493.7" transform="matrix(0.9002 -0.4354 0.4354 0.9002 -196.0138 133.4113)" class="st1" width="13.3" height="1.5"/>
		</g>
		<g>
			
				<rect x="205.2" y="481.1" transform="matrix(0.8897 -0.4566 0.4566 0.8897 -200.138 147.8788)" class="st1" width="1.5" height="14"/>
		</g>
		<g>
			
				<rect x="249.9" y="483.2" transform="matrix(0.9663 -0.2576 0.2576 0.9663 -115.996 82.4246)" class="st1" width="13.3" height="1.5"/>
		</g>
		<g>
			
				<rect x="263.8" y="465.4" transform="matrix(0.9663 -0.2576 0.2576 0.9663 -110.9547 85.4131)" class="st1" width="13.3" height="1.5"/>
		</g>
		<g>
			
				<rect x="253.8" y="463.7" transform="matrix(0.9721 -0.2346 0.2346 0.9721 -103.3233 72.8587)" class="st1" width="1.5" height="14"/>
		</g>
		<g>
			
				<ellipse transform="matrix(0.2773 -0.9608 0.9608 0.2773 -364.1983 599.2763)" class="st0" cx="216.2" cy="541.7" rx="15.3" ry="33.1"/>
		</g>
		<g>
			<path class="st0" d="M303.2,492.6c-2.5,0-20.3,0.6-32.8,15.7c-12.5,15.1-9.8,32.7-9.3,35.2c2.5,0,20.3-0.6,32.8-15.7
				C306.4,512.7,303.7,495.1,303.2,492.6z"/>
		</g>
		<g>
			<polygon class="st1" points="254.8,554.2 197.1,539.1 197.5,537.6 254.1,552.5 283.1,512.6 284.3,513.5 			"/>
		</g>
		<g>
			
				<rect x="225.6" y="551.4" transform="matrix(0.9002 -0.4355 0.4355 0.9002 -217.2658 156.2682)" class="st1" width="13.3" height="1.5"/>
		</g>
		<g>
			
				<rect x="201.8" y="545" transform="matrix(0.9002 -0.4354 0.4354 0.9002 -216.8533 145.2113)" class="st1" width="13.3" height="1.5"/>
		</g>
		<g>
			
				<rect x="220.5" y="532.5" transform="matrix(0.8897 -0.4565 0.4565 0.8897 -221.8836 160.4836)" class="st1" width="1.5" height="14"/>
		</g>
		<g>
			
				<rect x="265.3" y="534.5" transform="matrix(0.9663 -0.2576 0.2576 0.9663 -128.7128 88.1075)" class="st1" width="13.3" height="1.5"/>
		</g>
		<g>
			
				<rect x="279.2" y="516.8" transform="matrix(0.9663 -0.2576 0.2576 0.9663 -123.675 91.0975)" class="st1" width="13.3" height="1.5"/>
		</g>
		<g>
			
				<rect x="269.1" y="515.1" transform="matrix(0.9721 -0.2346 0.2346 0.9721 -114.9588 77.8819)" class="st1" width="1.5" height="14"/>
		</g>
		<g>
			
				<rect x="200.1" y="381.9" transform="matrix(0.2769 -0.9609 0.9609 0.2769 -219.259 474.0222)" class="st1" width="10.4" height="1.5"/>
		</g>
		<g>
			
				<rect x="200.5" y="386.9" transform="matrix(0.6059 -0.7955 0.7955 0.6059 -234.9364 315.7269)" class="st1" width="1.5" height="16.2"/>
		</g>
	</g>
	<g>
		<path class="st0" d="M498.1,658.4c3.7-26.4-8.8-48.3-25.5-53c-10.7-3-20.9,1.8-25.5,4.4c-0.8-2.2-7.5-20.2-25.5-25.5
			c-9.2-2.8-17.3-1-20.7,0c-12.1,3.4-18.7,11.8-20.7,14.6c7.5-15.6,2.6-33.4-9.7-41.3c-9.1-5.8-21.3-5.7-31.6,0
			c-6.4-6.4-15.8-8.8-24.3-6.1c-12.3,3.9-15.6,16.3-15.8,17c-10.8-11.4-27.7-14.4-41.3-7.3c-12.7,6.6-20,20.7-18.2,35.2
			c-15.8-11.8-37.6-11.5-52.5,0.6c-15.9,12.9-20.2,36.1-9.8,54.4C284,653.7,391.1,656,498.1,658.4z"/>
	</g>
	<g>
		<path class="st2" d="M531.7,747.3H408.9c-3.5-6.9-1.7-15.3,4.1-20c5.7-4.6,14-4.7,20-0.2c-0.7-5.5,2.1-10.9,7-13.4
			c5.2-2.7,11.6-1.6,15.7,2.8c0.1-0.3,1.3-5,6-6.5c3.2-1,6.8-0.1,9.2,2.3c3.9-2.2,8.6-2.2,12,0c4.7,3,6.6,9.8,3.7,15.7
			c0.8-1,3.3-4.2,7.9-5.5c1.3-0.4,4.3-1,7.9,0c6.9,2,9.4,8.9,9.7,9.7c1.8-1,5.6-2.8,9.7-1.7C527.4,732.1,531.8,738.8,531.7,747.3z"
			/>
	</g>
	<g>
		<path class="st2" d="M477.8,747.3h-189c-1.5,0-2.8-0.9-2.8-2.1v-5.1c0-1.1,1.3-2.1,2.8-2.1h189c1.5,0,2.8,0.9,2.8,2.1v5.1
			C480.7,746.4,479.4,747.3,477.8,747.3z"/>
	</g>
</g>
<g id="girl">
	<g>
		<g>
			<g>
				<path class="st3" d="M437.7,497.5c0,0.8-0.2,1.6-0.4,2.3L394.6,646c-0.4,1.4-1,2.5-1.9,3.4c-0.1,0.1-0.3,0.3-0.4,0.4
					c-1,0.9-2.2,1.5-3.5,1.5c-4.2,0.2-7.6-5-6.7-10.5l24.9-164c0.9-6.2,6.5-8.9,10.3-5l11.6,11.7l3.6,3.6l2.5,2.5
					C436.9,491.7,437.9,494.6,437.7,497.5z"/>
			</g>
		</g>
		<g>
			<g>
				<path class="st4" d="M437.7,497.5c0,0.8-0.2,1.6-0.4,2.3L394.6,646c-0.4,1.4-1,2.5-1.9,3.4l36-160.6c0.4-1.7,0.5-3.5,0.2-5.2
					c0-0.4-0.1-0.8-0.2-1.1l3.8,4.8l2.7,3.5C436.6,492.4,437.5,494.9,437.7,497.5z"/>
			</g>
		</g>
	</g>
	<g>
		<path class="st5" d="M725.2,140.1c-6.6-2.6-9.4-9-12.3-15.3c-2.3-5.1-7.2-16-4.3-24.2c0.5-1.5,1.3-2.9,2.4-4.1
			c5.9-6.6,17.1-4.8,18.9-4.5c8.2,9,15.1,17,20.8,23.7c2.8,3.3,4.4,5.2,4.4,8c0,6.1-7.6,13.4-16.4,16.3
			C734.1,141.5,729.3,141.8,725.2,140.1z"/>
	</g>
	<g>
		<path class="st6" d="M725.2,140.1c-6.6-2.6-9.4-9-12.3-15.3c-2.3-5.1-7.2-16-4.3-24.2c6.4-4.4,12.9-5.5,12.3,8.1
			c-0.7,17.1,10.2,26.4,17.7,31.2C734.1,141.5,729.3,141.8,725.2,140.1z"/>
	</g>
	<g>
		<g>
			<path class="st7" d="M427.8,562.5l-1.5,14.4l-0.4,3.7l-0.8,7.9l-1.7,16.7l-0.5,4.3l-1.3,12.2l-1.4,13.4l-0.4,4.2l-1.5,14.5v0
				l-0.6,5.2c-0.2,0.8-0.5,1.5-0.9,2.1c-0.2,0.4-0.5,0.8-0.8,1.2c0,0,0,0,0,0c-0.3,0.4-0.6,0.7-1,1c-0.2,0.2-0.3,0.3-0.5,0.4
				c-0.1,0.1-0.3,0.2-0.4,0.3c-0.1,0.1-0.2,0.2-0.3,0.2c-0.2,0.1-0.3,0.2-0.5,0.3c0,0,0,0-0.1,0c-0.2,0.1-0.3,0.2-0.5,0.2
				c-0.3,0.1-0.5,0.2-0.8,0.3c-0.1,0.1-0.3,0.1-0.4,0.1c-0.3,0.1-0.6,0.1-0.8,0.2c-0.2,0-0.4,0-0.6,0c-0.3,0-0.7,0-1-0.1
				c-0.2,0-0.3-0.1-0.5-0.1c-0.4-0.1-0.7-0.3-1-0.5c-0.7-0.4-1.4-1-2-1.8c-0.1-0.2-0.2-0.3-0.4-0.5c-0.4-0.6-0.7-1.3-1-2.1
				c0,0,0,0,0,0c-0.3-1.1-0.5-2.3-0.4-3.5c0,0,0,0,0-0.1c0-0.1,0-0.3,0-0.4c0-0.2,0-0.4,0.1-0.6c0-0.1,0-0.1,0-0.1
				c0-0.2,0.1-0.5,0.2-0.7c0-0.1,0.1-0.2,0.1-0.3c0.1-0.3,0.2-0.6,0.3-0.8c-1-7.3-2.1-14.7-3.1-22v0c-0.5-3.3-1-6.7-1.4-10
				c-0.5-3.4-1-6.8-1.5-10.2c-0.3-2.5-0.7-5-1.1-7.5c-0.9-6.2-1.8-12.5-2.7-18.7c-0.2-1.4-0.4-2.7-0.6-4.1c-0.1-0.8-0.2-1.6-0.3-2.5
				c-0.3-1.8-0.5-3.7-0.8-5.5L427.8,562.5z"/>
		</g>
		<g>
			<path class="st8" d="M401.5,632.9c1,7,2,14,3,21c-2.2,5.5,0.9,10.9,4.5,11.6c3.1,0.7,7.3-1.9,8.6-6.5l2.1-19.6l0.4-4.2l-18.8-3.3
				C401.4,632.2,401.4,632.5,401.5,632.9z"/>
		</g>
		<g>
			<path class="st9" d="M354.9,685.3h77.8l-14.5-31.5l-0.8,0c-0.6,6.1-3.7,10.5-7.4,11.1c-0.4,0.1-3,0.5-4.6-1.1
				c-2.3-2.3-0.4-6.7-2.7-8.6c-0.8-0.6-1.8-0.7-2.4-0.7c-3.6,2-7.1,3.7-10.4,5.2c-0.7,0.3-1.3,0.6-2,0.9c-1.5,0.6-2.9,1.2-4.2,1.8
				c-0.4,0.2-0.8,0.3-1.2,0.5c-1.6,0.7-3.1,1.3-4.5,1.8c-0.7,0.3-1.5,0.6-2.1,1c-0.5,0.2-1,0.4-1.4,0.6
				c-11.1,5.2-21.6,10.5-22.2,11.8C351,681,354.9,685.3,354.9,685.3z"/>
		</g>
		<g>
			<path class="st10" d="M432.7,679.5c-27.2,0.5-54.5,1-81.8,1.4c-0.1,0.1-1.4,1.1-1.4,2.9c0,0.2,0,1.8,1.4,2.9
				c27.2,0,54.5,0,81.8,0c0.2-0.2,1.7-1.9,1.4-4.3C433.8,680.9,433,679.9,432.7,679.5z"/>
		</g>
		<g>
			<path class="st8" d="M388,660.6C388,660.6,388,660.6,388,660.6c1,1.8,1.8,3.5,2.9,5.1c1.1,1.6,2.2,3.2,3.4,4.7
				c0.5,0.6,1.4,0.7,2,0.2c0.6-0.5,0.7-1.4,0.2-2c0,0,0,0-0.1-0.1c-1.3-1.3-2.4-2.8-3.5-4.3c-1.1-1.5-2-3.1-3-4.6
				C389.3,660,388.6,660.3,388,660.6z"/>
		</g>
		<g>
			<path class="st8" d="M382.5,662.9c0.4,1.3,0.8,2.7,1.3,3.9c0.7,1.8,1.5,3.6,2.4,5.3c0.4,0.7,1.2,1,1.9,0.6c0.7-0.4,1-1.2,0.6-1.9
				c0-0.1-0.1-0.1-0.1-0.2c-1.1-1.5-2.1-3-3-4.7c-0.7-1.2-1.3-2.4-1.8-3.6C383.3,662.5,383,662.7,382.5,662.9z"/>
		</g>
		<g>
			<path class="st11" d="M401.3,631.8c0,0.3,0.1,0.7,0.2,1l18.2,6.5l0.4-4.2L401.3,631.8z"/>
		</g>
		<g>
			<path class="st8" d="M375.9,665.7c0.2,0.4,0.3,0.8,0.5,1.2c0.8,1.8,1.6,3.5,2.6,5.2c0.4,0.7,1.3,0.9,2,0.5c0.7-0.4,0.9-1.3,0.5-2
				c0,0,0-0.1-0.1-0.1c-1-1.5-2-3.1-2.8-4.8c-0.2-0.4-0.4-0.8-0.6-1.1C377.3,665.1,376.6,665.4,375.9,665.7z"/>
		</g>
		<g>
			<path class="st12" d="M426.3,577l-0.4,3.7l-0.8,7.9l-1.7,16.7l-0.5,4.3c-8.3,0.6-17.5,1.3-24.4,2c-0.3-2.5-0.7-5-1.1-7.5
				c-0.9-6.2-1.8-12.5-2.7-18.7c-0.2-1.4-0.4-2.7-0.6-4.1c-0.1-0.8-0.2-1.6-0.3-2.5L426.3,577z"/>
		</g>
	</g>
	<g>
		<g>
			<path class="st7" d="M473.4,640.4L467,651l-1.1,1.8l-6.1,10L451,677l-2.3,3.7l-4.3,7l-9.2,14.9l-2,3.3l-0.2,0.3l-5.9,9.5l-2.5,4
				l-2,3.2c-0.2,0.3-0.5,0.5-0.8,0.8c0,0-0.1,0-0.1,0.1c-0.2,0.2-0.5,0.4-0.8,0.6c0,0,0,0-0.1,0.1c-0.2,0.2-0.5,0.3-0.7,0.5
				c-0.1,0-0.2,0.1-0.2,0.1c-0.2,0.1-0.4,0.2-0.7,0.3c-0.3,0.1-0.6,0.3-0.9,0.4c-0.2,0.1-0.4,0.1-0.5,0.2c0,0,0,0-0.1,0
				c-0.6,0.1-1.1,0.2-1.7,0.3c-0.9,0.1-1.7,0-2.5-0.3c-0.6-0.2-1.2-0.5-1.6-0.8c-0.4-0.3-0.7-0.6-1-1c-0.1-0.2-0.3-0.4-0.4-0.6
				c-0.1-0.2-0.2-0.4-0.3-0.7c-0.1-0.2-0.2-0.5-0.3-0.7c-0.3-1.1-0.5-2.4-0.2-3.8c0-0.2,0.1-0.3,0.1-0.5c0.1-0.3,0.1-0.6,0.2-0.9
				c0-0.2,0.1-0.3,0.2-0.5c0.1-0.2,0.2-0.5,0.3-0.7c0.1-0.3,0.3-0.6,0.5-0.8c0.1-0.2,0.3-0.4,0.4-0.7c0.1-0.1,0.1-0.2,0.2-0.2
				c0.2-0.2,0.3-0.4,0.5-0.6c0,0,0,0,0.1-0.1c0.2-0.3,0.5-0.5,0.7-0.7c2.2-6.9,4.3-13.8,6.5-20.7c0-0.2,0.1-0.3,0.2-0.5
				c0.9-2.9,1.8-5.7,2.7-8.6c1.1-3.6,2.3-7.2,3.4-10.9c0.8-2.4,1.5-4.8,2.3-7.3c1.1-3.4,2.1-6.8,3.2-10.2c1.2-3.9,2.5-7.8,3.7-11.7
				c0.3-0.8,0.5-1.6,0.8-2.4c0.5-1.8,1.1-3.5,1.7-5.3L473.4,640.4z"/>
		</g>
		<g>
			<path class="st8" d="M419.4,692.5c-2.1,6.7-4.2,13.5-6.4,20.2c-4.4,4-3.9,10.2-0.9,12.4c2.5,1.9,7.4,1.4,10.6-2.1l10.3-16.8
				l2.2-3.6l-15.5-11.1C419.6,691.8,419.5,692.2,419.4,692.5z"/>
		</g>
		<g>
			<path class="st9" d="M363.4,746.2h77.8l-14.5-31.5l-0.8,0c-0.6,6.1-3.7,10.5-7.4,11.1c-0.4,0.1-3,0.5-4.6-1.1
				c-2.3-2.3-0.4-6.7-2.7-8.6c-0.8-0.6-1.8-0.7-2.4-0.7c-3.6,2-7.1,3.7-10.4,5.2c-0.7,0.3-1.3,0.6-2,0.9c-1.5,0.6-2.9,1.2-4.2,1.8
				c-0.4,0.2-0.8,0.3-1.2,0.5c-1.6,0.7-3.1,1.3-4.5,1.8c-0.7,0.3-1.5,0.6-2.1,1c-0.5,0.2-1,0.4-1.4,0.6
				c-11.1,5.2-21.6,10.5-22.2,11.8C359.5,741.9,363.4,746.2,363.4,746.2z"/>
		</g>
		<g>
			<path class="st10" d="M441.2,740.5c-27.2,0.5-54.5,1-81.8,1.4c-0.1,0.1-1.4,1.1-1.4,2.9c0,0.2,0,1.8,1.4,2.9
				c27.2,0,54.5,0,81.8,0c0.2-0.2,1.7-1.9,1.4-4.3C442.4,741.9,441.5,740.9,441.2,740.5z"/>
		</g>
		<g>
			<path class="st8" d="M396.5,721.6C396.5,721.6,396.5,721.6,396.5,721.6c1,1.8,1.8,3.5,2.9,5.1c1.1,1.6,2.2,3.2,3.4,4.7
				c0.5,0.6,1.4,0.7,2,0.2s0.7-1.4,0.2-2c0,0,0,0-0.1-0.1c-1.3-1.3-2.4-2.8-3.5-4.3c-1.1-1.5-2-3.1-3-4.6
				C397.8,721,397.1,721.3,396.5,721.6z"/>
		</g>
		<g>
			<path class="st8" d="M391.1,723.9c0.4,1.3,0.8,2.7,1.3,3.9c0.7,1.8,1.5,3.6,2.4,5.3c0.4,0.7,1.2,1,1.9,0.6c0.7-0.4,1-1.2,0.6-1.9
				c0-0.1-0.1-0.1-0.1-0.2c-1.1-1.5-2.1-3-3-4.7c-0.7-1.2-1.3-2.4-1.8-3.6C391.9,723.5,391.5,723.7,391.1,723.9z"/>
		</g>
		<g>
			<path class="st13" d="M419.7,691.5c-0.1,0.3-0.2,0.7-0.3,1l13.6,13.7l2.2-3.6L419.7,691.5z"/>
		</g>
		<g>
			<path class="st8" d="M384.4,726.7c0.2,0.4,0.3,0.8,0.5,1.2c0.8,1.8,1.6,3.5,2.6,5.2c0.4,0.7,1.3,0.9,2,0.5c0.7-0.4,0.9-1.3,0.5-2
				c0,0,0-0.1-0.1-0.1c-1-1.5-2-3.1-2.8-4.8c-0.2-0.4-0.4-0.8-0.6-1.1C385.8,726,385.1,726.3,384.4,726.7z"/>
		</g>
		<g>
			<path class="st12" d="M465.8,652.8l-6.1,10L451,677l-2.3,3.7c-7.8-3-16.4-6.4-22.9-8.7c0.8-2.4,1.5-4.8,2.3-7.3
				c1.1-3.4,2.1-6.8,3.2-10.2c1.2-3.9,2.5-7.8,3.7-11.7c0.3-0.8,0.5-1.6,0.8-2.4l26.7,11L465.8,652.8z"/>
		</g>
	</g>
	<g>
		<g>
			<g>
				<path class="st3" d="M764.2,482.7c-0.1,0.8-0.1,1.7,0,2.5l16.3,161.9c0.2,1.5,0.6,2.9,1.2,3.9c0.1,0.2,0.2,0.3,0.3,0.5
					c0.8,1.2,1.9,1.9,3.2,2.2c4.2,0.8,8.4-4.1,8.5-10.1l4.3-178c0.2-6.7-4.8-10.4-9.3-6.9l-13.5,10.6l-4.2,3.3l-2.9,2.3
					C766,476.6,764.5,479.6,764.2,482.7z"/>
			</g>
		</g>
		<g>
			<g>
				<path class="st4" d="M764.2,482.7c-0.1,0.8-0.1,1.7,0,2.5l16.3,161.9c0.2,1.5,0.6,2.9,1.2,3.9l-7.2-176.2
					c-0.1-1.9,0.2-3.8,0.7-5.6c0.1-0.4,0.2-0.8,0.4-1.2l-4.6,4.5l-3.3,3.2C766.1,477.5,764.9,480,764.2,482.7z"/>
			</g>
		</g>
	</g>
	<g>
		<g>
			<g>
				<path class="st3" d="M609.6,485.5c-0.1,0.8-0.1,1.7,0,2.5L625.9,650c0.2,1.5,0.6,2.9,1.2,3.9c0.1,0.2,0.2,0.3,0.3,0.5
					c0.8,1.2,1.9,1.9,3.2,2.2c4.2,0.8,8.4-4.1,8.5-10.1l4.3-178c0.2-6.7-4.8-10.4-9.3-6.9l-13.5,10.6l-4.2,3.3l-2.9,2.3
					C611.4,479.4,609.9,482.4,609.6,485.5z"/>
			</g>
		</g>
		<g>
			<g>
				<path class="st4" d="M609.6,485.5c-0.1,0.8-0.1,1.7,0,2.5L625.9,650c0.2,1.5,0.6,2.9,1.2,3.9l-7.2-176.2
					c-0.1-1.9,0.2-3.8,0.7-5.6c0.1-0.4,0.2-0.8,0.4-1.2l-4.6,4.5l-3.3,3.2C611.5,480.3,610.3,482.8,609.6,485.5z"/>
			</g>
		</g>
	</g>
	<g>
		<g>
			<path class="st14" d="M862,300.6c-9.6,17.5-48.6,105.6-70.4,131.8c-21.9,26.3-184.3,111.3-229.8,105.7
				c-36.2-4.4-118.5-28.1-159.8-64.9c-0.4-0.3-0.7-0.7-1.1-1c-11.6-10.7-17.2-21.9-21.1-30c-22.2-45-6.9-89.5-3.6-98.4
				c2.5-6.7,3.8-10.2,6.9-13.7c3.3-3.8,7.2-6.5,11.8-8.4c16.1-6.6,39.3-2.6,64-0.4c25.8,2.3,130.2,12.7,127.6-16.9
				c-2.2-25-8.5-51.2-30.1-89.4s-38.6-75.4,0.6-84.3s33.2,16.9,108.5,25.9c75.3,9,132.1,7.8,147.1,3.4c15-4.4,50.7-4.7,53.2,9.4
				C868.4,183.4,871.6,283.1,862,300.6z"/>
		</g>
	</g>
	<g>
		<g>
			<path class="st15" d="M386.5,445.4c0,0,103,81.3,213.1,58.4l-30.4-53L399.4,425L386.5,445.4z"/>
		</g>
	</g>
	<g>
		<g>
			<path class="st10" d="M621,295.5c16.2-1.3,32-1,47.8-0.3c15.7,0.8,31.3,1.9,46.9,3.5c15.5,1.6,31,3.4,46.4,5.4
				c15.5,2,30.8,4.3,46.9,5.8c-3.7,1.5-7.6,3-11.5,4.1c-3.9,1-7.9,1.9-11.9,2.7c-4,0.6-8,1.2-12,1.7c-4,0.5-8,0.7-12,1
				c-16,0.8-32,0.3-47.9-1.4c-15.8-1.6-31.5-4.2-47-7.8C651.2,306.6,635.9,302.2,621,295.5z"/>
		</g>
	</g>
	<g>
		<path class="st16" d="M614,186.3c-7.6,31.2-15.1,62.4-22.7,93.6c-20.8,14.2-41.6,28.4-62.4,42.6c10.4,4.3,20.8,8.5,31.2,12.8
			c21.7-9.5,43.5-18.9,65.2-28.4c6.6-38.8,13.2-77.5,19.9-116.3C634.8,189.2,624.4,187.8,614,186.3z"/>
	</g>
	<g>
		<path class="st17" d="M653.7,211.9l-25.5,76.6c-12.7-4.2-25.5-8.3-38.2-12.5c-10.4-3.4-20.9-6.8-31.3-10.2
			c20.5-31.3,41-62.6,61.5-93.9l15.9-13.5c3.8,11.7,7.7,23.3,11.5,34.9C649.6,199.5,651.7,205.7,653.7,211.9z"/>
	</g>
	<g>
		<path class="st18" d="M653.7,211.9l-25.5,76.6c-12.7-4.2-25.5-8.3-38.2-12.5l48.1-89.6l9.5,6.9
			C649.6,199.5,651.7,205.7,653.7,211.9z"/>
	</g>
	<g>
		<g>
			<path class="st14" d="M406.4,449.8c-1.7-7.9-3.4-22.4,4.6-34.2c10.5-15.4,31.6-17.5,42.5-18.1c70.8-3.7,133.3,0.1,151.2-1.3
				c123.4-9.8,157.2,3.8,160.6,17.8c5.7,23.1-83.2,74.8-170.5,84.4c-40.6,4.5-70.9,0-82-2.1C462.2,486.8,425.9,464.1,406.4,449.8z"
				/>
		</g>
	</g>
	<g>
		<g>
			<path class="st15" d="M400.9,472.2c-11.6-10.7-17.2-21.9-21.1-30c-22.2-45-6.9-89.5-3.6-98.4c2.5-6.7,3.8-10.2,6.9-13.7
				c3.3-3.8,7.2-6.5,11.8-8.4c0.6,1.1,1.1,2.2,1.7,3.5C408.2,353.3,411.6,435.1,400.9,472.2z"/>
		</g>
	</g>
	<g>
		<path class="st16" d="M467,651l-1.1,1.8l-6.1,10L451,677l-2.3,3.7l-4.3,7l-22-4.8c1.1-3.6,2.3-7.2,3.4-10.9
			c0.8-2.4,1.5-4.8,2.3-7.3c1.1-3.4,2.1-6.8,3.2-10.2l31.1-3.1L467,651z"/>
	</g>
	<g>
		<path class="st16" d="M425.9,580.7l-0.8,7.9l-1.7,16.7l-0.5,4.3l-1.3,12.2h-21.6c-0.5-3.4-1-6.8-1.5-10.2c-0.3-2.5-0.7-5-1.1-7.5
			c-0.9-6.2-1.8-12.5-2.7-18.7L425.9,580.7z"/>
	</g>
	<g>
		<g>
			<path class="st15" d="M543.5,147.1c0,0-5.2,12.5,7.9,39.8s33.2,92.8,38.3,84.8C594.9,263.8,569.6,100.2,543.5,147.1z"/>
		</g>
	</g>
	<g>
		<path class="st19" d="M637.1,403c-1.2,10.5-5.1,21.1-11.6,30.6c-5.2,0.9-10.3,1.7-15.5,2.6c-39.1,6.5-78.3,12.9-117.4,19.3
			c-0.1,0.2-0.2,0.4-0.2,0.6c-19.7,51.9-39.5,103.9-59.2,155.8c-15.6-0.5-31.3-1-46.9-1.6c11.2-72.6,22.4-145.3,33.6-217.9
			c1.4-9.1,8.4-16.3,17.4-18.1c53.9-10.5,107.8-21,161.7-31.5c5.5,1.9,21.6,8.3,31.3,25c2.8,4.8,4.8,10,6,15.4
			C637.5,389.7,637.8,396.4,637.1,403z"/>
	</g>
	<g>
		<path class="st20" d="M769.1,425l-4.4,25.9L616.5,481l-20.8,4.2c-46.4,65.8-92.8,131.7-139.2,197.5c-5.8-1.6-11.6-3.2-17.4-4.8
			c-7.9-2.2-15.8-4.4-23.8-6.6c30.7-76.9,61.5-153.9,92.2-230.8c2.4-6.2,7-11.2,13-14.1l101.2-48.5l50.6-24.2l90.3,20.2L769.1,425z"
			/>
	</g>
	<g>
		<path class="st17" d="M778.7,193.1l-18.6,82.6c0,17.5-0.1,35-0.1,52.5c-32.9-0.9-65.7-1.8-98.6-2.7l-45.4-6l1.5-52.9l2.7-94.8
			l9.5-8.1c4.2-3.5,9.1-6.1,14.4-7.5c9.4-2.6,18.9-5.2,28.3-7.9c0.4-0.1,0.8-0.2,1.1-0.3h38.3c2.9,0.3,5.8,0.6,8.7,0.9
			c3.7,0.4,7.3,0.8,11,1.2c6.7,0.7,13.3,1.4,20,2.1c6.9,10.4,13.8,20.8,20.8,31.2C774.5,186.7,776.6,189.9,778.7,193.1z"/>
	</g>
	<g>
		<path class="st18" d="M778.7,193.1l-18.6,82.6c0,17.5-0.1,35-0.1,52.5c-43.5-22.2-87-44.4-130.5-66.7c-1-13.2-1.9-26.5-2.8-39.7
			c37.8,8.5,75.6,17,113.5,25.5l11.6-63.8h20.5C774.5,186.7,776.6,189.9,778.7,193.1z"/>
	</g>
	<g>
		<path class="st20" d="M769.1,425l-106.7-28l-40.6-18.9c-12.5-11-25.1-21.9-37.6-32.9c12.3-12.7,24.5-25.3,36.8-38l132.8-3.1
			l8.8,69.9L769.1,425z"/>
	</g>
	<g>
		<path class="st5" d="M703.4,121.1c-20.6-34-36.9-58-40.8-59.5c-1.4-0.6-2.9-0.9-2.9-0.9c-2.4-0.5-5-0.6-8,0
			c0.5-2.5,2.3-11.4,8.5-19.2c0.4-0.5,0.8-1,1.2-1.5c2.2-2.4,4.8-4.7,8-6.6c3-1.7,6.1-2.9,9.2-3.6c2.7-0.6,23-2,39,11.6
			c13.6,11.5,25,34.8,15.5,55.6C725.1,114.5,706.8,120.1,703.4,121.1z"/>
	</g>
	<g>
		<path class="st21" d="M717.6,153.9c-2.2,2.1-8.8,8-19.3,9.6c-10.3,1.6-18.1-1.8-20.9-3.2V99.3l33.7-4.8
			c1.4,13.3,2.9,26.6,4.3,39.9C716.2,140.9,716.9,147.4,717.6,153.9z"/>
	</g>
	<g>
		<path class="st22" d="M715.5,134.4l-38.1,9.8V99.3l33.7-4.8C712.6,107.7,714,121.1,715.5,134.4z"/>
	</g>
	<g>
		
			<rect x="639.8" y="86.7" transform="matrix(0.9613 -0.2755 0.2755 0.9613 1.1594 183.0172)" class="st23" width="24.4" height="1.4"/>
	</g>
	<g>
		<path class="st24" d="M709.6,97.7c-0.1,2.9-0.5,5.6-0.9,7.7c-0.2,1.5-0.5,2.7-0.7,3.5c-0.3,1.3-2,8.1-4.8,12.9
			c-6.5,10.9-24,18.7-35.3,12.9c-4.2-2.2-6.2-5.5-9.6-11.2c0,0-6.5-10.8-7.6-26c-0.1-1.4-0.2-3.1-0.2-3.1c-0.1-2.4-0.2-5.1-0.2-7.9
			c-0.1-7.2,0.2-17.1,1.6-28.9c3.2-1.9,12.4-6.5,24.1-4.8c16.9,2.5,25.5,16.4,27.3,19.3C709.7,82.5,709.8,93.1,709.6,97.7z"/>
	</g>
	<g>
		<path class="st25" d="M683.5,86.3c0.7,1.3,0.2,2.8-1,3.5c-1.3,0.7-2.8,0.2-3.5-1s-0.2-2.8,1-3.5C681.3,84.6,682.9,85,683.5,86.3z"
			/>
	</g>
	<g>
		<path class="st25" d="M657.8,86.3c0.7,1.3,0.2,2.8-1,3.5c-1.3,0.7-2.8,0.2-3.5-1c-0.7-1.3-0.2-2.8,1-3.5
			C655.6,84.6,657.1,85,657.8,86.3z"/>
	</g>
	<g>
		<path class="st22" d="M666.9,108.9c-2.6-0.3-6-1.1-7.1-3.7c-0.9-2,0.1-4.1,1.3-6.4l0.3-0.7c1.9-3.9,3.5-8.2,4.8-12.7l1.5,0.4
			c-1.3,4.6-2.9,9-4.9,13l-0.3,0.7c-1,2.1-1.8,3.7-1.2,5c0.8,1.9,4,2.5,5.8,2.7L666.9,108.9z"/>
	</g>
	<g>
		<path class="st26" d="M688,78c0,0-0.1,0-0.1,0l-14.7-1.6c-0.7-0.1-1.1-0.7-1.1-1.3c0.1-0.7,0.7-1.1,1.3-1.1l14.7,1.6
			c0.7,0.1,1.1,0.7,1.1,1.3C689.1,77.5,688.6,78,688,78z"/>
	</g>
	<g>
		<path class="st26" d="M647.5,75.9c-0.6,0-1.2-0.5-1.2-1.1c0-0.7,0.5-1.2,1.1-1.3l14.8-0.7c0.6,0,1.2,0.5,1.3,1.1s-0.5,1.2-1.1,1.3
			L647.5,75.9C647.6,75.9,647.5,75.9,647.5,75.9z"/>
	</g>
	<g>
		<path class="st22" d="M667.4,117.7c-2.6,0-4-0.9-4.1-0.9l0.9-1.3c0,0,4.6,2.8,13.6-3.2l0.9,1.3C673.7,116.9,670,117.7,667.4,117.7
			z"/>
	</g>
	<g>
		<path class="st21" d="M676.7,97.4h13.3c0.6,0,1.1-0.5,1.1-1.1v-0.9c0-0.6-0.5-1.1-1.1-1.1h-13.3c-0.6,0-1.1,0.5-1.1,1.1v0.9
			C675.6,96.9,676.1,97.4,676.7,97.4z"/>
	</g>
	<g>
		<path class="st21" d="M658.9,95.4v0.9c0,0.6-0.5,1.1-1.1,1.1h-7.2c-0.1-1-0.1-2-0.2-3.1h7.4C658.4,94.3,658.9,94.8,658.9,95.4z"/>
	</g>
	<g>
		<path class="st27" d="M769.2,234.7c-53.7-15-122.9-12.4-150.2-10.5l-0.4-5.7c27.6-1.9,97.6-4.5,152.1,10.7L769.2,234.7z"/>
	</g>
	<g>
		<path class="st28" d="M667,52.3c18.4,24.9,33.3,28.6,39.4,29.3c1.7,0.2,10.1,1.2,11.2-1.6c0.9-2.1-3-4.7-7.1-9.8
			c-8-10-6-16.4-10.6-20.8C695.9,45.7,687.1,43.9,667,52.3z"/>
	</g>
	<g>
		<path class="st28" d="M671,47.9c0,0-0.8,1.5-2.1,3.7c-0.3,0.6-0.7,1.2-1.1,1.9c-1.4,2.4-3.2,5.3-5.2,8.2
			c-4.4,6.4-9.4,12.6-12.5,12.4c-6.4-0.5-9.6-21.3,4.8-31c0.9-0.6,1.7-1.1,2.5-1.5c1.5-0.8,2.8-1.3,4-1.6c3.5-0.8,5.8,0.4,7.2,2.1
			C670.6,44.5,671,47.9,671,47.9z"/>
	</g>
	<g>
		<path class="st23" d="M679.8,104.7c-7,0-12.7-5.7-12.7-12.7c0-7,5.7-12.7,12.7-12.7s12.7,5.7,12.7,12.7
			C692.5,99,686.8,104.7,679.8,104.7z M679.8,82.2c-5.4,0-9.8,4.4-9.8,9.8c0,5.4,4.4,9.8,9.8,9.8c5.4,0,9.8-4.4,9.8-9.8
			C689.7,86.6,685.3,82.2,679.8,82.2z"/>
	</g>
	<g>
		<path class="st23" d="M650.9,104.7c-7,0-12.7-5.7-12.7-12.7c0-7,5.7-12.7,12.7-12.7c7,0,12.7,5.7,12.7,12.7
			C663.6,99,657.9,104.7,650.9,104.7z M650.9,82.2c-5.4,0-9.8,4.4-9.8,9.8c0,5.4,4.4,9.8,9.8,9.8c5.4,0,9.8-4.4,9.8-9.8
			C660.7,86.6,656.3,82.2,650.9,82.2z"/>
	</g>
	<g>
		<path class="st23" d="M668.1,92.5c-1.5-1.5-2.8-2.1-3.7-1.9c-1.1,0.3-1.6,1.6-1.6,1.6l-1.3-0.5c0-0.1,0.7-2.1,2.6-2.5
			c1.5-0.3,3.2,0.4,5,2.3L668.1,92.5z"/>
	</g>
	<g>
		<path class="st29" d="M708.7,105.4c-0.2,1.5-0.5,2.7-0.7,3.5c-0.3,1.3-2,8.1-4.8,12.9c-6.5,10.9-24,18.7-35.3,12.9
			c38.6-4.8,40.2-30.5,40.2-30.5C708.2,104.5,708.4,105,708.7,105.4z"/>
	</g>
	<g>
		
			<rect x="689.7" y="83.5" transform="matrix(0.9613 -0.2755 0.2755 0.9613 3.9747 196.6172)" class="st23" width="24.4" height="1.4"/>
	</g>
	<g>
		<path class="st24" d="M701.7,88.6c0,0,5.3-7.8,11.3-7.3c0.5,0,2.3,0.3,4.1,1.5c4,2.9,5.2,9,3.5,13.6c-0.3,0.7-1.9,4.7-6.3,6.6
			c-0.7,0.3-3.6,1.5-6.3,0.7C703.8,102.5,700.7,96.3,701.7,88.6z"/>
	</g>
	<g>
		<path class="st22" d="M713.3,99.9l-0.5-1.5c1.8-0.5,3.3-1.9,4-3.6c0.6-1.3,0.9-3.5-0.6-6.3c-0.5-1-1.3-1.6-2.3-1.9
			c-2.9-0.7-6.8,2.1-6.8,2.1l-0.9-1.3c0.2-0.1,4.5-3.2,8.1-2.4c1.4,0.3,2.6,1.2,3.3,2.7c1.4,2.6,1.6,5.3,0.6,7.7
			C717.4,97.6,715.6,99.2,713.3,99.9z"/>
	</g>
	<g>
		<path class="st17" d="M724.6,155.1c-29.8,17-56.7,5.7-56.7,5.7l4.5-12.5l1.1-3.1h44.6l0.8,1.2l1.7,2.6l1.3,2L724.6,155.1z"/>
	</g>
	<g>
		<path class="st24" d="M806.9,285.6c-1,10.9-1.9,21.7-2.8,32.6c-1.1,3.5-2.9,5.7-4.3,7.1c-6.3,6.3-17.4,7.2-28.4,2.8
			c-10.6-6.2-21.1-12.4-31.7-18.6c-28.2-16.5-56.4-33-84.6-49.5l8.5-24.1c23.4,10.1,46.9,20.1,70.4,30.2c0,0,0,0,0,0
			c9.6,4.1,19.3,8.3,28.9,12.4c-0.5-5-1.1-10-1.6-14.9c-2.8-25.3-5.5-50.6-8.3-75.8l44-4.3l7.6,78.5L806.9,285.6z"/>
	</g>
	<g>
		<path class="st16" d="M806.9,285.6c-1,10.9-1.9,21.7-2.8,32.6c-1.1,3.5-2.9,5.7-4.3,7.1c-6.3,6.3-17.4,7.2-28.4,2.8
			c-10.6-6.2-21.1-12.4-31.7-18.6c39.9,9.3,40.1,0.4,38.8-8.4c-1.2-8.5-35-29.4-44.5-35.1c9.6,4.1,19.3,8.3,28.9,12.4
			c-0.5-5-1.1-10-1.6-14.9l43.3-1.6L806.9,285.6z"/>
	</g>
	<g>
		<path class="st17" d="M751.9,152.1l18.2,8c21.1,9.2,35.8,28.9,38.7,51.7l10.9,83.8l-68.1-22.7L751.9,152.1z"/>
	</g>
	<g>
		<path class="st18" d="M731.6,150.2l-9.6,0.8l-44.5,3.9l33.4-6.8l8-1.6l1.7,2.6C724.3,149.4,727.9,149.8,731.6,150.2z"/>
	</g>
	<g>
		<g>
			<path class="st7" d="M623.5,235.1c0.5-0.2,1-0.4,1.5-0.6c-5.7,5.7-11.4,11.4-17,17c-0.8,5.7-1.6,11.4-2.4,17
				c1.6-0.8,3.2-1.6,4.9-2.4c1.6-4.1,3.2-8.1,4.9-12.2c5.5-3.1,10.9-6.2,16.4-9.4c0.2-0.1,0.5-0.3,0.7-0.4
				c-4.1,4.1-8.1,8.1-12.2,12.2c-0.8,4.1-1.6,8.1-2.4,12.2h2.4c1.6-2.4,3.2-4.9,4.9-7.3c4.5-3.8,9-7.5,13.5-11.3l0.1-0.1
				c0.3-0.3,0.6-0.5,1-0.8l-9.7,12.2l-3.5,9.7l2.8,0.1l0.7,0l7.3-9.7l9.7-2.4l14.6,9.7c1.1-0.6,2.2-1.1,3.4-1.7
				c1.9-1,3.9-1.9,5.8-2.9c0,0,0.1,0,0.1-0.1c0,0,0,0,0,0l10.2-5.1c-1.6-6.5-3.2-13-4.9-19.5c-0.1,0-0.3-0.1-0.4-0.1
				c-16.1-5.6-32.2-11.3-48.4-16.9c-11.4,6.4-22.8,12.8-34.2,19.3l0,0c-1.6,0.9-3.1,1.8-4.7,2.7c1.6,0.8,3.2,1.6,4.9,2.4
				C603.4,242.8,613.4,239,623.5,235.1z"/>
		</g>
		<g>
			<path class="st16" d="M629.2,271l0.7,0l7.3-9.7l9.7-2.4l14.6,9.7c3.1-1.6,6.2-3.1,9.3-4.7l-10.8-0.7l-11.7-7.8l-13.6,5.8
				L629.2,271z"/>
		</g>
		<g>
			<path class="st16" d="M618.4,268.6h1.7c1.6-2.4,3.2-4.9,4.9-7.3c4.5-3.8,9-7.5,13.5-11.3l0.1-0.1l-15.6,9.4L618.4,268.6z"/>
		</g>
		<g>
			<path class="st16" d="M610.4,266.2c1.6-4.1,3.2-8.1,4.9-12.2c5.5-3.1,10.9-6.2,16.4-9.4l1.2-0.9l-17.5,7.8L610.4,266.2z"/>
		</g>
		<g>
			<path class="st16" d="M588.5,244.2c1.6,0.8,3.2,1.6,4.9,2.4c10.1-3.9,20.1-7.7,30.2-11.6l1.5-1.1l-31.8,7.6l0,0
				C591.6,242.5,590,243.4,588.5,244.2z"/>
		</g>
		<g>
			<path class="st16" d="M664,265.2l0.9,1.7c1.9-1,3.9-1.9,5.8-2.9c0,0,0.1,0,0.1,0.1l0-0.1l2.9-8.5l-6.9,6.9L664,265.2z"/>
		</g>
	</g>
	<g>
		<g>
			<g>
				<g>
					<path class="st30" d="M426.5,210.1l42.7,98.2c0.2,0.5,0.6,0.8,1,0.8h153.7c0.9,0,1.5-1.3,1-2.2l-47.7-98.2
						c-0.2-0.4-0.6-0.7-1-0.7H427.6C426.7,208,426.1,209.2,426.5,210.1z"/>
				</g>
			</g>
		</g>
		<g>
			<g>
				<g>
					<polygon class="st31" points="698.9,309.1 695.2,298.7 679.9,298.7 677.8,309.6 					"/>
				</g>
			</g>
		</g>
		<g>
			<g>
				<g>
					<polygon class="st31" points="680.2,309.2 676.5,298.8 661.2,298.8 659.1,309.7 					"/>
				</g>
			</g>
		</g>
		<g>
			<g>
				<g>
					<polygon class="st31" points="660.7,309.2 657,298.8 641.7,298.8 639.6,309.7 					"/>
				</g>
			</g>
		</g>
		<g>
			<g>
				<g>
					<polygon class="st31" points="641.7,309.2 638,298.8 622.7,298.8 620.6,309.7 					"/>
				</g>
			</g>
		</g>
		<g>
			<g>
				<g>
					<rect x="469.3" y="306.9" class="st30" width="236.8" height="14.9"/>
				</g>
			</g>
		</g>
	</g>
	<polyline class="st32" points="469.3,306.9 616.1,307.9 621.6,306.3 	"/>
	<g>
		<g>
			<polygon class="st7" points="479.5,332.4 491.4,333.3 506.4,340.9 559.7,334.6 564.5,323.9 565.3,322.2 534.3,318.8 525.2,299.5 
				524.8,298.8 520.2,299.3 527.3,319.6 527.2,319.5 510.1,293.5 505.5,294 505,293.5 500,287.6 498.1,288.6 493.3,290.8 
				506.9,325.3 505.7,323.6 505.7,323.6 486.9,296.3 485,297.5 482.6,299.1 494.7,324.3 495.8,326.6 483.6,328 			"/>
		</g>
		<g>
			<polygon class="st16" points="525.2,299.5 532.5,319.8 557.1,324.9 564.5,323.9 565.3,322.2 534.3,318.8 			"/>
		</g>
		<g>
			<polygon class="st16" points="507.2,293.8 528.8,322.3 527.3,319.6 527.2,319.5 510.1,293.5 			"/>
		</g>
		<g>
			<polygon class="st16" points="498.1,288.6 513,324.1 505,293.5 500,287.6 			"/>
		</g>
		<g>
			<polygon class="st16" points="485,297.5 507.3,326.8 505.7,323.6 505.7,323.6 486.9,296.3 			"/>
		</g>
		<g>
			<polygon class="st16" points="479.5,332.4 491.4,333.3 506.4,340.9 510.9,340.4 502.6,337.4 494.7,324.3 495.8,326.6 483.6,328 
							"/>
		</g>
	</g>
	<g class="st33">
		<path class="st34" d="M618.3,477.1l-1.7,3.9l-20.8,4.2c-46.4,65.8-92.8,131.7-139.2,197.5c-5.8-1.6-11.6-3.2-17.4-4.8l157.9-211.6
			L618.3,477.1z"/>
	</g>
	<g>
		<path class="st35" d="M440.2,678.9l-1.2-0.7l115.7-203.8c2.3-4.1,5.7-7.5,9.7-9.9L669,402.7l0.7,1.2l-104.6,61.7
			c-3.8,2.3-7,5.5-9.2,9.4L440.2,678.9z"/>
	</g>
	<g>
		<g>
			<path class="st14" d="M844.7,383.6c-8,18.1-13.2,36.5-20.2,53.9c-12,29.7-29.4,57.1-75.1,77.2c-72.6,31.9-162.9,48.7-166.9,8
				c0,0,0.1-6.1,1.3-15.9c0.2-1.2,0.3-2.4,0.5-3.7c3.1-21.8,11.3-57.9,33.1-88.6c22.7-32,38.1-49.3,57.2-58.1
				c9.3-4.3,19.6-6.6,32-7.6c33.4-2.7,92.3-0.4,103.6-8.9c1.5-1.1,2.1-2.4,1.8-3.9c-2.5-13-5-169.1,1.7-186.7
				c3.9-10.4,15-25,28.3-27.9c9.3-2,19.6,1.6,29.4,16.3C895.4,173.4,866.3,334.6,844.7,383.6z"/>
		</g>
	</g>
	<g>
		<g>
			<path class="st15" d="M687.7,370.7c-0.6,23.9-69.7,162.9-96.4,150.4c-3.3-1.5-6.2-5.5-7.4-14.2c2.7-21.2,10.5-59.8,33.7-92.3
				c22.7-32,38.1-49.3,57.2-58.1c2.5-0.6,6-0.9,8.7,1C688,360.4,687.8,367.8,687.7,370.7z"/>
		</g>
	</g>
	<g>
		<g>
			<path class="st15" d="M824.5,437.5c-12,29.7-29.4,57.1-75.1,77.2c-72.6,31.9-162.9,48.7-166.9,8c0,0,0.1-6.1,1.3-15.9
				c0.2-1.2,0.3-2.4,0.5-3.7c38.8,2.4,108.7,2.5,163-20.7C789.5,464.3,812.4,448.5,824.5,437.5z"/>
		</g>
	</g>
	<g>
		<g>
			<path class="st15" d="M844.9,145.1c0,0-11.9,180.9-17.3,189.5c-3.1,5-10.5,6.3-17.3,5.2c1.5-1.1,2.1-2.4,1.8-3.9
				c-2.5-13-5-169.1,1.7-186.7c3.9-10.4,15-25,28.3-27.9C844.8,128.6,845.4,137.7,844.9,145.1z"/>
		</g>
	</g>
</g>
<g id="flower">
	<g>
		<g>
			
				<rect x="696.9" y="458.1" transform="matrix(1.659937e-02 -0.9999 0.9999 1.659937e-02 353.2393 1277.2845)" class="st1" width="258.1" height="1.8"/>
		</g>
		<g>
			<g>
				
					<ellipse transform="matrix(0.9961 -8.769536e-02 8.769536e-02 0.9961 -20.4328 72.9187)" class="st0" cx="819.7" cy="269" rx="32.4" ry="66.4"/>
			</g>
			<g>
				
					<rect x="824.4" y="258.2" transform="matrix(0.9986 -5.270055e-02 5.270055e-02 0.9986 -15.1141 43.9246)" class="st1" width="1.8" height="100.7"/>
			</g>
			<g>
				
					<rect x="817.2" y="296.9" transform="matrix(0.6915 -0.7224 0.7224 0.6915 28.5586 686.5501)" class="st1" width="1.8" height="25.9"/>
			</g>
			<g>
				
					<rect x="812.9" y="251.7" transform="matrix(0.6915 -0.7224 0.7224 0.6915 59.8604 669.5673)" class="st1" width="1.8" height="25.9"/>
			</g>
			<g>
				
					<rect x="821.2" y="286.6" transform="matrix(0.6957 -0.7183 0.7183 0.6957 48.0373 688.4246)" class="st1" width="30.7" height="1.8"/>
			</g>
		</g>
		<g>
			<g>
				
					<ellipse transform="matrix(0.8596 -0.5109 0.5109 0.8596 -52.7593 502.0567)" class="st0" cx="887.3" cy="347" rx="66.4" ry="32.4"/>
			</g>
			<g>
				<polygon class="st1" points="827.7,384.9 826.8,383.3 846.1,372.7 897.9,344.3 898.8,345.9 				"/>
			</g>
			<g>
				
					<rect x="836.9" y="362.4" transform="matrix(0.3094 -0.9509 0.9509 0.3094 241.4466 1059.0411)" class="st1" width="25.9" height="1.8"/>
			</g>
			<g>
				
					<rect x="875.7" y="339" transform="matrix(0.3094 -0.9509 0.9509 0.3094 290.4987 1079.8396)" class="st1" width="25.9" height="1.8"/>
			</g>
			<g>
				
					<rect x="877.2" y="354.9" transform="matrix(0.3151 -0.9491 0.9491 0.3151 250.0263 1087.0461)" class="st1" width="1.8" height="30.7"/>
			</g>
		</g>
		<g>
			<g>
				
					<ellipse transform="matrix(0.4005 -0.9163 0.9163 0.4005 135.8001 916.2828)" class="st0" cx="768.1" cy="354.4" rx="32.4" ry="66.4"/>
			</g>
			<g>
				<polygon class="st1" points="827.5,382.8 826.9,382.6 756.7,354.8 757.4,353.1 828.2,381.1 				"/>
			</g>
			<g>
				
					<rect x="806.4" y="352.9" transform="matrix(0.9051 -0.4252 0.4252 0.9051 -78.9461 378.0057)" class="st1" width="1.8" height="25.9"/>
			</g>
			<g>
				
					<rect x="765" y="334.5" transform="matrix(0.9051 -0.4252 0.4252 0.9051 -75.0653 358.639)" class="st1" width="1.8" height="25.9"/>
			</g>
			<g>
				
					<rect x="764.8" y="375.5" transform="matrix(0.9027 -0.4302 0.4302 0.9027 -86.0455 372.2616)" class="st1" width="30.7" height="1.8"/>
			</g>
		</g>
		<g>
			<g>
				
					<ellipse transform="matrix(0.8596 -0.5109 0.5109 0.8596 -92.1565 518.5076)" class="st0" cx="897.5" cy="427" rx="79.4" ry="38.7"/>
			</g>
			<g>
				
					<rect x="819.8" y="446.1" transform="matrix(0.8771 -0.4804 0.4804 0.8771 -108.451 472.1841)" class="st1" width="97" height="3.7"/>
			</g>
			<g>
				
					<rect x="837.4" y="444.5" transform="matrix(0.3099 -0.9508 0.9508 0.3099 164.181 1118.9437)" class="st1" width="31" height="3.7"/>
			</g>
			<g>
				
					<rect x="883.8" y="416.6" transform="matrix(0.3099 -0.9508 0.9508 0.3099 222.8053 1143.7491)" class="st1" width="31" height="3.7"/>
			</g>
			<g>
				
					<rect x="884.8" y="436.4" transform="matrix(0.3151 -0.9491 0.9491 0.3151 175.6476 1152.9176)" class="st1" width="3.7" height="36.7"/>
			</g>
		</g>
		<g>
			<g>
				
					<ellipse transform="matrix(0.4005 -0.9163 0.9163 0.4005 53.4349 953.1204)" class="st0" cx="755.1" cy="435.7" rx="38.7" ry="79.4"/>
			</g>
			<g>
				<polygon class="st1" points="825.8,470.4 806.8,462.9 741.1,436.9 742.5,433.5 827.1,467 				"/>
			</g>
			<g>
				
					<rect x="800.1" y="434" transform="matrix(0.9051 -0.4252 0.4252 0.9051 -115.0168 383.6526)" class="st1" width="3.7" height="31"/>
			</g>
			<g>
				
					<rect x="750.6" y="412" transform="matrix(0.9051 -0.4252 0.4252 0.9051 -110.3773 360.5075)" class="st1" width="3.7" height="31"/>
			</g>
			<g>
				
					<rect x="751.2" y="460.3" transform="matrix(0.9029 -0.4299 0.4299 0.9029 -123.931 375.7081)" class="st1" width="36.7" height="3.7"/>
			</g>
		</g>
	</g>
	<g>
		<path class="st0" d="M806.5,500.4h33.7c12,0,21.6,9.7,21.6,21.6v109.1c0,12-9.7,21.6-21.6,21.6h-33.7c-12,0-21.6-9.7-21.6-21.6
			V522C784.9,510.1,794.6,500.4,806.5,500.4z"/>
	</g>
	<g>
		<rect x="793.9" y="513.2" class="st36" width="60.6" height="7.3"/>
	</g>
</g>
</svg>
