<?xml version="1.0" encoding="utf-8"?>
<!-- Generator: Adobe Illustrator 26.0.2, SVG Export Plug-In . SVG Version: 6.00 Build 0)  -->
<svg version="1.1" id="Layer_1" xmlns="http://www.w3.org/2000/svg" xmlns:xlink="http://www.w3.org/1999/xlink" x="0px" y="0px"
	 viewBox="0 0 3881.9 3698.9" style="enable-background:new 0 0 3881.9 3698.9;" xml:space="preserve">
<style type="text/css">
	.st0{fill-rule:evenodd;clip-rule:evenodd;}
	.st1{fill:#092E3D;}
	.st2{fill:#114D7F;}
	.st3{fill-rule:evenodd;clip-rule:evenodd;fill:#8888FF;}
	.st4{fill-rule:evenodd;clip-rule:evenodd;fill:#BC7EE0;}
	.st5{fill:#2283BA;}
	.st6{fill-rule:evenodd;clip-rule:evenodd;fill:#FFFFFF;}
	.st7{fill:none;stroke:#65AAE9;stroke-width:2;}
	.st8{fill:none;stroke:#7BB6EA;stroke-width:2;}
	.st9{fill:none;stroke:#C9E7F9;stroke-width:2;}
	.st10{fill:none;stroke:#2C87D9;stroke-width:2;}
	.st11{fill:none;stroke:#3B8CDE;stroke-width:2;}
	.st12{fill:none;stroke:#509ADD;stroke-width:2;}
	.st13{fill:none;stroke:#8BBCED;stroke-width:2;}
	.st14{fill:none;stroke:#EFF9FD;stroke-width:2;}
	.st15{fill:none;stroke:#549DDB;stroke-width:2;}
	.st16{fill:none;stroke:#90C4E9;stroke-width:2;}
	.st17{fill:none;stroke:#9FC9EE;stroke-width:2;}
	.st18{fill:none;stroke:#D9EDFB;stroke-width:2;}
	.st19{fill:#DFF3FA;}
	.st20{fill:#B2DBF7;}
	.st21{fill:#1779DA;}
	.st22{fill:#5E9FE1;}
	.st23{fill:#4194D8;}
	.st24{fill:#FFFFFF;}
	.st25{fill:#91C0DB;}
	.st26{fill-rule:evenodd;clip-rule:evenodd;fill:#F48FFF;}
	.st27{fill:#3C8ABA;}
	.st28{fill:#E5A5D9;}
	.st29{fill:#AE2EBC;}
	.st30{fill:#8563BA;}
	.st31{fill:#CEA6E2;}
	.st32{opacity:0.34;fill:#EAE9C7;enable-background:new    ;}
	.st33{opacity:0.34;fill:url(#SVGID_1_);enable-background:new    ;}
	.st34{fill:#E0A78F;}
	.st35{fill:#A526A8;}
	.st36{fill:#A96B57;}
	.st37{fill:#30262C;}
	.st38{fill:#F48FFF;}
	.st39{fill:#F3EBDE;}
	.st40{fill:#CA7358;}
	.st41{fill:#AA3D95;}
	.st42{fill:#89196F;}
	.st43{fill:#F3BBD4;}
	.st44{fill:#B164BC;}
	.st45{fill:#C672CC;}
	.st46{fill:#AE56B7;}
	.st47{fill:#985B47;}
	.st48{fill:#8558CC;}
	.st49{fill:#5933B5;}
	.st50{fill:#3B438B;}
	.st51{fill:#0E3A47;}
	.st52{fill:#67265B;}
	.st53{fill:#C2E5EF;}
	.st54{fill:#FCFC6B;}
</style>
<g id="element">
	<rect id="BG_00000049920478194389629150000016217931536230907530_" class="st0" width="3881.9" height="3698.9"/>
	<g id="Table">
		<path class="st1" d="M1119.8,3599.9c-0.2,0-0.4,0-0.6,0c-54.2-0.3-97.9-44.5-97.5-98.7l9.1-1476.5c0.1-9.4,7.7-17,17.1-17h0.1
			c9.5,0.1,17.1,7.8,17,17.2l-9,1476.5c0,0.1,0,0.3,0,0.4c0,35.3,28.6,63.9,63.9,63.8h864.8c0.3,0,0.6,0,0.8,0
			c9.5,0.2,16.9,8.1,16.7,17.5c-0.2,9.5-8.1,16.9-17.5,16.7L1119.8,3599.9L1119.8,3599.9z"/>
		<path class="st1" d="M1051.8,2620.2c-9.5-0.2-16.9-8.1-16.7-17.5c0.2-9.5,8.1-16.9,17.5-16.7h81.2c0.3,0,0.6,0,0.8,0
			c9.5,0.2,16.9,8.1,16.7,17.5c-0.2,9.5-8.1,16.9-17.5,16.7h-81.2C1052.4,2620.2,1052.1,2620.2,1051.8,2620.2z"/>
		<g id="Table-2">
			<path class="st1" d="M1136.2,3432c-17-17.1-26.2-39.3-26.1-62.7l9.1-1354.2c0.1-9.4,7.7-17,17.1-17h0.1l0,0
				c9.5,0.1,17.1,7.8,17,17.2l-9.1,1354.2c-0.1,14.1,5.6,27.7,16.1,38.3c12.1,12.2,29.5,19.2,47.7,19.2H2073c0.3,0,0.6,0,0.8,0
				c9.5,0.2,16.9,8.1,16.7,17.5c-0.2,9.5-8.1,16.9-17.5,16.7h-864.8C1181,3461.3,1154.7,3450.6,1136.2,3432z"/>
			<polygon class="st2" points="1604.6,2019.5 1148.2,2531.4 1148.2,2665.2 1707.4,2039.1 			"/>
		</g>
		<path class="st2" d="M2323.3,1974.4v90.1c0,1.2-1,2.2-2.2,2.2H1021.4c-1.2,0-2.2-1-2.2-2.2v-90.1c0-1.2,1-2.2,2.2-2.2h1299.7
			C2322.3,1972.2,2323.3,1973.2,2323.3,1974.4z"/>
	</g>
	<path id="_3" class="st3" d="M831.4,942.8c18.3,44.2,8.2,95.1-25.7,129c-46.2,46.3-121.2,46.3-167.5,0
		c-46.3-46.2-46.3-121.2,0-167.5s121.2-46.3,167.5,0C816.7,915.4,825.4,928.4,831.4,942.8z M721.9,880.6c-43.8,0-83.3,26.4-99.9,67
		c-22.7,55.2,3.6,118.4,58.8,141.1s118.4-3.6,141.1-58.8c22.7-55.2-3.6-118.4-58.8-141.1C750,883.4,736,880.6,721.9,880.6z
		 M776.3,801.5c-5.6-1.3-9.6-6.3-9.6-12.1v-60.6c0-2-0.8-3.9-2.2-5.3c-1.4-1.4-3.3-2.2-5.3-2.2h-74.3c-2,0-3.9,0.8-5.3,2.2
		c-0.7,0.7-1.3,1.5-1.6,2.4c-0.4,0.9-0.6,1.9-0.6,2.8v60.6c0,5.6-3.6,10.5-9,12c-15.1,4.3-29.7,10.5-43.3,18.4
		c-13.7,7.9-26.3,17.4-37.6,28.3c-1.9,1.9-4.4,3.1-7.1,3.5c-2.7,0.4-5.5-0.2-7.9-1.6L520,819.8c-0.8-0.5-1.8-0.8-2.7-0.9
		c-1-0.1-2,0-3,0.2c-1.9,0.5-3.6,1.8-4.6,3.5c-11.8,20.3-24.5,45.5-37.1,64.3c-0.5,0.8-0.8,1.8-0.9,2.7c-0.1,1,0,2,0.2,3
		s0.7,1.9,1.3,2.7c0.6,0.8,1.3,1.4,2.2,1.9l51.9,30c2.4,1.3,4.4,3.3,5.6,5.8c1.2,2.6,1.5,5.5,0.8,8.2c-0.9,3.8-1.8,7.7-2.5,11.5
		c-0.7,3.7-1.3,7.6-1.8,11.7c-0.5,4-0.9,8-1.1,11.8s-0.3,7.8-0.3,11.9s0.1,8,0.3,11.9s0.6,7.7,1.1,11.8s1.1,8,1.8,11.7
		c0.7,3.8,1.5,7.7,2.5,11.5l1.4,5.6l-1.4,0.3c-0.2,0.7-0.4,1.4-0.6,2c-1.1,2.5-2.9,4.5-5.2,5.9l-52.4,30.3c-0.8,0.5-1.6,1.1-2.1,1.9
		c-0.6,0.8-1,1.7-1.3,2.7s-0.3,2-0.2,3c0.1,1,0.4,1.9,0.9,2.7c12.3,21.5,24.8,42.9,37.1,64.3c0.5,0.8,1.1,1.6,1.9,2.2
		c1.6,1.2,3.6,1.8,5.7,1.5c1-0.1,1.9-0.4,2.7-0.9l51.8-29.9c4.8-3.2,11.3-2.6,15.4,1.4c17.1,16.5,37,29.7,58.8,39
		c7.1,3,14.4,5.6,21.8,7.8c5.6,1.4,9.5,6.3,9.6,12.1v60.6c0,1,0.2,1.9,0.6,2.8c0.4,0.9,0.9,1.8,1.6,2.5c0.7,0.7,1.5,1.3,2.5,1.6
		c0.9,0.4,1.9,0.6,2.8,0.6h74.3c1,0,1.9-0.2,2.9-0.6c0.9-0.4,1.7-0.9,2.4-1.7c0.7-0.7,1.3-1.5,1.7-2.4s0.6-1.9,0.6-2.8v-60.6
		c0-5.6,3.6-10.5,9-12c7.6-2.2,15-4.8,22.2-7.9c14.5-6.2,28.3-14.1,40.9-23.6c6.3-4.8,12.3-9.9,18-15.4l0,0c4-3.8,10-4.5,14.8-1.8
		c17.2,9.9,35.9,19.9,52.5,30.3c0.8,0.5,1.8,0.8,2.7,0.9c1,0.1,2,0,3-0.2c1-0.3,1.9-0.7,2.7-1.3c0.8-0.6,1.4-1.3,1.9-2.2l2.8-4.8
		l0,0l34.4-59.5c0.5-0.8,0.8-1.8,0.9-2.7c0.1-1,0.1-2-0.2-3c-0.2-1-0.7-1.9-1.3-2.7c-0.6-0.8-1.3-1.4-2.2-1.9l-5.5-3.2l0,0
		l-46.4-26.8c-5.1-2.6-7.8-8.4-6.4-14c0.9-3.8,1.8-7.8,2.5-11.5s1.3-7.7,1.8-11.7s0.8-8,1.1-11.8s0.3-7.8,0.3-11.9s-0.1-8-0.3-11.9
		s-0.6-7.8-1.1-11.8s-1.1-7.9-1.8-11.7s-1.5-7.7-2.5-11.5l-1.2-4.9l1.1-0.4c0.2-0.9,0.4-1.8,0.8-2.6c1.1-2.5,2.9-4.5,5.2-5.9
		c16.6-9.6,36.8-19.9,52.4-30.3c1.7-1,3-2.7,3.5-4.6c0.3-1,0.3-2,0.2-3s-0.4-1.9-0.9-2.7c-11.8-20.3-24.5-45.2-37.2-64.3
		c-0.5-0.9-1.1-1.6-1.9-2.2c-0.8-0.6-1.7-1-2.7-1.3c-0.9-0.3-1.9-0.3-2.9-0.2c-0.9,0.1-1.8,0.4-2.6,0.8
		c-17,10.5-35.3,20.5-52.7,30.5c-2.3,1.3-5,1.9-7.7,1.6c-2.7-0.3-5.2-1.5-7.1-3.4c-11.4-11-24.1-20.6-37.8-28.5
		c-6.8-3.9-13.8-7.4-21-10.5c-7.1-3-14.4-5.6-21.8-7.8L776.3,801.5z M802.2,799.3c-7.6-3.2-15.4-6-23.3-8.3l-0.2-0.1
		c-0.3-0.1-0.6-0.2-0.8-0.5s-0.3-0.6-0.3-0.9v-60.6c0-4.9-2-9.6-5.4-13c-1.7-1.7-3.8-3.1-6-4s-4.6-1.4-7-1.4h-74.3
		c-10.2,0-18.4,8.3-18.5,18.5v60.4c0,0.7-0.4,1.2-1.1,1.4c-32.1,9.2-61.5,26.2-85.6,49.4l-0.1,0.1c-0.2,0.2-0.5,0.4-0.8,0.4
		s-0.6,0-0.9-0.2l-48.6-28.1l0,0l-3.9-2.2c-2.1-1.2-4.4-2-6.8-2.3c-4.9-0.6-9.8,0.7-13.7,3.7c-0.4,0.3-0.8,0.6-1.2,1l-0.7-0.4
		c-13.2,22.9-27.5,46.2-40,69.3c-1.2,2.1-1.9,4.3-2.2,6.7c-0.3,2.4-0.1,4.8,0.5,7.2c0.6,2.3,1.7,4.5,3.2,6.5
		c1.4,1.9,3.3,3.6,5.4,4.8l52.4,30.2c0.3,0.1,0.5,0.4,0.7,0.7c0.1,0.3,0.2,0.7,0.1,1c-1,3.9-1.9,7.9-2.6,12.1s-1.4,8.3-1.9,12.4
		s-0.9,8.2-1.1,12.5s-0.4,8.5-0.4,12.5s0.1,8.3,0.4,12.5s0.6,8.4,1.1,12.4s1.1,8.2,1.9,12.4c0.4,2.2,0.9,4.4,1.3,6.6h-0.1l1.4,5.5
		c0.1,0.3,0.1,0.7-0.1,1c-0.1,0.3-0.3,0.5-0.6,0.7l-52.4,30.3c-2.1,1.2-3.9,2.8-5.4,4.8c-1.5,1.9-2.6,4.1-3.2,6.5
		c-0.6,2.3-0.8,4.8-0.5,7.2c0.1,0.6,0.2,1.2,0.3,1.8l-0.7,0.4c13.1,22.8,26.2,47,39.9,69.2c1.2,2,2.8,3.8,4.7,5.2
		c1.9,1.5,4.1,2.6,6.5,3.2c2.3,0.6,4.8,0.8,7.2,0.5c2.4-0.3,4.7-1.1,6.8-2.3l52.4-30.3c0.3-0.2,0.6-0.3,0.9-0.2
		c0.3,0,0.6,0.2,0.9,0.4c12,11.6,25.4,21.7,39.9,30.1c14.3,8.3,29.6,14.8,45.5,19.4l0.2,0.1c0.3,0.1,0.6,0.2,0.8,0.5
		s0.3,0.6,0.3,0.9v60.6c0,2.4,0.5,4.8,1.4,7s2.3,4.3,4,6s3.8,3.1,6,4s4.6,1.4,7,1.4h74.3c2.4,0,4.8-0.5,7-1.4s4.3-2.3,6-4
		c3.5-3.4,5.4-8.1,5.4-13v-60.6c0-0.3,0.1-0.6,0.3-0.9c0.2-0.2,0.5-0.4,0.8-0.5c16-4.6,31.4-11.1,45.8-19.5
		c14.5-8.3,27.9-18.4,39.9-30c0.2-0.2,0.5-0.4,0.9-0.4c0.3,0,0.6,0,0.9,0.2c17.2,10,35.2,21.2,52.7,30.4c2.1,1.2,4.3,1.9,6.7,2.2
		c2.4,0.3,4.8,0.2,7.2-0.5c2.3-0.6,4.5-1.7,6.5-3.2c0.4-0.3,0.8-0.6,1.2-1l0.7,0.4l39.9-69.1c1.2-2.1,2-4.4,2.3-6.8s0.1-4.9-0.5-7.2
		c-0.6-2.4-1.7-4.6-3.2-6.5l-0.6-0.7l0.7-0.8c-19-11-38.6-23.1-57.9-33.4c-0.3-0.2-0.5-0.4-0.6-0.7c-0.1-0.3-0.2-0.6-0.1-0.9
		c1-3.9,1.8-8,2.6-12.2s1.4-8.4,1.9-12.4s0.9-8.2,1.1-12.4s0.4-8.5,0.4-12.5s-0.1-8.3-0.4-12.6s-0.6-8.4-1.1-12.4
		c-0.5-4.1-1.1-8.2-1.9-12.4c-0.5-2.4-0.9-4.9-1.5-7.2h0.1l-1.2-4.9c-0.1-0.3,0-0.6,0.1-0.9c0.1-0.3,0.3-0.5,0.6-0.7
		c17.3-10,35.6-19.9,52.4-30.3c2.1-1.2,3.9-2.8,5.4-4.8c1.5-1.9,2.6-4.1,3.2-6.5c0.6-2.3,0.8-4.8,0.5-7.2s-1.1-4.7-2.3-6.8
		c-12.2-21.2-24.4-43.6-37.2-64.3c-1.2-2.1-2.8-3.9-4.8-5.4c-3.8-2.9-8.6-4.3-13.4-3.7c-2.3,0.3-4.6,1-6.6,2.1
		c-17.6,10.2-35.3,20.4-52.9,30.6c-0.3,0.2-0.6,0.2-0.9,0.2c-0.3,0-0.6-0.2-0.8-0.4c-12-11.6-25.4-21.7-39.9-30.1
		C817.3,806.2,809.9,802.5,802.2,799.3L802.2,799.3z"/>
	<path id="_2" class="st4" d="M1009.2,19.4v87.3c-0.2,10.4-8.6,18.7-19,19c-10.7,0.2-19.6-8.2-19.8-19V19.4c0-0.3,0-0.6,0-0.9
		c0.2-10.7,9.1-19.2,19.8-19S1009.4,8.7,1009.2,19.4L1009.2,19.4z M1141.5,90.3l-61.7,61.7c-7.6,7.6-19.9,7.6-27.5,0
		s-7.6-19.9,0-27.5l61.7-61.7l0,0c7.6-7.6,19.9-7.6,27.5,0C1149,70.4,1149,82.7,1141.5,90.3L1141.5,90.3z M1097.6,233.9
		c-10.7,0-19.4-8.7-19.4-19.4s8.7-19.4,19.4-19.4h87.3c10.7,0,19.4,8.7,19.4,19.4s-8.7,19.4-19.4,19.4H1097.6z M1052.3,304.5
		c-7.6-7.6-7.6-19.9,0-27.4s19.9-7.6,27.4,0l61.7,61.8l0,0c7.6,7.6,7.6,19.9,0,27.4c-7.6,7.6-19.9,7.6-27.4,0L1052.3,304.5z
		 M970.3,322.3c0.2-10.4,8.6-18.7,19-19c10.7-0.2,19.6,8.2,19.8,19v87.3c0,0.3,0,0.6,0,0.9c-0.2,10.7-9.1,19.2-19.8,19
		s-19.2-9.1-19-19.8V322.3z M838.1,338.7l61.7-61.7c7.5-7.1,19.2-7.1,26.7,0c7.8,7.4,8.1,19.7,0.7,27.4l-61.7,61.7l0,0
		c-7.6,7.6-19.9,7.6-27.4,0C830.5,358.6,830.5,346.3,838.1,338.7L838.1,338.7z M882,195.1c10.7,0,19.4,8.7,19.4,19.4
		s-8.7,19.4-19.4,19.4h-87.3l0,0c-10.7,0-19.4-8.7-19.4-19.4s8.7-19.4,19.4-19.4H882z M927.3,124.5c7.2,7.5,7.2,19.4,0,26.9
		c-7.4,7.7-19.7,8-27.4,0.5l-61.8-61.7c-0.2-0.2-0.3-0.3-0.5-0.5c-7.4-7.7-7.2-20,0.5-27.4s20-7.2,27.4,0.5L927.3,124.5z"/>
	<g id="_1">
		<path class="st5" d="M1344,1147.2l161.7-86.6c2.4-1.3,5.1-2,7.9-2h831.7l0,0c63.4,0,114.8-51.4,114.8-114.8v-670l0,0
			c0-54.5-44.2-98.7-98.7-98.7h-875.2c-60.3,0-109.2,48.9-109.2,109.2v709.2c0,2.3-0.5,4.6-1.4,6.7l-54.7,125.7
			C1314.5,1140.3,1330.1,1154.7,1344,1147.2z"/>
		<g id="_3-2">
			<path class="st6" d="M2346.3,620.9l-7.7-9.5l-19.2-23.5c-3.5-4.3-2.8-10.6,1.5-14.1s10.6-2.8,14.1,1.5l32.1,39.3
				c3.7,3.9,3.7,10,0,13.9l-32.1,39.2c-3.5,4.3-9.8,4.9-14.1,1.5c-4.3-3.5-4.9-9.8-1.5-14.1l19.2-23.5L2346.3,620.9z"/>
			<path class="st6" d="M1488.3,631.5l19.2,23.5c3.5,4.3,2.9,10.6-1.4,14.1s-10.6,2.9-14.1-1.4l-32.1-39.3c-3.7-3.9-3.7-10,0-13.9
				l32.1-39.3l0,0c3.5-4.3,9.8-4.9,14.1-1.5c4.3,3.5,4.9,9.8,1.5,14.1l-19.2,23.5l-7.7,9.5L1488.3,631.5z"/>
		</g>
		<g>
			<g>
				<path vector-effect="non-scaling-stroke" class="st7" d="M1798,379.4l-6.3,0.1"/>
				<path vector-effect="non-scaling-stroke" class="st7" d="M1606.2,736.6l-0.1-5.8"/>
				<path vector-effect="non-scaling-stroke" class="st7" d="M2194.6,566.3v11.6"/>
				<path vector-effect="non-scaling-stroke" class="st7" d="M2146.7,469h6.4"/>
				<path vector-effect="non-scaling-stroke" class="st8" d="M1927.7,379.6l-104.8-0.1"/>
				<path vector-effect="non-scaling-stroke" class="st9" d="M1920.9,363.6c0,4.8,2.3,10.1,6.9,16"/>
				<path vector-effect="non-scaling-stroke" class="st9" d="M1920.9,363.6c0.3-0.9,0.7-1.6,1.4-2.2c0.8-0.7,1-1.6,0.4-2.5l-5.6-8.7
					c-0.4-0.7-1.2-1-1.9-1c-1.3,0-2.3,1.1-2.2,2.4C1913.1,357.7,1915.8,361.7,1920.9,363.6"/>
				<path vector-effect="non-scaling-stroke" class="st9" d="M1932.7,379.7c-1.8-9.8-5.8-15.1-11.8-16.1"/>
				<path vector-effect="non-scaling-stroke" class="st8" d="M2040.7,379.7h-108"/>
				<path vector-effect="non-scaling-stroke" class="st9" d="M2046.8,379.7l7.7-14.6c0.4-0.8,1-1.6,1.6-2.4c2.3-2.6,4.2-5.4,5.8-8.5
					l0,0c0.8-1.5,0.3-3.4-1.2-4.3s-3.4-0.3-4.3,1.2c-1.3,2.2-2.8,4.7-4.4,7.6c-0.7,1.3-0.4,2.5,0.9,3.5c0.2,0.2,0.3,0.4,0.3,0.7
					c0,0.5-0.4,0.9-0.9,0.9h-1.4c-1,0-1.7,0.4-2.2,1.3l-8.1,14.6"/>
				<path vector-effect="non-scaling-stroke" class="st8" d="M2146.7,469l-19.7,0.1c-0.9,0-1.4-0.5-1.4-1.4v-81.9l0,0
					c0-3.3-2.7-6-6-6h-72.8"/>
				<path vector-effect="non-scaling-stroke" class="st9" d="M2153.1,468.9l-18.3-32.6c-0.1-0.1-0.1-0.2-0.2-0.3
					c-0.9-1.1-2.4-1.3-3.5-0.4c-0.8,0.6-1.2,1.6-1.2,2.8c0,0.7,0.2,1.6,0.8,2.5c5.3,9.2,10.7,18.5,16.1,28"/>
				<path vector-effect="non-scaling-stroke" class="st8" d="M2194.4,500.5c-5.3-21.7-19.1-32.3-41.4-31.6"/>
				<path vector-effect="non-scaling-stroke" class="st7" d="M1932.7,379.7l-5-0.1"/>
				<path vector-effect="non-scaling-stroke" class="st7" d="M2046.8,379.7h-6.2"/>
				<path vector-effect="non-scaling-stroke" class="st9" d="M2233.2,632.8l-0.4-8.8c-0.1-1.3-0.7-1.8-2-1.5c-2.2,0.4-3.5,2.7-3.2,5
					c0.2,1.5,0.5,3.3,0.7,5.4"/>
				<path vector-effect="non-scaling-stroke" class="st9" d="M2187.7,279.7c0,15.2,12.3,27.5,27.5,27.5l0,0
					c15.2,0,27.5-12.3,27.5-27.5s-12.3-27.5-27.5-27.5C2200,252.2,2187.7,264.5,2187.7,279.7"/>
				<path vector-effect="non-scaling-stroke" class="st9" d="M1650.9,259.3c0.2,0.1,0.3,0.3,0.4,0.5c0.3,0.6,0.1,1.4-0.5,1.7
					l-6.8,3.6c-4.2,2.2-4.9,5.3-2.2,9.1c3.7,5.4,8.2,5.4,13.3,0c0.5-0.5,0.6-1.3,0.3-2c-0.4-0.9-1.5-1.2-2.4-0.8l-4.3,2.2
					c-0.7,0.4-1.4,0.3-2-0.1l-2-1.4c-0.1-0.1-0.3-0.2-0.4-0.4c-0.5-0.7-0.4-1.8,0.4-2.3c2.9-2.1,7.4-2.8,9.4-5.1
					c4.2-5-2.7-12.1-8.7-10.2c-1.9,0.6-3,1.7-3.5,3.3c-0.1,0.3,0,0.6,0.1,0.9c0.3,0.7,1.1,1,1.7,0.7
					C1646.3,257.8,1648.7,257.9,1650.9,259.3"/>
				<path vector-effect="non-scaling-stroke" class="st9" d="M2067.8,334.6c0.9,0,1.7,0.4,2.2,1.3c6.4,11,12.7,22.2,18.8,33.4
					c1.1,2.1,2.5,3.4,4.1,4.1c0.8,0.3,1.7,0.3,2.5-0.2c1.4-0.8,1.8-2.5,1-3.9l-22.3-38.6c-0.6-1-1.5-1.6-2.7-1.6
					c-14.5-0.3-28.9-0.5-43.2-0.6c-2,0-3.5,0.6-4.3,1.7c-0.3,0.4-0.5,1-0.5,1.5c0,1.4,1.1,2.5,2.5,2.5L2067.8,334.6"/>
				<path vector-effect="non-scaling-stroke" class="st9" d="M1904.4,336.1c0.6-0.9,1.3-1.3,2.3-1.3c14.2-0.3,28.3-0.7,42.3-1.1
					c1.8-0.1,2.5-0.9,2.3-2.6c-0.1-1.1-1.1-2-2.2-2l-45.9-0.3c-1,0-1.9,0.5-2.3,1.3l-22.4,38.7c-0.6,1-0.6,2.2,0,3.2
					c0.8,1.5,2,2,3.5,1.5c0.8-0.3,1.5-0.9,2.1-2C1892.8,356.4,1897.7,347.1,1904.4,336.1"/>
				<path vector-effect="non-scaling-stroke" class="st9" d="M1651.3,337.4c0.2,0.2,0.3,0.4,0.4,0.6c0.1,0.6-0.3,1.2-0.9,1.3
					c-4.8,1-8.3,3.5-10.6,7.4c-0.5,0.8-0.6,1.9-0.2,2.8c3.9,9.3,14.4,9.1,15.4,0.1c0.1-0.5-0.1-1-0.5-1.3c-0.6-0.6-1.6-0.5-2.2,0.2
					c-2.1,2.4-4.6,2.9-7.3,1.3c-0.3-0.2-0.5-0.4-0.7-0.7c-0.4-0.8-0.1-1.8,0.7-2.2l7.3-3.6c0.7-0.4,1.2-0.9,1.6-1.5
					c4.4-7.9-8.9-16.5-13.3-5.4c-0.1,0.2-0.1,0.5,0,0.8c0.2,0.6,0.8,0.9,1.4,0.7l6.1-2c0.3-0.1,0.6,0,0.9,0.2L1651.3,337.4"/>
				<path vector-effect="non-scaling-stroke" class="st10" d="M1706.2,391.7l-16.7,0.1c-1.3,0-1.9,0.7-1.9,2l0.3,42.7
					c0,1.3,1,2.3,2.3,2.3h16.7"/>
				<path vector-effect="non-scaling-stroke" class="st11" d="M1706.8,438.9h405.5c1,0,1.5-0.5,1.5-1.5v-44.1c0-1-0.5-1.5-1.5-1.5
					h-406.2"/>
				<path vector-effect="non-scaling-stroke" class="st12" d="M1706.8,438.9l-0.7-47.2"/>
				<path vector-effect="non-scaling-stroke" class="st8" d="M1705.9,760.9H2104"/>
				<path vector-effect="non-scaling-stroke" class="st7" d="M1705.9,450.7l-16.5,0.2c-1.2,0-1.8,0.6-1.8,1.9l0.1,272
					c0,0.4,0.2,0.7,0.5,0.9c0.5,0.2,1,0,1.3-0.5c1.3-2.7,3.4-4.1,6.3-4.3c1-0.1,1.8,0.7,1.9,1.7l2.7,36.3c0.1,1.3,0.8,2,2.1,2h3.5"
					/>
				<path vector-effect="non-scaling-stroke" class="st8" d="M2104.1,450.7h-398.2"/>
				<path vector-effect="non-scaling-stroke" class="st13" d="M2104,760.9h8.3c0.9,0,1.4-0.5,1.4-1.4V452.7c0-1.2-0.6-1.8-1.8-1.9
					l-7.9-0.1"/>
				<path vector-effect="non-scaling-stroke" class="st14" d="M2104,760.9V450.7"/>
				<path vector-effect="non-scaling-stroke" class="st9" d="M1705.9,760.9V450.7"/>
				<path vector-effect="non-scaling-stroke" class="st10" d="M1618.5,496.5l-0.4,319.8c0,1,0.5,1.5,1.6,1.5h19.8"/>
				<path vector-effect="non-scaling-stroke" class="st11" d="M1640.5,773.9l34.2-34.9c0.6-0.6,0.9-1.5,0.9-2.4V483.2
					c0-1.4-0.7-2.1-2-2.1c-11.1-0.3-22.5-0.2-34.2,0.2c-6.9,0.3-13.9,5.3-21,15.2"/>
				<path vector-effect="non-scaling-stroke" class="st10" d="M1639.9,784c-2-0.4-3.3-1.1-4-2.3c-0.4-0.9-0.3-1.9,0.3-2.6l4.3-5.1"
					/>
				<path vector-effect="non-scaling-stroke" class="st11" d="M1639.6,817.8h541.2c1.2,0,1.8-0.6,1.8-1.8c0-101.3,0-202.5,0-303.6
					c0-37.9-28.2-31.7-55.4-31.5c-1,0-1.5,0.5-1.5,1.5v284.8c0,3.1-2.5,5.5-5.6,5.5h-417h-0.1c-0.8,0.1-1.3,0.7-1.3,1.5l2.4,28.7
					c0.1,0.8-0.2,1.5-0.6,2.1c-1,1.3-2.9,1.6-4.3,0.6l-15.9-11.9c-0.1-0.1-0.3-0.2-0.4-0.2c-0.8-0.3-1.6,0.1-1.9,0.9l-6.1,16.9
					c-0.7,1.8-2.7,2.8-4.5,2.1l-14.4-5.1l0,0c-2.1-0.8-3.1-3.1-2.3-5.2l6.2-16.4c0.4-1.1,0-1.7-1.1-1.7l-18.7-1.1"/>
				<path vector-effect="non-scaling-stroke" class="st12" d="M1639.6,817.8l0.3-33.8"/>
				<path vector-effect="non-scaling-stroke" class="st12" d="M1640.5,773.9l-0.1-251.9c0-1-0.3-1.8-0.8-2.6
					c-5.5-8.1-12.5-15.7-21-22.8"/>
				<path vector-effect="non-scaling-stroke" class="st8" d="M1672.9,750.4l-25.1,25.4c-0.7,0.7-0.6,1.2,0.3,1.5c2.6,1,5,1.4,7.2,1"
					/>
				<path vector-effect="non-scaling-stroke" class="st13" d="M1655.4,778.4c4.7-0.2,8.5,0.2,11.3,1.4c1.1,0.5,1.5,1.3,1.1,2.5
					l-7,19.4c-0.4,1.1,0,1.8,1,2.2l6.5,2.3c1.1,0.4,1.9,0,2.3-1.1l6.9-18.8c0.1-0.2,0.2-0.5,0.4-0.7c0.9-1.3,2.7-1.5,3.9-0.6
					l13.8,10.1c1.3,0.9,1.9,0.6,1.7-1l-4.8-61.3c-0.1-1.3-0.6-1.5-1.5-0.6l-18,18.1"/>
				<path vector-effect="non-scaling-stroke" class="st14" d="M1655.4,778.4c8.4-8.9,14.3-18.2,17.6-28"/>
				<path vector-effect="non-scaling-stroke" class="st7" d="M1640.7,829.7h-21c-1,0-1.5,0.5-1.5,1.5c-0.1,15.7-2.8,42.5,4.3,54
					c5.3,8.5,14.7,12.4,28.3,11.5"/>
				<path vector-effect="non-scaling-stroke" class="st8" d="M1650.7,896.8c164.9,0.1,330,0.1,495.2,0c25.4,0,36.6-5.7,36.6-31.9
					c0-11.2,0-22.4-0.1-33.6c0-1-0.5-1.6-1.5-1.6h-540.2"/>
				<path vector-effect="non-scaling-stroke" class="st9" d="M1650.7,896.8c-6-7.5-9.4-13.7-9.9-18.4c-1.1-9.3-1.2-25.6-0.1-48.7"/>
				<path vector-effect="non-scaling-stroke" class="st15" d="M1945.8,908.7l-90.7,0.1c-0.6,0-1.1,0.4-1.2,1l-9.3,46.2
					c0,0.1,0,0.2,0,0.2c0,0.7,0.5,1.2,1.2,1.2l109.4,0.1c0.1,0,0.2,0,0.2,0c0.7-0.1,1.1-0.8,1-1.4l-9.3-46.4
					C1946.9,909.1,1946.4,908.7,1945.8,908.7"/>
				<path vector-effect="non-scaling-stroke" class="st9" d="M1608.1,463l21.6-60.7c0.1-0.3,0-0.6-0.2-0.9c-0.3-0.4-0.9-0.5-1.4-0.2
					l-50.6,44.3c-0.1,0.1-0.2,0.2-0.2,0.3c-0.3,0.5-0.1,1.1,0.4,1.3l29,16.4c0,0,0.1,0,0.1,0.1
					C1607.3,463.8,1607.9,463.5,1608.1,463"/>
				<path vector-effect="non-scaling-stroke" class="st9" d="M1606.3,404.6l-58,23.6c-0.3,0.1-0.6,0.4-0.8,0.7
					c-0.4,0.7-0.1,1.6,0.6,2l9.9,5.4c0.8,0.4,1.8,0.4,2.5-0.1l46.2-30.7c0.2-0.1,0.3-0.4,0.2-0.6
					C1606.9,404.7,1606.6,404.5,1606.3,404.6"/>
				<path vector-effect="non-scaling-stroke" class="st9" d="M1573.3,453.5l-1.7,13.3c0,0.3,0.1,0.6,0.3,0.8c0.4,0.4,1,0.4,1.4,0
					l9.6-9.3c0.1-0.1,0.1-0.1,0.2-0.2c0.3-0.5,0.1-1.1-0.4-1.4l-8-4c-0.1,0-0.2-0.1-0.3-0.1C1573.9,452.6,1573.4,453,1573.3,453.5"
					/>
				<path vector-effect="non-scaling-stroke" class="st12" d="M2063.3,415.2c0,5.6,4.5,10.1,10.1,10.1s10.1-4.5,10.1-10.1l0,0
					c0-5.6-4.5-10.1-10.1-10.1S2063.3,409.6,2063.3,415.2"/>
				<path vector-effect="non-scaling-stroke" class="st12" d="M2038.7,415.1L2038.7,415.1c0,5.5,4.5,10,10,10l0,0
					c5.5,0,10-4.5,10-10l0,0c0-5.5-4.5-10-10-10l0,0C2043.2,405.1,2038.7,409.6,2038.7,415.1"/>
				<path vector-effect="non-scaling-stroke" class="st12" d="M2014.1,415.1c0,5.6,4.5,10.1,10.1,10.1s10.1-4.5,10.1-10.1
					s-4.5-10.1-10.1-10.1S2014.1,409.5,2014.1,415.1"/>
				<path vector-effect="non-scaling-stroke" class="st12" d="M1717.6,414.2v1.3l0,0c0,5.1,4.2,9.3,9.3,9.3h263l0,0
					c5.1,0,9.3-4.2,9.3-9.3v-1.3l0,0c0-5.1-4.2-9.3-9.3-9.3h-263l0,0C1721.8,404.9,1717.6,409,1717.6,414.2"/>
				<path vector-effect="non-scaling-stroke" class="st14" d="M2053.9,486c1.3-4.4,1.5-8.5,0.4-12.3c-0.3-1-0.9-1.5-2-1.6l-41-0.4"
					/>
				<path vector-effect="non-scaling-stroke" class="st8" d="M2053.4,505.6l12.8-7.6c0.4-0.2,0.8-0.6,1-1c0.8-1.4,0.3-3.1-1.1-3.9
					l-12.3-7.1"/>
				<path vector-effect="non-scaling-stroke" class="st14" d="M2024.3,519.8l28.4-1.1c1.1,0,1.7-0.6,2-1.7c0.8-3.7,0.4-7.5-1.2-11.4
					"/>
				<path vector-effect="non-scaling-stroke" class="st8" d="M2017.4,518.3c0.6,4,2.2,5.8,4.8,5.3c1.7-0.3,2.4-1.6,2.2-3.9"/>
				<path vector-effect="non-scaling-stroke" class="st14" d="M1973.6,504.5l0.8,12.3c0.1,1.1,0.6,1.6,1.7,1.6l41.3-0.1"/>
				<path vector-effect="non-scaling-stroke" class="st8" d="M1976,485.2l-13.4,7.8c-0.4,0.2-0.8,0.6-1,1c-0.8,1.3-0.4,3.1,0.9,3.9
					l11,6.6"/>
				<path vector-effect="non-scaling-stroke" class="st14" d="M2005.1,472.4l-28.9,0.1c-1,0-1.6,0.5-1.8,1.5
					c-0.8,4.5-0.3,8.3,1.6,11.3"/>
				<path vector-effect="non-scaling-stroke" class="st8" d="M2011.3,471.7c-0.7-3.8-2.5-5-5.2-3.8c-1.5,0.7-1.9,2.2-1.1,4.5"/>
				<path vector-effect="non-scaling-stroke" class="st13" d="M2017.4,518.3l-12.3-45.9"/>
				<path vector-effect="non-scaling-stroke" class="st13" d="M2011.3,471.7l13,48.1"/>
				<path vector-effect="non-scaling-stroke" class="st13" d="M1973.6,504.5l19.1,10.9c1,0.6,2.2,0.5,3.1-0.2c1.2-1,1.6-2,1.2-3.3
					c-0.3-0.7-0.9-1.4-2-2.1c-7.6-4.6-15.2-9.1-22.9-13.4c-0.2-0.1-0.3-0.2-0.4-0.4c-0.3-0.5-0.1-1.1,0.4-1.4
					c7.8-4.5,15.6-9,23.4-13.7c0.4-0.3,0.8-0.6,1-0.9c0.4-0.6,0.6-1,0.6-1.3c0-0.6-0.1-1.2-0.4-1.7c-0.9-1.5-2.8-2-4.3-1.2
					l-16.3,9.3"/>
				<path vector-effect="non-scaling-stroke" class="st13" d="M2053.9,486l-17.9-10c-0.9-0.5-1.8-0.5-2.6,0.2c-1.3,1-1.8,2-1.6,3
					c0.1,0.7,0.7,1.3,1.7,1.9c7.7,4.4,15.4,8.9,22.9,13.6c1.1,0.7,1.1,1.4,0,2.1l-22.4,13c-1.2,0.7-1.9,2-1.9,3.4
					c0.1,2.2,1.3,2.8,3.6,1.8c5.8-2.7,11.7-5.8,17.7-9.3"/>
				<path vector-effect="non-scaling-stroke" class="st16" d="M1938.8,539.3v1.5l0,0c0,1.2,1,2.1,2.1,2.1h124.2l0,0
					c1.2,0,2.1-1,2.1-2.1v-1.5l0,0c0-1.2-1-2.1-2.1-2.1h-124.2l0,0C1939.8,537.2,1938.8,538.2,1938.8,539.3"/>
				<path vector-effect="non-scaling-stroke" class="st14" d="M2061.3,561.1v164.2c0,1.4,1.2,2.6,2.6,2.6h0.8c1.4,0,2.6-1.2,2.6-2.6
					V561.1l0,0c0-1.4-1.2-2.6-2.6-2.6h-0.8l0,0C2062.5,558.5,2061.3,559.7,2061.3,561.1"/>
				<path vector-effect="non-scaling-stroke" class="st17" d="M2000.1,560.9v0.8l0,0c0,1.3,1.1,2.4,2.4,2.4l37.9,0.1l0,0
					c1.3,0,2.4-1.1,2.4-2.4V561l0,0c0-1.3-1.1-2.4-2.4-2.4l-37.9-0.1l0,0C2001.2,558.5,2000.1,559.6,2000.1,560.9"/>
				<path vector-effect="non-scaling-stroke" class="st16" d="M1952.8,561v0.7l0,0c0,1.1,0.9,2,2,2h28.4l0,0c1.1,0,2-0.9,2-2V561
					c0-1.1-0.9-2-2-2h-28.4l0,0C1953.7,559,1952.8,559.9,1952.8,561"/>
				<path vector-effect="non-scaling-stroke" class="st17" d="M1753.5,560.3v1.5l0,0c0,0.8,0.6,1.5,1.4,1.5l17.7,0.4
					c0.8,0,1.5-0.6,1.5-1.4v-1.5l0,0c0-0.8-0.6-1.5-1.4-1.5l-17.7-0.4C1754.2,558.8,1753.6,559.5,1753.5,560.3"/>
				<path vector-effect="non-scaling-stroke" class="st16" d="M1855,561.2L1855,561.2c0,1.3,1,2.3,2.2,2.3l72.8,0.1
					c1.2,0,2.2-1,2.2-2.2v-0.1l0,0c0-1.2-1-2.2-2.2-2.2l-72.8-0.1C1855.9,559.1,1855,560,1855,561.2"/>
				<path vector-effect="non-scaling-stroke" class="st17" d="M1783.6,561.1v0.2l0,0c0,1,0.8,1.8,1.8,1.8l45.8,0.1
					c1,0,1.8-0.8,1.8-1.8v-0.2l0,0c0-1-0.8-1.8-1.8-1.8l-45.8-0.1C1784.4,559.3,1783.6,560.1,1783.6,561.1"/>
				<path vector-effect="non-scaling-stroke" class="st16" d="M1966.1,584.2v0.2c0,1.3,1,2.3,2.3,2.3h72.2c1.3,0,2.3-1,2.3-2.3v-0.2
					c0-1.3-1-2.3-2.3-2.3h-72.2C1967.1,581.9,1966.1,582.9,1966.1,584.2"/>
				<path vector-effect="non-scaling-stroke" class="st16" d="M1923.9,583.7v0.9l0,0c0,1,0.8,1.9,1.9,1.9l19.2,0.1
					c1,0,1.9-0.8,1.9-1.9v-0.9l0,0c0-1-0.8-1.9-1.9-1.9l-19.2-0.1C1924.7,581.9,1923.9,582.7,1923.9,583.7"/>
				<path vector-effect="non-scaling-stroke" class="st16" d="M1810.6,584L1810.6,584L1810.6,584c0,1.2,0.9,2.2,2.1,2.2l88.4,0.3
					l0,0c1.1,0,2.1-0.9,2.1-2.1v-0.1l0,0c0-1.1-0.9-2.1-2.1-2.1l-88.4-0.3C1811.6,582,1810.6,582.9,1810.6,584"/>
				<path vector-effect="non-scaling-stroke" class="st16" d="M1879.8,607.9L1879.8,607.9L1879.8,607.9c0,1.4,1,2.4,2.3,2.4H1983
					l0,0c1.3,0,2.3-1,2.3-2.3v-0.1l0,0c0-1.3-1-2.3-2.3-2.3h-100.9l0,0C1880.9,605.6,1879.8,606.6,1879.8,607.9"/>
				<path vector-effect="non-scaling-stroke" class="st16" d="M2004.7,607.8v0.3l0,0c0,1.2,0.9,2.1,2.1,2.1l33.9,0.1
					c1.2,0,2.1-0.9,2.1-2.1v-0.3l0,0c0-1.2-0.9-2.1-2.1-2.1l-33.9-0.1C2005.6,605.7,2004.7,606.6,2004.7,607.8"/>
				<path vector-effect="non-scaling-stroke" class="st16" d="M1849.3,607.7v0.8l0,0c0,1,0.8,1.8,1.8,1.7l15-0.2l0,0
					c1,0,1.8-0.8,1.7-1.8v-0.8l0,0c0-1-0.8-1.8-1.8-1.7l-15,0.2l0,0C1850,605.9,1849.2,606.7,1849.3,607.7"/>
				<path vector-effect="non-scaling-stroke" class="st17" d="M1791,607.7v0.2c0,1,0.8,1.8,1.8,1.8l35,0.1c1,0,1.8-0.8,1.8-1.8v-0.2
					c0-1-0.8-1.8-1.8-1.8l-35-0.1C1791.8,605.9,1791,606.7,1791,607.7"/>
				<path vector-effect="non-scaling-stroke" class="st16" d="M1961.7,631.4v0.3c0,1.2,1,2.2,2.2,2.2h76.8c1.2,0,2.2-1,2.2-2.2v-0.3
					c0-1.2-1-2.2-2.2-2.2h-76.8C1962.7,629.2,1961.7,630.2,1961.7,631.4"/>
				<path vector-effect="non-scaling-stroke" class="st16" d="M1834.5,631.4L1834.5,631.4c0,1.4,1,2.4,2.3,2.4l101.8,0.2
					c1.3,0,2.3-1,2.3-2.3v-0.1c0-1.3-1-2.3-2.3-2.3l-101.8-0.2l0,0C1835.6,629,1834.5,630.1,1834.5,631.4"/>
				<path vector-effect="non-scaling-stroke" class="st17" d="M1790.2,631.1v0.8l0,0c0,1,0.8,1.7,1.7,1.7h22.3c1,0,1.7-0.8,1.7-1.7
					v-0.8l0,0c0-1-0.8-1.7-1.7-1.7h-22.3C1791,629.3,1790.2,630.1,1790.2,631.1"/>
				<path vector-effect="non-scaling-stroke" class="st14" d="M2037,654.1v71.2l0,0c0,1.4,1.1,2.5,2.5,2.5h0.8l0,0
					c1.4,0,2.5-1.1,2.5-2.5v-71.2l0,0c0-1.4-1.1-2.5-2.5-2.5h-0.8l0,0C2038.1,651.6,2037,652.7,2037,654.1"/>
				<path vector-effect="non-scaling-stroke" class="st9" d="M1935.2,654.2v0.3l0,0c0,1.3,1.1,2.4,2.4,2.4h78.5l0,0
					c1.3,0,2.4-1.1,2.4-2.4v-0.3l0,0c0-1.3-1.1-2.4-2.4-2.4h-78.5l0,0C1936.3,651.8,1935.2,652.9,1935.2,654.2"/>
				<path vector-effect="non-scaling-stroke" class="st9" d="M1849.5,654.1v0.9c0,1.1,0.9,2,2,2l65-0.1l0,0c1.1,0,2-0.9,2-2V654
					c0-1.1-0.9-2-2-2l-65,0.1C1850.4,652.1,1849.5,653,1849.5,654.1"/>
				<path vector-effect="non-scaling-stroke" class="st9" d="M1772.5,654.4v0.2c0,1.4,1.2,2.6,2.6,2.6h59.9l0,0
					c1.4,0,2.6-1.2,2.6-2.6v-0.2c0-1.4-1.2-2.6-2.6-2.6h-59.9C1773.7,651.8,1772.5,653,1772.5,654.4"/>
				<path vector-effect="non-scaling-stroke" class="st9" d="M1938.6,677.8v0.9c0,1.4,1.1,2.5,2.5,2.5h74.9c1.4,0,2.5-1.1,2.5-2.5
					v-0.9l0,0c0-1.4-1.1-2.5-2.5-2.5h-74.9l0,0C1939.7,675.3,1938.6,676.4,1938.6,677.8"/>
				<path vector-effect="non-scaling-stroke" class="st9" d="M1877.7,678.2L1877.7,678.2c0,1.7,1.3,3,2.9,3h37.4
					c1.6,0,2.9-1.3,2.9-2.9v-0.1c0-1.6-1.3-2.9-2.9-2.9h-37.4C1879,675.3,1877.7,676.6,1877.7,678.2"/>
				<path vector-effect="non-scaling-stroke" class="st9" d="M1817,678v0.6l0,0c0,1.5,1.2,2.7,2.7,2.7l45.6-0.1l0,0
					c1.5,0,2.7-1.2,2.7-2.7v-0.6l0,0c0-1.5-1.2-2.7-2.7-2.7l-45.6,0.1l0,0C1818.2,675.3,1817,676.5,1817,678"/>
				<path vector-effect="non-scaling-stroke" class="st9" d="M1733.4,678.2L1733.4,678.2L1733.4,678.2c0,1.7,1.3,3,2.9,3l54-0.1l0,0
					c1.6,0,2.9-1.3,2.9-2.9v-0.1c0-1.6-1.3-2.9-2.9-2.9l-54,0.1l0,0C1734.7,675.3,1733.4,676.6,1733.4,678.2"/>
				<path vector-effect="non-scaling-stroke" class="st9" d="M1982.2,701.4v0.9l0,0c0,1.4,1.1,2.5,2.6,2.5l31.1-0.1l0,0
					c1.4,0,2.5-1.1,2.5-2.6v-0.9l0,0c0-1.4-1.1-2.5-2.6-2.5l-31.1,0.1l0,0C1983.4,698.9,1982.2,700,1982.2,701.4"/>
				<path vector-effect="non-scaling-stroke" class="st9" d="M1865.3,701.8L1865.3,701.8c0,1.7,1.3,3,2.9,3h100.9
					c1.6,0,2.9-1.3,2.9-2.9v-0.1c0-1.6-1.3-2.9-2.9-2.9h-100.9C1866.6,698.9,1865.3,700.2,1865.3,701.8"/>
				<path vector-effect="non-scaling-stroke" class="st9" d="M1760,701.7v0.2l0,0c0,1.6,1.3,2.9,2.9,2.9h82.2l0,0
					c1.6,0,2.9-1.3,2.9-2.9v-0.2l0,0c0-1.6-1.3-2.9-2.9-2.9h-82.2l0,0C1761.2,698.9,1760,700.2,1760,701.7"/>
				<path vector-effect="non-scaling-stroke" class="st9" d="M1952.5,724.7L1952.5,724.7L1952.5,724.7c0,1.7,1.3,2.9,2.8,2.9h60.3
					l0,0c1.6,0,2.8-1.3,2.8-2.8v-0.1l0,0c0-1.6-1.3-2.8-2.8-2.8h-60.3l0,0C1953.8,721.9,1952.5,723.2,1952.5,724.7"/>
				<path vector-effect="non-scaling-stroke" class="st9" d="M1801.8,724.7L1801.8,724.7c0,1.7,1.3,2.9,2.8,2.9h122.1l0,0
					c1.6,0,2.8-1.3,2.8-2.8v-0.1l0,0c0-1.6-1.3-2.8-2.8-2.8h-122.1C1803,721.9,1801.8,723.2,1801.8,724.7"/>
				<path vector-effect="non-scaling-stroke" class="st9" d="M1733.2,724.7v0.2l0,0c0,1.5,1.2,2.8,2.8,2.8l42.6-0.1l0,0
					c1.5,0,2.8-1.2,2.8-2.8v-0.2l0,0c0-1.5-1.2-2.8-2.8-2.8l-42.6,0.1l0,0C1734.5,721.9,1733.2,723.2,1733.2,724.7"/>
				<path vector-effect="non-scaling-stroke" class="st18" d="M1551.5,550.9L1551.5,550.9c0,6.3,5.1,11.4,11.4,11.4
					s11.4-5.1,11.4-11.4c0-6.3-5.1-11.4-11.4-11.4l0,0C1556.6,539.5,1551.5,544.6,1551.5,550.9"/>
				<path vector-effect="non-scaling-stroke" class="st18" d="M1551.4,612L1551.4,612c0,6.3,5.1,11.4,11.4,11.4s11.4-5.1,11.4-11.4
					l0,0c0-6.3-5.1-11.4-11.4-11.4l0,0C1556.5,600.6,1551.4,605.7,1551.4,612"/>
				<path vector-effect="non-scaling-stroke" class="st18" d="M1551.5,672.8L1551.5,672.8c0,6.3,5.1,11.3,11.3,11.3
					s11.3-5.1,11.3-11.3s-5.1-11.3-11.3-11.3l0,0C1556.6,661.4,1551.5,666.5,1551.5,672.8"/>
				<path vector-effect="non-scaling-stroke" class="st18" d="M1551.5,733.7L1551.5,733.7c0,6.3,5.1,11.4,11.4,11.4l0,0
					c6.3,0,11.4-5.1,11.4-11.4l0,0c0-6.3-5.1-11.4-11.4-11.4l0,0C1556.6,722.2,1551.5,727.4,1551.5,733.7"/>
				<path vector-effect="non-scaling-stroke" class="st9" d="M2234.4,601.4l-16.5-9.9c-0.3-0.2-0.7-0.2-0.9,0
					c-0.4,0.3-0.6,0.8-0.3,1.3l10,16.5c0.1,0.1,0.2,0.2,0.3,0.3l16.1,9.7c0.3,0.1,0.6,0.1,0.9,0c0.4-0.2,0.6-0.8,0.4-1.2l-9.6-16.4
					C2234.7,601.6,2234.6,601.5,2234.4,601.4"/>
				<path vector-effect="non-scaling-stroke" class="st9" d="M2249.4,607.6l3.1,0.2c1.2,0.1,2.4-0.7,2.6-1.9
					c0.3-1.3-0.6-2.6-1.9-2.9c-2.4-0.6-4.1,0.3-5.1,2.4C2247.5,606.8,2247.9,607.5,2249.4,607.6"/>
				<path vector-effect="non-scaling-stroke" class="st9" d="M2232,663c1.4-0.8,1.9-2.7,1.1-4.3l0,0c-0.9-1.6-2.7-2.4-4.2-1.6
					c-1.4,0.8-1.9,2.7-1.1,4.3l0,0C2228.7,663,2230.5,663.7,2232,663"/>
				<path vector-effect="non-scaling-stroke" class="st9" d="M2244.7,693.5l-10.1-16.3c-0.1-0.1-0.2-0.2-0.4-0.3l-16-9.7
					c-0.4-0.2-0.8-0.2-1.2,0c-0.5,0.3-0.6,1-0.3,1.5l9.5,15.8c0.1,0.2,0.2,0.3,0.4,0.4l16.5,10.1c0.4,0.2,0.8,0.2,1.2,0
					C2244.9,694.6,2245,694,2244.7,693.5"/>
				<path vector-effect="non-scaling-stroke" class="st9" d="M2252.5,678.3l-3.6,1c-0.4,0.1-0.7,0.3-0.9,0.6
					c-0.7,0.8-0.6,1.9,0.2,2.6c2.1,1.7,4,1.5,5.9-0.6c1-1.2,0.9-2.3-0.4-3.3C2253.3,678.2,2252.9,678.2,2252.5,678.3"/>
				<path vector-effect="non-scaling-stroke" class="st9" d="M2206.9,679.2c-0.7,0.4-1,1.1-1,1.9c0.3,2.9,2.4,3.8,6.4,2.6
					c0.5-0.1,1-0.5,1.3-0.9c0.8-1.1,0.6-2.6-0.5-3.3C2211,678,2209,677.9,2206.9,679.2"/>
				<path vector-effect="non-scaling-stroke" class="st18" d="M2235.1,756.3L2235.1,756.3c0,6.3,5.1,11.4,11.4,11.4l0,0
					c6.3,0,11.4-5.1,11.4-11.4c0-6.3-5.1-11.4-11.4-11.4S2235.1,750,2235.1,756.3"/>
				<path vector-effect="non-scaling-stroke" class="st18" d="M2235.1,817.1c0,6.3,5.1,11.4,11.4,11.4s11.4-5.1,11.4-11.4l0,0
					c0-6.3-5.1-11.4-11.4-11.4l0,0C2240.2,805.6,2235.1,810.8,2235.1,817.1"/>
				<path vector-effect="non-scaling-stroke" class="st18" d="M2235,878.2L2235,878.2c0,6.3,5.1,11.4,11.4,11.4l0,0
					c6.3,0,11.4-5.1,11.4-11.4l0,0c0-6.3-5.1-11.4-11.4-11.4l0,0C2240.2,866.7,2235,871.9,2235,878.2"/>
				<path vector-effect="non-scaling-stroke" class="st18" d="M2235.1,938.9L2235.1,938.9c0,6.3,5.1,11.4,11.4,11.4l0,0
					c6.3,0,11.4-5.1,11.4-11.4c0-6.3-5.1-11.4-11.4-11.4S2235.1,932.6,2235.1,938.9"/>
				<path vector-effect="non-scaling-stroke" class="st18" d="M2084.1,939c0,6.4,5.2,11.6,11.6,11.6c6.4,0,11.6-5.2,11.6-11.6l0,0
					c0-6.4-5.2-11.6-11.6-11.6C2089.2,927.4,2084.1,932.6,2084.1,939"/>
				<path vector-effect="non-scaling-stroke" class="st9" d="M1540.4,791.4c0,14.6,11.8,26.4,26.4,26.4s26.4-11.8,26.4-26.4
					s-11.8-26.4-26.4-26.4C1552.2,765,1540.4,776.8,1540.4,791.4"/>
				<path vector-effect="non-scaling-stroke" class="st9" d="M1566.8,856.5L1566.8,856.5c3.1,0,5.7-6.1,5.7-13.6l0,0
					c0-7.5-2.5-13.6-5.6-13.6l0,0c-3.1,0-5.7,6.1-5.7,13.6l0,0C1561.1,850.4,1563.6,856.5,1566.8,856.5"/>
				<path vector-effect="non-scaling-stroke" class="st9" d="M1543.6,791.3L1543.6,791.3c0,12.8,10.4,23.2,23.2,23.2l0,0
					c12.8,0,23.2-10.4,23.2-23.2l0,0c0-12.8-10.4-23.2-23.2-23.2l0,0C1554,768.1,1543.6,778.5,1543.6,791.3"/>
				<path vector-effect="non-scaling-stroke" class="st18" d="M1581.9,792.6c0.5,1,1.5,1.7,2.6,1.6c1.5,0,2.7-1.3,2.7-2.8
					c-0.3-8.1-3.9-14.1-10.7-18c-1.3-0.8-3-0.5-3.9,0.7c-0.9,1.3-0.6,3,0.6,4C1579.6,783.2,1579,785.6,1581.9,792.6"/>
				<path vector-effect="non-scaling-stroke" class="st14" d="M1878.4,863.3c0,12.1,9.8,21.9,21.9,21.9l0,0
					c12.1,0,21.9-9.8,21.9-21.9l0,0c0-12.1-9.8-21.9-21.9-21.9S1878.4,851.2,1878.4,863.3"/>
				<path vector-effect="non-scaling-stroke" class="st18" d="M1582.1,900.1c0.2,0.8,0.9,1.3,1.6,1.5c1.2,0.3,2.5-0.4,2.8-1.7
					c1.6-7-4.8-21.5-12.7-19.6c-0.6,0.1-1,0.5-1.4,0.9c-0.8,1.1-0.5,2.6,0.5,3.4C1579.4,889.2,1580,893,1582.1,900.1"/>
			</g>
			<path class="st19" d="M2159.2,288.1c-2.1-18.5,3.3-33.8,16.3-45.9c38.4-35.7,100.9-7.8,96.2,45.8c-0.6,6.7-3.6,15.6-9.1,26.7
				c-10.1,20.5-20.5,40.9-31.1,61.2c-8.3,15.8-24.6,15.2-32.8-0.4c-9.4-18.1-18.7-36.2-27.8-54.5
				C2164.1,307.5,2160.2,296.5,2159.2,288.1z M2215.2,307.2L2215.2,307.2c15.2,0,27.5-12.3,27.5-27.5s-12.3-27.5-27.5-27.5
				s-27.5,12.3-27.5,27.5S2200,307.2,2215.2,307.2z"/>
			<path class="st20" d="M2110.1,252.7H1862c-0.2,0-0.4,0-0.5,0.1c-0.6,0.3-0.8,1-0.5,1.6l6.9,12.6c0.8,1.3,0.3,3.1-1,3.8
				c-1.3,0.8-3.1,0.3-3.8-1c-7.1-11.4-13.9-23.3-20.5-35.6c-0.6-1.1-0.8-2-0.6-2.7c0.3-1.2,1-1.9,2.2-2.3c1.1-0.4,1.9,0,2.5,0.9
				l9,15.2c0.6,1,1.5,1.5,2.7,1.5h256c0.7,0,1.3-0.4,1.6-0.9l9.5-16.1c0.1-0.2,0.3-0.4,0.5-0.6c0.9-0.7,2.1-0.5,2.8,0.4l1,1.3
				c0.8,1,0.8,2.1,0.2,3.2l-20.8,35.8c-0.6,1-1.4,1.2-2.4,0.6l-2-1.2c-1-0.7-1.2-1.5-0.6-2.6l6.9-12.4
				C2111.5,253.2,2111.2,252.7,2110.1,252.7z"/>
			<path class="st19" d="M1648.3,233.4c17.9,0,32.4,14.5,32.4,32.4s-14.5,32.4-32.4,32.4s-32.4-14.5-32.4-32.4
				S1630.4,233.4,1648.3,233.4z M1651.3,259.8c0.3,0.6,0.1,1.4-0.5,1.7l-6.8,3.6c-4.2,2.2-4.9,5.3-2.2,9.1c3.7,5.4,8.2,5.4,13.3,0
				c0.5-0.5,0.6-1.3,0.3-2c-0.4-0.9-1.5-1.2-2.4-0.8l-4.3,2.2c-0.7,0.4-1.4,0.3-2-0.1l-2-1.4c-0.1-0.1-0.3-0.2-0.4-0.4
				c-0.5-0.7-0.4-1.8,0.4-2.3c2.9-2.1,7.4-2.8,9.4-5.1c4.2-5-2.7-12.1-8.7-10.2c-1.9,0.6-3,1.7-3.5,3.3c-0.1,0.3,0,0.6,0.1,0.9
				c0.3,0.7,1.1,1,1.7,0.7c2.5-1.2,4.9-1.1,7.1,0.3C1651.1,259.5,1651.2,259.6,1651.3,259.8z"/>
			<path class="st20" d="M1610.2,246.7v0.1c0,1.6-1.3,2.9-2.9,2.9H1551c-1.6,0-2.9-1.3-2.9-2.9v-0.1c0-1.6,1.3-2.9,2.9-2.9h56.3
				C1608.9,243.8,1610.2,245.1,1610.2,246.7z"/>
			<circle class="st20" cx="2215.2" cy="279.7" r="27.5"/>
			<path class="st20" d="M1651.3,261c0.4-0.6,0.2-1.3-0.4-1.7c-2.2-1.4-4.5-1.5-7.1-0.3c-0.3,0.1-0.6,0.2-0.9,0.1
				c-0.7-0.2-1.1-0.9-0.9-1.6c0.4-1.6,1.6-2.7,3.5-3.3c5.9-1.9,12.9,5.1,8.7,10.2c-2,2.3-6.5,3-9.4,5.1c-0.1,0.1-0.3,0.2-0.4,0.4
				c-0.5,0.7-0.4,1.8,0.4,2.3l2,1.4c0.6,0.5,1.3,0.5,2,0.1l4.3-2.2c0.6-0.3,1.4-0.2,2,0.3c0.7,0.7,0.8,1.8,0.1,2.5
				c-5.1,5.4-9.5,5.3-13.3,0c-2.7-3.9-2-6.9,2.2-9.1l6.8-3.6C1651,261.4,1651.1,261.2,1651.3,261z"/>
			<path class="st20" d="M1609.8,265.9v0.2c0,1.6-1.3,2.8-2.8,2.8h-55.9c-1.6,0-2.8-1.3-2.8-2.8v-0.2c0-1.6,1.3-2.8,2.8-2.8h55.9
				C1608.6,263,1609.8,264.3,1609.8,265.9z"/>
			<path class="st20" d="M1806.7,349.3c4.5-8.8,5.8-18-2.8-23.9c-3.2-2.2-8.6-3.2-16.3-3.2c-12.3,0.1-31.2,2.4-40.9-4
				c-12.4-8.1-11.3-30.1,1.9-36.8c3.8-1.9,10-2.9,18.7-2.9c25.2,0,50.3,0,75.5,0c1.4,0,2.1,0.7,2.1,2.1v1.7c0,1.4-0.7,2.1-2.1,2.1
				c-25.4,0.1-50.9,0.1-76.3,0c-6.8,0-11.6,0.6-14.5,1.9c-10.3,4.6-11.1,21.8-1.1,27.5c17.9,10.1,60-10.8,64.9,20.6
				c1.9,12-12.1,34-17.9,45.1l-6.3,0.1C1796.8,369,1801.8,358.9,1806.7,349.3z"/>
			<path class="st20" d="M1609.8,285v0.4c0,1.5-1.2,2.7-2.7,2.7h-32.4c-1.5,0-2.7-1.2-2.7-2.7V285c0-1.5,1.2-2.7,2.7-2.7h32.4
				C1608.6,282.2,1609.8,283.5,1609.8,285z"/>
			<path class="st19" d="M1876.3,287.1c0.4-0.7,1.1-1.1,2-1.1H2096c1.1,0,1.9,0.5,2.5,1.4l108.7,188.4c0.6,0.9,0.6,1.9,0,2.8
				l-12.8,22c-5.3-21.7-19.1-32.3-41.4-31.6l-18.3-32.6c-0.1-0.1-0.1-0.2-0.2-0.3c-0.9-1.1-2.4-1.3-3.5-0.4
				c-0.8,0.6-1.2,1.6-1.2,2.8c0,0.7,0.2,1.6,0.8,2.5c5.3,9.2,10.7,18.5,16.1,28l-19.7,0.1c-0.9,0-1.4-0.5-1.4-1.4v-81.9l0,0
				c0-3.3-2.7-6-6-6h-72.8l7.7-14.6c0.4-0.8,1-1.6,1.6-2.4c2.3-2.6,4.2-5.4,5.8-8.5l0,0c0.8-1.5,0.3-3.4-1.2-4.3s-3.4-0.3-4.3,1.2
				c-1.3,2.2-2.8,4.7-4.4,7.6c-0.7,1.3-0.4,2.5,0.9,3.5c0.2,0.2,0.3,0.4,0.3,0.7c0,0.5-0.4,0.9-0.9,0.9h-1.4c-1,0-1.7,0.4-2.2,1.3
				l-8.1,14.6h-108c-1.8-9.8-5.8-15.1-11.8-16.1c0.3-0.9,0.7-1.6,1.4-2.2c0.8-0.7,1-1.6,0.4-2.5l-5.6-8.7c-0.4-0.7-1.2-1-1.9-1
				c-1.3,0-2.3,1.1-2.2,2.4c0.2,6.1,2.8,10.2,7.9,12.1c0,4.8,2.3,10.1,6.9,16l-104.8-0.1L1876.3,287.1z M2069.9,335.8
				c6.4,11,12.7,22.2,18.8,33.4c1.1,2.1,2.5,3.4,4.1,4.1c0.8,0.3,1.7,0.3,2.5-0.2c1.4-0.8,1.8-2.5,1-3.9l-22.3-38.6
				c-0.6-1-1.5-1.6-2.7-1.6c-14.5-0.3-28.9-0.5-43.2-0.6c-2,0-3.5,0.6-4.3,1.7c-0.3,0.4-0.5,1-0.5,1.5c0,1.4,1.1,2.5,2.5,2.5
				l42.1,0.3C2068.7,334.6,2069.5,335,2069.9,335.8z M1906.7,334.8c14.2-0.3,28.3-0.7,42.3-1.1c1.8-0.1,2.5-0.9,2.3-2.6
				c-0.1-1.1-1.1-2-2.2-2l-45.9-0.3c-1,0-1.9,0.5-2.3,1.3l-22.4,38.7c-0.6,1-0.6,2.2,0,3.2c0.8,1.5,2,2,3.5,1.5
				c0.8-0.3,1.5-0.9,2.1-2c8.9-15.2,13.7-24.6,20.4-35.5C1905,335.3,1905.7,334.8,1906.7,334.8z"/>
			<path class="st19" d="M1615.9,343.4c0-17.9,14.5-32.4,32.4-32.4l0,0c17.9,0,32.4,14.5,32.4,32.4l0,0c0,17.9-14.5,32.4-32.4,32.4
				l0,0C1630.4,375.8,1615.9,361.3,1615.9,343.4L1615.9,343.4z M1651.7,338c0.1,0.6-0.3,1.2-0.9,1.3c-4.8,1-8.3,3.5-10.6,7.4
				c-0.5,0.8-0.6,1.9-0.2,2.8c3.9,9.3,14.4,9.1,15.4,0.1c0.1-0.5-0.1-1-0.5-1.3c-0.6-0.6-1.6-0.5-2.2,0.2c-2.1,2.4-4.6,2.9-7.3,1.3
				c-0.3-0.2-0.5-0.4-0.7-0.7c-0.4-0.8-0.1-1.8,0.7-2.2l7.3-3.6c0.7-0.4,1.2-0.9,1.6-1.5c4.4-7.9-8.9-16.5-13.3-5.4
				c-0.1,0.2-0.1,0.5,0,0.8c0.2,0.6,0.8,0.9,1.4,0.7l6.1-2c0.3-0.1,0.6,0,0.9,0.2l1.8,1.5C1651.5,337.5,1651.6,337.7,1651.7,338z"/>
			<path class="st20" d="M1610,324.3L1610,324.3c0,1.7-1.3,3-2.9,2.9l-56.1-0.1c-1.6,0-2.9-1.3-2.9-2.9v-0.1c0-1.6,1.3-2.9,2.9-2.9
				l56.1,0.1C1608.7,321.4,1610,322.7,1610,324.3z"/>
			<path class="st20" d="M2067.8,334.6l-42.1-0.3c-0.6,0-1.1-0.2-1.5-0.5c-1.1-0.8-1.3-2.4-0.4-3.5c0.9-1.2,2.3-1.8,4.3-1.7
				c14.3,0.1,28.8,0.3,43.2,0.6c1.2,0,2.1,0.6,2.7,1.6l22.3,38.6c0.4,0.8,0.5,1.7,0.2,2.5c-0.6,1.5-2.2,2.2-3.7,1.6
				c-1.6-0.7-2.9-2-4.1-4.1c-6.1-11.2-12.4-22.3-18.8-33.4C2069.5,335,2068.7,334.6,2067.8,334.6z"/>
			<path class="st20" d="M1881.9,373.6c-1.5,0.5-2.6-0.1-3.5-1.5c-0.6-1-0.6-2.2,0-3.2l22.4-38.7c0.5-0.8,1.4-1.3,2.3-1.3l45.9,0.3
				c1.1,0,2.1,0.9,2.2,2c0.2,1.7-0.6,2.5-2.3,2.6c-13.9,0.4-28,0.8-42.3,1.1c-1,0-1.8,0.5-2.3,1.3c-6.7,10.9-11.6,20.3-20.4,35.5
				C1883.4,372.7,1882.7,373.3,1881.9,373.6z"/>
			<path class="st20" d="M1651.4,338.9c0.4-0.5,0.4-1.2-0.1-1.6l-1.8-1.5c-0.3-0.2-0.6-0.3-0.9-0.2l-6.1,2c-0.2,0.1-0.5,0.1-0.8,0
				c-0.6-0.2-0.8-0.9-0.6-1.4c4.3-11.1,17.6-2.6,13.3,5.4c-0.4,0.7-0.9,1.2-1.6,1.5l-7.3,3.6c-0.3,0.1-0.5,0.4-0.7,0.7
				c-0.4,0.8-0.2,1.8,0.6,2.2c2.7,1.5,5.2,1.1,7.3-1.3c0.3-0.4,0.8-0.6,1.3-0.5c0.8,0.1,1.4,0.9,1.3,1.7c-1,9.1-11.5,9.2-15.4-0.1
				c-0.4-0.9-0.3-1.9,0.2-2.8c2.3-3.9,5.8-6.3,10.6-7.4C1651,339.2,1651.3,339.1,1651.4,338.9z"/>
			<path class="st20" d="M1609.9,342.9v1.2c0,1.3-1,2.3-2.3,2.3h-56.7c-1.3,0-2.3-1-2.3-2.3v-1.2c0-1.3,1-2.3,2.3-2.3h56.7
				C1608.9,340.6,1609.9,341.6,1609.9,342.9z"/>
			<path class="st20" d="M1912.9,351.5c0-0.8,0.4-1.5,1-2c1.1-0.7,2.5-0.4,3.2,0.6l5.6,8.7c0.6,0.9,0.5,1.8-0.4,2.5
				c-0.7,0.6-1.2,1.3-1.4,2.2C1915.8,361.7,1913.1,357.7,1912.9,351.5z"/>
			<path class="st20" d="M2048.7,365.1c0.5-0.9,1.2-1.3,2.2-1.3h1.4c0.3,0,0.5-0.1,0.7-0.3c0.3-0.4,0.3-1-0.1-1.3
				c-1.3-1.1-1.6-2.2-0.9-3.5c1.6-2.8,3.1-5.4,4.4-7.6c0.8-1.5,2.7-2.1,4.3-1.2s2.1,2.7,1.2,4.3c-1.6,3.1-3.5,6-5.8,8.5
				c-0.7,0.7-1.2,1.5-1.6,2.4l-7.7,14.6h-6.2L2048.7,365.1z"/>
			<path class="st20" d="M1609.9,362.7v0.2c0,1.6-1.3,2.9-2.9,2.9h-32.3c-1.6,0-2.9-1.3-2.9-2.9v-0.2c0-1.6,1.3-2.9,2.9-2.9h32.3
				C1608.7,359.8,1609.9,361.1,1609.9,362.7z"/>
			<path class="st20" d="M1932.7,379.7l-5-0.1c-4.6-5.9-6.9-11.3-6.9-16C1926.9,364.6,1930.9,370,1932.7,379.7z"/>
			<path class="st21" d="M1927.7,379.6l5,0.1h108h6.2h72.8l0,0c3.3,0,6,2.7,6,6v81.9c0,0.9,0.5,1.4,1.4,1.4l19.7-0.1h6.4
				c22.3-0.7,36.1,9.8,41.4,31.6l0.1,65.8v11.6c-0.3,93.7-0.4,188.1-0.2,283c0,19.5-2.3,35.1-20,43.6c-5.9,2.8-17,4.2-33.2,4.2
				c-60.2,0-120.7,0-181.3,0h-0.1c-0.4,0.1-0.7,0.5-0.6,0.9l9.2,46.4c0.2,0.9,0.8,1.4,1.7,1.4c6.2,0.1,12.4,0.2,18.5,0.1
				c3.8,0,6.8,2.6,6.2,6.4c-0.4,3-3,5.3-6.1,5.3c-58.3,0-116.8,0-175.7-0.1c-2.6,0-4.8-1-6.4-3.1c-0.8-0.9-1.2-2.1-1.2-3.3
				c0-2.9,2.4-5.3,5.4-5.3l19.4,0.1c1.1,0,1.8-0.6,2.1-1.7l9.1-45.5c0.2-1.1-0.2-1.6-1.3-1.6c-59.6-0.1-119.3-0.1-178.9,0
				c-17.2,0-29-1.4-35.3-4.3c-13.2-6-19.7-17.6-19.7-34.9c0.1-44.3,0.1-88.6,0.1-132.9l-0.1-5.8c0.2-70.1,0.2-140.3,0-210.5
				c-0.1-21.6,1.4-38.7,21.3-47.7c12.4-5.6,31.9-3.3,46.7-3.4c1,0,1.5-0.5,1.5-1.5v-81.9c0-4.1,2-6.2,6.1-6.2l109.8-0.1l6.3-0.1
				l24.9,0.1L1927.7,379.6z M2112.3,438.8c1,0,1.5-0.5,1.5-1.5v-44.1c0-1-0.5-1.5-1.5-1.5h-406.2l-16.7,0.1c-1.3,0-1.9,0.7-1.9,2
				l0.3,42.7c0,1.3,1,2.3,2.3,2.3h16.7H2112.3z M2112.4,760.9c0.9,0,1.4-0.5,1.4-1.4V452.7c0-1.2-0.6-1.8-1.8-1.9l-7.9-0.1h-398.2
				l-16.5,0.2c-1.2,0-1.8,0.6-1.8,1.9l0.1,272c0,0.4,0.2,0.7,0.5,0.9c0.5,0.2,1,0,1.3-0.5c1.3-2.7,3.4-4.1,6.3-4.3
				c1-0.1,1.8,0.7,1.9,1.7l2.7,36.3c0.1,1.3,0.8,2,2.1,2h3.5h398L2112.4,760.9z M2180.7,817.8c1.2,0,1.8-0.6,1.8-1.8
				c0-101.3,0-202.5,0-303.6c0-37.9-28.2-31.7-55.4-31.5c-1,0-1.5,0.5-1.5,1.5v284.8c0,3.1-2.5,5.5-5.6,5.5h-417h-0.1
				c-0.8,0.1-1.3,0.7-1.3,1.5l2.4,28.7c0.1,0.8-0.2,1.5-0.6,2.1c-1,1.3-2.9,1.6-4.3,0.6l-15.9-11.9c-0.1-0.1-0.3-0.2-0.4-0.2
				c-0.8-0.3-1.6,0.1-1.9,0.9l-6.1,16.9c-0.7,1.8-2.7,2.8-4.5,2.1l-14.4-5.1l0,0c-2.1-0.8-3.1-3.1-2.3-5.2l6.2-16.4
				c0.4-1.1,0-1.7-1.1-1.7l-18.7-1.1c-2-0.4-3.3-1.1-4-2.3c-0.4-0.9-0.3-1.9,0.3-2.6l4.3-5.1l34.2-34.9c0.6-0.6,0.9-1.5,0.9-2.4
				V483.2c0-1.4-0.7-2.1-2-2.1c-11.1-0.3-22.5-0.2-34.2,0.2c-6.9,0.3-13.9,5.3-21,15.2l-0.4,319.8c0,1,0.5,1.5,1.6,1.5h19.8
				L2180.7,817.8L2180.7,817.8z M1666.6,779.8c1.1,0.5,1.5,1.3,1.1,2.5l-7,19.4c-0.4,1.1,0,1.8,1,2.2l6.5,2.3c1.1,0.4,1.9,0,2.3-1.1
				l6.9-18.8c0.1-0.2,0.2-0.5,0.4-0.7c0.9-1.3,2.7-1.5,3.9-0.6l13.8,10.1c1.3,0.9,1.9,0.6,1.7-1l-4.8-61.3c-0.1-1.3-0.6-1.5-1.5-0.6
				l-18,18.1l-25.1,25.4c-0.7,0.7-0.6,1.2,0.3,1.5c2.6,1,5,1.4,7.2,1C1660.1,778.2,1663.8,778.7,1666.6,779.8z M2145.9,896.8
				c25.4,0,36.6-5.7,36.6-31.9c0-11.2,0-22.4-0.1-33.6c0-1-0.5-1.6-1.5-1.6h-540.2h-21c-1,0-1.5,0.5-1.5,1.5
				c-0.1,15.7-2.8,42.5,4.3,54c5.3,8.5,14.7,12.4,28.3,11.5C1815.6,896.9,1980.7,896.9,2145.9,896.8z M1855.1,908.8
				c-0.6,0-1.1,0.4-1.2,1l-9.3,46.2c0,0.1,0,0.2,0,0.2c0,0.7,0.5,1.2,1.2,1.2l109.4,0.1c0.1,0,0.2,0,0.2,0c0.7-0.1,1.1-0.8,1-1.4
				l-9.3-46.4c-0.1-0.6-0.6-1-1.2-1L1855.1,908.8z"/>
			<path class="st20" d="M1587.9,461.9l-19.2,19.1c-0.4,0.4-1,0.7-1.5,0.8c-1.6,0.3-3.1-0.8-3.4-2.4l-6.6-35.5
				c-0.2-0.9-0.7-1.6-1.4-2l-19.9-11.3c-0.4-0.2-0.7-0.6-0.9-1c-0.4-1.1,0.1-2.3,1.2-2.8c33.1-13.5,65.8-27,98-40.5
				c2-0.8,3.7-0.8,5.1,0.2c1.1,0.8,1.5,2.2,1.1,3.5l-28,79c-0.1,0.2-0.1,0.3-0.2,0.5c-0.9,1.5-2.8,2.1-4.3,1.2l-16.8-9.3
				C1589.9,460.9,1588.8,461,1587.9,461.9z M1629.7,402.3c0.1-0.3,0-0.6-0.2-0.9c-0.3-0.4-0.9-0.5-1.4-0.2l-50.6,44.3
				c-0.1,0.1-0.2,0.2-0.2,0.3c-0.3,0.5-0.1,1.1,0.4,1.3l29,16.4c0,0,0.1,0,0.1,0.1c0.5,0.2,1.1-0.1,1.2-0.6L1629.7,402.3z
				 M1548.3,428.3c-0.3,0.1-0.6,0.4-0.8,0.7c-0.4,0.7-0.1,1.6,0.6,2l9.9,5.4c0.8,0.4,1.8,0.4,2.5-0.1l46.2-30.7
				c0.2-0.1,0.3-0.4,0.2-0.6c-0.1-0.3-0.4-0.4-0.7-0.3L1548.3,428.3z M1571.6,466.8c0,0.3,0.1,0.6,0.3,0.8c0.4,0.4,1,0.4,1.4,0
				l9.6-9.3c0.1-0.1,0.1-0.1,0.2-0.2c0.3-0.5,0.1-1.1-0.4-1.4l-8-4c-0.1,0-0.2-0.1-0.3-0.1c-0.5-0.1-1.1,0.3-1.1,0.9L1571.6,466.8z"
				/>
			<path class="st22" d="M2112.3,391.6c1,0,1.5,0.5,1.5,1.5v44.1c0,1-0.5,1.5-1.5,1.5h-405.5l-0.7-47.2L2112.3,391.6z M2073.4,425.2
				c5.6,0,10.1-4.5,10.1-10.1l0,0c0-5.6-4.5-10.1-10.1-10.1s-10.1,4.5-10.1,10.1C2063.3,420.7,2067.8,425.2,2073.4,425.2z
				 M2038.7,415.1c0,5.5,4.5,10,10,10l0,0c5.5,0,10-4.5,10-10l0,0c0-5.5-4.5-10-10-10l0,0C2043.2,405.1,2038.7,409.6,2038.7,415.1
				L2038.7,415.1z M2024.2,425.2c5.6,0,10.1-4.5,10.1-10.1s-4.5-10.1-10.1-10.1s-10.1,4.5-10.1,10.1S2018.6,425.2,2024.2,425.2z
				 M1717.6,415.5L1717.6,415.5c0,5.1,4.2,9.3,9.3,9.3h263l0,0c5.1,0,9.3-4.2,9.3-9.3v-1.3l0,0c0-5.1-4.2-9.3-9.3-9.3h-263l0,0
				c-5.1,0-9.3,4.2-9.3,9.3V415.5z"/>
			<path class="st23" d="M1706.8,438.9h-16.7c-1.3,0-2.3-1.1-2.3-2.3l-0.3-42.7c0-1.3,0.6-1.9,1.9-2l16.7-0.1L1706.8,438.9z"/>
			<path class="st19" d="M1608,463.2c-0.3,0.5-0.9,0.6-1.3,0.4l-29-16.4c-0.1-0.1-0.2-0.1-0.3-0.2c-0.3-0.4-0.3-1,0.1-1.4l50.6-44.3
				c0.2-0.2,0.6-0.3,0.9-0.2c0.5,0.1,0.8,0.7,0.7,1.2l-21.6,60.7C1608.1,463.1,1608,463.1,1608,463.2z"/>
			<path class="st19" d="M1606.9,404.8c0.2,0.2,0.1,0.6-0.2,0.7l-46.2,30.7c-0.7,0.5-1.7,0.5-2.5,0.1l-9.9-5.4
				c-0.3-0.2-0.5-0.4-0.7-0.8c-0.3-0.8,0.1-1.7,0.8-2l58-23.6C1606.5,404.6,1606.8,404.6,1606.9,404.8z"/>
			<circle class="st23" cx="2073.4" cy="415.2" r="10.1"/>
			<circle class="st23" cx="2048.8" cy="415.1" r="10"/>
			<circle class="st23" cx="2024.2" cy="415.1" r="10.1"/>
			<path class="st23" d="M1999.2,414.2v1.3c0,5.1-4.2,9.3-9.3,9.3h-263c-5.1,0-9.3-4.2-9.3-9.3v-1.3c0-5.1,4.2-9.3,9.3-9.3h263
				C1995,404.9,1999.2,409,1999.2,414.2z"/>
			<path class="st20" d="M2130.6,441c-0.5-0.9-0.8-1.8-0.8-2.5c0-1.3,0.4-2.2,1.2-2.8c0.1-0.1,0.2-0.2,0.3-0.2
				c1.2-0.7,2.7-0.2,3.4,1l18.3,32.6h-6.4C2141.3,459.5,2135.9,450.1,2130.6,441z"/>
			<path class="st24" d="M2112,450.8c1.2,0,1.8,0.7,1.8,1.9v306.8c0,0.9-0.5,1.4-1.4,1.4h-8.3V450.7L2112,450.8z"/>
			<path class="st19" d="M2104,760.9h-398.2V450.7H2104V760.9z M2006.1,467.9c-1.5,0.7-1.9,2.2-1.1,4.5l-28.9,0.1
				c-1,0-1.6,0.5-1.8,1.5c-0.8,4.5-0.3,8.3,1.6,11.3l-13.4,7.8c-0.4,0.2-0.8,0.6-1,1c-0.8,1.3-0.4,3.1,0.9,3.9l11,6.6l0.8,12.3
				c0.1,1.1,0.6,1.6,1.7,1.6l41.3-0.1c0.6,4,2.2,5.8,4.8,5.3c1.7-0.3,2.4-1.6,2.2-3.9l28.4-1.1c1.1,0,1.7-0.6,2-1.7
				c0.8-3.7,0.4-7.5-1.2-11.4l12.8-7.6c0.4-0.2,0.8-0.6,1-1c0.8-1.4,0.3-3.1-1.1-3.9l-12.3-7.1c1.3-4.4,1.5-8.5,0.4-12.3
				c-0.3-1-0.9-1.5-2-1.6l-41-0.4C2010.6,467.9,2008.9,466.7,2006.1,467.9z M1938.8,540.9L1938.8,540.9c0,1.2,1,2.1,2.1,2.1h124.2
				l0,0c1.2,0,2.1-1,2.1-2.1v-1.5l0,0c0-1.2-1-2.1-2.1-2.1h-124.2l0,0c-1.2,0-2.1,1-2.1,2.1L1938.8,540.9L1938.8,540.9z
				 M2061.3,725.3c0,1.4,1.2,2.6,2.6,2.6h0.8c1.4,0,2.6-1.2,2.6-2.6V561.1l0,0c0-1.4-1.2-2.6-2.6-2.6h-0.8l0,0
				c-1.4,0-2.6,1.2-2.6,2.6V725.3z M2000.1,561.7L2000.1,561.7c0,1.3,1.1,2.4,2.4,2.4l37.9,0.1l0,0c1.3,0,2.4-1.1,2.4-2.4V561l0,0
				c0-1.3-1.1-2.4-2.4-2.4l-37.9-0.1l0,0c-1.3,0-2.4,1.1-2.4,2.4V561.7z M1952.8,561.7L1952.8,561.7c0,1.1,0.9,2,2,2h28.4l0,0
				c1.1,0,2-0.9,2-2V561c0-1.1-0.9-2-2-2h-28.4l0,0c-1.1,0-2,0.9-2,2V561.7z M1753.5,561.7L1753.5,561.7c0,0.8,0.6,1.5,1.4,1.5
				l17.7,0.4c0.8,0,1.5-0.6,1.5-1.4v-1.5l0,0c0-0.8-0.6-1.5-1.4-1.5l-17.7-0.4c-0.8,0-1.5,0.6-1.5,1.4V561.7z M1855,561.4
				c0,1.2,1,2.2,2.2,2.2l72.8,0.1c1.2,0,2.2-1,2.2-2.2v-0.1l0,0c0-1.2-1-2.2-2.2-2.2l-72.8-0.1C1856,559.1,1855,560.1,1855,561.4
				L1855,561.4z M1783.6,561.4L1783.6,561.4c0,1,0.8,1.8,1.8,1.8l45.8,0.1c1,0,1.8-0.8,1.8-1.8v-0.2l0,0c0-1-0.8-1.8-1.8-1.8
				l-45.8-0.1c-1,0-1.8,0.8-1.8,1.8V561.4z M1966.1,584.4c0,1.3,1,2.3,2.3,2.3h72.2c1.3,0,2.3-1,2.3-2.3v-0.2c0-1.3-1-2.3-2.3-2.3
				h-72.2c-1.3,0-2.3,1-2.3,2.3V584.4z M1923.8,584.7L1923.8,584.7c0,1,0.8,1.9,1.9,1.9l19.2,0.1c1,0,1.9-0.8,1.9-1.9v-0.9l0,0
				c0-1-0.8-1.9-1.9-1.9l-19.2-0.1c-1,0-1.9,0.8-1.9,1.9V584.7z M1810.6,584.1L1810.6,584.1c0,1.1,0.9,2.1,2.1,2.1l88.4,0.3l0,0
				c1.1,0,2.1-0.9,2.1-2.1v-0.1l0,0c0-1.1-0.9-2.1-2.1-2.1l-88.4-0.3C1811.6,581.9,1810.6,582.8,1810.6,584.1L1810.6,584.1z
				 M1879.8,608L1879.8,608c0,1.3,1,2.3,2.3,2.3H1983l0,0c1.3,0,2.3-1,2.3-2.3v-0.1l0,0c0-1.3-1-2.3-2.3-2.3h-100.9l0,0
				C1880.8,605.6,1879.8,606.6,1879.8,608L1879.8,608z M2004.7,608.1L2004.7,608.1c0,1.2,0.9,2.1,2.1,2.1l33.9,0.1
				c1.2,0,2.1-0.9,2.1-2.1v-0.3l0,0c0-1.2-0.9-2.1-2.1-2.1l-33.9-0.1c-1.2,0-2.1,0.9-2.1,2.1V608.1z M1849.3,608.5L1849.3,608.5
				c0,1,0.8,1.8,1.8,1.7l15-0.2l0,0c1,0,1.8-0.8,1.7-1.8v-0.8l0,0c0-1-0.8-1.8-1.8-1.7l-15,0.2l0,0c-1,0-1.8,0.8-1.7,1.8V608.5z
				 M1791,607.9c0,1,0.8,1.8,1.8,1.8l35,0.1c1,0,1.8-0.8,1.8-1.8v-0.2c0-1-0.8-1.8-1.8-1.8l-35-0.1c-1,0-1.8,0.8-1.8,1.8V607.9z
				 M1961.7,631.7c0,1.2,1,2.2,2.2,2.2h76.8c1.2,0,2.2-1,2.2-2.2v-0.3c0-1.2-1-2.2-2.2-2.2h-76.8c-1.2,0-2.2,1-2.2,2.2V631.7z
				 M1834.5,631.5c0,1.3,1,2.3,2.3,2.3l101.8,0.2c1.3,0,2.3-1,2.3-2.3v-0.1c0-1.3-1-2.3-2.3-2.3l-101.8-0.2l0,0
				C1835.5,629.1,1834.5,630.1,1834.5,631.5L1834.5,631.5z M1790.3,631.8L1790.3,631.8c0,1,0.8,1.7,1.7,1.7h22.3
				c1,0,1.7-0.8,1.7-1.7V631l0,0c0-1-0.8-1.7-1.7-1.7H1792c-1,0-1.7,0.8-1.7,1.7V631.8z M2037,725.3L2037,725.3
				c0,1.4,1.1,2.5,2.5,2.5h0.8l0,0c1.4,0,2.5-1.1,2.5-2.5v-71.2l0,0c0-1.4-1.1-2.5-2.5-2.5h-0.8l0,0c-1.4,0-2.5,1.1-2.5,2.5V725.3z
				 M1935.2,654.5L1935.2,654.5c0,1.3,1.1,2.4,2.4,2.4h78.5l0,0c1.3,0,2.4-1.1,2.4-2.4v-0.3l0,0c0-1.3-1.1-2.4-2.4-2.4h-78.5l0,0
				c-1.3,0-2.4,1.1-2.4,2.4V654.5z M1849.5,655c0,1.1,0.9,2,2,2l65-0.1l0,0c1.1,0,2-0.9,2-2V654c0-1.1-0.9-2-2-2l-65,0.1
				c-1.1,0-2,0.9-2,2V655z M1772.5,654.6c0,1.4,1.2,2.6,2.6,2.6h59.9l0,0c1.4,0,2.6-1.2,2.6-2.6v-0.2c0-1.4-1.2-2.6-2.6-2.6h-59.9
				c-1.4,0-2.6,1.2-2.6,2.6V654.6z M1938.6,678.7c0,1.4,1.1,2.5,2.5,2.5h74.9c1.4,0,2.5-1.1,2.5-2.5v-0.9l0,0c0-1.4-1.1-2.5-2.5-2.5
				h-74.9l0,0c-1.4,0-2.5,1.1-2.5,2.5V678.7z M1877.7,678.3c0,1.6,1.3,2.9,2.9,2.9h37.4c1.6,0,2.9-1.3,2.9-2.9v-0.1
				c0-1.6-1.3-2.9-2.9-2.9h-37.4C1879,675.3,1877.7,676.6,1877.7,678.3L1877.7,678.3z M1817,678.6L1817,678.6c0,1.5,1.2,2.7,2.7,2.7
				l45.6-0.1l0,0c1.5,0,2.7-1.2,2.7-2.7v-0.6l0,0c0-1.5-1.2-2.7-2.7-2.7l-45.6,0.1l0,0c-1.5,0-2.7,1.2-2.7,2.7V678.6z M1733.4,678.4
				L1733.4,678.4c0,1.6,1.3,2.9,2.9,2.9l54-0.1l0,0c1.6,0,2.9-1.3,2.9-2.9v-0.1c0-1.6-1.3-2.9-2.9-2.9l-54,0.1l0,0
				C1734.7,675.4,1733.4,676.7,1733.4,678.4L1733.4,678.4z M1982.2,702.3L1982.2,702.3c0,1.4,1.1,2.5,2.6,2.5l31.1-0.1l0,0
				c1.4,0,2.5-1.1,2.5-2.6v-0.9l0,0c0-1.4-1.1-2.5-2.6-2.5l-31.1,0.1l0,0c-1.4,0-2.5,1.1-2.5,2.6V702.3z M1865.3,701.9
				c0,1.6,1.3,2.9,2.9,2.9h100.9c1.6,0,2.9-1.3,2.9-2.9v-0.1c0-1.6-1.3-2.9-2.9-2.9h-100.9C1866.6,698.9,1865.3,700.2,1865.3,701.9
				L1865.3,701.9z M1760,702L1760,702c0,1.6,1.3,2.9,2.9,2.9h82.2l0,0c1.6,0,2.9-1.3,2.9-2.9v-0.2l0,0c0-1.6-1.3-2.9-2.9-2.9h-82.2
				l0,0c-1.6,0-2.9,1.3-2.9,2.9V702z M1952.5,724.8L1952.5,724.8c0,1.6,1.3,2.8,2.8,2.8h60.3l0,0c1.6,0,2.8-1.3,2.8-2.8v-0.1l0,0
				c0-1.6-1.3-2.8-2.8-2.8h-60.3l0,0C1953.7,721.9,1952.5,723.2,1952.5,724.8L1952.5,724.8z M1801.8,724.8c0,1.6,1.3,2.8,2.8,2.8
				h122.1l0,0c1.6,0,2.8-1.3,2.8-2.8v-0.1l0,0c0-1.6-1.3-2.8-2.8-2.8h-122.1C1803,721.9,1801.8,723.2,1801.8,724.8L1801.8,724.8z
				 M1733.2,724.9L1733.2,724.9c0,1.5,1.2,2.8,2.8,2.8l42.6-0.1l0,0c1.5,0,2.8-1.2,2.8-2.8v-0.2l0,0c0-1.5-1.2-2.8-2.8-2.8
				l-42.6,0.1l0,0c-1.5,0-2.8,1.2-2.8,2.8V724.9z"/>
			<path class="st20" d="M1705.9,760.9h-3.5c-1.3,0-2-0.7-2.1-2l-2.7-36.3c-0.1-1-0.9-1.7-1.9-1.7c-2.9,0.2-5,1.6-6.3,4.3
				c-0.2,0.3-0.5,0.6-0.9,0.5c-0.5,0-0.9-0.4-0.9-1l-0.1-272c0-1.2,0.6-1.9,1.8-1.9l16.5-0.2L1705.9,760.9L1705.9,760.9z"/>
			<path class="st19" d="M1573.4,453.2c0.2-0.5,0.8-0.7,1.3-0.5l8,4c0.1,0,0.2,0.1,0.2,0.2c0.4,0.4,0.4,1,0,1.4l-9.6,9.3
				c-0.2,0.2-0.5,0.3-0.8,0.3c-0.6-0.1-0.9-0.6-0.9-1.1l1.7-13.3C1573.3,453.4,1573.4,453.3,1573.4,453.2z"/>
			<path class="st21" d="M2006.1,467.9c2.7-1.3,4.4,0,5.2,3.8l13,48.1c0.3,2.2-0.5,3.5-2.2,3.9c-2.6,0.5-4.2-1.3-4.8-5.3l-12.3-45.9
				C2004.3,470.1,2004.6,468.7,2006.1,467.9z"/>
			<path class="st24" d="M2052.3,472.1c1.1,0,1.7,0.5,2,1.6c1,3.8,0.9,7.9-0.4,12.3l-17.9-10c-0.9-0.5-1.8-0.5-2.6,0.2
				c-1.3,1-1.8,2-1.6,3c0.1,0.7,0.7,1.3,1.7,1.9c7.7,4.4,15.4,8.9,22.9,13.6c1.1,0.7,1.1,1.4,0,2.1l-22.4,13c-1.2,0.7-1.9,2-1.9,3.4
				c0.1,2.2,1.3,2.8,3.6,1.8c5.8-2.7,11.7-5.8,17.7-9.3c1.7,3.9,2.1,7.7,1.2,11.4c-0.2,1.1-0.9,1.6-2,1.7l-28.4,1.1l-13-48.1
				L2052.3,472.1z"/>
			<path class="st24" d="M1974.4,473.9c0.2-1,0.8-1.5,1.8-1.5l28.9-0.1l12.3,45.9l-41.3,0.1c-1.1,0-1.7-0.5-1.7-1.6l-0.8-12.3
				l19.1,10.9c1,0.6,2.2,0.5,3.1-0.2c1.2-1,1.6-2,1.2-3.3c-0.3-0.7-0.9-1.4-2-2.1c-7.6-4.6-15.2-9.1-22.9-13.4
				c-0.2-0.1-0.3-0.2-0.4-0.4c-0.3-0.5-0.1-1.1,0.4-1.4c7.8-4.5,15.6-9,23.4-13.7c0.4-0.3,0.8-0.6,1-0.9c0.4-0.6,0.6-1,0.6-1.3
				c0-0.6-0.1-1.2-0.4-1.7c-0.9-1.5-2.8-2-4.3-1.2l-16.3,9.3C1974.1,482.2,1973.6,478.4,1974.4,473.9z"/>
			<path class="st20" d="M2243.3,482c0.7-1.2,0.4-1.8-1.1-1.8h-14.5c-1.3,0-2-0.6-2.1-1.9l-0.2-2.1c-0.1-1.2,0.4-1.9,1.7-1.9
				c13.7,0,27.4,0.1,41.1,0.3c2.6,0,3.6,1.2,3.3,3.5c-0.2,1.2-1.3,2.1-2.5,2.1h-16.2c-0.9,0-1.7,0.4-2.1,1.2l-56.1,96.5v-11.6
				L2243.3,482z"/>
			<path class="st21" d="M2035.8,514.9c-2.3,1-3.5,0.4-3.6-1.8c-0.1-1.4,0.6-2.7,1.9-3.4l22.4-13c1.2-0.7,1.2-1.4,0-2.1
				c-7.5-4.7-15.2-9.2-22.9-13.6c-1-0.6-1.6-1.2-1.7-1.9c-0.2-1,0.3-2,1.6-3c0.8-0.6,1.7-0.7,2.6-0.2l17.9,10l12.3,7.1
				c0.4,0.3,0.8,0.6,1,1c0.8,1.4,0.3,3.1-1,3.9l-12.8,7.6C2047.5,509.1,2041.6,512.2,2035.8,514.9z"/>
			<path class="st21" d="M1992.3,475.9c0.5-0.3,1.1-0.4,1.7-0.4c1.7,0.1,3,1.6,2.9,3.3c0,0.3-0.2,0.7-0.6,1.3
				c-0.3,0.4-0.6,0.7-1,0.9c-7.8,4.6-15.6,9.2-23.4,13.7c-0.2,0.1-0.3,0.2-0.4,0.4c-0.3,0.5-0.1,1.1,0.4,1.4
				c7.7,4.3,15.3,8.7,22.9,13.4c1.1,0.7,1.7,1.3,2,2.1c0.4,1.2,0,2.3-1.2,3.3c-0.9,0.7-2.1,0.8-3.1,0.2l-19.1-10.9l-11-6.6
				c-0.4-0.2-0.7-0.6-1-1c-0.8-1.4-0.3-3.1,1-3.9l13.4-7.8L1992.3,475.9z"/>
			<path class="st22" d="M1658.6,785c1.2,0.1,1.5,0.6,1.1,1.7l-6.2,16.4l0,0c-0.8,2.1,0.3,4.4,2.4,5.1l14.4,5.1
				c1.8,0.7,3.8-0.3,4.5-2.1l6.1-16.9c0.1-0.1,0.1-0.3,0.2-0.4c0.5-0.7,1.5-0.8,2.1-0.3l15.9,11.9c0.6,0.5,1.4,0.7,2.1,0.6
				c1.7-0.1,2.9-1.6,2.8-3.3l-2.4-28.7V774c0-0.8,0.6-1.4,1.4-1.4h417c3.1,0,5.6-2.5,5.6-5.5V482.4c0-1,0.5-1.5,1.5-1.5
				c27.2-0.2,55.4-6.5,55.4,31.5c0,101.1,0,202.3,0,303.6c0,1.2-0.6,1.8-1.8,1.8h-541.2l0.3-33.8L1658.6,785z"/>
			<path class="st22" d="M1639.5,481.2c11.6-0.4,23-0.5,34.2-0.2c1.4,0,2,0.7,2,2.1v253.4c0,0.9-0.3,1.7-0.9,2.4l-34.2,34.9
				l-0.1-251.9c0-1-0.3-1.8-0.8-2.6c-5.5-8.1-12.5-15.7-21-22.8C1625.6,486.6,1632.6,481.5,1639.5,481.2z"/>
			<path class="st23" d="M1639.6,519.3c0.5,0.8,0.8,1.7,0.8,2.6l0.1,251.9l-4.3,5.1c-0.6,0.7-0.7,1.8-0.3,2.6c0.6,1.2,1.9,2,4,2.3
				l-0.3,33.8h-19.8c-1,0-1.6-0.5-1.6-1.5l0.4-319.8C1627,503.6,1634,511.2,1639.6,519.3z"/>
			<path class="st20" d="M1582.1,736.6c-1,0-1.7,0.5-2,1.4c-3.8,10-10.4,14.3-19.9,12.8c-16.3-2.6-19.9-23.1-6.8-31.7
				c8.6-5.7,23.7-1.8,25.9,9.1c0.5,2.4,2.6,4.1,5,4.1c2.8,0,5-2.3,5-5.1v-47.6c0-2.4-1.6-4.4-3.9-5c-2.8-0.7-5.5,1-6.2,3.8
				c-4.9,20.4-38,12.9-33.3-9.7c3.4-16.5,30.2-17.9,33.4-1c0.5,2.4,2.5,4.1,5,4.1c2.8,0,5.1-2.3,5-5.1v-48.4c0-2.3-1.5-4.3-3.7-4.9
				c-2.7-0.7-5.4,0.8-6.2,3.5c-6.4,22.5-40,12.1-33.2-10.3c4.6-15.3,30-16.1,32.9-0.4c0.4,2.4,2.5,4.2,5,4.2c2.8,0,5.1-2.3,5.1-5.1
				v-49.6c0-1-0.5-1.5-1.5-1.5h-5.9c-1,0-1.7,0.5-2,1.4c-7,20.2-36,15.2-34.2-5.7c1.7-19.7,28.2-22.5,34.1-3c0.2,0.8,1,1.4,1.9,1.4
				l11.8,0.3c1,0,1.7,0.8,1.7,1.7v179c0,0.9,0.5,1.4,1.4,1.4l9.6,0.1l0.1,5.8H1582.1z M1551.5,550.9c0,6.3,5.1,11.4,11.4,11.4
				s11.4-5.1,11.4-11.4c0-6.3-5.1-11.4-11.4-11.4l0,0C1556.6,539.5,1551.5,544.6,1551.5,550.9L1551.5,550.9z M1551.4,612
				c0,6.3,5.1,11.4,11.4,11.4s11.4-5.1,11.4-11.4l0,0c0-6.3-5.1-11.4-11.4-11.4l0,0C1556.5,600.6,1551.4,605.7,1551.4,612
				L1551.4,612z M1551.5,672.8c0,6.3,5.1,11.3,11.3,11.3s11.3-5.1,11.3-11.3s-5.1-11.3-11.3-11.3l0,0
				C1556.6,661.4,1551.5,666.5,1551.5,672.8L1551.5,672.8z M1551.5,733.7c0,6.3,5.1,11.4,11.4,11.4l0,0c6.3,0,11.4-5.1,11.4-11.4
				l0,0c0-6.3-5.1-11.4-11.4-11.4l0,0C1556.6,722.2,1551.5,727.4,1551.5,733.7L1551.5,733.7z"/>
			<path class="st23" d="M2067.2,539.3v1.5c0,1.2-1,2.1-2.1,2.1h-124.2c-1.2,0-2.1-1-2.1-2.1v-1.5c0-1.2,1-2.1,2.1-2.1h124.2
				C2066.3,537.2,2067.2,538.2,2067.2,539.3z"/>
			<circle class="st24" cx="1562.9" cy="550.9" r="11.4"/>
			<path class="st24" d="M2067.3,561.1v164.2c0,1.4-1.2,2.6-2.6,2.6h-0.8c-1.4,0-2.6-1.2-2.6-2.6V561.1c0-1.4,1.2-2.6,2.6-2.6h0.8
				C2066.1,558.5,2067.3,559.7,2067.3,561.1z"/>
			<path class="st22" d="M2042.8,561.1v0.8c0,1.3-1.1,2.4-2.4,2.4l-37.9-0.1c-1.3,0-2.4-1.1-2.4-2.4V561c0-1.3,1.1-2.4,2.4-2.4
				l37.9,0.1C2041.8,558.7,2042.9,559.8,2042.8,561.1z"/>
			<path class="st23" d="M1985.3,561v0.7c0,1.1-0.9,2-2,2h-28.4c-1.1,0-2-0.9-2-2V561c0-1.1,0.9-2,2-2h28.4
				C1984.4,559,1985.3,559.8,1985.3,561z"/>
			<path class="st22" d="M1774.1,560.7v1.5c0,0.8-0.7,1.4-1.5,1.4l-17.7-0.4c-0.8,0-1.4-0.7-1.4-1.5v-1.5c0-0.8,0.7-1.4,1.5-1.4
				l17.7,0.4C1773.5,559.3,1774.1,559.9,1774.1,560.7z"/>
			<path class="st23" d="M1932.1,561.4L1932.1,561.4c0,1.3-1,2.3-2.2,2.3l-72.8-0.1c-1.2,0-2.2-1-2.2-2.2v-0.1c0-1.2,1-2.2,2.2-2.2
				l72.8,0.1C1931.1,559.2,1932.1,560.2,1932.1,561.4z"/>
			<path class="st22" d="M1833,561.2v0.2c0,1-0.8,1.8-1.8,1.8l-45.8-0.1c-1,0-1.8-0.8-1.8-1.8v-0.2c0-1,0.8-1.8,1.8-1.8l45.8,0.1
				C1832.2,559.4,1833,560.2,1833,561.2z"/>
			<path class="st19" d="M2203.7,605.8c0.2-27.1,35.2-38.1,49.5-15.8c11.7,18.3,0.9,38-20,42.7l-0.4-8.8c-0.1-1.3-0.7-1.8-2-1.5
				c-2.2,0.4-3.5,2.7-3.2,5c0.2,1.5,0.5,3.3,0.7,5.4C2211.8,629,2203.6,620,2203.7,605.8z M2217.9,591.6c-0.3-0.2-0.7-0.2-0.9,0
				c-0.4,0.3-0.6,0.8-0.3,1.3l10,16.5c0.1,0.1,0.2,0.2,0.3,0.3l16.1,9.7c0.3,0.1,0.6,0.1,0.9,0c0.4-0.2,0.6-0.8,0.4-1.2l-9.6-16.4
				c-0.1-0.1-0.2-0.2-0.3-0.3L2217.9,591.6z M2252.4,607.8c1.2,0.1,2.4-0.7,2.6-1.9c0.3-1.3-0.6-2.6-1.9-2.9
				c-2.4-0.6-4.1,0.3-5.1,2.4c-0.6,1.3-0.2,2,1.3,2.2L2252.4,607.8z"/>
			<path class="st23" d="M2042.9,584.2v0.2c0,1.3-1,2.3-2.3,2.3h-72.2c-1.3,0-2.3-1-2.3-2.3v-0.2c0-1.3,1-2.3,2.3-2.3h72.2
				C2041.9,581.9,2042.9,582.9,2042.9,584.2z"/>
			<path class="st23" d="M1946.8,583.9v0.9c0,1-0.9,1.9-1.9,1.9l-19.2-0.1c-1,0-1.9-0.9-1.9-1.9v-0.9c0-1,0.9-1.9,1.9-1.9l19.2,0.1
				C1946,582,1946.8,582.8,1946.8,583.9z"/>
			<path class="st23" d="M1903.1,584.3L1903.1,584.3c0,1.2-0.9,2.2-2.1,2.2l-88.4-0.3c-1.1,0-2.1-0.9-2.1-2.1V584
				c0-1.1,0.9-2.1,2.1-2.1l88.4,0.3C1902.2,582.3,1903.1,583.2,1903.1,584.3z"/>
			<path class="st20" d="M2234.7,601.8l9.6,16.4c0.1,0.3,0.1,0.6,0,0.9c-0.2,0.4-0.8,0.6-1.2,0.4l-16.1-9.7
				c-0.1-0.1-0.2-0.2-0.3-0.3l-10-16.5c-0.2-0.3-0.2-0.6,0-0.9c0.3-0.4,0.8-0.6,1.3-0.3l16.5,9.9
				C2234.6,601.5,2234.7,601.6,2234.7,601.8z"/>
			<circle class="st24" cx="1562.8" cy="612" r="11.4"/>
			<path class="st20" d="M2248.1,605.4c1-2.2,2.7-3,5.1-2.4c1.2,0.3,2.1,1.4,1.9,2.6c-0.1,1.3-1.3,2.3-2.6,2.2l-3.1-0.2
				C2247.9,607.5,2247.5,606.8,2248.1,605.4z"/>
			<path class="st23" d="M1985.3,607.9L1985.3,607.9c0,1.4-1,2.4-2.3,2.4h-100.9c-1.3,0-2.3-1-2.3-2.3v-0.1c0-1.3,1-2.3,2.3-2.3
				H1983C1984.3,605.6,1985.3,606.6,1985.3,607.9z"/>
			<path class="st23" d="M2042.8,607.8v0.3c0,1.2-0.9,2.1-2.1,2.1l-33.9-0.1c-1.2,0-2.1-0.9-2.1-2.1v-0.3c0-1.2,0.9-2.1,2.1-2.1
				l33.9,0.1C2041.9,605.7,2042.8,606.7,2042.8,607.8z"/>
			<path class="st23" d="M1867.8,607.5v0.8c0,1-0.8,1.8-1.7,1.8l-15,0.2c-1,0-1.8-0.8-1.8-1.7v-0.8c0-1,0.8-1.8,1.7-1.8l15-0.2
				C1866.9,605.7,1867.7,606.5,1867.8,607.5z"/>
			<path class="st22" d="M1829.6,607.7v0.2c0,1-0.8,1.8-1.8,1.8l-35-0.1c-1,0-1.8-0.8-1.8-1.8v-0.2c0-1,0.8-1.8,1.8-1.8l35,0.1
				C1828.8,605.9,1829.6,606.7,1829.6,607.7z"/>
			<path class="st20" d="M2227.8,627.4c-0.3-2.3,1-4.6,3.2-5c1.2-0.2,1.9,0.3,2,1.5l0.4,8.8c-1.6-0.7-3.2-0.7-4.8,0.1
				C2228.2,630.8,2228,628.9,2227.8,627.4z"/>
			<path class="st23" d="M2042.9,631.4v0.3c0,1.2-1,2.2-2.2,2.2h-76.8c-1.2,0-2.2-1-2.2-2.2v-0.3c0-1.2,1-2.2,2.2-2.2h76.8
				C2041.9,629.2,2042.9,630.2,2042.9,631.4z"/>
			<path class="st23" d="M1941,631.6L1941,631.6c0,1.4-1,2.4-2.3,2.4l-101.8-0.2c-1.3,0-2.3-1-2.3-2.3v-0.1c0-1.3,1-2.3,2.3-2.3
				l101.8,0.2C1939.9,629.2,1941,630.3,1941,631.6z"/>
			<path class="st22" d="M1816,631v0.8c0,1-0.8,1.7-1.7,1.7H1792c-1,0-1.7-0.8-1.7-1.7V631c0-1,0.8-1.7,1.7-1.7h22.3
				C1815.2,629.3,1816,630.1,1816,631z"/>
			<path class="st24" d="M2042.8,654.1v71.2c0,1.4-1.1,2.5-2.5,2.5h-0.8c-1.4,0-2.5-1.1-2.5-2.5v-71.2c0-1.4,1.1-2.5,2.5-2.5h0.8
				C2041.7,651.6,2042.8,652.7,2042.8,654.1z"/>
			<path class="st20" d="M2018.5,654.2v0.3c0,1.3-1.1,2.4-2.4,2.4h-78.5c-1.3,0-2.4-1.1-2.4-2.4v-0.3c0-1.3,1.1-2.4,2.4-2.4h78.5
				C2017.4,651.8,2018.5,652.9,2018.5,654.2z"/>
			<path class="st20" d="M1918.4,654v0.9c0,1.1-0.9,2-2,2l-65,0.1c-1.1,0-2-0.9-2-2v-0.9c0-1.1,0.9-2,2-2l65-0.1
				C1917.5,652,1918.4,652.9,1918.4,654z"/>
			<path class="st20" d="M1837.7,654.4v0.2c0,1.4-1.2,2.6-2.6,2.6h-59.9c-1.4,0-2.6-1.2-2.6-2.6v-0.2c0-1.4,1.2-2.6,2.6-2.6h59.9
				C1836.5,651.8,1837.7,653,1837.7,654.4z"/>
			<path class="st19" d="M2230.6,653.7c15,0,27.2,12.2,27.2,27.2l0,0c0,15-12.2,27.2-27.2,27.2l0,0c-15,0-27.2-12.2-27.2-27.2
				C2203.4,665.9,2215.6,653.7,2230.6,653.7z M2233.1,658.6L2233.1,658.6c-0.9-1.6-2.7-2.4-4.2-1.6c-1.4,0.8-1.9,2.7-1.1,4.3l0,0
				c0.9,1.6,2.7,2.4,4.2,1.6S2233.9,660.3,2233.1,658.6z M2234.6,677.2c-0.1-0.1-0.2-0.2-0.4-0.3l-16-9.7c-0.4-0.2-0.8-0.2-1.2,0
				c-0.5,0.3-0.6,1-0.3,1.5l9.5,15.8c0.1,0.2,0.2,0.3,0.4,0.4l16.5,10.1c0.4,0.2,0.8,0.2,1.2,0c0.5-0.3,0.6-1,0.3-1.5L2234.6,677.2z
				 M2248.8,679.2c-0.4,0.1-0.7,0.3-0.9,0.6c-0.7,0.8-0.6,1.9,0.2,2.6c2.1,1.7,4,1.5,5.9-0.6c1-1.2,0.9-2.3-0.4-3.3
				c-0.3-0.2-0.7-0.3-1.1-0.2L2248.8,679.2z M2205.9,681c0.3,2.9,2.4,3.8,6.4,2.6c0.5-0.1,1-0.5,1.3-0.9c0.8-1.1,0.6-2.6-0.5-3.3
				c-2-1.4-4-1.5-6.1-0.3C2206.2,679.5,2205.8,680.3,2205.9,681z"/>
			
				<ellipse transform="matrix(0.887 -0.4617 0.4617 0.887 -52.821 1104.3567)" class="st20" cx="2230.3" cy="660.1" rx="3" ry="3.3"/>
			<circle class="st24" cx="1562.9" cy="672.8" r="11.3"/>
			<path class="st20" d="M2244.7,694.7c-0.3,0.5-1,0.6-1.5,0.3l-16.5-10.1c-0.1-0.1-0.3-0.2-0.4-0.4l-9.5-15.8
				c-0.2-0.4-0.2-0.8,0-1.2c0.3-0.5,1-0.6,1.5-0.3l16,9.7c0.1,0.1,0.3,0.2,0.4,0.3l10.1,16.3C2245,693.9,2245,694.3,2244.7,694.7z"
				/>
			<path class="st20" d="M2018.5,677.8v0.9c0,1.4-1.1,2.5-2.5,2.5h-74.9c-1.4,0-2.5-1.1-2.5-2.5v-0.9c0-1.4,1.1-2.5,2.5-2.5h74.9
				C2017.4,675.3,2018.5,676.4,2018.5,677.8z"/>
			<path class="st20" d="M1920.9,678.2L1920.9,678.2c0,1.7-1.3,3-2.9,3h-37.4c-1.6,0-2.9-1.3-2.9-2.9v-0.1c0-1.6,1.3-2.9,2.9-2.9
				h37.4C1919.6,675.3,1920.9,676.6,1920.9,678.2z"/>
			<path class="st20" d="M1867.9,677.9v0.6c0,1.5-1.2,2.7-2.7,2.7l-45.6,0.1c-1.5,0-2.7-1.2-2.7-2.7V678c0-1.5,1.2-2.7,2.7-2.7
				l45.6-0.1C1866.7,675.2,1867.9,676.4,1867.9,677.9z"/>
			<path class="st20" d="M1793.2,678.1L1793.2,678.1c0,1.7-1.3,3-2.9,3l-54,0.1c-1.6,0-2.9-1.3-2.9-2.9v-0.1c0-1.6,1.3-2.9,2.9-2.9
				l54-0.1C1791.9,675.2,1793.2,676.5,1793.2,678.1z"/>
			<path class="st20" d="M2253.6,678.5c1.3,1,1.5,2.1,0.4,3.3c-1.8,2.1-3.8,2.3-5.9,0.6c-0.3-0.2-0.5-0.5-0.6-0.9
				c-0.3-1,0.3-2,1.3-2.3l3.6-1C2252.9,678.2,2253.3,678.2,2253.6,678.5z"/>
			<path class="st20" d="M2213,679.4c0.4,0.3,0.7,0.8,0.9,1.3c0.4,1.3-0.4,2.6-1.6,3c-3.9,1.1-6.1,0.2-6.4-2.6
				c-0.1-0.8,0.3-1.5,1-1.9C2209,677.9,2211,678,2213,679.4z"/>
			<path class="st20" d="M2018.5,701.3v0.9c0,1.4-1.1,2.5-2.5,2.6l-31.1,0.1c-1.4,0-2.5-1.1-2.6-2.5v-0.9c0-1.4,1.1-2.5,2.5-2.6
				l31.1-0.1C2017.3,698.8,2018.5,699.9,2018.5,701.3z"/>
			<path class="st20" d="M1972,701.8L1972,701.8c0,1.7-1.3,3-2.9,3h-100.9c-1.6,0-2.9-1.3-2.9-2.9v-0.1c0-1.6,1.3-2.9,2.9-2.9h100.9
				C1970.7,698.9,1972,700.2,1972,701.8z"/>
			<path class="st20" d="M1847.9,701.7v0.2c0,1.6-1.3,2.9-2.9,2.9h-82.2c-1.6,0-2.9-1.3-2.9-2.9v-0.2c0-1.6,1.3-2.9,2.9-2.9h82.2
				C1846.6,698.9,1847.9,700.2,1847.9,701.7z"/>
			<path class="st20" d="M2018.5,724.7L2018.5,724.7c0,1.7-1.3,2.9-2.8,2.9h-60.3c-1.6,0-2.8-1.3-2.8-2.8v-0.1
				c0-1.6,1.3-2.8,2.8-2.8h60.3C2017.2,721.9,2018.5,723.2,2018.5,724.7z"/>
			<path class="st20" d="M1929.6,724.7L1929.6,724.7c0,1.7-1.3,2.9-2.8,2.9h-122.1c-1.6,0-2.8-1.3-2.8-2.8v-0.1
				c0-1.6,1.3-2.8,2.8-2.8h122.1C1928.3,721.9,1929.6,723.2,1929.6,724.7z"/>
			<path class="st20" d="M1781.4,724.6v0.2c0,1.5-1.2,2.8-2.8,2.8l-42.6,0.1c-1.5,0-2.8-1.2-2.8-2.8v-0.2c0-1.5,1.2-2.8,2.8-2.8
				l42.6-0.1C1780.1,721.8,1781.4,723.1,1781.4,724.6z"/>
			<circle class="st24" cx="1562.9" cy="733.7" r="11.4"/>
			<path class="st24" d="M1690.9,732.4c0.9-0.9,1.4-0.7,1.5,0.6l4.8,61.3c0.1,1.6-0.4,1.9-1.7,1l-13.8-10.1
				c-0.2-0.2-0.4-0.3-0.7-0.4c-1.5-0.5-3.1,0.2-3.6,1.7l-6.9,18.8c-0.4,1.1-1.2,1.5-2.3,1.1l-6.5-2.3c-1.1-0.4-1.4-1.1-1-2.2l7-19.4
				c0.4-1.2,0-2-1.1-2.5c-2.8-1.1-6.6-1.6-11.3-1.4c8.4-8.9,14.3-18.2,17.6-28L1690.9,732.4z"/>
			<path class="st20" d="M2214.3,934.6V756.9l0,0c0-1.8,1.5-3.3,3.3-3.3h10c1,0,1.6-0.5,1.9-1.4c7.2-23,39.1-13.5,34.1,8
				c-3.8,16.4-29.6,18.6-33.2,1.7c-0.5-2.4-2.6-4.1-5-4.1c-2.9,0-5.2,2.3-5.2,5.2v47.7c0,2.2,1.5,4.2,3.7,4.8
				c2.7,0.7,5.4-0.8,6.2-3.5c4.5-17.5,31.7-15.7,33.7,3c2.4,22.9-29.8,25.9-34.1,7.7c-0.5-2.2-2.5-3.8-4.7-3.7
				c-2.6,0-4.8,2.2-4.8,4.9v47.5c0,2.3,1.6,4.4,3.8,5c2.8,0.7,5.6-0.9,6.3-3.7c4.8-18.2,32.7-14.7,33.5,4.6
				c0.9,21.5-29.6,24.5-34.2,5.9c-0.5-2.2-2.5-3.8-4.8-3.7c-2.6,0.1-4.7,2.2-4.7,4.9v48.3c0,2.1,1.3,4,3.3,4.7
				c2.6,0.9,5.4-0.5,6.3-3.1c3.4-9.9,10-14,19.7-12.2c24,4.5,15.5,40.3-8,33.8c-5.9-1.6-9.9-5.7-11.9-12.2c-0.3-1-1-1.5-2.1-1.5
				h-113.1c-0.9,0-1.5,0.4-1.8,1.3c-10,29.3-50,3.8-28.9-17.1c8.8-8.7,25-5.1,28.5,8.3c0.2,0.9,1.1,1.6,2.1,1.6h98.3
				C2213.8,936,2214.3,935.5,2214.3,934.6z M2235.1,756.3c0,6.3,5.1,11.4,11.4,11.4l0,0c6.3,0,11.4-5.1,11.4-11.4
				c0-6.3-5.1-11.4-11.4-11.4S2235.1,750,2235.1,756.3L2235.1,756.3z M2246.5,828.5c6.3,0,11.4-5.1,11.4-11.4l0,0
				c0-6.3-5.1-11.4-11.4-11.4l0,0c-6.3,0-11.4,5.1-11.4,11.4S2240.2,828.5,2246.5,828.5z M2235,878.2c0,6.3,5.1,11.4,11.4,11.4l0,0
				c6.3,0,11.4-5.1,11.4-11.4l0,0c0-6.3-5.1-11.4-11.4-11.4l0,0C2240.2,866.7,2235,871.9,2235,878.2L2235,878.2z M2235.1,938.9
				c0,6.3,5.1,11.4,11.4,11.4l0,0c6.3,0,11.4-5.1,11.4-11.4c0-6.3-5.1-11.4-11.4-11.4S2235.1,932.6,2235.1,938.9L2235.1,938.9z
				 M2095.6,950.5c6.4,0,11.6-5.2,11.6-11.6l0,0c0-6.4-5.2-11.6-11.6-11.6c-6.4,0-11.6,5.2-11.6,11.6
				C2084.1,945.3,2089.2,950.5,2095.6,950.5z"/>
			<circle class="st24" cx="2246.5" cy="756.3" r="11.4"/>
			<path class="st19" d="M1655.4,778.4c-2.2,0.4-4.6,0-7.2-1c-0.9-0.4-1-0.9-0.3-1.5l25.1-25.4
				C1669.6,760.2,1663.8,769.6,1655.4,778.4z"/>
			<path class="st20" d="M1572.1,825c7.2,5.2,7.7,26.8,2.5,33.1c-6.4,7.7-18.1,2.1-18.4-7.7c-0.2-8.8-2.3-19.1,5.7-25.4
				c1.1-0.9,1-1.5-0.4-1.8c-44-8.7-30.1-73.8,14.6-62.9c16.3,3.9,25.3,21.2,22.2,37.3c-2.6,13.3-11.2,21.9-25.9,25.9
				C1571.1,823.8,1571,824.3,1572.1,825z M1566.7,817.8c14.6,0,26.4-11.8,26.4-26.4s-11.8-26.4-26.4-26.4s-26.4,11.8-26.4,26.4
				S1552.2,817.8,1566.7,817.8z M1566.8,856.5c3.1,0,5.7-6.1,5.7-13.6l0,0c0-7.5-2.5-13.6-5.6-13.6l0,0c-3.1,0-5.7,6.1-5.7,13.6l0,0
				C1561.1,850.4,1563.6,856.5,1566.8,856.5L1566.8,856.5z"/>
			<path class="st19" d="M1566.7,765c14.6,0,26.4,11.8,26.4,26.4s-11.8,26.4-26.4,26.4s-26.4-11.8-26.4-26.4S1552.2,765,1566.7,765z
				 M1543.6,791.3c0,12.8,10.4,23.2,23.2,23.2l0,0c12.8,0,23.2-10.4,23.2-23.2l0,0c0-12.8-10.4-23.2-23.2-23.2l0,0
				C1554,768.1,1543.6,778.5,1543.6,791.3L1543.6,791.3z"/>
			<path class="st20" d="M1543.6,791.3c0-12.8,10.4-23.2,23.2-23.2l0,0c12.8,0,23.2,10.4,23.2,23.2l0,0c0,12.8-10.4,23.2-23.2,23.2
				l0,0C1554,814.5,1543.6,804.1,1543.6,791.3L1543.6,791.3z M1584.5,794.2c1.5,0,2.7-1.3,2.7-2.8c-0.3-8.1-3.9-14.1-10.7-18
				c-1.3-0.8-3-0.5-3.9,0.7c-0.9,1.3-0.6,3,0.6,4c6.4,5.2,5.8,7.6,8.7,14.5C1582.4,793.6,1583.4,794.3,1584.5,794.2z"/>
			<path class="st24" d="M1572.5,774.2c0.9-1.3,2.6-1.7,3.9-0.8c6.8,3.9,10.4,9.9,10.7,18c0,1.1-0.6,2.1-1.6,2.6
				c-1.4,0.6-3,0-3.6-1.4c-2.9-7-2.3-9.4-8.7-14.5C1572,777.2,1571.7,775.5,1572.5,774.2z"/>
			<circle class="st24" cx="2246.5" cy="817.1" r="11.4"/>
			<path class="st19" d="M2180.9,829.7c1,0,1.5,0.5,1.5,1.6c0.1,11.2,0.1,22.4,0.1,33.6c-0.1,26.3-11.2,31.9-36.6,31.9
				c-165.2,0.1-330.3,0.1-495.2,0c-6-7.5-9.4-13.7-9.9-18.4c-1.1-9.3-1.2-25.6-0.1-48.7L2180.9,829.7L2180.9,829.7z M1900.4,885.2
				L1900.4,885.2c12.1,0,21.9-9.8,21.9-21.9l0,0c0-12.1-9.8-21.9-21.9-21.9s-21.9,9.8-21.9,21.9S1888.2,885.2,1900.4,885.2z"/>
			<path class="st20" d="M1640.8,878.4c0.6,4.7,3.9,10.9,9.9,18.4c-13.6,0.8-23-3-28.3-11.5c-7.1-11.6-4.4-38.4-4.3-54
				c0-1,0.5-1.5,1.5-1.5h21C1639.6,852.8,1639.7,869.1,1640.8,878.4z"/>
			
				<ellipse transform="matrix(1.745299e-03 -1 1 1.745299e-03 721.1553 2408.3059)" class="st19" cx="1566.8" cy="842.9" rx="13.6" ry="5.6"/>
			<circle class="st24" cx="1900.4" cy="863.3" r="21.9"/>
			<path class="st20" d="M1561.3,929.9c-29.6-6.1-37.3-45.2-10.9-60c23-12.9,52.1,5.4,48.4,32.2c-2.1,15.4-11,24.6-26.8,27.6
				c-1.1,0.2-1.2,0.7-0.4,1.4c3.3,2.7,5.2,5.8,5.7,9.4c0.5,4.4,2.1,23.4-5.8,26.7c-19.1,7.8-16.3-21.1-14.6-30
				c0.2-0.8,0.6-1.5,1.2-2.1l3.6-3.5C1562.6,930.7,1562.5,930.1,1561.3,929.9z M1583.7,901.6c1.2,0.3,2.5-0.4,2.8-1.7
				c1.6-7-4.8-21.5-12.7-19.6c-0.6,0.1-1,0.5-1.4,0.9c-0.8,1.1-0.5,2.6,0.5,3.4c6.5,4.6,7,8.3,9.1,15.4
				C1582.3,900.9,1583,901.5,1583.7,901.6z"/>
			<circle class="st24" cx="2246.4" cy="878.2" r="11.4"/>
			<path class="st24" d="M1572,883.3c-0.3-1.3,0.5-2.6,1.8-2.9c7.9-1.9,14.3,12.6,12.7,19.6c-0.2,0.8-0.8,1.4-1.5,1.6
				c-1.2,0.4-2.5-0.3-2.9-1.5c-2.1-7.1-2.7-10.9-9.1-15.4C1572.5,884.3,1572.2,883.9,1572,883.3z"/>
			<path class="st25" d="M1947,909.7l9.3,46.4c0,0.1,0,0.2,0,0.2c0,0.7-0.5,1.2-1.2,1.2l-109.4-0.1c-0.1,0-0.2,0-0.2,0
				c-0.7-0.1-1.1-0.8-1-1.4l9.3-46.2c0.1-0.6,0.6-1,1.2-1l90.7-0.1C1946.4,908.7,1946.9,909.1,1947,909.7z"/>
			<path class="st19" d="M1760.4,931.7l5.8-18.1c0.1-0.3,0.3-0.5,0.6-0.6c0.5-0.1,1,0.2,1.1,0.6l5.8,18.1c0.1,0.3,0.3,0.5,0.6,0.6
				l18.1,5.8c0.3,0.1,0.5,0.3,0.6,0.6c0.1,0.5-0.2,1-0.6,1.1l-18.1,5.8c-0.3,0.1-0.5,0.3-0.6,0.6l-5.8,18.1
				c-0.1,0.3-0.3,0.5-0.6,0.6c-0.5,0.1-1-0.2-1.1-0.6l-5.8-18.1c-0.1-0.3-0.3-0.5-0.6-0.6l-18.1-5.8c-0.3-0.1-0.5-0.3-0.6-0.6
				c-0.1-0.5,0.2-1,0.6-1.1l18.1-5.8C1760.1,932.1,1760.3,931.9,1760.4,931.7z"/>
			<path class="st19" d="M1695.9,931.6l5.8-17.9c0.1-0.2,0.3-0.4,0.5-0.5c0.5-0.2,1,0.1,1.2,0.5l5.8,17.9c0.1,0.3,0.3,0.5,0.6,0.6
				l17.9,5.8c0.2,0.1,0.4,0.3,0.5,0.5c0.2,0.5-0.1,1-0.5,1.2l-17.9,5.8c-0.3,0.1-0.5,0.3-0.6,0.6l-5.8,17.9
				c-0.1,0.2-0.3,0.4-0.5,0.5c-0.5,0.2-1-0.1-1.2-0.5l-5.8-17.9c-0.1-0.3-0.3-0.5-0.6-0.6l-17.9-5.8c-0.2-0.1-0.4-0.3-0.5-0.5
				c-0.2-0.5,0.1-1,0.5-1.2l17.9-5.8C1695.6,932.1,1695.8,931.9,1695.9,931.6z"/>
			<path class="st19" d="M1629.6,931.6l5.7-17.2c0.1-0.3,0.3-0.5,0.6-0.6c0.5-0.2,1.1,0.1,1.3,0.6l5.7,17.2c0.1,0.3,0.3,0.5,0.7,0.7
				l17.2,5.7c0.3,0.1,0.5,0.3,0.6,0.6c0.2,0.5-0.1,1.1-0.6,1.3l-17.2,5.7c-0.3,0.1-0.5,0.3-0.7,0.7l-5.7,17.2
				c-0.1,0.3-0.3,0.5-0.6,0.6c-0.5,0.2-1.1-0.1-1.3-0.6l-5.7-17.2c-0.1-0.3-0.3-0.5-0.7-0.7l-17.2-5.7c-0.3-0.1-0.5-0.3-0.6-0.6
				c-0.2-0.5,0.1-1.1,0.6-1.3l17.2-5.7C1629.3,932.1,1629.5,931.9,1629.6,931.6z"/>
			<circle class="st24" cx="2246.6" cy="938.9" r="11.4"/>
			<circle class="st24" cx="2095.6" cy="939" r="11.6"/>
		</g>
		<g id="_2-2">
			<path class="st26" d="M1641.2,217.9c0-74.3-60.6-134.8-134.8-134.8s-134.8,60.6-134.8,134.8s60.6,134.8,134.8,134.8
				C1580.6,352.8,1641.2,292.2,1641.2,217.9z"/>
		</g>
		<g id="_1-2">
			<path class="st6" d="M1958.5,372.2"/>
			<path class="st6" d="M1919.4,372.2"/>
		</g>
	</g>
	<g id="laptop">
		<path class="st27" d="M2015.6,1922.4v42.2c0,1.5-1.2,2.8-2.8,2.8h-627.7c-1.5,0-2.8-1.2-2.8-2.8v-42.2c0-1.5,1.2-2.8,2.8-2.8
			h627.7C2014.4,1919.6,2015.6,1920.9,2015.6,1922.4z"/>
		<path class="st27" d="M1240.7,1247.5l189.3,700c0.3,1.2-0.4,2.4-1.6,2.7l-32.6,8.8c-1.2,0.3-2.4-0.4-2.7-1.6l-189.3-700
			c-0.3-1.2,0.4-2.4,1.6-2.7l32.6-8.8C1239.2,1245.6,1240.4,1246.3,1240.7,1247.5z"/>
	</g>
	<g id="Plant">
		<path class="st28" d="M432.9,3034.2c-2.5-1.6-61.9-40.6-120.7-123.1c-54.2-76-117.7-204.7-112.4-386.4c0.2-5,4.1-9.2,9.3-8.8l0,0
			c5,0.1,8.9,4.3,8.8,9.3c-8.7,299.6,173.5,455.3,216.1,487.5c22.5-54.4,121.6-323.1,38.8-657.3l0,0c-1.2-4.8,1.8-9.8,6.6-11
			s9.8,1.8,11,6.6c94,379.2-43,676.4-44.4,679.4l-4.4,9.4L432.9,3034.2z"/>
		<path class="st28" d="M433,3034.3c-4.2-2.6-5.5-8.2-2.9-12.4c2.2-3.6,218.4-360.3,244.7-468.8c1.2-4.9,6.1-7.8,10.9-6.7
			s7.8,6.1,6.7,10.9c-26.9,111.2-237.8,459.2-246.8,473.9c-1.6,2.7-4.6,4.4-7.7,4.4C436.1,3035.6,434.4,3035.2,433,3034.3z"/>
		<path class="st29" d="M363.7,2969.3c0,0-87.6,4.5-204.3,2.2s-114.4-114.4-38.1-157s211,103.2,211,103.2L363.7,2969.3z
			 M233.5,2731.4c0,0-49.4-150.4-161.6-143.6s-83,175.1,18,175.1l150.4,6.7L233.5,2731.4z M206.6,2542.9c0,0,110.7-175.9-29.2-294
			c-101-85.3-119,213.2-15.7,262.6L206.6,2542.9z M222.3,2651.8c111.1,19.1,207.6-139.2,127.9-165s-135.8,115.6-138,126.8
			L222.3,2651.8z M276.2,2825.7l114.5-28.1c136.9-26.9,88.6-152.6,12.3-154.9s-139.1,152.6-139.1,152.6L276.2,2825.7z M222.3,2411.6
			c4.5,41.5,130.2,182.9,289.5,113.3c3.1-1.3-75.2-196.4-162.7-197.5S217.8,2370.1,222.3,2411.6L222.3,2411.6z M491.7,2374.6
			c0,0,116.7-69.6,43.8-175.1s-127.9,2.2-130.2,21.3C403,2239.9,386.2,2361.1,491.7,2374.6z M497.3,2434c0,0,23.6,27,86.4,27
			s106.6-90.9,30.3-112.3S497.2,2434,497.3,2434L497.3,2434z M564.6,2573.2c43.8,38.2,94.2,44.9,94.2,44.9s14.6-123.5-52.8-141.4
			S520.8,2535,564.6,2573.2L564.6,2573.2z M679.1,2564.2c98.8,9,277.2-139.2,141.4-207.6C679.1,2285.3,673.4,2563.7,679.1,2564.2
			L679.1,2564.2z M611.7,2729.2c0,0-7.9,10.1,118.9,29.2s166.1-93.1,96.5-152.6s-203,94.2-203,94.2L611.7,2729.2z M601.6,2742.6
			c0,0,64-163.9-23.6-167.2s-75.2,85.3-51.6,116.7s62.9,65.1,62.9,65.1L601.6,2742.6z M533.2,2876.2c0,0,66.2,33.7,148.1,52.7
			s140.3-71.8,77.4-125.7s-214.4,35.9-214.4,35.9L533.2,2876.2z"/>
		<path class="st30" d="M641,3107.5v354.3c0,70.7-57.3,128.1-128.1,128.1H360.6c-70.7,0-128.1-57.3-128.1-128.1v-354.3
			c0-70.7,57.3-128.1,128.1-128.1h152.3C583.6,2979.4,641,3036.8,641,3107.5z"/>
		<path class="st31" d="M273.4,3051.5c-0.1-3.5,2.6-6.5,6.2-6.7h296.3c3.4,0.1,6,2.8,6.2,6.2c0.1,3.5-2.6,6.5-6.2,6.7H279.6
			C276.2,3057.6,273.5,3054.9,273.4,3051.5z"/>
		<path class="st31" d="M552.2,3443.8c-3.5,0-6.4-2.9-6.4-6.4v-383.8c0-3.5,2.9-6.4,6.4-6.4s6.4,2.9,6.4,6.4v383.8
			C558.7,3440.9,555.8,3443.8,552.2,3443.8C552.3,3443.8,552.3,3443.8,552.2,3443.8z"/>
		<path class="st31" d="M428.8,3443.8c-3.5,0-6.4-2.9-6.4-6.4v-383.8c0-0.2,0-0.3,0-0.5c0.1-3.5,3.1-6.3,6.7-6.2
			c3.5,0.1,6.3,3.1,6.2,6.7v383.8l0,0C435.3,3440.9,432.4,3443.8,428.8,3443.8L428.8,3443.8z"/>
		<path class="st31" d="M305.4,3443.8c-3.5,0-6.4-2.9-6.4-6.4v-383.8c0-3.5,2.9-6.4,6.4-6.4s6.4,2.9,6.4,6.4v383.8
			C311.9,3440.9,309,3443.8,305.4,3443.8L305.4,3443.8z"/>
	</g>
</g>
<path class="st32" d="M1269.3,1355.6l541.4-254.5c64.9-18.6,131,25.5,138.6,92.6l130.2,447.8c22,75.7-27.2,153.6-105,166.3
	l-577.2,21.1c-0.8,0.1,18.8,69.6,18.6,68.8L1260,1321.1C1259.7,1320.3,1268.5,1355.8,1269.3,1355.6z"/>
<linearGradient id="SVGID_1_" gradientUnits="userSpaceOnUse" x1="4079.2402" y1="2286.2961" x2="4744.6987" y2="2118.6958" gradientTransform="matrix(-1 0 0 -1 6141.333 3698)">
	<stop  offset="0.2333" style="stop-color:#000000"/>
	<stop  offset="0.3263" style="stop-color:#040404"/>
	<stop  offset="0.4193" style="stop-color:#101010"/>
	<stop  offset="0.5124" style="stop-color:#242424"/>
	<stop  offset="0.6057" style="stop-color:#404040"/>
	<stop  offset="0.699" style="stop-color:#656565"/>
	<stop  offset="0.7925" style="stop-color:#919191"/>
	<stop  offset="0.8843" style="stop-color:#C5C5C5"/>
	<stop  offset="0.9744" style="stop-color:#FFFFFF"/>
</linearGradient>
<path class="st33" d="M1268.2,1355.6l541.4-254.5c64.9-18.6,131,25.5,138.6,92.6l130.2,447.8c22,75.7-27.2,153.6-105,166.3
	l-577.2,21.1c-0.8,0.1,18.8,69.6,18.6,68.8l-155.9-576.6C1258.6,1320.3,1267.4,1355.8,1268.2,1355.6z"/>
<g id="women">
	<g id="Head">
		<path class="st34" d="M2897.3,1223.6l83.1-83.1c11.4-11.4,30.8-5.9,34.8,9.7c17.6,68.9,65.3,122.7,90,146.9
			c0.4,0.4,0.7,0.7,1.1,1.1c7.6,8.5,6.9,21.5-1.6,29.1c-42.7,37.4-114,58.3-152.3,67.4c-1.4,0.3-2.9,0.5-4.3,0.6
			c-11.4,0.2-20.8-8.8-21.1-20.2c-1.1-57.2-21.9-105.2-33.3-127.4C2889.4,1239.8,2890.9,1230,2897.3,1223.6z"/>
		<path class="st34" d="M3054.8,1019.5c-0.4,63.4-40.8,123.5-81.2,169.2c-28.9,32.8-73.2,81.4-119.2,88.9
			c-66.3,10.8-95.6-86-90.8-248.5c2.3-79,70.1-141.2,148.7-138.5c9.2,0.3,18.4,1.4,27.5,3.4
			C3000.2,906.7,3055.1,953.9,3054.8,1019.5z"/>
		<path class="st35" d="M2749.1,999.1c2.8-63.7,79.6-153.6,204-129.3c130.6,25.5,164.1,162.5,148.2,237.4
			c-12,56.4-40.2,76.6-53.5,83.2c-4,2-8.6,2.7-13.1,2c-54.3-9.3-84.8-65.6-96.6-92.8c-3.7-8.6-12.2-14-21.6-13.8
			c-89.6,2-144.8-51.3-161.7-70.6C2750.9,1010.8,2748.9,1005,2749.1,999.1z"/>
		<path class="st36" d="M2794,1081.2c-3.2-0.1-6.4,0.3-9.5,1.1c-3.5,0.7-7.1,2.3-11.9,3.7c0.7-4.9,3.2-9.3,7.1-12.4
			c4-3.4,9.1-5.3,14.4-5.2c5.1,0,10,1.6,14.1,4.5c4,2.7,7.1,6.6,8.6,11.2C2807.2,1082.7,2800.3,1081.1,2794,1081.2z"/>
		
			<ellipse transform="matrix(0.9959 -8.994161e-02 8.994161e-02 0.9959 -88.7447 255.9024)" class="st37" cx="2795.1" cy="1112.6" rx="11.3" ry="14.6"/>
		<path class="st34" d="M2775.1,1165.6c0,0.2,0,0.3,0,0.5c-0.1,2.2-1.9,4-4.2,4c-8.5-0.2-26.3-2-30.5-12.8
			c-4.1-10.4,12.9-32.2,22.5-43.3c0.7-0.8,1.6-1.3,2.7-1.4c2.2-0.2,4.2,1.4,4.4,3.7L2775.1,1165.6z"/>
		<path class="st36" d="M2788,1213.3c-2.3-0.6-3.7-2.9-3.2-5.2l0,0c0.6-2.3,2.9-3.7,5.1-3.1c0.1,0,13.1,3,20.9-2.5
			c3.4-2.4,5.2-6.1,5.7-11.3c0.3-2.3,2.3-4,4.7-3.8s4.1,2.3,3.8,4.7c-0.8,7.7-3.9,13.6-9.3,17.5s-12.2,4.9-17.7,4.9
			C2794.7,1214.4,2791.4,1214,2788,1213.3z"/>
		<path class="st36" d="M2910.5,1259.6c-2.1,0-3.9-1.5-4.2-3.6c-0.4-2.3,1.2-4.5,3.5-4.9c0.4-0.1,40.5-7.6,70.1-51.9
			c1.3-1.8,3.8-2.3,5.7-1.1c2,1.2,2.7,3.9,1.4,5.9c-31.7,47.6-73.9,55.3-75.7,55.6C2911,1259.6,2910.8,1259.6,2910.5,1259.6
			L2910.5,1259.6z"/>
		<path class="st35" d="M3023.2,1161.3c1.6,127.4,219.8,246.9,270.8,387.1s167.3,57.3,239,23.9c59.8-27.9-31.2-84.7-63-102.7
			c-0.9-0.5-1.7-1.3-2.3-2.1c-2.2-3.2-1.4-7.6,1.8-9.9c120-82.5,11.6-167.7-25.7-184.8c-38.2-17.5-133.8-78.1-188-148.2
			s-23.9-211.8-248.5-262.8c-169.6-38.5-228.4,53.8-247.1,101.4c-0.7,1.9-0.6,4.1,0.4,5.9c1.9,3.4,6.2,4.7,9.6,2.9
			C2838.8,935.2,3021.8,1046.3,3023.2,1161.3z"/>
		<path class="st34" d="M2959.5,1108.8c25.5-25.5,25.5-98.8-25.5-102s-47.8,86-47.8,86C2891,1180.5,2934,1134.4,2959.5,1108.8z"/>
		<path class="st36" d="M2922.9,1105.1c-1.2,0-2.3-0.5-3.1-1.3c-1.6-1.7-1.6-4.4,0.1-6.1c10.8-10.3,15.9-20,15.3-28.8
			c-0.7-9.7-8.3-15.4-8.5-15.6l0,0c-1.9-1.4-2.4-4.1-1-6s4.1-2.4,6-1c0.5,0.3,11.1,8,12.1,21.8c0.8,11.6-5.2,23.6-18,35.8
			C2925,1104.7,2924,1105.1,2922.9,1105.1L2922.9,1105.1z"/>
		<path class="st35" d="M2856.1,886.3c-7.4,1.9-15.2-0.4-20.3-6c-35.6-38.9-165.2-191.7-37.6-234.7
			c124.6-42,136.4,146.5,137.1,203.8c0.1,9.4-6.2,17.7-15.3,20.1L2856.1,886.3z"/>
		<path class="st38" d="M2818.9,861c6.7,7.9,12.6,14.5,17,19.3c0.4,0.4,0.9,0.6,1.3,1c19.7-2.6,64-9.9,97-24.9
			c0.8-2.2,1.2-4.6,1.2-7c-0.1-7.1-0.4-16.2-1-26.7C2908.7,834.7,2854.7,858.4,2818.9,861z"/>
		<circle class="st39" cx="2950.6" cy="1113.6" r="22.3"/>
	</g>
	<g id="Body_2">
		<g id="_1-3">
			<path class="st34" d="M2245.2,3241.8h-137c-20.3,0-37.2,15.7-38.7,36l-8.4,113.1c-1.1,14-9.6,26.4-22.4,32.3
				c-155.1,72.2-203.8,136-217.9,175.4c-1.3,3.7-1.9,7.6-1.7,11.5c0.8,16.5,14.8,29.2,31.3,28.4l388-18
				c33.1-1.5,58.8-29.6,57.4-62.7L2284,3279C2283.1,3258.3,2266,3241.9,2245.2,3241.8z"/>
			<path class="st40" d="M2287.3,3356.6l-3.3-77.5c-0.9-20.8-18-37.2-38.8-37.2h-137c-20.3,0-37.2,15.7-38.7,36l-3.2,43.9
				L2287.3,3356.6z"/>
			<path class="st41" d="M1820.9,3598.7c-1.3,3.7-1.9,7.6-1.7,11.5c0.8,16.5,14.8,29.2,31.3,28.4l388-18
				c33.1-1.5,58.8-29.6,57.4-62.7l-5-117.8c-54.1-16.1-171.5-49.4-228.5-65.6l-1.2,16.5c-1.1,14-9.6,26.4-22.4,32.3
				C1883.6,3495.5,1835,3559.3,1820.9,3598.7z"/>
			<path class="st42" d="M2293.1,3493.9l-2.3-53.8c-54.1-16.1-171.5-49.4-228.5-65.6l-1.2,16.5c-0.6,8-3.7,15.6-8.8,21.8
				L2293.1,3493.9z"/>
			<path class="st42" d="M1819.2,3610.2c0.8,16.5,14.8,29.2,31.2,28.4l388-18c33.1-1.5,58.8-29.6,57.4-62.7v-1.2l-470.9,32.4
				c-1.6,3.4-2.9,6.6-4,9.7C1819.6,3602.4,1819,3606.3,1819.2,3610.2z"/>
			<path class="st43" d="M1980.6,3498c-1.5-0.9-2.1-2.8-1.2-4.4l31.9-57.4c0.9-1.6,2.8-2.1,4.4-1.3c1.6,0.9,2.1,2.8,1.3,4.4
				l-31.9,57.4c-0.6,1-1.6,1.7-2.8,1.6C1981.6,3498.4,1981.1,3498.2,1980.6,3498z"/>
			<path class="st43" d="M1928,3524.2c-1.5-0.9-2.1-2.8-1.2-4.4l31.9-57.4c0.9-1.6,2.8-2.1,4.4-1.3c1.6,0.9,2.1,2.8,1.3,4.4
				l-31.9,57.4c-0.6,1-1.6,1.7-2.8,1.6C1929.1,3524.6,1928.5,3524.5,1928,3524.2z"/>
			<path class="st43" d="M1915.1,3496.9c-1.8,0-3.2-1.4-3.2-3.2s1.4-3.2,3.2-3.2l0,0l65.6,0.6c1.6,0.1,2.9,1.4,3,3
				c0.1,1.8-1.3,3.3-3,3.4L1915.1,3496.9z"/>
			<path class="st43" d="M2027.3,3478.3l-64.4-12.6c-1.7-0.4-2.9-2-2.5-3.8c0,0,0,0,0-0.1c0.4-1.7,2-2.8,3.8-2.5l64.4,12.6
				c1.5,0.3,2.6,1.6,2.6,3.2c0,1.8-1.4,3.2-3.2,3.2C2027.7,3478.4,2027.5,3478.4,2027.3,3478.3z"/>
			<path class="st44" d="M3215.8,2100.4c0.9,0.1,1.9,0.3,2.8,0.4c29.5,5.5,49,33.8,43.5,63.3c-31.5,168.5-116.8,251.4-130.3,263.6
				c-1.3,1.2-2.5,2.4-3.7,3.7c-219.4,245-644.8,179.7-793.1,147.6c-4.2-0.9-8.6-1.1-12.9-0.5c-20.7,2.7-35.3,21.7-32.6,42.4
				l72.1,556.6c0.3,2.3,0.5,4.5,0.6,6.8c3,53-37.5,98.5-90.5,101.5l-212.2,12.2c-41.8,2.4-78.7-27.1-85.5-68.5
				c-17.6-107.8-45.8-336-99.4-676c-69.8-443,178.3-484.3,202.1-487.3c1.1-0.1,2.2-0.2,3.3-0.2l727.1-19c2.8-0.1,5.7,0.1,8.5,0.4
				L3215.8,2100.4z"/>
			<path class="st43" d="M2170.9,3268.1c-0.6-4.9-57.7-494.9-89.2-850.9c-6.2-70,14.4-127.5,61.2-170.7
				c69.2-64,193.5-96.6,369.2-96.9h2.5c129.1,0,239.3,18.4,240.4,18.6c3.4,0.6,5.8,3.9,5.2,7.3c-0.6,3.5-3.9,5.9-7.4,5.3
				c-4.4-0.7-441.5-72.5-601.3,75.1c-43.7,40.4-62.9,94.2-57.1,160.1c31.5,355.8,88.6,845.6,89.2,850.5c0.4,3.5-2.1,6.7-5.6,7.1
				c-0.2,0-0.5,0-0.8,0C2174.1,3273.8,2171.3,3271.4,2170.9,3268.1z"/>
		</g>
		<g id="_2-3">
			<path class="st34" d="M1761.1,3165.3l-121.8-113.5c-1.7-1.6-3.6-2.9-5.6-4c-12.5-6.6-28-1.7-34.5,10.8
				c-54.9,105.4-175.2,297-198.5,333.9c-2.6,4.1-6.3,7.4-10.7,9.4c-110.6,52.3-174.4,109.8-207.9,147.8
				c-14.6,16.6-2.9,42.6,19.2,42.6h384.4c29.4,0,53.6-23,55.2-52.3l6.4-120.2c0.2-4.4,1.6-8.6,3.9-12.4l117.2-184.8
				C1780.2,3204.2,1777.1,3180.1,1761.1,3165.3z"/>
			<path class="st40" d="M1553.3,3141.3l152.5,180.1l62.6-98.7c11.7-18.4,8.6-42.5-7.4-57.4l-121.8-113.5c-1.7-1.6-3.6-2.9-5.6-4
				c-12.5-6.6-28-1.7-34.5,10.8C1586.6,3082.6,1570.7,3111.1,1553.3,3141.3z"/>
			<path class="st41" d="M1201.3,3592.3h384.4c29.4,0,53.6-23,55.2-52.3l6.4-120.2c0.2-4.4,1.6-8.6,3.9-12.4l12.8-20.2l-203.7-90.6
				c-27.9,45.5-50.8,81.8-59.6,95.8c-2.6,4.1-6.3,7.4-10.7,9.4c-110.6,52.3-174.4,109.8-207.9,147.8
				C1167.5,3566.3,1179.2,3592.3,1201.3,3592.3z"/>
			<path class="st42" d="M1640.4,3544.6h-453.6c-1.6,1.8-3.2,3.5-4.7,5.2c-14.6,16.6-2.9,42.6,19.2,42.6h384.4
				C1613.3,3592.3,1636.7,3571.9,1640.4,3544.6z"/>
			<path class="st42" d="M1436,3336.1l211.1,87.9l0.2-4.1c0.2-4.4,1.6-8.6,3.9-12.4l12.8-20.2l-203.7-90.6
				C1451.6,3310.8,1443.4,3324.1,1436,3336.1z"/>
			<path class="st43" d="M1338,3477.4L1338,3477.4c-1.6-0.9-2.1-2.8-1.3-4.4l31.9-57.3c0.9-1.6,2.8-2.1,4.4-1.2s2.1,2.8,1.2,4.4
				l-31.9,57.3c-0.6,1-1.6,1.7-2.8,1.7C1339.1,3477.8,1338.5,3477.6,1338,3477.4z"/>
			<path class="st43" d="M1285.4,3503.7c-1.5-0.9-2.1-2.8-1.2-4.4l31.9-57.3c0.9-1.6,2.8-2.1,4.4-1.3c1.6,0.9,2.1,2.8,1.3,4.4
				l-31.9,57.3c-0.6,1-1.6,1.7-2.8,1.7C1286.4,3504.1,1285.9,3503.9,1285.4,3503.7z"/>
			<path class="st43" d="M1272.5,3476.3c-1.8,0-3.2-1.4-3.2-3.2s1.4-3.2,3.2-3.2l0,0l65.6,0.6c1.8,0,3.2,1.4,3.2,3.2
				s-1.4,3.2-3.2,3.2L1272.5,3476.3z"/>
			<path class="st43" d="M1384.7,3457.7l-64.4-12.6c-1.7-0.3-2.9-2-2.5-3.8s2-2.9,3.8-2.5l64.4,12.6c1.5,0.3,2.6,1.6,2.6,3.2
				c0,1.8-1.4,3.2-3.2,3.2C1385.1,3457.8,1384.9,3457.8,1384.7,3457.7z"/>
			<path class="st45" d="M2865.5,2091.7c0,0-713.7-44.6-908,111.5c-164.8,132.4-341,654.2-390.8,809.8c-8.4,26.2,0.9,54.9,23.1,71.2
				l171.3,126.1c3,2.2,6.1,4.2,9.4,6c43.2,24.2,97.8,8.8,121.9-34.4l300.9-537.4c13.2-23.7,40-36.5,66.7-32
				c116.4,19.8,438.4,67.4,682,36.6c254.6-32.2,392-382.2,429.2-492.6c0.8-2.2,1.2-4.6,1.4-6.9c0.9-14.7-10.3-27.4-25-28.3
				L2865.5,2091.7z"/>
			<path class="st43" d="M1700.5,3133.2L1700.5,3133.2c-3.4-1.2-5.2-4.8-4-8.2c0.9-2.8,96.8-280.2,194.4-529.2
				c7.1-18.2,13.5-35.1,19.4-50.8c71.2-189.2,77-204.7,563.9-157.2c147.4,14.4,349.5,11.4,475.7-84.1c74.9-56.7,87.6-120.4,87.7-121
				c0.7-3.3,3.9-5.4,7.2-5c3.5,0.5,5.9,3.8,5.4,7.3c-0.5,2.8-13.3,68.5-91.6,128.2c-129.4,98.7-335.5,102-485.6,87.3
				c-477.1-46.5-481.3-35.5-550.6,148.9c-5.9,15.7-12.3,32.7-19.5,50.9c-97.6,248.6-193.3,525.9-194.3,528.6
				c-0.9,2.6-3.3,4.3-6.1,4.3C1701.9,3133.6,1701.2,3133.5,1700.5,3133.2z"/>
			<path class="st46" d="M2266.9,2613.8c121.7,20.4,436.1,65.7,675.1,35.5c254.6-32.2,392-382.2,429.2-492.6
				c0.8-2.2,1.2-4.6,1.4-6.9c0.9-14.7-10.3-27.4-25-28.3l-131.8-8.1c-19.4,133.5-95.9,383.3-394.9,418.1
				C2475.1,2571.6,2325.5,2537.4,2266.9,2613.8z"/>
		</g>
	</g>
	<g id="Body_1">
		<path class="st34" d="M2624.2,1673.2c9.4-8.9,24.2-8.5,33.1,0.9l158.8,168c0.5,0.5,1,1.1,1.4,1.6c8,10.2,6.2,24.9-3.9,32.9
			c-31.6,24.9-96.1,75-163.1,122.7c-94,66.9-175.2,14.3-175.2,14.3l-317.5-213.1c-9.8-6.6-22.9-4.8-30.7,4l-43.8,49.8
			c-38.2,52.6-116.3-20.7-133.8-33.4s12.8-46.2,12.8-46.2s-11.2,17.2-26.3,38.1c-24.3,33.7-58.7,76.7-72.5,71.8
			c-22.3-8,1.6-66.9,1.6-66.9c62.6-162.4,180.9-167.3,195.9-167.3c1.2,0,2.4-0.1,3.6-0.3c200.8-34.4,407.9,64.5,464.2,94.2
			c9,4.7,20,3.1,27.3-4.1l67.7-66.6C2624,1673.4,2624.1,1673.3,2624.2,1673.2z"/>
		<path class="st40" d="M2692.6,1968.8c50.8-37.4,96.1-72.6,121-92.2c0.6-0.4,1.1-0.9,1.6-1.4c9.4-8.9,9.8-23.7,0.9-33.1l-158.8-168
			c-0.1-0.1-0.2-0.2-0.3-0.3c-9.1-9.2-23.9-9.3-33.1-0.3l-12.3,12.1C2624.6,1766.3,2654.5,1924.7,2692.6,1968.8z"/>
		<path class="st47" d="M1968.6,1833.1c-1.8,0-3.3-1.1-4-2.8c-0.8-2.2,0.3-4.7,2.5-5.5c0.2-0.1,23.4-9,27.6-27.2
			c0.6-2.1,2.7-3.4,4.9-3.1c2.3,0.4,3.9,2.7,3.5,5c-5.2,22.7-31.8,32.9-32.9,33.3C1969.7,1833,1969.1,1833.1,1968.6,1833.1
			L1968.6,1833.1z"/>
		<path class="st47" d="M1988.5,1849.4c-0.8-2.2,0.3-4.7,2.5-5.5c0.2-0.1,23.4-9,27.6-27.2c0.5-2.3,2.8-3.7,5.1-3.2s3.7,2.8,3.2,5.1
			c-5.2,22.7-31.8,32.9-32.9,33.3c-0.5,0.2-1,0.3-1.5,0.3C1990.7,1852.2,1989.1,1851.1,1988.5,1849.4z"/>
		<path class="st47" d="M2016.4,1868.2c-1.8,0-3.4-1.1-4-2.8c-0.8-2.2,0.3-4.7,2.5-5.5c0.2-0.1,23.4-9,27.6-27.2c0-0.1,0-0.1,0-0.2
			c0.6-2.3,2.9-3.7,5.2-3.1c2.3,0.6,3.7,2.9,3.1,5.2c-5.2,22.7-31.8,32.9-32.9,33.3C2017.5,1868.1,2016.9,1868.2,2016.4,1868.2
			L2016.4,1868.2z"/>
		<path class="st47" d="M2554.8,1821.6c-2.2-0.9-3.2-3.5-2.2-5.6c10.1-23-13.8-59.3-14-59.6c-1.3-1.9-0.7-4.5,1.2-5.8s4.6-0.9,6,1.1
			c1.1,1.6,26.7,40.5,14.7,67.8c-0.7,1.6-2.2,2.6-3.9,2.6C2555.9,1822,2555.3,1821.9,2554.8,1821.6z"/>
		<path class="st48" d="M3394,2170.7c-3.2,21.6-20.2,38.5-41.8,41.5c-179.7,25-516.4-80-615-112.7c-1.3-0.4-2.5-0.9-3.7-1.5
			c-13-6.6-18.2-22.6-11.6-35.6c13.4-26.5,32.9-62.8,36.1-84.8c1.5-10.5,7.5-19.9,16.3-25.8l18.2-18.9c5.3-5.5,5.7-14.1,1-20.2
			L2599,1663.9c-12.4-15.7-10.3-38.4,4.8-51.6c41.8-36.4,129.4-109.5,237.8-181.7c117-78,226.6-115.9,271.6-129.4
			c13.4-3.9,27.8-0.1,37.4,9.9C3450.7,1619.1,3412.5,2047.8,3394,2170.7z"/>
		<path class="st49" d="M3236.3,2213.8c42.4,3.2,82,3.1,115.9-1.6c21.6-3.1,38.6-19.9,41.8-41.5c18.5-122.8,56.7-551.5-243.4-859.6
			c-9.6-10-24.1-13.9-37.4-9.9C3113.2,1301.2,3448.5,1798.7,3236.3,2213.8z"/>
		<path class="st49" d="M2748.8,2041.1c-2.2,1.1-4.8,1.2-7.2,0.3c-4.8-1.8-7.2-7.1-5.5-11.9l23.6-64.6c0.4-2.5,1.7-4.8,3.7-6.4
			l315-258.3c1.8-1.5,4.3-1.9,6.6-1.1c3.6,1.2,5.5,5.1,4.2,8.7C3021.2,1898.5,2814.3,2009.9,2748.8,2041.1z"/>
		<path class="st24" d="M3148.2,1308.9c-9.6-8.4-22.8-11.4-35-7.8c-70,21.3-137.6,50-201.5,85.6c18.9-0.5,57.1-3.8,117.1-21.5
			C3095.1,1345.7,3132.3,1321.4,3148.2,1308.9z"/>
		<path class="st50" d="M2832.1,1853.2l-205.7-238.9l-0.1-0.1c-1.5-1.8-1.2-4.5,0.6-6s4.5-1.2,6,0.6l205.7,238.9
			c1.5,1.8,1.3,4.5-0.4,6c-0.8,0.7-1.8,1-2.8,1C2834.1,1854.6,2832.9,1854.1,2832.1,1853.2z"/>
		<path class="st50" d="M3036.4,2140.6c-1.3,0-2.6-0.6-3.4-1.7c-1.4-1.9-1-4.5,0.8-5.9l33.1-25.2c1.9-1.4,4.5-1.1,5.9,0.8
			c1.4,1.9,1.1,4.5-0.8,5.9l-33.1,25.2C3038.3,2140.3,3037.4,2140.6,3036.4,2140.6L3036.4,2140.6z M2908.8,2116.9
			c-0.9,0-1.8-0.3-2.6-0.9l-33.1-25.2c-0.1,0-0.1-0.1-0.2-0.2c-1.8-1.5-2.1-4.1-0.6-5.9s4.1-2.1,5.9-0.6l33.1,25.2
			c1.1,0.8,1.7,2.1,1.7,3.4C2913,2115,2911.1,2116.9,2908.8,2116.9L2908.8,2116.9z M3313.8,2112.2c-1.3,0-2.6-0.6-3.4-1.7
			c-1.4-1.9-1-4.5,0.8-5.9l33.1-25.2c0.1-0.1,0.1-0.1,0.2-0.2c1.9-1.4,4.5-0.9,5.9,1s0.9,4.5-1,5.9l-33.1,25.2
			C3315.6,2111.9,3314.7,2112.2,3313.8,2112.2L3313.8,2112.2z M3244.4,2093.3c-0.9,0-1.8-0.3-2.6-0.9l-33.1-25.2
			c-0.1,0-0.1-0.1-0.2-0.2c-1.8-1.5-2.1-4.1-0.6-5.9s4.1-2.1,5.9-0.6l33.1,25.2c1.1,0.8,1.7,2.1,1.7,3.4
			C3248.7,2091.4,3246.8,2093.3,3244.4,2093.3L3244.4,2093.3z M2946.4,2045.9c-1.4-1.9-1-4.5,0.8-5.9l33.1-25.2
			c1.8-1.2,4.2-0.9,5.6,0.8c1.5,1.8,1.3,4.5-0.5,6l-33.1,25.2c-0.7,0.6-1.6,0.9-2.6,0.9C2948.5,2047.6,2947.2,2047,2946.4,2045.9z
			 M3132.6,2046.1c-1.3,0-2.6-0.6-3.4-1.7c-1.4-1.9-1-4.5,0.8-5.9l33.1-25.2c1.8-1.3,4.3-0.9,5.7,0.8c1.5,1.8,1.2,4.5-0.6,6
			l-33.1,25.1C3134.4,2045.7,3133.5,2046,3132.6,2046.1L3132.6,2046.1z M3065.4,2007.3l-33.1-25.2c-0.1,0-0.1-0.1-0.2-0.2
			c-1.8-1.5-2.1-4.1-0.6-5.9s4.1-2.1,5.9-0.6l33.1,25.2c1.1,0.8,1.7,2,1.7,3.4c0,2.3-1.9,4.2-4.2,4.2
			C3067.1,2008.2,3066.2,2007.9,3065.4,2007.3z M3316.7,1995.5c-1.4-1.9-1-4.5,0.8-5.9l33.1-25.2c1.8-1.2,4.2-0.9,5.6,0.8
			c1.5,1.8,1.3,4.5-0.5,6l-33.1,25.2c-0.7,0.6-1.6,0.9-2.6,0.9C3318.8,1997.2,3317.5,1996.6,3316.7,1995.5z M3241.3,1956.2
			c-0.9,0-1.8-0.3-2.5-0.9l-33.1-25.2c-1.8-1.4-2.1-4-0.8-5.8c1.4-1.9,4-2.3,5.9-0.9l33.1,25.2c1.1,0.8,1.7,2.1,1.7,3.4
			C3245.6,1954.3,3243.7,1956.2,3241.3,1956.2L3241.3,1956.2z M3097.9,1921.5c-1.3,0-2.6-0.6-3.4-1.7c-1.4-1.9-1.1-4.5,0.8-5.9
			l33.1-25.2c1.8-1.3,4.4-1,5.8,0.8c1.5,1.8,1.1,4.5-0.7,6l-33.1,25.2C3099.8,1921.2,3098.9,1921.5,3097.9,1921.5L3097.9,1921.5z
			 M3363.2,1915.9l-33.1-25.2c-1.7-1.4-2-3.9-0.8-5.6c1.3-1.9,4-2.4,5.9-1.1l33.1,25.2c1.1,0.8,1.7,2,1.7,3.4c0,2.3-1.9,4.2-4.2,4.2
			C3364.9,1916.8,3364,1916.5,3363.2,1915.9z M3277.5,1880.6c-1.3,0-2.6-0.6-3.4-1.7c-1.4-1.9-1-4.5,0.8-5.9l33.1-25.2
			c1.8-1.2,4.2-0.9,5.6,0.8c1.5,1.8,1.3,4.5-0.5,6l-33.1,25.2C3279.4,1880.3,3278.5,1880.6,3277.5,1880.6L3277.5,1880.6z
			 M3217.7,1839.6c-0.9,0-1.8-0.3-2.6-0.9l-33.1-25.2c-1.7-1.4-2-3.9-0.8-5.6c1.3-1.9,4-2.4,5.9-1.1l33.1,25.2c1,0.8,1.7,2,1.7,3.4
			C3221.9,1837.7,3220,1839.6,3217.7,1839.6L3217.7,1839.6z M2919.8,1803.3c-1.3,0-2.6-0.6-3.4-1.7c-1.4-1.9-1.1-4.5,0.8-5.9
			l33.1-25.2c1.8-1.2,4.2-0.9,5.6,0.8c1.5,1.8,1.3,4.5-0.5,6l-33.1,25.2C2921.7,1803,2920.8,1803.3,2919.8,1803.3L2919.8,1803.3z
			 M2882,1771.8c-0.9,0-1.8-0.3-2.5-0.9l-33.1-25.2c-1.7-1.4-2-3.9-0.8-5.6c1.3-1.9,4-2.4,5.9-1.1l33.1,25.2c1,0.8,1.7,2,1.7,3.4
			C2886.2,1769.9,2884.3,1771.8,2882,1771.8L2882,1771.8z M3135.5,1724.4c-1.4-1.9-1-4.5,0.8-5.9l33.1-25.2c1.8-1.2,4.2-0.9,5.6,0.8
			c1.5,1.8,1.3,4.5-0.5,6l-33.1,25.2c-0.7,0.6-1.6,0.9-2.6,0.9C3137.5,1726.1,3136.3,1725.5,3135.5,1724.4z M3287,1705.6
			c-1.3,0-2.6-0.6-3.4-1.7c-1.4-1.9-1.1-4.5,0.8-5.9l33.1-25.2c1.8-1.2,4.2-0.9,5.6,0.8c1.5,1.8,1.3,4.5-0.5,6l-33.1,25.2
			C3288.8,1705.3,3287.9,1705.7,3287,1705.6L3287,1705.6z M2817.2,1689.8c-1.4-1.9-1-4.5,0.8-5.9l33.1-25.2c1.9-1.4,4.5-1.1,5.9,0.8
			s1.1,4.5-0.8,5.9l-33.1,25.2c-0.7,0.6-1.6,0.9-2.6,0.9C2819.2,1691.5,2818,1690.8,2817.2,1689.8z M3280.7,1680.4
			c-0.9,0-1.8-0.3-2.6-0.8l-33.1-25.2l0,0c-1.9-1.4-2.2-4.1-0.8-5.9c1.4-1.9,4.1-2.2,5.9-0.8l33.1,25.2c1.1,0.8,1.7,2.1,1.7,3.4
			C3284.9,1678.6,3283,1680.5,3280.7,1680.4L3280.7,1680.4z M3045.9,1677.3c-0.9,0-1.8-0.3-2.6-0.8l-33.1-25.2
			c-0.1,0-0.1-0.1-0.2-0.2c-1.8-1.5-2.1-4.1-0.6-5.9s4.1-2.1,5.9-0.6l33.1,25.2c1.1,0.8,1.7,2,1.7,3.4
			C3050.1,1675.4,3048.2,1677.3,3045.9,1677.3L3045.9,1677.3z M2767,1675.7c-0.9,0-1.8-0.3-2.6-0.8l-33.1-25.2
			c-1.7-1.4-2-3.9-0.8-5.6c1.3-1.9,4-2.4,5.9-1.1l33.1,25.2c1,0.8,1.7,2,1.7,3.4C2771.2,1673.8,2769.3,1675.7,2767,1675.7
			L2767,1675.7z M2987.5,1620.6c-1.3,0-2.6-0.6-3.4-1.7c-1.4-1.9-1-4.5,0.8-5.9l33.1-25.3c1.8-1.2,4.2-0.9,5.6,0.8
			c1.5,1.8,1.3,4.5-0.5,6l-33.1,25.2C2989.4,1620.3,2988.5,1620.6,2987.5,1620.6L2987.5,1620.6z M2688,1614.2
			c-1.4-1.9-1.1-4.5,0.8-5.9l33.1-25.2c1.8-1.2,4.2-0.9,5.6,0.8c1.5,1.8,1.3,4.5-0.5,6l-33.1,25.2c-0.7,0.6-1.6,0.9-2.6,0.9
			C2690,1615.8,2688.8,1615.2,2688,1614.2z M3184.6,1585.9c-0.9,0-1.8-0.3-2.6-0.9l-33.1-25.2c-1.7-1.4-2-3.9-0.8-5.6
			c1.3-1.9,4-2.4,5.9-1.1l33.1,25.2c1,0.8,1.7,2,1.7,3.4C3188.8,1584,3186.9,1585.9,3184.6,1585.9L3184.6,1585.9z M2837.9,1584.3
			c-0.9,0-1.8-0.3-2.6-0.9l-33.1-25.2c-1.7-1.4-2-3.9-0.8-5.6c1.3-1.9,4-2.4,5.9-1.1l33.1,25.2c1.1,0.8,1.7,2.1,1.7,3.4
			C2842.1,1582.4,2840.2,1584.3,2837.9,1584.3L2837.9,1584.3z M3226.9,1565.3c-1.4-1.9-1-4.5,0.8-5.9l33.1-25.2
			c1.8-1.2,4.2-0.9,5.6,0.8c1.5,1.8,1.3,4.5-0.5,6l-33.1,25.2c-0.7,0.6-1.6,0.9-2.6,0.9C3228.9,1567,3227.7,1566.4,3226.9,1565.3z
			 M2994.4,1536.1l-33.1-25.2c-1.7-1.4-2-3.9-0.8-5.6c1.3-1.9,4-2.4,5.9-1.1l33.1,25.2c1,0.8,1.7,2,1.7,3.4c0,2.3-1.9,4.2-4.2,4.2
			C2996.1,1537,2995.2,1536.7,2994.4,1536.1z M2856.6,1503.8L2856.6,1503.8c-1.4-1.9-1.1-4.5,0.8-5.9l33.1-25.2
			c1.8-1.2,4.2-0.9,5.6,0.8c1.5,1.8,1.3,4.5-0.5,6l-33.1,25.2c-0.7,0.6-1.6,0.9-2.6,0.9C2858.7,1505.5,2857.4,1504.9,2856.6,1503.8z
			 M3074.3,1477.2c-1.3,0-2.6-0.6-3.4-1.7c-1.4-1.9-1-4.5,0.8-5.9l33.1-25.2c1.8-1.2,4.2-0.9,5.6,0.8c1.5,1.8,1.3,4.5-0.5,6
			l-33.1,25.2C3076.1,1476.9,3075.2,1477.2,3074.3,1477.2L3074.3,1477.2z M3219.2,1461.4c-0.9,0-1.8-0.3-2.5-0.9l-33.1-25.2
			c-1.7-1.4-2-3.9-0.8-5.6c1.3-1.9,4-2.4,5.9-1.1l33.1,25.2c1,0.8,1.7,2,1.7,3.4C3223.5,1459.5,3221.6,1461.4,3219.2,1461.4
			L3219.2,1461.4z M3039.6,1420.4c-0.9,0-1.9-0.3-2.6-0.9l-33-25.2c-1.9-1.4-2.2-4.1-0.8-5.9c1.4-1.9,4.1-2.2,5.9-0.8l33.1,25.2
			c1.1,0.8,1.7,2.1,1.7,3.4C3043.9,1418.5,3042,1420.4,3039.6,1420.4L3039.6,1420.4z"/>
	</g>
</g>
<g id="Chair">
	<path class="st51" d="M3318.4,2691.9l97.7,888.1c0.2,1.4-0.8,2.6-2.2,2.8l-37.8,4.2c-1.4,0.2-2.6-0.8-2.8-2.2l-97.7-888.1
		c-0.2-1.4,0.8-2.6,2.2-2.8l37.8-4.2C3317,2689.5,3318.3,2690.5,3318.4,2691.9z"/>
	<path class="st51" d="M3466.1,3571.2v7.3c0,8.5-6.9,15.5-15.5,15.5h-74.2c-8.5,0-15.5-6.9-15.5-15.5v-7.3c0-8.5,6.9-15.5,15.5-15.5
		h74.2C3459.2,3555.7,3466.1,3562.6,3466.1,3571.2z"/>
	<path class="st51" d="M3210,2714.2l5.1,949.2c0,1.4-1.1,2.5-2.5,2.5l-39.8,0.2c-1.4,0-2.5-1.1-2.5-2.5l-5.1-949.2
		c0-1.4,1.1-2.5,2.5-2.5l39.8-0.2C3208.9,2711.7,3210,2712.8,3210,2714.2z"/>
	<path class="st1" d="M3158.8,3651.8v-0.3v-0.1c1.1-10.9,10.8-18.9,21.7-17.9l69.6,7.4c11,1.3,18.8,11.2,17.6,22.1v0.3
		c0,0.1,0,0.1,0,0.2c-1.1,10.9-10.8,18.9-21.7,17.8l-69.6-7.4C3165.4,3672.7,3157.5,3662.8,3158.8,3651.8z"/>
	<path class="st51" d="M2559.7,3610.2l99.1-944c0.1-1.4,1.4-2.4,2.8-2.2l39.6,4.2c1.4,0.1,2.4,1.4,2.2,2.8l-99.1,944
		c-0.1,1.4-1.4,2.4-2.8,2.2l-39.6-4.2C2560.5,3612.8,2559.5,3611.6,2559.7,3610.2z"/>
	<path class="st1" d="M2617.3,3604.3v-0.3v-0.1c0-11-8.9-19.9-19.8-19.9l-70,0.5c-11,0.2-19.8,9.3-19.7,20.3v0.3c0,0,0,0,0,0.1
		c0,11,8.9,19.9,19.8,19.9l70-0.5C2608.7,3624.4,2617.5,3615.4,2617.3,3604.3z"/>
	<path class="st51" d="M2420.8,3670.2l148.2-918.9c1.9-12-6.7-23.1-19.3-25l-1.9-0.3c-12.6-1.8-24.4,6.4-26.3,18.4l-148.2,918.9
		c-1.9,12,6.7,23.2,19.3,25l1.9,0.3C2407,3690.4,2418.8,3682.2,2420.8,3670.2z"/>
	<path class="st51" d="M2432,3679.2v-0.3c0.5-11.4-8.5-20.9-20.2-21.4l-75-2.9c-11.7-0.5-21.6,8.4-22.1,19.7v0.3
		c-0.5,11.4,8.5,20.9,20.2,21.4l75,2.9C2421.5,3699.3,2431.4,3690.5,2432,3679.2z"/>
	<path class="st52" d="M3604.7,2502.7C3481.5,2748.9,3165,2748,3165,2748s-532.1,9.6-665.9-3.2c-92.6-8.8-95.7-98-81-138.3
		c6.6-17.8,24.8-28.4,43.5-25.6c359.9,52.2,829.8-183.6,909.6-424.3c81.9-247.3,252.6-491.9,373.7-590.7
		c65-53,102.4-47.3,123.2-30.6c16.9,13.6,18.1,38.6,4.8,55.6c-47.6,60.7-118.9,227.8-121.6,236.2
		C3598.3,2308.3,3674.8,2362.5,3604.7,2502.7z"/>
	<path class="st51" d="M3346.3,3113.7v33.4c0,1.2-1,2.2-2.2,2.2h-149.9c-1.2,0-2.2-1-2.2-2.2v-33.4c0-1.2,1-2.2,2.2-2.2h149.9
		C3345.3,3111.5,3346.3,3112.5,3346.3,3113.7z"/>
	<path class="st51" d="M2630.4,3113.4v33.4c0,1.2-1,2.2-2.2,2.2h-139c-1.2,0-2.2-1-2.2-2.2v-33.4c0-1.2,1-2.2,2.2-2.2h139
		C2629.4,3111.2,2630.4,3112.2,2630.4,3113.4z"/>
</g>
<g id="_x31_">
	<path class="st53" d="M1529.4,316.3h-9.8l-2.9,5.2c-2.3,4.1-6.5,6.6-11.1,6.6l0,0c-4.6,0-8.8-2.5-11.1-6.6l-2.9-5.2h-9.8v-7h47.6
		L1529.4,316.3L1529.4,316.3z"/>
	<path class="st24" d="M1529.4,304.1h-47.6v-7.4h47.6V304.1z M1529.4,283.8h-47.6v7.4h47.6V283.8z M1595.1,227.2l-20.8-5.7l1.6-6
		l20.8,5.7L1595.1,227.2z M1417.7,227.2l-1.6-6l20.8-5.7l1.6,6L1417.7,227.2z M1575.9,184l-1.6-6l20.8-5.7l1.6,6L1575.9,184z
		 M1436.9,184l-20.8-5.7l1.6-6l20.8,5.7L1436.9,184z M1558.8,150.7l-4.3-4.4l15.2-15.5l4.3,4.4L1558.8,150.7z M1453.9,150.7
		l-15.2-15.5l4.3-4.4l15.2,15.5L1453.9,150.7z M1527.7,130.5l-5.8-1.6l5.6-21.2l5.8,1.6L1527.7,130.5z M1485,130.5l-5.6-21.2
		l5.8-1.6l5.6,21.2L1485,130.5z"/>
	<path class="st54" d="M1499.2,218.2h12.8v60.6h-12.8V218.2z M1505.6,140.5c-31.4-0.9-57.2,25.7-57.2,58.7c0,17,6.8,32.2,17.7,43
		c9.6,9.4,15.7,22.8,15.7,36.6h13.3v-60.6h-9.7c-7.6,0-13.7-6.3-13.7-14s6.1-14,13.7-14s13.7,6.3,13.7,14v9.9h12.8v-9.9
		c0-7.7,6.1-14,13.7-14s13.7,6.3,13.7,14s-6.1,14-13.7,14h-9.7v60.6h13.3c0-13.8,6.1-27.2,15.7-36.6c10.9-10.7,17.7-26,17.7-43
		C1562.9,166.2,1537.1,139.6,1505.6,140.5z M1485.5,194.3c-5.3,0-9.7,4.4-9.7,9.9c0,5.4,4.3,9.9,9.7,9.9h9.7v-9.9
		C1495.2,198.8,1490.9,194.3,1485.5,194.3z M1525.7,214.1h-9.7v-9.9c0-5.4,4.3-9.9,9.7-9.9s9.7,4.4,9.7,9.9
		C1535.4,209.6,1531.1,214.1,1525.7,214.1z"/>
</g>
</svg>
