<?xml version="1.0" encoding="utf-8"?>
<!-- Generator: Adobe Illustrator 26.0.2, SVG Export Plug-In . SVG Version: 6.00 Build 0)  -->
<svg version="1.1" xmlns="http://www.w3.org/2000/svg" xmlns:xlink="http://www.w3.org/1999/xlink" x="0px" y="0px"
	 viewBox="0 0 3881.9 3698.9" style="enable-background:new 0 0 3881.9 3698.9;" xml:space="preserve">
<style type="text/css">
	.st0{fill-rule:evenodd;clip-rule:evenodd;}
	.st1{fill:#092E3D;}
	.st2{fill:#114D7F;}
	.st3{fill-rule:evenodd;clip-rule:evenodd;fill:#8888FF;}
	.st4{fill-rule:evenodd;clip-rule:evenodd;fill:#BC7EE0;}
	.st5{fill:#498BEA;}
	.st6{fill-rule:evenodd;clip-rule:evenodd;fill:#FFFFFF;}
	.st7{fill:none;stroke:#65AAE9;stroke-width:2;}
	.st8{fill:none;stroke:#7BB6EA;stroke-width:2;}
	.st9{fill:none;stroke:#C9E7F9;stroke-width:2;}
	.st10{fill:none;stroke:#2C87D9;stroke-width:2;}
	.st11{fill:none;stroke:#3B8CDE;stroke-width:2;}
	.st12{fill:none;stroke:#509ADD;stroke-width:2;}
	.st13{fill:none;stroke:#8BBCED;stroke-width:2;}
	.st14{fill:none;stroke:#EFF9FD;stroke-width:2;}
	.st15{fill:none;stroke:#549DDB;stroke-width:2;}
	.st16{fill:none;stroke:#90C4E9;stroke-width:2;}
	.st17{fill:none;stroke:#9FC9EE;stroke-width:2;}
	.st18{fill:none;stroke:#D9EDFB;stroke-width:2;}
	.st19{fill:#DFF3FA;}
	.st20{fill:#B2DBF7;}
	.st21{fill:#1779DA;}
	.st22{fill:#5E9FE1;}
	.st23{fill:#4194D8;}
	.st24{fill:#FFFFFF;}
	.st25{fill:#91C0DB;}
	.st26{fill-rule:evenodd;clip-rule:evenodd;fill:#F48FFF;}
	.st27{fill:#3C8ABA;}
	.st28{fill:#E5A5D9;}
	.st29{fill:#AE2EBC;}
	.st30{fill:#8563BA;}
	.st31{fill:#CEA6E2;}
	.st32{opacity:0.34;fill:#EAE9C7;}
	.st33{opacity:0.34;fill:url(#SVGID_1_);}
	.st34{fill:#E0A78F;}
	.st35{fill:#A526A8;}
	.st36{fill:#A96B57;}
	.st37{fill:#30262C;}
	.st38{fill:#F48FFF;}
	.st39{fill:#F3EBDE;}
	.st40{fill:#CA7358;}
	.st41{fill:#AA3D95;}
	.st42{fill:#89196F;}
	.st43{fill:#F3BBD4;}
	.st44{fill:#B164BC;}
	.st45{fill:#C672CC;}
	.st46{fill:#AE56B7;}
	.st47{fill:#985B47;}
	.st48{fill:#8558CC;}
	.st49{fill:#5933B5;}
	.st50{fill:#3B438B;}
	.st51{fill:#0E3A47;}
	.st52{fill:#67265B;}
	.st53{fill:#C2E5EF;}
	.st54{fill:#FCFC6B;}
	.st55{display:none;}
</style>
<g id="BG">
	<rect class="st0" width="3881.9" height="3698.9"/>
</g>
<g id="Layer_1">
	<g id="element">
		<g id="Table">
			<path class="st1" d="M2762.1,3599.9h-864.8c-9.5,0.2-17.3-7.3-17.5-16.7c-0.2-9.5,7.3-17.3,16.7-17.5c0.3,0,0.6,0,0.8,0h864.8
				c35.3,0,63.9-28.6,63.9-63.8c0-0.1,0-0.3,0-0.4l-9-1476.5c-0.1-9.5,7.5-17.2,17-17.2h0.1c9.4,0,17.1,7.6,17.1,17l9.1,1476.5
				c0.3,54.2-43.3,98.4-97.5,98.7C2762.5,3599.9,2762.3,3599.9,2762.1,3599.9L2762.1,3599.9z"/>
			<path class="st1" d="M2829.2,2620.2H2748c-9.5,0.2-17.3-7.3-17.5-16.7c-0.2-9.5,7.3-17.3,16.7-17.5c0.3,0,0.6,0,0.8,0h81.2
				c9.5-0.2,17.3,7.3,17.5,16.7c0.2,9.5-7.3,17.3-16.7,17.5C2829.8,2620.2,2829.5,2620.2,2829.2,2620.2z"/>
			<g id="Table-2">
				<path class="st1" d="M2673.7,3461.3h-864.8c-9.5,0.2-17.3-7.3-17.5-16.7c-0.2-9.5,7.3-17.3,16.7-17.5c0.3,0,0.6,0,0.8,0h864.8
					c18.2,0,35.6-7,47.7-19.2c10.5-10.6,16.2-24.2,16.1-38.3l-9.1-1354.2c-0.1-9.5,7.5-17.2,17-17.2c0,0,0,0,0,0h0.1
					c9.4,0,17.1,7.6,17.1,17l9.1,1354.2c0.2,23.3-9.1,45.6-26.1,62.7C2727.2,3450.6,2700.9,3461.3,2673.7,3461.3z"/>
				<polygon class="st2" points="2174.5,2039.1 2733.7,2665.2 2733.7,2531.4 2277.3,2019.5 				"/>
			</g>
			<path class="st2" d="M1560.8,1972.2h1299.7c1.2,0,2.2,1,2.2,2.2v90.1c0,1.2-1,2.2-2.2,2.2H1560.8c-1.2,0-2.2-1-2.2-2.2v-90.1
				C1558.6,1973.2,1559.5,1972.2,1560.8,1972.2z"/>
		</g>
		<path id="_3" class="st3" d="M3076.2,904.3c46.3-46.2,121.2-46.2,167.5,0s46.2,121.2,0,167.5c-46.3,46.2-121.2,46.2-167.5,0
			c-33.8-33.8-44-84.7-25.7-129C3056.5,928.4,3065.2,915.4,3076.2,904.3z M3118.9,888.8c-55.2,22.7-81.5,85.9-58.8,141.1
			c22.7,55.2,85.9,81.5,141.1,58.8c55.2-22.7,81.5-85.9,58.8-141.1c-16.7-40.5-56.1-67-99.9-67
			C3145.9,880.6,3131.9,883.4,3118.9,888.8z M3105.8,801.6c-7.4,2.1-14.7,4.8-21.8,7.8c-7.2,3.1-14.2,6.6-21,10.5
			c-13.7,7.9-26.4,17.5-37.8,28.5c-1.9,1.9-4.4,3.1-7.1,3.4c-2.7,0.3-5.4-0.2-7.7-1.6c-17.4-10-35.7-20-52.7-30.5
			c-0.8-0.4-1.7-0.7-2.6-0.8c-1-0.1-2,0-2.9,0.2c-1,0.3-1.9,0.7-2.7,1.3c-0.8,0.6-1.4,1.3-1.9,2.2c-12.7,19.2-25.4,44-37.2,64.3
			c-0.5,0.8-0.8,1.8-0.9,2.7c-0.1,1-0.1,2,0.2,3c0.5,1.9,1.8,3.6,3.5,4.6c15.6,10.3,35.8,20.7,52.4,30.3c2.3,1.3,4.2,3.4,5.2,5.9
			c0.4,0.8,0.6,1.7,0.8,2.6l1.1,0.4l-1.2,4.9c-1,3.8-1.8,7.7-2.5,11.5c-0.7,3.8-1.3,7.7-1.8,11.7c-0.5,4-0.8,7.9-1.1,11.8
			s-0.3,7.8-0.3,11.9s0.1,8.1,0.3,11.9s0.6,7.8,1.1,11.8s1.1,8,1.8,11.7s1.5,7.7,2.5,11.5c1.4,5.6-1.3,11.4-6.4,14l-46.4,26.8l0,0
			l-5.5,3.2c-0.8,0.5-1.6,1.1-2.2,1.9c-0.6,0.8-1,1.7-1.3,2.7c-0.3,1-0.3,2-0.2,3c0.1,1,0.4,1.9,0.9,2.7l34.4,59.5l0,0l2.8,4.8
			c0.5,0.8,1.1,1.6,1.9,2.2c0.8,0.6,1.7,1,2.7,1.3c1,0.3,2,0.3,3,0.2c1-0.1,1.9-0.4,2.7-0.9c16.6-10.4,35.4-20.4,52.5-30.3
			c4.8-2.8,10.8-2,14.8,1.8l0,0c5.7,5.5,11.7,10.6,18,15.4c12.6,9.5,26.3,17.4,40.9,23.6c7.2,3.1,14.7,5.7,22.2,7.9
			c5.4,1.5,9,6.4,9,12v60.6c0,1,0.2,1.9,0.6,2.8c0.4,0.9,1,1.7,1.7,2.4c0.7,0.7,1.5,1.3,2.4,1.7c0.9,0.4,1.9,0.6,2.9,0.6h74.3
			c1,0,1.9-0.2,2.8-0.6c0.9-0.4,1.8-0.9,2.5-1.6c0.7-0.7,1.3-1.5,1.6-2.5c0.4-0.9,0.6-1.9,0.6-2.8v-60.6c0-5.8,4-10.7,9.6-12.1
			c7.4-2.1,14.7-4.7,21.8-7.8c21.8-9.3,41.7-22.5,58.8-39c4.2-4,10.6-4.6,15.4-1.4l51.8,29.9c0.8,0.5,1.8,0.8,2.7,0.9
			c2,0.2,4-0.3,5.7-1.5c0.8-0.6,1.4-1.3,1.9-2.2c12.3-21.5,24.8-42.9,37.1-64.3c0.5-0.8,0.8-1.8,0.9-2.7c0.1-1,0-2-0.2-3
			c-0.3-1-0.7-1.9-1.3-2.7c-0.6-0.8-1.3-1.4-2.1-1.9l-52.4-30.3c-2.3-1.3-4.2-3.4-5.2-5.9c-0.3-0.6-0.5-1.3-0.6-2l-1.4-0.3l1.4-5.6
			c0.9-3.8,1.8-7.7,2.5-11.5c0.7-3.7,1.3-7.6,1.8-11.7s0.9-7.9,1.1-11.8s0.3-7.8,0.3-11.9s-0.1-8.1-0.3-11.9s-0.6-7.8-1.1-11.8
			c-0.5-4.1-1.1-8-1.8-11.7c-0.7-3.8-1.5-7.7-2.5-11.5c-0.7-2.7-0.4-5.6,0.8-8.2c1.2-2.5,3.1-4.5,5.6-5.8l51.9-30
			c0.8-0.5,1.6-1.1,2.2-1.9c0.6-0.8,1.1-1.7,1.3-2.7c0.3-1,0.3-2,0.2-3c-0.1-1-0.4-1.9-0.9-2.7c-12.7-18.9-25.4-44.1-37.1-64.3
			c-1-1.7-2.7-3-4.6-3.5c-1-0.3-2-0.3-3-0.2c-1,0.1-1.9,0.4-2.7,0.9l-52.5,30.3c-2.4,1.4-5.1,1.9-7.9,1.6c-2.7-0.4-5.2-1.6-7.1-3.5
			c-11.4-10.9-24-20.5-37.6-28.3c-13.6-7.9-28.2-14.1-43.3-18.4c-5.4-1.5-9-6.4-9-12v-60.6c0-1-0.2-1.9-0.6-2.8
			c-0.4-0.9-0.9-1.7-1.6-2.4c-1.4-1.4-3.3-2.2-5.3-2.2h-74.3c-2,0-3.9,0.8-5.3,2.2c-1.4,1.4-2.2,3.3-2.2,5.3v60.6
			c0,5.8-4,10.8-9.6,12.1L3105.8,801.6z M3079.6,799.3c-7.6,3.2-15,6.9-22.2,11.1c-14.5,8.4-27.9,18.5-39.9,30.1
			c-0.2,0.2-0.5,0.4-0.8,0.4c-0.3,0-0.6,0-0.9-0.2c-17.6-10.2-35.3-20.4-52.9-30.6c-2.1-1.1-4.3-1.8-6.6-2.1
			c-4.8-0.5-9.6,0.8-13.4,3.7c-1.9,1.5-3.5,3.3-4.8,5.4c-12.8,20.7-24.9,43.2-37.2,64.3c-1.2,2.1-2,4.4-2.3,6.8
			c-0.3,2.4-0.1,4.9,0.5,7.2c0.6,2.3,1.7,4.5,3.2,6.5c1.5,1.9,3.3,3.5,5.4,4.8c16.9,10.4,35.2,20.3,52.4,30.3
			c0.3,0.2,0.5,0.4,0.6,0.7c0.1,0.3,0.1,0.6,0.1,0.9l-1.2,4.9h0.1c-0.5,2.4-1,4.8-1.5,7.2c-0.8,4.2-1.4,8.3-1.9,12.4
			c-0.5,4-0.9,8.2-1.1,12.4s-0.4,8.5-0.4,12.6s0.1,8.3,0.4,12.5s0.6,8.4,1.1,12.4s1.1,8.2,1.9,12.4s1.6,8.2,2.6,12.2
			c0.1,0.3,0,0.7-0.1,0.9c-0.1,0.3-0.4,0.5-0.6,0.7c-19.3,10.3-38.8,22.4-57.9,33.4l0.7,0.8l-0.6,0.7c-1.5,1.9-2.6,4.1-3.2,6.5
			c-0.6,2.3-0.8,4.8-0.5,7.2c0.3,2.4,1.1,4.7,2.3,6.8l39.9,69.1l0.7-0.4c0.4,0.4,0.8,0.7,1.2,1c1.9,1.5,4.1,2.6,6.5,3.2
			c2.3,0.6,4.8,0.8,7.2,0.5c2.3-0.3,4.6-1,6.7-2.2c17.5-9.3,35.4-20.5,52.7-30.4c0.3-0.1,0.6-0.2,0.9-0.2c0.3,0,0.6,0.2,0.9,0.4
			c12,11.6,25.4,21.7,39.9,30c14.4,8.3,29.8,14.9,45.8,19.5c0.3,0.1,0.6,0.3,0.8,0.5c0.2,0.3,0.3,0.6,0.3,0.9v60.6
			c0,4.9,2,9.6,5.4,13c1.7,1.7,3.8,3.1,6,4c2.2,0.9,4.6,1.4,7,1.4h74.3c2.4,0,4.8-0.5,7-1.4c2.2-0.9,4.3-2.3,6-4
			c1.7-1.7,3.1-3.8,4-6c0.9-2.2,1.4-4.6,1.4-7v-60.6c0-0.3,0.1-0.7,0.3-0.9c0.2-0.3,0.5-0.4,0.8-0.5l0.2-0.1
			c15.9-4.6,31.2-11.1,45.5-19.4c14.5-8.4,27.9-18.5,39.9-30.1c0.2-0.2,0.5-0.4,0.9-0.4c0.3,0,0.7,0.1,0.9,0.2l52.4,30.3
			c2.1,1.2,4.4,2,6.8,2.3c2.4,0.3,4.9,0.1,7.2-0.5c2.3-0.6,4.5-1.7,6.5-3.2c1.9-1.4,3.5-3.2,4.7-5.2c13.8-22.2,26.8-46.4,39.9-69.2
			l-0.7-0.4c0.1-0.6,0.2-1.2,0.3-1.8c0.3-2.4,0.1-4.8-0.5-7.2c-0.6-2.4-1.7-4.6-3.2-6.5c-1.5-1.9-3.3-3.5-5.4-4.8l-52.4-30.3
			c-0.3-0.2-0.5-0.4-0.6-0.7c-0.1-0.3-0.2-0.7-0.1-1l1.4-5.5h-0.1c0.5-2.2,0.9-4.3,1.3-6.6c0.8-4.2,1.4-8.3,1.9-12.4
			s0.9-8.2,1.1-12.4s0.4-8.5,0.4-12.5s-0.1-8.3-0.4-12.5s-0.6-8.4-1.1-12.5s-1.1-8.1-1.9-12.4s-1.6-8.2-2.6-12.1
			c-0.1-0.3,0-0.7,0.1-1c0.1-0.3,0.4-0.5,0.7-0.7l52.4-30.2c2.1-1.2,3.9-2.8,5.4-4.8c1.5-1.9,2.6-4.1,3.2-6.5
			c0.6-2.3,0.8-4.8,0.5-7.2c-0.3-2.3-1.1-4.6-2.2-6.7c-12.5-23.1-26.8-46.5-40-69.3l-0.7,0.4c-0.4-0.4-0.8-0.7-1.2-1
			c-3.9-3-8.8-4.3-13.7-3.7c-2.4,0.3-4.7,1.1-6.8,2.3l-3.9,2.2l0,0l-48.6,28.1c-0.3,0.2-0.6,0.2-0.9,0.2c-0.3,0-0.6-0.2-0.8-0.4
			l-0.1-0.1c-24.1-23.2-53.4-40.2-85.6-49.4c-0.6-0.2-1.1-0.8-1.1-1.4v-60.4c0-10.2-8.3-18.4-18.5-18.5h-74.3c-2.4,0-4.8,0.5-7,1.4
			c-2.2,0.9-4.3,2.3-6,4c-3.5,3.4-5.4,8.1-5.4,13v60.6c0,0.3-0.1,0.7-0.3,0.9c-0.2,0.3-0.5,0.4-0.8,0.5l-0.2,0.1
			C3095,793.3,3087.2,796,3079.6,799.3L3079.6,799.3z"/>
		<path id="_2" class="st4" d="M2872.7,19.4c-0.2-10.7,8.2-19.6,19-19.8s19.6,8.2,19.8,19c0,0.3,0,0.6,0,0.9v87.3
			c-0.2,10.7-9.1,19.2-19.8,19c-10.4-0.2-18.7-8.6-19-19V19.4L2872.7,19.4z M2740.4,90.3c-7.6-7.6-7.6-19.9,0-27.5
			c7.6-7.6,19.9-7.6,27.5,0l0,0l61.7,61.7c7.6,7.6,7.6,19.9,0,27.5c-7.6,7.6-19.9,7.6-27.5,0L2740.4,90.3L2740.4,90.3z M2697,233.9
			c-10.7,0-19.4-8.7-19.4-19.4s8.7-19.4,19.4-19.4h87.3c10.7,0,19.4,8.7,19.4,19.4s-8.7,19.4-19.4,19.4H2697z M2767.9,366.2
			c-7.6,7.6-19.9,7.6-27.4,0c-7.6-7.6-7.6-19.9,0-27.4l0,0l61.7-61.8c7.6-7.6,19.9-7.6,27.4,0s7.6,19.9,0,27.4L2767.9,366.2z
			 M2911.5,409.6c0.2,10.7-8.2,19.6-19,19.8c-10.7,0.2-19.6-8.2-19.8-19c0-0.3,0-0.6,0-0.9v-87.3c0.2-10.7,9.1-19.2,19.8-19
			c10.4,0.2,18.7,8.6,19,19V409.6z M3043.8,338.8c7.6,7.6,7.6,19.9,0,27.4c-7.6,7.6-19.9,7.6-27.4,0l0,0l-61.7-61.7
			c-7.4-7.8-7.1-20.1,0.7-27.4c7.5-7.1,19.2-7.1,26.7,0L3043.8,338.8L3043.8,338.8z M3087.2,195.1c10.7,0,19.4,8.7,19.4,19.4
			s-8.7,19.4-19.4,19.4l0,0h-87.3c-10.7,0-19.4-8.7-19.4-19.4s8.7-19.4,19.4-19.4H3087.2z M3016.4,62.8c7.4-7.7,19.7-8,27.4-0.5
			c7.7,7.4,8,19.7,0.5,27.4c-0.2,0.2-0.3,0.3-0.5,0.5L2982,152c-7.7,7.4-20,7.2-27.4-0.5c-7.2-7.5-7.2-19.4,0-26.9L3016.4,62.8z"/>
		<g id="_1">
			<path class="st5" d="M2561,1125.8l-54.7-125.7c-0.9-2.1-1.4-4.4-1.4-6.7V284.3c0-60.3-48.9-109.2-109.2-109.2h-875.2
				c-54.5,0-98.7,44.2-98.7,98.7v0v670.1c0,63.4,51.4,114.8,114.8,114.8c0,0,0,0,0,0h831.7c2.7,0,5.5,0.7,7.9,2l161.7,86.6
				C2551.8,1154.7,2567.3,1140.3,2561,1125.8z"/>
			<g id="_3-2">
				<path class="st6" d="M1543.4,631.5l19.2,23.5c3.5,4.3,2.8,10.6-1.5,14.1c-4.3,3.5-10.6,2.8-14.1-1.5l-32.1-39.2
					c-3.7-3.9-3.7-10,0-13.9l32.1-39.3c3.5-4.3,9.8-4.9,14.1-1.5c4.3,3.5,4.9,9.8,1.5,14.1l-19.2,23.5l-7.7,9.5L1543.4,631.5z"/>
				<path class="st6" d="M2401.4,620.9l-7.7-9.5l-19.2-23.5c-3.5-4.3-2.8-10.6,1.5-14.1c4.3-3.5,10.6-2.8,14.1,1.5l0,0l32.1,39.3
					c3.7,3.9,3.7,10,0,13.9l-32.1,39.3c-3.5,4.3-9.8,4.9-14.1,1.4s-4.9-9.8-1.4-14.1l19.2-23.5L2401.4,620.9z"/>
			</g>
			<g>
				<g>
					<path vector-effect="non-scaling-stroke" class="st7" d="M2090.2,379.5l-6.3-0.1"/>
					<path vector-effect="non-scaling-stroke" class="st7" d="M2275.7,730.8l-0.1,5.8"/>
					<path vector-effect="non-scaling-stroke" class="st7" d="M1687.3,577.9v-11.6"/>
					<path vector-effect="non-scaling-stroke" class="st7" d="M1728.8,468.9l6.4,0"/>
					<path vector-effect="non-scaling-stroke" class="st8" d="M2059,379.6l-104.8,0.1"/>
					<path vector-effect="non-scaling-stroke" class="st9" d="M1954.2,379.6c4.6-5.9,6.9-11.3,6.9-16"/>
					<path vector-effect="non-scaling-stroke" class="st9" d="M1961,363.6c5.1-1.9,7.7-5.9,7.9-12.1c0-1.3-1-2.3-2.2-2.4
						c-0.8,0-1.5,0.4-1.9,1l-5.6,8.7c-0.6,0.9-0.5,1.8,0.4,2.5C1960.3,362,1960.8,362.7,1961,363.6"/>
					<path vector-effect="non-scaling-stroke" class="st9" d="M1961,363.6c-6.1,1-10,6.4-11.8,16.1"/>
					<path vector-effect="non-scaling-stroke" class="st8" d="M1949.2,379.7l-108,0"/>
					<path vector-effect="non-scaling-stroke" class="st9" d="M1841.2,379.7l-8.1-14.6c-0.5-0.9-1.2-1.3-2.2-1.3h-1.4
						c-0.5,0-0.9-0.4-0.9-0.9c0-0.3,0.1-0.5,0.3-0.7c1.3-1.1,1.6-2.2,0.9-3.5c-1.6-2.8-3.1-5.4-4.4-7.6c-0.8-1.5-2.7-2.1-4.3-1.2
						c-1.5,0.8-2.1,2.7-1.2,4.3l0,0c1.6,3.1,3.5,6,5.8,8.5c0.7,0.7,1.2,1.5,1.6,2.4l7.7,14.6"/>
					<path vector-effect="non-scaling-stroke" class="st8" d="M1835.1,379.7l-72.8,0c-3.3,0-6,2.7-6,6c0,0,0,0,0,0v81.9
						c0,0.9-0.5,1.4-1.4,1.4l-19.7-0.1"/>
					<path vector-effect="non-scaling-stroke" class="st9" d="M1735.2,469c5.4-9.5,10.8-18.8,16.1-28c0.5-0.9,0.8-1.8,0.8-2.5
						c0-1.3-0.4-2.2-1.2-2.8c-1.1-0.9-2.6-0.7-3.5,0.4c-0.1,0.1-0.2,0.2-0.2,0.3l-18.3,32.6"/>
					<path vector-effect="non-scaling-stroke" class="st8" d="M1728.8,468.9c-22.3-0.7-36.1,9.8-41.4,31.6"/>
					<path vector-effect="non-scaling-stroke" class="st7" d="M1954.2,379.6l-5,0.1"/>
					<path vector-effect="non-scaling-stroke" class="st7" d="M1841.2,379.7l-6.2,0"/>
					<path vector-effect="non-scaling-stroke" class="st9" d="M1653.4,632.9c0.3-2.1,0.5-3.9,0.7-5.4c0.3-2.3-1-4.6-3.2-5
						c-1.2-0.2-1.9,0.3-2,1.5l-0.4,8.8"/>
					<path vector-effect="non-scaling-stroke" class="st9" d="M1694.2,279.7c0-15.2-12.3-27.5-27.5-27.5
						c-15.2,0-27.5,12.3-27.5,27.5s12.3,27.5,27.5,27.5l0,0C1681.9,307.2,1694.2,294.9,1694.2,279.7"/>
					<path vector-effect="non-scaling-stroke" class="st9" d="M2231,259.3c2.2-1.4,4.5-1.5,7.1-0.3c0.7,0.3,1.4,0,1.7-0.7
						c0.1-0.3,0.2-0.6,0.1-0.9c-0.4-1.6-1.6-2.7-3.5-3.3c-5.9-1.9-12.9,5.1-8.7,10.2c2,2.3,6.5,3,9.4,5.1c0.7,0.5,0.9,1.6,0.4,2.3
						c-0.1,0.1-0.2,0.3-0.4,0.4l-2,1.4c-0.6,0.5-1.3,0.5-2,0.1l-4.3-2.2c-0.9-0.4-1.9-0.1-2.4,0.8c-0.3,0.6-0.2,1.4,0.3,2
						c5.1,5.4,9.5,5.3,13.3,0c2.7-3.9,2-6.9-2.2-9.1l-6.8-3.6c-0.6-0.3-0.8-1.1-0.5-1.7C2230.7,259.6,2230.8,259.5,2231,259.3"/>
					<path vector-effect="non-scaling-stroke" class="st9" d="M1814.1,334.6l42.1-0.3c1.4,0,2.5-1.1,2.5-2.5c0-0.6-0.2-1.1-0.5-1.5
						c-0.9-1.2-2.3-1.8-4.3-1.7c-14.3,0.1-28.8,0.3-43.2,0.6c-1.2,0-2.1,0.6-2.7,1.6l-22.3,38.6c-0.8,1.4-0.3,3.1,1,3.9
						c0.8,0.4,1.7,0.5,2.5,0.2c1.6-0.7,2.9-2,4.1-4.1c6.1-11.2,12.4-22.3,18.8-33.4C1812.4,335,1813.2,334.6,1814.1,334.6"/>
					<path vector-effect="non-scaling-stroke" class="st9" d="M1977.5,336.1c6.7,10.9,11.6,20.3,20.4,35.5c0.6,1,1.3,1.7,2.1,2
						c1.5,0.5,2.6-0.1,3.5-1.5c0.6-1,0.6-2.2,0-3.2l-22.4-38.7c-0.5-0.8-1.4-1.3-2.3-1.3l-45.9,0.3c-1.1,0-2.1,0.9-2.2,2
						c-0.2,1.7,0.6,2.5,2.3,2.6c13.9,0.4,28,0.8,42.3,1.1C1976.2,334.8,1976.9,335.3,1977.5,336.1"/>
					<path vector-effect="non-scaling-stroke" class="st9" d="M2230.6,337.4l1.8-1.5c0.3-0.2,0.6-0.3,0.9-0.2l6.1,2
						c0.6,0.2,1.2-0.1,1.4-0.7c0.1-0.2,0.1-0.5,0-0.8c-4.3-11.1-17.6-2.6-13.3,5.4c0.4,0.7,0.9,1.2,1.6,1.5l7.3,3.6
						c0.8,0.4,1.1,1.4,0.7,2.2c-0.1,0.3-0.4,0.5-0.7,0.7c-2.7,1.5-5.2,1.1-7.3-1.3c-0.6-0.6-1.5-0.7-2.2-0.2
						c-0.4,0.3-0.6,0.8-0.5,1.3c1,9.1,11.5,9.2,15.4-0.1c0.4-0.9,0.3-1.9-0.2-2.8c-2.3-3.9-5.8-6.3-10.6-7.4c-0.6-0.1-1-0.7-0.9-1.3
						C2230.3,337.7,2230.4,337.5,2230.6,337.4"/>
					<path vector-effect="non-scaling-stroke" class="st10" d="M2175.1,438.9l16.7,0c1.3,0,2.3-1.1,2.3-2.3l0.3-42.7
						c0-1.3-0.6-1.9-1.9-2l-16.7-0.1"/>
					<path vector-effect="non-scaling-stroke" class="st11" d="M2175.7,391.7l-406.2,0c-1,0-1.5,0.5-1.5,1.5v44.1
						c0,1,0.5,1.5,1.5,1.5l405.5,0"/>
					<path vector-effect="non-scaling-stroke" class="st12" d="M2175.7,391.7l-0.7,47.2"/>
					<path vector-effect="non-scaling-stroke" class="st8" d="M1777.8,760.9H2176"/>
					<path vector-effect="non-scaling-stroke" class="st7" d="M2176,760.9l3.5,0c1.3,0,2-0.7,2.1-2l2.7-36.3c0.1-1,0.9-1.7,1.9-1.7
						c2.9,0.2,5,1.6,6.3,4.3c0.2,0.5,0.8,0.7,1.3,0.5c0.3-0.2,0.6-0.5,0.5-0.9l0.1-272c0-1.2-0.6-1.9-1.8-1.9l-16.5-0.2"/>
					<path vector-effect="non-scaling-stroke" class="st8" d="M2176,450.7h-398.2"/>
					<path vector-effect="non-scaling-stroke" class="st13" d="M1777.8,450.7l-7.9,0.1c-1.2,0-1.8,0.7-1.8,1.9v306.8
						c0,0.9,0.5,1.4,1.4,1.4l8.3,0"/>
					<path vector-effect="non-scaling-stroke" class="st14" d="M1777.8,450.7l0,310.2"/>
					<path vector-effect="non-scaling-stroke" class="st9" d="M2176,450.7v310.2"/>
					<path vector-effect="non-scaling-stroke" class="st10" d="M2242.3,817.8h19.8c1,0,1.6-0.5,1.6-1.5l-0.4-319.8"/>
					<path vector-effect="non-scaling-stroke" class="st11" d="M2263.4,496.5c-7.1-9.9-14.1-15-21-15.2c-11.6-0.4-23-0.5-34.2-0.2
						c-1.4,0-2,0.7-2,2.1v253.4c0,0.9,0.3,1.7,0.9,2.4l34.2,34.9"/>
					<path vector-effect="non-scaling-stroke" class="st10" d="M2241.4,773.9l4.3,5.1c0.6,0.7,0.7,1.8,0.3,2.6c-0.6,1.2-1.9,2-4,2.3
						"/>
					<path vector-effect="non-scaling-stroke" class="st11" d="M2242,784l-18.7,1.1c-1.2,0.1-1.5,0.6-1.1,1.7l6.2,16.4
						c0.8,2.1-0.3,4.4-2.3,5.2c0,0,0,0,0,0l-14.4,5.1c-1.8,0.7-3.8-0.3-4.5-2.1l-6.1-16.9c-0.3-0.8-1.1-1.2-1.9-0.9
						c-0.1,0.1-0.3,0.1-0.4,0.2l-15.9,11.9c-1.3,1-3.2,0.8-4.3-0.6c-0.5-0.6-0.7-1.4-0.6-2.1l2.4-28.7c0.1-0.8-0.5-1.4-1.3-1.5
						c0,0-0.1,0-0.1,0h-417c-3.1,0-5.6-2.5-5.6-5.5V482.4c0-1-0.5-1.5-1.5-1.5c-27.2-0.2-55.4-6.5-55.4,31.5
						c0,101.1,0,202.3,0,303.6c0,1.2,0.6,1.8,1.8,1.8h541.2"/>
					<path vector-effect="non-scaling-stroke" class="st12" d="M2242,784l0.3,33.8"/>
					<path vector-effect="non-scaling-stroke" class="st12" d="M2263.4,496.5c-8.5,7.1-15.5,14.7-21,22.8c-0.5,0.8-0.8,1.7-0.8,2.6
						l-0.1,251.9"/>
					<path vector-effect="non-scaling-stroke" class="st8" d="M2226.5,778.4c2.2,0.4,4.6,0,7.2-1c0.9-0.4,1-0.9,0.3-1.5l-25.1-25.4"
						/>
					<path vector-effect="non-scaling-stroke" class="st13" d="M2209,750.4l-18-18.1c-0.9-0.9-1.4-0.7-1.5,0.6l-4.8,61.3
						c-0.1,1.6,0.4,1.9,1.7,1l13.8-10.1c1.3-0.9,3-0.6,3.9,0.6c0.2,0.2,0.3,0.4,0.4,0.7l6.9,18.8c0.4,1.1,1.2,1.5,2.3,1.1l6.5-2.3
						c1.1-0.4,1.4-1.1,1-2.2l-7-19.4c-0.4-1.2,0-2,1.1-2.5c2.8-1.1,6.6-1.6,11.3-1.4"/>
					<path vector-effect="non-scaling-stroke" class="st14" d="M2209,750.4c3.3,9.8,9.2,19.1,17.6,28"/>
					<path vector-effect="non-scaling-stroke" class="st7" d="M2231.2,896.8c13.6,0.8,23-3,28.3-11.5c7.1-11.6,4.4-38.4,4.3-54
						c0-1-0.5-1.5-1.5-1.5l-21,0"/>
					<path vector-effect="non-scaling-stroke" class="st8" d="M2241.2,829.7H1701c-1,0-1.5,0.5-1.5,1.6c-0.1,11.2-0.1,22.4-0.1,33.6
						c0.1,26.3,11.2,31.9,36.6,31.9c165.2,0.1,330.3,0.1,495.2,0"/>
					<path vector-effect="non-scaling-stroke" class="st9" d="M2241.2,829.7c1,23.1,1,39.4-0.1,48.7c-0.6,4.7-3.9,10.9-9.9,18.4"/>
					<path vector-effect="non-scaling-stroke" class="st15" d="M1936.1,908.7c-0.6,0-1.1,0.4-1.2,1l-9.3,46.4
						c-0.1,0.7,0.3,1.3,1,1.4c0.1,0,0.2,0,0.2,0l109.4-0.1c0.7,0,1.2-0.5,1.2-1.2c0-0.1,0-0.2,0-0.2l-9.3-46.2c-0.1-0.6-0.6-1-1.2-1
						L1936.1,908.7"/>
					<path vector-effect="non-scaling-stroke" class="st9" d="M2273.8,463c0.2,0.5,0.7,0.8,1.2,0.6c0.1,0,0.1,0,0.1-0.1l29-16.4
						c0.5-0.3,0.6-0.9,0.4-1.3c-0.1-0.1-0.1-0.2-0.2-0.3l-50.6-44.3c-0.4-0.3-1-0.3-1.4,0.2c-0.2,0.2-0.3,0.6-0.2,0.9L2273.8,463"/>
					<path vector-effect="non-scaling-stroke" class="st9" d="M2275.6,404.6c-0.3-0.1-0.6,0-0.7,0.3c-0.1,0.2,0,0.5,0.2,0.6
						l46.2,30.7c0.7,0.5,1.7,0.5,2.5,0.1l9.9-5.4c0.7-0.4,1-1.3,0.6-2c-0.2-0.3-0.4-0.5-0.8-0.7L2275.6,404.6"/>
					<path vector-effect="non-scaling-stroke" class="st9" d="M2308.6,453.5c-0.1-0.5-0.6-0.9-1.1-0.9c-0.1,0-0.2,0-0.3,0.1l-8,4
						c-0.5,0.3-0.7,0.9-0.4,1.4c0,0.1,0.1,0.2,0.2,0.2l9.6,9.3c0.4,0.4,1,0.4,1.4,0c0.2-0.2,0.3-0.5,0.3-0.8L2308.6,453.5"/>
					<path vector-effect="non-scaling-stroke" class="st12" d="M1818.6,415.2c0-5.6-4.5-10.1-10.1-10.1c-5.6,0-10.1,4.5-10.1,10.1v0
						c0,5.6,4.5,10.1,10.1,10.1S1818.6,420.7,1818.6,415.2"/>
					<path vector-effect="non-scaling-stroke" class="st12" d="M1843.2,415.1c0-5.5-4.5-10-10-10l0,0c-5.5,0-10,4.5-10,10l0,0
						c0,5.5,4.5,10,10,10l0,0C1838.7,425.2,1843.2,420.7,1843.2,415.1L1843.2,415.1"/>
					<path vector-effect="non-scaling-stroke" class="st12" d="M1867.8,415.1c0-5.6-4.5-10.1-10.1-10.1c-5.6,0-10.1,4.5-10.1,10.1
						s4.5,10.1,10.1,10.1C1863.3,425.2,1867.8,420.7,1867.8,415.1"/>
					<path vector-effect="non-scaling-stroke" class="st12" d="M2164.3,414.2c0-5.1-4.2-9.3-9.3-9.3c0,0,0,0,0,0h-263
						c-5.1,0-9.3,4.2-9.3,9.3l0,0v1.3c0,5.1,4.2,9.3,9.3,9.3l0,0h263c5.1,0,9.3-4.2,9.3-9.3l0,0V414.2"/>
					<path vector-effect="non-scaling-stroke" class="st14" d="M1870.6,471.7l-41,0.4c-1.1,0-1.7,0.5-2,1.6c-1,3.8-0.9,7.9,0.4,12.3
						"/>
					<path vector-effect="non-scaling-stroke" class="st8" d="M1828,486l-12.3,7.1c-1.4,0.8-1.8,2.5-1.1,3.9c0.2,0.4,0.6,0.8,1,1
						l12.8,7.6"/>
					<path vector-effect="non-scaling-stroke" class="st14" d="M1828.5,505.6c-1.7,3.9-2.1,7.7-1.2,11.4c0.2,1.1,0.9,1.6,2,1.7
						l28.4,1.1"/>
					<path vector-effect="non-scaling-stroke" class="st8" d="M1857.6,519.8c-0.3,2.2,0.5,3.5,2.2,3.9c2.6,0.5,4.2-1.3,4.8-5.3"/>
					<path vector-effect="non-scaling-stroke" class="st14" d="M1864.5,518.3l41.3,0.1c1.1,0,1.7-0.5,1.7-1.6l0.8-12.3"/>
					<path vector-effect="non-scaling-stroke" class="st8" d="M1908.3,504.5l11-6.6c1.3-0.8,1.8-2.6,0.9-3.9c-0.2-0.4-0.6-0.7-1-1
						l-13.4-7.8"/>
					<path vector-effect="non-scaling-stroke" class="st14" d="M1905.9,485.2c1.9-3,2.5-6.8,1.6-11.3c-0.2-1-0.8-1.5-1.8-1.5
						l-28.9-0.1"/>
					<path vector-effect="non-scaling-stroke" class="st8" d="M1876.8,472.4c0.8-2.2,0.5-3.7-1.1-4.5c-2.7-1.3-4.4,0-5.2,3.8"/>
					<path vector-effect="non-scaling-stroke" class="st13" d="M1876.8,472.4l-12.3,45.9"/>
					<path vector-effect="non-scaling-stroke" class="st13" d="M1857.6,519.8l13-48.1"/>
					<path vector-effect="non-scaling-stroke" class="st13" d="M1905.9,485.2l-16.3-9.3c-1.5-0.9-3.4-0.3-4.3,1.2
						c-0.3,0.5-0.4,1.1-0.4,1.7c0,0.3,0.2,0.7,0.6,1.3c0.3,0.4,0.6,0.7,1,0.9c7.8,4.6,15.6,9.2,23.4,13.7c0.5,0.3,0.7,0.9,0.4,1.4
						c-0.1,0.2-0.2,0.3-0.4,0.4c-7.7,4.3-15.3,8.7-22.9,13.4c-1.1,0.7-1.7,1.3-2,2.1c-0.4,1.2,0,2.3,1.2,3.3
						c0.9,0.7,2.1,0.8,3.1,0.2l19.1-10.9"/>
					<path vector-effect="non-scaling-stroke" class="st13" d="M1828.5,505.6c5.9,3.5,11.8,6.6,17.7,9.3c2.3,1,3.5,0.4,3.6-1.8
						c0.1-1.4-0.6-2.7-1.9-3.4l-22.4-13c-1.2-0.7-1.2-1.4,0-2.1c7.5-4.7,15.2-9.2,22.9-13.6c1-0.6,1.6-1.2,1.7-1.9
						c0.2-1-0.3-2-1.6-3c-0.8-0.6-1.7-0.7-2.6-0.2l-17.9,10"/>
					<path vector-effect="non-scaling-stroke" class="st16" d="M1943.1,539.3c0-1.2-1-2.1-2.1-2.1l0,0h-124.2c-1.2,0-2.1,1-2.1,2.1
						l0,0v1.5c0,1.2,1,2.1,2.1,2.1l0,0H1941c1.2,0,2.1-1,2.1-2.1l0,0V539.3"/>
					<path vector-effect="non-scaling-stroke" class="st14" d="M1820.5,561.1c0-1.4-1.2-2.6-2.6-2.6c0,0,0,0,0,0h-0.8
						c-1.4,0-2.6,1.2-2.6,2.6c0,0,0,0,0,0v164.2c0,1.4,1.2,2.6,2.6,2.6h0.8c1.4,0,2.6-1.2,2.6-2.6V561.1"/>
					<path vector-effect="non-scaling-stroke" class="st17" d="M1881.8,560.9c0-1.3-1.1-2.4-2.4-2.4l0,0l-37.9,0.1
						c-1.3,0-2.4,1.1-2.4,2.4c0,0,0,0,0,0l0,0.8c0,1.3,1.1,2.4,2.4,2.4h0l37.9-0.1c1.3,0,2.4-1.1,2.4-2.4v0L1881.8,560.9"/>
					<path vector-effect="non-scaling-stroke" class="st16" d="M1929.1,561c0-1.1-0.9-2-2-2l0,0l-28.4,0c-1.1,0-2,0.9-2,2l0,0.7
						c0,1.1,0.9,2,2,2l0,0l28.4,0c1.1,0,2-0.9,2-2l0,0L1929.1,561"/>
					<path vector-effect="non-scaling-stroke" class="st17" d="M2128.3,560.3c0-0.8-0.7-1.4-1.5-1.4l-17.7,0.4
						c-0.8,0-1.4,0.7-1.4,1.5c0,0,0,0,0,0l0,1.5c0,0.8,0.7,1.4,1.5,1.4l17.7-0.4c0.8,0,1.4-0.7,1.4-1.5c0,0,0,0,0,0L2128.3,560.3"/>
					<path vector-effect="non-scaling-stroke" class="st16" d="M2026.9,561.2c0-1.2-1-2.2-2.2-2.2l-72.8,0.1c-1.2,0-2.2,1-2.2,2.2
						c0,0,0,0,0,0l0,0.1c0,1.2,1,2.2,2.2,2.2l72.8-0.1c1.2,0,2.2-1,2.2-2.2L2026.9,561.2"/>
					<path vector-effect="non-scaling-stroke" class="st17" d="M2098.3,561.1c0-1-0.8-1.8-1.8-1.8l-45.8,0.1c-1,0-1.8,0.8-1.8,1.8
						c0,0,0,0,0,0l0,0.2c0,1,0.8,1.8,1.8,1.8l45.8-0.1c1,0,1.8-0.8,1.8-1.8c0,0,0,0,0,0L2098.3,561.1"/>
					<path vector-effect="non-scaling-stroke" class="st16" d="M1915.8,584.2c0-1.3-1-2.3-2.3-2.3h-72.2c-1.3,0-2.3,1-2.3,2.3v0.2
						c0,1.3,1,2.3,2.3,2.3h72.2c1.3,0,2.3-1,2.3-2.3V584.2"/>
					<path vector-effect="non-scaling-stroke" class="st16" d="M1958,583.7c0-1-0.9-1.9-1.9-1.9l-19.2,0.1c-1,0-1.9,0.9-1.9,1.9
						c0,0,0,0,0,0l0,0.9c0,1,0.9,1.9,1.9,1.9l19.2-0.1c1,0,1.9-0.9,1.9-1.9c0,0,0,0,0,0L1958,583.7"/>
					<path vector-effect="non-scaling-stroke" class="st16" d="M2071.2,584c0-1.1-0.9-2.1-2.1-2.1l-88.4,0.3c-1.1,0-2.1,0.9-2.1,2.1
						l0,0l0,0.1c0,1.1,0.9,2.1,2.1,2.1l0,0l88.4-0.3c1.1,0,2.1-0.9,2.1-2.1l0,0L2071.2,584"/>
					<path vector-effect="non-scaling-stroke" class="st16" d="M2002,607.9c0-1.3-1-2.3-2.3-2.3c0,0,0,0,0,0h-100.9
						c-1.3,0-2.3,1-2.3,2.3l0,0v0.1c0,1.3,1,2.3,2.3,2.3l0,0h100.9c1.3,0,2.3-1,2.3-2.3c0,0,0,0,0,0V607.9"/>
					<path vector-effect="non-scaling-stroke" class="st16" d="M1877.2,607.8c0-1.2-0.9-2.1-2.1-2.1l-33.9,0.1
						c-1.2,0-2.1,0.9-2.1,2.1c0,0,0,0,0,0l0,0.3c0,1.2,0.9,2.1,2.1,2.1l33.9-0.1c1.2,0,2.1-0.9,2.1-2.1c0,0,0,0,0,0L1877.2,607.8"/>
					<path vector-effect="non-scaling-stroke" class="st16" d="M2032.6,607.7c0-1-0.8-1.8-1.7-1.8l0,0l-15-0.2c-1,0-1.8,0.8-1.8,1.7
						v0l0,0.8c0,1,0.8,1.8,1.7,1.8h0l15,0.2c1,0,1.8-0.8,1.8-1.7l0,0L2032.6,607.7"/>
					<path vector-effect="non-scaling-stroke" class="st17" d="M2090.9,607.7c0-1-0.8-1.8-1.8-1.8l-35,0.1c-1,0-1.8,0.8-1.8,1.8
						l0,0.2c0,1,0.8,1.8,1.8,1.8l35-0.1c1,0,1.8-0.8,1.8-1.8L2090.9,607.7"/>
					<path vector-effect="non-scaling-stroke" class="st16" d="M1920.2,631.4c0-1.2-1-2.2-2.2-2.2h-76.8c-1.2,0-2.2,1-2.2,2.2v0.3
						c0,1.2,1,2.2,2.2,2.2h76.8c1.2,0,2.2-1,2.2-2.2V631.4"/>
					<path vector-effect="non-scaling-stroke" class="st16" d="M2047.3,631.4c0-1.3-1-2.3-2.3-2.3l0,0l-101.8,0.2
						c-1.3,0-2.3,1-2.3,2.3l0,0.1c0,1.3,1,2.3,2.3,2.3l101.8-0.2c1.3,0,2.3-1,2.3-2.3L2047.3,631.4"/>
					<path vector-effect="non-scaling-stroke" class="st17" d="M2091.6,631.1c0-1-0.8-1.7-1.7-1.7l-22.3,0c-1,0-1.7,0.8-1.7,1.7
						c0,0,0,0,0,0l0,0.8c0,1,0.8,1.7,1.7,1.7l22.3,0c1,0,1.7-0.8,1.7-1.7c0,0,0,0,0,0L2091.6,631.1"/>
					<path vector-effect="non-scaling-stroke" class="st14" d="M1844.9,654.1c0-1.4-1.1-2.5-2.5-2.5l0,0h-0.8
						c-1.4,0-2.5,1.1-2.5,2.5l0,0v71.2c0,1.4,1.1,2.5,2.5,2.5l0,0h0.8c1.4,0,2.5-1.1,2.5-2.5l0,0V654.1"/>
					<path vector-effect="non-scaling-stroke" class="st9" d="M1946.7,654.2c0-1.3-1.1-2.4-2.4-2.4l0,0h-78.5
						c-1.3,0-2.4,1.1-2.4,2.4l0,0v0.3c0,1.3,1.1,2.4,2.4,2.4l0,0h78.5c1.3,0,2.4-1.1,2.4-2.4l0,0V654.2"/>
					<path vector-effect="non-scaling-stroke" class="st9" d="M2032.4,654.1c0-1.1-0.9-2-2-2l-65-0.1c-1.1,0-2,0.9-2,2l0,0.9
						c0,1.1,0.9,2,2,2l0,0l65,0.1c1.1,0,2-0.9,2-2L2032.4,654.1"/>
					<path vector-effect="non-scaling-stroke" class="st9" d="M2109.3,654.4c0-1.4-1.2-2.6-2.6-2.6h-59.9c-1.4,0-2.6,1.2-2.6,2.6
						v0.2c0,1.4,1.2,2.6,2.6,2.6c0,0,0,0,0,0h59.9c1.4,0,2.6-1.2,2.6-2.6V654.4"/>
					<path vector-effect="non-scaling-stroke" class="st9" d="M1943.3,677.8c0-1.4-1.1-2.5-2.5-2.5c0,0,0,0,0,0h-74.9
						c-1.4,0-2.5,1.1-2.5,2.5l0,0v0.9c0,1.4,1.1,2.5,2.5,2.5h74.9c1.4,0,2.5-1.1,2.5-2.5V677.8"/>
					<path vector-effect="non-scaling-stroke" class="st9" d="M2004.2,678.2c0-1.6-1.3-2.9-2.9-2.9h-37.4c-1.6,0-2.9,1.3-2.9,2.9
						v0.1c0,1.6,1.3,2.9,2.9,2.9h37.4c1.6,0,2.9-1.3,2.9-2.9V678.2"/>
					<path vector-effect="non-scaling-stroke" class="st9" d="M2064.9,678c0-1.5-1.2-2.7-2.7-2.7l0,0l-45.6-0.1
						c-1.5,0-2.7,1.2-2.7,2.7c0,0,0,0,0,0l0,0.6c0,1.5,1.2,2.7,2.7,2.7l0,0l45.6,0.1c1.5,0,2.7-1.2,2.7-2.7c0,0,0,0,0,0L2064.9,678"
						/>
					<path vector-effect="non-scaling-stroke" class="st9" d="M2148.5,678.2c0-1.6-1.3-2.9-2.9-2.9c0,0,0,0,0,0l-54-0.1
						c-1.6,0-2.9,1.3-2.9,2.9l0,0.1c0,1.6,1.3,2.9,2.9,2.9c0,0,0,0,0,0l54,0.1c1.6,0,2.9-1.3,2.9-2.9c0,0,0,0,0,0L2148.5,678.2"/>
					<path vector-effect="non-scaling-stroke" class="st9" d="M1899.6,701.4c0-1.4-1.1-2.5-2.5-2.6c0,0,0,0,0,0l-31.1-0.1
						c-1.4,0-2.5,1.1-2.6,2.5l0,0l0,0.9c0,1.4,1.1,2.5,2.5,2.6c0,0,0,0,0,0l31.1,0.1c1.4,0,2.5-1.1,2.6-2.5l0,0L1899.6,701.4"/>
					<path vector-effect="non-scaling-stroke" class="st9" d="M2016.6,701.8c0-1.6-1.3-2.9-2.9-2.9h-100.9c-1.6,0-2.9,1.3-2.9,2.9
						v0.1c0,1.6,1.3,2.9,2.9,2.9h100.9c1.6,0,2.9-1.3,2.9-2.9V701.8"/>
					<path vector-effect="non-scaling-stroke" class="st9" d="M2121.9,701.7c0-1.6-1.3-2.9-2.9-2.9l0,0h-82.2
						c-1.6,0-2.9,1.3-2.9,2.9l0,0v0.2c0,1.6,1.3,2.9,2.9,2.9l0,0h82.2c1.6,0,2.9-1.3,2.9-2.9l0,0V701.7"/>
					<path vector-effect="non-scaling-stroke" class="st9" d="M1929.4,724.7c0-1.6-1.3-2.8-2.8-2.8l0,0h-60.3
						c-1.6,0-2.8,1.3-2.8,2.8l0,0v0.1c0,1.6,1.3,2.8,2.8,2.8l0,0h60.3c1.6,0,2.8-1.3,2.8-2.8l0,0V724.7"/>
					<path vector-effect="non-scaling-stroke" class="st9" d="M2080.1,724.7c0-1.6-1.3-2.8-2.8-2.8h-122.1c-1.6,0-2.8,1.3-2.8,2.8
						l0,0v0.1c0,1.6,1.3,2.8,2.8,2.8l0,0h122.1c1.6,0,2.8-1.3,2.8-2.8V724.7"/>
					<path vector-effect="non-scaling-stroke" class="st9" d="M2148.7,724.7c0-1.5-1.2-2.8-2.8-2.8l0,0l-42.6-0.1
						c-1.5,0-2.8,1.2-2.8,2.8l0,0l0,0.2c0,1.5,1.2,2.8,2.8,2.8l0,0l42.6,0.1c1.5,0,2.8-1.2,2.8-2.8l0,0L2148.7,724.7"/>
					<path vector-effect="non-scaling-stroke" class="st18" d="M2330.3,550.9c0-6.3-5.1-11.4-11.4-11.4l0,0
						c-6.3,0-11.4,5.1-11.4,11.4c0,6.3,5.1,11.4,11.4,11.4C2325.3,562.3,2330.3,557.2,2330.3,550.9
						C2330.3,550.9,2330.3,550.9,2330.3,550.9"/>
					<path vector-effect="non-scaling-stroke" class="st18" d="M2330.5,612c0-6.3-5.1-11.4-11.4-11.4l0,0c-6.3,0-11.4,5.1-11.4,11.4
						l0,0c0,6.3,5.1,11.4,11.4,11.4S2330.5,618.3,2330.5,612L2330.5,612"/>
					<path vector-effect="non-scaling-stroke" class="st18" d="M2330.3,672.8c0-6.3-5.1-11.3-11.3-11.3c0,0,0,0,0,0
						c-6.3,0-11.3,5.1-11.3,11.3s5.1,11.3,11.3,11.3C2325.3,684.1,2330.3,679,2330.3,672.8C2330.3,672.8,2330.3,672.8,2330.3,672.8"
						/>
					<path vector-effect="non-scaling-stroke" class="st18" d="M2330.4,733.7c0-6.3-5.1-11.4-11.4-11.4l0,0
						c-6.3,0-11.4,5.1-11.4,11.4l0,0c0,6.3,5.1,11.4,11.4,11.4l0,0C2325.3,745.1,2330.4,740,2330.4,733.7L2330.4,733.7"/>
					<path vector-effect="non-scaling-stroke" class="st9" d="M1647.5,601.4c-0.1,0.1-0.2,0.2-0.3,0.3l-9.6,16.4
						c-0.2,0.4-0.1,1,0.4,1.2c0.3,0.1,0.6,0.1,0.9,0l16.1-9.7c0.1-0.1,0.2-0.2,0.3-0.3l10-16.5c0.3-0.4,0.1-1-0.3-1.3
						c-0.3-0.2-0.6-0.2-0.9,0L1647.5,601.4"/>
					<path vector-effect="non-scaling-stroke" class="st9" d="M1632.5,607.6c1.4-0.1,1.9-0.8,1.3-2.2c-1-2.2-2.7-3-5.1-2.4
						c-1.3,0.3-2.2,1.6-1.9,2.9c0.2,1.2,1.4,2,2.6,1.9L1632.5,607.6"/>
					<path vector-effect="non-scaling-stroke" class="st9" d="M1649.9,663c1.4,0.8,3.3,0,4.2-1.6c0,0,0,0,0,0
						c0.9-1.6,0.4-3.6-1.1-4.3c-1.4-0.8-3.3,0-4.2,1.6c0,0,0,0,0,0C1648,660.3,1648.5,662.2,1649.9,663"/>
					<path vector-effect="non-scaling-stroke" class="st9" d="M1637.2,693.5c-0.3,0.5-0.2,1.1,0.3,1.5c0.4,0.2,0.8,0.2,1.2,0
						l16.5-10.1c0.1-0.1,0.3-0.2,0.4-0.4l9.5-15.8c0.3-0.5,0.2-1.1-0.3-1.5c-0.4-0.2-0.8-0.2-1.2,0l-16,9.7
						c-0.1,0.1-0.3,0.2-0.4,0.3L1637.2,693.5"/>
					<path vector-effect="non-scaling-stroke" class="st9" d="M1629.4,678.3c-0.4-0.1-0.8,0-1.1,0.2c-1.3,1-1.5,2.1-0.4,3.3
						c1.8,2.1,3.8,2.3,5.9,0.6c0.8-0.7,0.9-1.8,0.2-2.6c-0.2-0.3-0.5-0.5-0.9-0.6L1629.4,678.3"/>
					<path vector-effect="non-scaling-stroke" class="st9" d="M1675,679.2c-2.1-1.3-4.2-1.2-6.1,0.3c-1.1,0.8-1.3,2.3-0.5,3.3
						c0.3,0.4,0.8,0.7,1.3,0.9c3.9,1.1,6.1,0.2,6.4-2.6C1676.1,680.3,1675.7,679.5,1675,679.2"/>
					<path vector-effect="non-scaling-stroke" class="st18" d="M1646.8,756.3c0-6.3-5.1-11.4-11.4-11.4s-11.4,5.1-11.4,11.4
						c0,6.3,5.1,11.4,11.4,11.4c0,0,0,0,0,0C1641.7,767.8,1646.8,762.6,1646.8,756.3C1646.8,756.3,1646.8,756.3,1646.8,756.3"/>
					<path vector-effect="non-scaling-stroke" class="st18" d="M1646.8,817.1c0-6.3-5.1-11.4-11.4-11.4c0,0,0,0,0,0
						c-6.3,0-11.4,5.1-11.4,11.4c0,0,0,0,0,0c0,6.3,5.1,11.4,11.4,11.4S1646.8,823.4,1646.8,817.1"/>
					<path vector-effect="non-scaling-stroke" class="st18" d="M1646.8,878.2c0-6.3-5.1-11.4-11.4-11.4c0,0,0,0,0,0
						c-6.3,0-11.4,5.1-11.4,11.4l0,0c0,6.3,5.1,11.4,11.4,11.4c0,0,0,0,0,0C1641.7,889.6,1646.8,884.5,1646.8,878.2L1646.8,878.2"/>
					<path vector-effect="non-scaling-stroke" class="st18" d="M1646.8,938.9c0-6.3-5.1-11.4-11.4-11.4s-11.4,5.1-11.4,11.4
						c0,6.3,5.1,11.4,11.4,11.4c0,0,0,0,0,0C1641.6,950.4,1646.8,945.3,1646.8,938.9C1646.8,938.9,1646.8,938.9,1646.8,938.9"/>
					<path vector-effect="non-scaling-stroke" class="st18" d="M1797.8,939c0-6.4-5.2-11.6-11.6-11.6s-11.6,5.2-11.6,11.6l0,0
						c0,6.4,5.2,11.6,11.6,11.6C1792.6,950.5,1797.8,945.3,1797.8,939"/>
					<path vector-effect="non-scaling-stroke" class="st9" d="M2341.5,791.4c0-14.6-11.8-26.4-26.4-26.4s-26.4,11.8-26.4,26.4
						s11.8,26.4,26.4,26.4S2341.5,805.9,2341.5,791.4"/>
					<path vector-effect="non-scaling-stroke" class="st9" d="M2315.1,856.5c3.1,0,5.6-6.1,5.6-13.6v0c0-7.5-2.6-13.6-5.7-13.6l0,0
						c-3.1,0-5.6,6.1-5.6,13.6l0,0C2309.5,850.5,2312,856.5,2315.1,856.5L2315.1,856.5"/>
					<path vector-effect="non-scaling-stroke" class="st9" d="M2338.3,791.3c0-12.8-10.4-23.2-23.2-23.2l0,0
						c-12.8,0-23.2,10.4-23.2,23.2v0c0,12.8,10.4,23.2,23.2,23.2l0,0C2327.9,814.5,2338.3,804.1,2338.3,791.3L2338.3,791.3"/>
					<path vector-effect="non-scaling-stroke" class="st18" d="M2300,792.6c2.9-7,2.3-9.4,8.7-14.5c1.3-0.9,1.6-2.7,0.6-4
						c-0.9-1.2-2.6-1.5-3.9-0.7c-6.8,3.9-10.4,9.9-10.7,18c0,1.5,1.2,2.8,2.7,2.8C2298.5,794.3,2299.5,793.6,2300,792.6"/>
					<path vector-effect="non-scaling-stroke" class="st14" d="M2003.5,863.3c0-12.1-9.8-21.9-21.9-21.9s-21.9,9.8-21.9,21.9l0,0
						c0,12.1,9.8,21.9,21.9,21.9c0,0,0,0,0,0C1993.6,885.2,2003.5,875.4,2003.5,863.3"/>
					<path vector-effect="non-scaling-stroke" class="st18" d="M2299.8,900.1c2.1-7.1,2.7-10.9,9.1-15.4c1.1-0.8,1.3-2.3,0.5-3.4
						c-0.3-0.5-0.8-0.8-1.4-0.9c-7.9-1.9-14.3,12.6-12.7,19.6c0.3,1.2,1.6,2,2.8,1.7C2298.9,901.5,2299.5,900.9,2299.8,900.1"/>
				</g>
				<path class="st19" d="M1711,321.1c-9.1,18.3-18.4,36.4-27.8,54.5c-8.2,15.5-24.5,16.2-32.8,0.4c-10.6-20.3-21-40.7-31.1-61.2
					c-5.5-11.1-8.5-20-9.1-26.7c-4.8-53.5,57.8-81.4,96.2-45.8c12.9,12.1,18.4,27.4,16.3,45.9C1721.7,296.5,1717.8,307.5,1711,321.1
					z M1694.2,279.7c0-15.2-12.3-27.5-27.5-27.5c-15.2,0-27.5,12.3-27.5,27.5s12.3,27.5,27.5,27.5l0,0
					C1681.9,307.2,1694.2,294.9,1694.2,279.7z"/>
				<path class="st20" d="M1770.9,254.2l6.9,12.4c0.6,1.1,0.4,1.9-0.7,2.6l-2,1.2c-1,0.6-1.8,0.4-2.4-0.6L1752,234
					c-0.6-1.1-0.6-2.2,0.2-3.2l1-1.3c0.7-0.9,1.9-1.1,2.8-0.4c0.2,0.2,0.4,0.4,0.5,0.6l9.5,16.1c0.3,0.6,0.9,0.9,1.6,0.9h256
					c1.2,0,2.1-0.5,2.7-1.5l9-15.2c0.6-1,1.4-1.3,2.5-0.9c1.2,0.4,2,1.1,2.2,2.3c0.2,0.8,0,1.7-0.6,2.7
					c-6.6,12.3-13.5,24.2-20.5,35.6c-0.8,1.3-2.5,1.8-3.8,1c-1.3-0.8-1.8-2.5-1-3.8l6.9-12.6c0.3-0.6,0.1-1.3-0.5-1.6
					c-0.2-0.1-0.3-0.1-0.5-0.1h-248.1C1770.7,252.7,1770.3,253.2,1770.9,254.2z"/>
				<path class="st19" d="M2266,265.8c0,17.9-14.5,32.4-32.4,32.4c-17.9,0-32.4-14.5-32.4-32.4s14.5-32.4,32.4-32.4
					C2251.5,233.4,2266,247.9,2266,265.8z M2231,259.3c2.2-1.4,4.5-1.5,7.1-0.3c0.7,0.3,1.4,0,1.7-0.7c0.1-0.3,0.2-0.6,0.1-0.9
					c-0.4-1.6-1.6-2.7-3.5-3.3c-5.9-1.9-12.9,5.1-8.7,10.2c2,2.3,6.5,3,9.4,5.1c0.7,0.5,0.9,1.6,0.4,2.3c-0.1,0.1-0.2,0.3-0.4,0.4
					l-2,1.4c-0.6,0.5-1.3,0.5-2,0.1l-4.3-2.2c-0.9-0.4-1.9-0.1-2.4,0.8c-0.3,0.6-0.2,1.4,0.3,2c5.1,5.4,9.5,5.3,13.3,0
					c2.7-3.9,2-6.9-2.2-9.1l-6.8-3.6c-0.6-0.3-0.8-1.1-0.5-1.7C2230.7,259.6,2230.8,259.5,2231,259.3z"/>
				<path class="st20" d="M2274.6,243.8h56.3c1.6,0,2.9,1.3,2.9,2.9v0.1c0,1.6-1.3,2.9-2.9,2.9h-56.3c-1.6,0-2.9-1.3-2.9-2.9v-0.1
					C2271.7,245.1,2273,243.8,2274.6,243.8z"/>
				<circle class="st20" cx="1666.7" cy="279.7" r="27.5"/>
				<path class="st20" d="M2231.1,261.5l6.8,3.6c4.2,2.2,4.9,5.3,2.2,9.1c-3.7,5.4-8.2,5.4-13.3,0c-0.7-0.7-0.6-1.8,0.1-2.5
					c0.5-0.5,1.3-0.6,2-0.3l4.3,2.2c0.7,0.4,1.4,0.3,2-0.1l2-1.4c0.7-0.5,0.9-1.6,0.4-2.3c-0.1-0.1-0.2-0.3-0.4-0.4
					c-2.9-2.1-7.4-2.8-9.4-5.1c-4.2-5,2.7-12.1,8.7-10.2c1.9,0.6,3,1.7,3.5,3.3c0.2,0.7-0.3,1.4-0.9,1.6c-0.3,0.1-0.6,0-0.9-0.1
					c-2.5-1.2-4.9-1.1-7.1,0.3c-0.6,0.4-0.8,1.1-0.4,1.7C2230.7,261.2,2230.9,261.4,2231.1,261.5z"/>
				<path class="st20" d="M2274.9,263h55.9c1.6,0,2.8,1.3,2.8,2.8v0.2c0,1.6-1.3,2.8-2.8,2.8h-55.9c-1.6,0-2.8-1.3-2.8-2.8v-0.2
					C2272,264.3,2273.3,263,2274.9,263z"/>
				<path class="st20" d="M2090.2,379.5l-6.3-0.1c-5.8-11.1-19.8-33.1-17.9-45.1c4.9-31.4,47-10.5,64.9-20.6
					c10-5.7,9.1-22.8-1.1-27.5c-2.8-1.3-7.7-1.9-14.5-1.9c-25.4,0.1-50.9,0.1-76.3,0c-1.4,0-2.1-0.7-2.1-2.1v-1.7
					c0-1.4,0.7-2.1,2.1-2.1c25.2,0,50.3,0,75.5,0c8.7,0,14.9,1,18.7,2.9c13.2,6.6,14.3,28.7,1.9,36.8c-9.8,6.4-28.7,4-40.9,4
					c-7.7,0-13.1,1-16.3,3.2c-8.6,5.9-7.3,15.1-2.8,23.9C2080.1,358.9,2085.1,369,2090.2,379.5z"/>
				<path class="st20" d="M2274.8,282.2h32.4c1.5,0,2.7,1.2,2.7,2.7v0.4c0,1.5-1.2,2.7-2.7,2.7h-32.4c-1.5,0-2.7-1.2-2.7-2.7V285
					C2272,283.5,2273.3,282.2,2274.8,282.2z"/>
				<path class="st19" d="M2059,379.6l-104.8,0.1c4.6-5.9,6.9-11.3,6.9-16c5.1-1.9,7.7-5.9,7.9-12.1c0-1.3-1-2.3-2.2-2.4
					c-0.8,0-1.5,0.4-1.9,1l-5.6,8.7c-0.6,0.9-0.5,1.8,0.4,2.5c0.7,0.6,1.2,1.3,1.4,2.2c-6.1,1-10,6.4-11.8,16.1l-108,0l-8.1-14.6
					c-0.5-0.9-1.2-1.3-2.2-1.3h-1.4c-0.5,0-0.9-0.4-0.9-0.9c0-0.3,0.1-0.5,0.3-0.7c1.3-1.1,1.6-2.2,0.9-3.5
					c-1.6-2.8-3.1-5.4-4.4-7.6c-0.8-1.5-2.7-2.1-4.3-1.2c-1.5,0.8-2.1,2.7-1.2,4.3l0,0c1.6,3.1,3.5,6,5.8,8.5
					c0.7,0.7,1.2,1.5,1.6,2.4l7.7,14.6l-72.8,0c-3.3,0-6,2.7-6,6c0,0,0,0,0,0v81.9c0,0.9-0.5,1.4-1.4,1.4l-19.7-0.1
					c5.4-9.5,10.8-18.8,16.1-28c0.5-0.9,0.8-1.8,0.8-2.5c0-1.3-0.4-2.2-1.2-2.8c-1.1-0.9-2.6-0.7-3.5,0.4c-0.1,0.1-0.2,0.2-0.2,0.3
					l-18.3,32.6c-22.3-0.7-36.1,9.8-41.4,31.6l-12.8-22c-0.6-0.9-0.6-1.9,0-2.8l108.7-188.4c0.6-0.9,1.4-1.4,2.5-1.4h217.8
					c0.9,0,1.5,0.4,2,1.1L2059,379.6z M1814.1,334.6l42.1-0.3c1.4,0,2.5-1.1,2.5-2.5c0-0.6-0.2-1.1-0.5-1.5
					c-0.9-1.2-2.3-1.8-4.3-1.7c-14.3,0.1-28.8,0.3-43.2,0.6c-1.2,0-2.1,0.6-2.7,1.6l-22.3,38.6c-0.8,1.4-0.3,3.1,1,3.9
					c0.8,0.4,1.7,0.5,2.5,0.2c1.6-0.7,2.9-2,4.1-4.1c6.1-11.2,12.4-22.3,18.8-33.4C1812.4,335,1813.2,334.6,1814.1,334.6z
					 M1977.5,336.1c6.7,10.9,11.6,20.3,20.4,35.5c0.6,1,1.3,1.7,2.1,2c1.5,0.5,2.6-0.1,3.5-1.5c0.6-1,0.6-2.2,0-3.2l-22.4-38.7
					c-0.5-0.8-1.4-1.3-2.3-1.3l-45.9,0.3c-1.1,0-2.1,0.9-2.2,2c-0.2,1.7,0.6,2.5,2.3,2.6c13.9,0.4,28,0.8,42.3,1.1
					C1976.2,334.8,1976.9,335.3,1977.5,336.1z"/>
				<path class="st19" d="M2266,343.4c0,17.9-14.5,32.4-32.4,32.4l0,0c-17.9,0-32.4-14.5-32.4-32.4c0,0,0,0,0,0
					c0-17.9,14.5-32.4,32.4-32.4l0,0C2251.5,311,2266,325.5,2266,343.4L2266,343.4z M2230.6,337.4l1.8-1.5c0.3-0.2,0.6-0.3,0.9-0.2
					l6.1,2c0.6,0.2,1.2-0.1,1.4-0.7c0.1-0.2,0.1-0.5,0-0.8c-4.3-11.1-17.6-2.6-13.3,5.4c0.4,0.7,0.9,1.2,1.6,1.5l7.3,3.6
					c0.8,0.4,1.1,1.4,0.7,2.2c-0.1,0.3-0.4,0.5-0.7,0.7c-2.7,1.5-5.2,1.1-7.3-1.3c-0.6-0.6-1.5-0.7-2.2-0.2
					c-0.4,0.3-0.6,0.8-0.5,1.3c1,9.1,11.5,9.2,15.4-0.1c0.4-0.9,0.3-1.9-0.2-2.8c-2.3-3.9-5.8-6.3-10.6-7.4c-0.6-0.1-1-0.7-0.9-1.3
					C2230.3,337.7,2230.4,337.5,2230.6,337.4z"/>
				<path class="st20" d="M2274.8,321.4l56.1-0.1c1.6,0,2.9,1.3,2.9,2.9v0.1c0,1.6-1.3,2.9-2.9,2.9l-56.1,0.1
					c-1.6,0-2.9-1.3-2.9-2.9l0-0.1C2271.9,322.7,2273.2,321.4,2274.8,321.4z"/>
				<path class="st20" d="M1811.9,335.8c-6.4,11-12.7,22.2-18.8,33.4c-1.1,2.1-2.5,3.4-4.1,4.1c-1.5,0.6-3.1-0.1-3.7-1.6
					c-0.3-0.8-0.3-1.7,0.2-2.5l22.3-38.6c0.6-1,1.5-1.6,2.7-1.6c14.5-0.3,28.9-0.5,43.2-0.6c2,0,3.5,0.6,4.3,1.7
					c0.8,1.1,0.7,2.6-0.4,3.5c-0.4,0.3-1,0.5-1.5,0.5l-42.1,0.3C1813.2,334.6,1812.4,335,1811.9,335.8z"/>
				<path class="st20" d="M1997.9,371.6c-8.9-15.2-13.7-24.6-20.4-35.5c-0.6-0.9-1.3-1.3-2.3-1.3c-14.2-0.3-28.3-0.7-42.3-1.1
					c-1.8-0.1-2.5-0.9-2.3-2.6c0.1-1.1,1.1-2,2.2-2l45.9-0.3c1,0,1.9,0.5,2.3,1.3l22.4,38.7c0.6,1,0.6,2.2,0,3.2
					c-0.8,1.5-2,2-3.5,1.5C1999.2,373.3,1998.5,372.7,1997.9,371.6z"/>
				<path class="st20" d="M2231.1,339.3c4.8,1,8.3,3.5,10.6,7.4c0.5,0.8,0.6,1.9,0.2,2.8c-3.9,9.3-14.4,9.1-15.4,0.1
					c-0.1-0.8,0.5-1.6,1.3-1.7c0.5-0.1,1,0.1,1.3,0.5c2.1,2.4,4.6,2.9,7.3,1.3c0.8-0.5,1.1-1.5,0.6-2.2c-0.2-0.3-0.4-0.5-0.7-0.7
					l-7.3-3.6c-0.7-0.4-1.2-0.9-1.6-1.5c-4.4-7.9,8.9-16.5,13.3-5.4c0.2,0.6,0,1.2-0.6,1.4c-0.2,0.1-0.5,0.1-0.8,0l-6.1-2
					c-0.3-0.1-0.6,0-0.9,0.2l-1.8,1.5c-0.5,0.4-0.5,1.1-0.1,1.6C2230.6,339.1,2230.8,339.2,2231.1,339.3z"/>
				<path class="st20" d="M2274.3,340.6h56.7c1.3,0,2.3,1,2.3,2.3v1.2c0,1.3-1,2.3-2.3,2.3h-56.7c-1.3,0-2.3-1-2.3-2.3v-1.2
					C2272,341.6,2273,340.6,2274.3,340.6z"/>
				<path class="st20" d="M1961,363.6c-0.3-0.9-0.7-1.6-1.4-2.2c-0.8-0.7-1-1.6-0.4-2.5l5.6-8.7c0.7-1.1,2.1-1.3,3.2-0.6
					c0.7,0.4,1.1,1.2,1,2C1968.7,357.7,1966.1,361.7,1961,363.6z"/>
				<path class="st20" d="M1841.2,379.7l-6.2,0l-7.7-14.6c-0.4-0.8-1-1.6-1.6-2.4c-2.3-2.6-4.2-5.4-5.8-8.5
					c-0.8-1.5-0.3-3.4,1.2-4.3c1.5-0.8,3.4-0.3,4.3,1.2c1.3,2.2,2.8,4.7,4.4,7.6c0.7,1.3,0.4,2.5-0.9,3.5c-0.4,0.3-0.4,0.9-0.1,1.3
					c0.2,0.2,0.4,0.3,0.7,0.3h1.4c1,0,1.7,0.4,2.2,1.3L1841.2,379.7z"/>
				<path class="st20" d="M2274.8,359.8h32.3c1.6,0,2.9,1.3,2.9,2.9v0.2c0,1.6-1.3,2.9-2.9,2.9h-32.3c-1.6,0-2.9-1.3-2.9-2.9v-0.2
					C2272,361.1,2273.2,359.8,2274.8,359.8z"/>
				<path class="st20" d="M1961,363.6c0,4.8-2.3,10.1-6.9,16l-5,0.1C1951,370,1955,364.6,1961,363.6z"/>
				<path class="st21" d="M2059,379.6l24.9-0.1l6.3,0.1l109.8,0.1c4.1,0,6.1,2.1,6.1,6.2v81.9c0,1,0.5,1.5,1.5,1.5
					c14.9,0.1,34.3-2.2,46.7,3.4c19.9,9,21.4,26.1,21.3,47.7c-0.2,70.2-0.2,140.4,0,210.5l-0.1,5.8c-0.1,44.3-0.1,88.7,0.1,132.9
					c0,17.3-6.5,28.9-19.7,34.9c-6.4,2.9-18.2,4.3-35.3,4.3c-59.7-0.1-119.3-0.1-178.9,0c-1.1,0-1.5,0.5-1.3,1.6l9.1,45.5
					c0.2,1.1,0.9,1.7,2.1,1.7l19.4-0.1c3,0,5.4,2.4,5.4,5.3c0,1.2-0.4,2.4-1.2,3.3c-1.6,2-3.8,3.1-6.4,3.1
					c-58.8,0.1-117.4,0.1-175.7,0.1c-3.1,0-5.7-2.3-6.1-5.3c-0.6-3.8,2.4-6.4,6.2-6.4c6.2,0,12.3,0,18.5-0.1c1,0,1.5-0.5,1.7-1.4
					l9.2-46.4c0.1-0.4-0.2-0.8-0.6-0.9c0,0-0.1,0-0.1,0c-60.6,0-121.1,0-181.3,0c-16.2,0-27.3-1.4-33.2-4.2
					c-17.7-8.5-20-24.1-20-43.6c0.2-94.9,0.1-189.3-0.2-283v-11.6l0.1-65.8c5.3-21.7,19.1-32.3,41.4-31.6l6.4,0l19.7,0.1
					c0.9,0,1.4-0.5,1.4-1.4v-81.9c0-3.3,2.7-6,6-6c0,0,0,0,0,0l72.8,0l6.2,0l108,0l5-0.1L2059,379.6z M2175.1,438.9l16.7,0
					c1.3,0,2.3-1.1,2.3-2.3l0.3-42.7c0-1.3-0.6-1.9-1.9-2l-16.7-0.1l-406.2,0c-1,0-1.5,0.5-1.5,1.5v44.1c0,1,0.5,1.5,1.5,1.5
					L2175.1,438.9z M1777.8,760.9H2176l3.5,0c1.3,0,2-0.7,2.1-2l2.7-36.3c0.1-1,0.9-1.7,1.9-1.7c2.9,0.2,5,1.6,6.3,4.3
					c0.2,0.5,0.8,0.7,1.3,0.5c0.3-0.2,0.6-0.5,0.5-0.9l0.1-272c0-1.2-0.6-1.9-1.8-1.9l-16.5-0.2h-398.2l-7.9,0.1
					c-1.2,0-1.8,0.7-1.8,1.9v306.8c0,0.9,0.5,1.4,1.4,1.4L1777.8,760.9z M2242.3,817.8h19.8c1,0,1.6-0.5,1.6-1.5l-0.4-319.8
					c-7.1-9.9-14.1-15-21-15.2c-11.6-0.4-23-0.5-34.2-0.2c-1.4,0-2,0.7-2,2.1v253.4c0,0.9,0.3,1.7,0.9,2.4l34.2,34.9l4.3,5.1
					c0.6,0.7,0.7,1.8,0.3,2.6c-0.6,1.2-1.9,2-4,2.3l-18.7,1.1c-1.2,0.1-1.5,0.6-1.1,1.7l6.2,16.4c0.8,2.1-0.3,4.4-2.3,5.2
					c0,0,0,0,0,0l-14.4,5.1c-1.8,0.7-3.8-0.3-4.5-2.1l-6.1-16.9c-0.3-0.8-1.1-1.2-1.9-0.9c-0.1,0.1-0.3,0.1-0.4,0.2l-15.9,11.9
					c-1.3,1-3.2,0.8-4.3-0.6c-0.5-0.6-0.7-1.4-0.6-2.1l2.4-28.7c0.1-0.8-0.5-1.4-1.3-1.5c0,0-0.1,0-0.1,0h-417
					c-3.1,0-5.6-2.5-5.6-5.5V482.4c0-1-0.5-1.5-1.5-1.5c-27.2-0.2-55.4-6.5-55.4,31.5c0,101.1,0,202.3,0,303.6
					c0,1.2,0.6,1.8,1.8,1.8H2242.3z M2226.5,778.4c2.2,0.4,4.6,0,7.2-1c0.9-0.4,1-0.9,0.3-1.5l-25.1-25.4l-18-18.1
					c-0.9-0.9-1.4-0.7-1.5,0.6l-4.8,61.3c-0.1,1.6,0.4,1.9,1.7,1l13.8-10.1c1.3-0.9,3-0.6,3.9,0.6c0.2,0.2,0.3,0.4,0.4,0.7l6.9,18.8
					c0.4,1.1,1.2,1.5,2.3,1.1l6.5-2.3c1.1-0.4,1.4-1.1,1-2.2l-7-19.4c-0.4-1.2,0-2,1.1-2.5C2218,778.7,2221.8,778.2,2226.5,778.4z
					 M2231.2,896.8c13.6,0.8,23-3,28.3-11.5c7.1-11.6,4.4-38.4,4.3-54c0-1-0.5-1.5-1.5-1.5l-21,0H1701c-1,0-1.5,0.5-1.5,1.6
					c-0.1,11.2-0.1,22.4-0.1,33.6c0.1,26.3,11.2,31.9,36.6,31.9C1901.2,896.9,2066.3,896.9,2231.2,896.8z M1936.1,908.7
					c-0.6,0-1.1,0.4-1.2,1l-9.3,46.4c-0.1,0.7,0.3,1.3,1,1.4c0.1,0,0.2,0,0.2,0l109.4-0.1c0.7,0,1.2-0.5,1.2-1.2c0-0.1,0-0.2,0-0.2
					l-9.3-46.2c-0.1-0.6-0.6-1-1.2-1L1936.1,908.7z"/>
				<path class="st20" d="M2290.9,461.5l-16.8,9.3c-1.5,0.8-3.4,0.3-4.3-1.2c-0.1-0.2-0.2-0.3-0.2-0.5l-28-79
					c-0.5-1.3,0-2.7,1.1-3.5c1.4-1,3.1-1.1,5.1-0.2c32.2,13.5,64.9,27,98,40.5c1.1,0.4,1.6,1.7,1.2,2.8c-0.2,0.4-0.5,0.8-0.9,1
					l-19.9,11.3c-0.8,0.5-1.3,1.1-1.4,2l-6.6,35.5c-0.3,1.6-1.8,2.7-3.4,2.4c-0.6-0.1-1.1-0.4-1.5-0.8l-19.2-19.1
					C2293,461,2292,460.9,2290.9,461.5z M2273.8,463c0.2,0.5,0.7,0.8,1.2,0.6c0.1,0,0.1,0,0.1-0.1l29-16.4c0.5-0.3,0.6-0.9,0.4-1.3
					c-0.1-0.1-0.1-0.2-0.2-0.3l-50.6-44.3c-0.4-0.3-1-0.3-1.4,0.2c-0.2,0.2-0.3,0.6-0.2,0.9L2273.8,463z M2275.6,404.6
					c-0.3-0.1-0.6,0-0.7,0.3c-0.1,0.2,0,0.5,0.2,0.6l46.2,30.7c0.7,0.5,1.7,0.5,2.5,0.1l9.9-5.4c0.7-0.4,1-1.3,0.6-2
					c-0.2-0.3-0.4-0.5-0.8-0.7L2275.6,404.6z M2308.6,453.5c-0.1-0.5-0.6-0.9-1.1-0.9c-0.1,0-0.2,0-0.3,0.1l-8,4
					c-0.5,0.3-0.7,0.9-0.4,1.4c0,0.1,0.1,0.2,0.2,0.2l9.6,9.3c0.4,0.4,1,0.4,1.4,0c0.2-0.2,0.3-0.5,0.3-0.8L2308.6,453.5z"/>
				<path class="st22" d="M2175.7,391.7l-0.7,47.2l-405.5,0c-1,0-1.5-0.5-1.5-1.5v-44.1c0-1,0.5-1.5,1.5-1.5L2175.7,391.7z
					 M1818.6,415.2c0-5.6-4.5-10.1-10.1-10.1c-5.6,0-10.1,4.5-10.1,10.1v0c0,5.6,4.5,10.1,10.1,10.1S1818.6,420.7,1818.6,415.2z
					 M1843.2,415.1c0-5.5-4.5-10-10-10l0,0c-5.5,0-10,4.5-10,10l0,0c0,5.5,4.5,10,10,10l0,0C1838.7,425.2,1843.2,420.7,1843.2,415.1
					L1843.2,415.1z M1867.8,415.1c0-5.6-4.5-10.1-10.1-10.1c-5.6,0-10.1,4.5-10.1,10.1s4.5,10.1,10.1,10.1
					C1863.3,425.2,1867.8,420.7,1867.8,415.1z M2164.3,414.2c0-5.1-4.2-9.3-9.3-9.3c0,0,0,0,0,0h-263c-5.1,0-9.3,4.2-9.3,9.3l0,0
					v1.3c0,5.1,4.2,9.3,9.3,9.3l0,0h263c5.1,0,9.3-4.2,9.3-9.3l0,0V414.2z"/>
				<path class="st23" d="M2175.7,391.7l16.7,0.1c1.3,0,1.9,0.7,1.9,2l-0.3,42.7c0,1.3-1,2.3-2.3,2.3l-16.7,0L2175.7,391.7z"/>
				<path class="st19" d="M2273.8,463l-21.6-60.7c-0.1-0.5,0.2-1.1,0.7-1.2c0.3-0.1,0.6,0,0.9,0.2l50.6,44.3c0.4,0.3,0.5,1,0.1,1.4
					c-0.1,0.1-0.2,0.2-0.3,0.2l-29,16.4c-0.5,0.3-1.1,0.1-1.3-0.4C2273.9,463.1,2273.8,463.1,2273.8,463z"/>
				<path class="st19" d="M2275.6,404.6l58,23.6c0.8,0.3,1.1,1.2,0.8,2c-0.1,0.3-0.4,0.6-0.7,0.8l-9.9,5.4c-0.8,0.4-1.8,0.4-2.5-0.1
					l-46.2-30.7c-0.2-0.2-0.3-0.5-0.2-0.7C2275.1,404.6,2275.4,404.6,2275.6,404.6z"/>
				<circle class="st23" cx="1808.5" cy="415.2" r="10.1"/>
				<circle class="st23" cx="1833.1" cy="415.1" r="10"/>
				<circle class="st23" cx="1857.7" cy="415.1" r="10.1"/>
				<path class="st23" d="M1892,404.9h263c5.1,0,9.3,4.2,9.3,9.3v1.3c0,5.1-4.2,9.3-9.3,9.3h-263c-5.1,0-9.3-4.2-9.3-9.3v-1.3
					C1882.7,409,1886.9,404.9,1892,404.9z"/>
				<path class="st20" d="M1735.2,469l-6.4,0l18.3-32.6c0.7-1.2,2.2-1.6,3.4-1c0.1,0.1,0.2,0.1,0.3,0.2c0.8,0.6,1.2,1.6,1.2,2.8
					c0,0.7-0.2,1.6-0.8,2.5C1746,450.1,1740.6,459.5,1735.2,469z"/>
				<path class="st24" d="M1777.8,450.7l0,310.2l-8.3,0c-0.9,0-1.4-0.5-1.4-1.4V452.7c0-1.2,0.6-1.8,1.8-1.9L1777.8,450.7z"/>
				<path class="st19" d="M1777.8,450.7H2176v310.2h-398.2L1777.8,450.7z M1870.6,471.7l-41,0.4c-1.1,0-1.7,0.5-2,1.6
					c-1,3.8-0.9,7.9,0.4,12.3l-12.3,7.1c-1.4,0.8-1.8,2.5-1.1,3.9c0.2,0.4,0.6,0.8,1,1l12.8,7.6c-1.7,3.9-2.1,7.7-1.2,11.4
					c0.2,1.1,0.9,1.6,2,1.7l28.4,1.1c-0.3,2.2,0.5,3.5,2.2,3.9c2.6,0.5,4.2-1.3,4.8-5.3l41.3,0.1c1.1,0,1.7-0.5,1.7-1.6l0.8-12.3
					l11-6.6c1.3-0.8,1.8-2.6,0.9-3.9c-0.2-0.4-0.6-0.7-1-1l-13.4-7.8c1.9-3,2.5-6.8,1.6-11.3c-0.2-1-0.8-1.5-1.8-1.5l-28.9-0.1
					c0.8-2.2,0.5-3.7-1.1-4.5C1873,466.7,1871.3,467.9,1870.6,471.7z M1943.1,539.3c0-1.2-1-2.1-2.1-2.1l0,0h-124.2
					c-1.2,0-2.1,1-2.1,2.1l0,0v1.5c0,1.2,1,2.1,2.1,2.1l0,0H1941c1.2,0,2.1-1,2.1-2.1l0,0V539.3z M1820.5,561.1
					c0-1.4-1.2-2.6-2.6-2.6c0,0,0,0,0,0h-0.8c-1.4,0-2.6,1.2-2.6,2.6c0,0,0,0,0,0v164.2c0,1.4,1.2,2.6,2.6,2.6h0.8
					c1.4,0,2.6-1.2,2.6-2.6V561.1z M1881.8,560.9c0-1.3-1.1-2.4-2.4-2.4l0,0l-37.9,0.1c-1.3,0-2.4,1.1-2.4,2.4c0,0,0,0,0,0l0,0.8
					c0,1.3,1.1,2.4,2.4,2.4h0l37.9-0.1c1.3,0,2.4-1.1,2.4-2.4v0L1881.8,560.9z M1929.1,561c0-1.1-0.9-2-2-2l0,0l-28.4,0
					c-1.1,0-2,0.9-2,2l0,0.7c0,1.1,0.9,2,2,2l0,0l28.4,0c1.1,0,2-0.9,2-2l0,0L1929.1,561z M2128.3,560.3c0-0.8-0.7-1.4-1.5-1.4
					l-17.7,0.4c-0.8,0-1.4,0.7-1.4,1.5c0,0,0,0,0,0l0,1.5c0,0.8,0.7,1.4,1.5,1.4l17.7-0.4c0.8,0,1.4-0.7,1.4-1.5c0,0,0,0,0,0
					L2128.3,560.3z M2026.9,561.2c0-1.2-1-2.2-2.2-2.2l-72.8,0.1c-1.2,0-2.2,1-2.2,2.2c0,0,0,0,0,0l0,0.1c0,1.2,1,2.2,2.2,2.2
					l72.8-0.1c1.2,0,2.2-1,2.2-2.2L2026.9,561.2z M2098.3,561.1c0-1-0.8-1.8-1.8-1.8l-45.8,0.1c-1,0-1.8,0.8-1.8,1.8c0,0,0,0,0,0
					l0,0.2c0,1,0.8,1.8,1.8,1.8l45.8-0.1c1,0,1.8-0.8,1.8-1.8c0,0,0,0,0,0L2098.3,561.1z M1915.8,584.2c0-1.3-1-2.3-2.3-2.3h-72.2
					c-1.3,0-2.3,1-2.3,2.3v0.2c0,1.3,1,2.3,2.3,2.3h72.2c1.3,0,2.3-1,2.3-2.3V584.2z M1958,583.7c0-1-0.9-1.9-1.9-1.9l-19.2,0.1
					c-1,0-1.9,0.9-1.9,1.9c0,0,0,0,0,0l0,0.9c0,1,0.9,1.9,1.9,1.9l19.2-0.1c1,0,1.9-0.9,1.9-1.9c0,0,0,0,0,0L1958,583.7z
					 M2071.2,584c0-1.1-0.9-2.1-2.1-2.1l-88.4,0.3c-1.1,0-2.1,0.9-2.1,2.1l0,0l0,0.1c0,1.1,0.9,2.1,2.1,2.1l0,0l88.4-0.3
					c1.1,0,2.1-0.9,2.1-2.1l0,0L2071.2,584z M2002,607.9c0-1.3-1-2.3-2.3-2.3c0,0,0,0,0,0h-100.9c-1.3,0-2.3,1-2.3,2.3l0,0v0.1
					c0,1.3,1,2.3,2.3,2.3l0,0h100.9c1.3,0,2.3-1,2.3-2.3c0,0,0,0,0,0V607.9z M1877.2,607.8c0-1.2-0.9-2.1-2.1-2.1l-33.9,0.1
					c-1.2,0-2.1,0.9-2.1,2.1c0,0,0,0,0,0l0,0.3c0,1.2,0.9,2.1,2.1,2.1l33.9-0.1c1.2,0,2.1-0.9,2.1-2.1c0,0,0,0,0,0L1877.2,607.8z
					 M2032.6,607.7c0-1-0.8-1.8-1.7-1.8l0,0l-15-0.2c-1,0-1.8,0.8-1.8,1.7v0l0,0.8c0,1,0.8,1.8,1.7,1.8h0l15,0.2
					c1,0,1.8-0.8,1.8-1.7l0,0L2032.6,607.7z M2090.9,607.7c0-1-0.8-1.8-1.8-1.8l-35,0.1c-1,0-1.8,0.8-1.8,1.8l0,0.2
					c0,1,0.8,1.8,1.8,1.8l35-0.1c1,0,1.8-0.8,1.8-1.8L2090.9,607.7z M1920.2,631.4c0-1.2-1-2.2-2.2-2.2h-76.8c-1.2,0-2.2,1-2.2,2.2
					v0.3c0,1.2,1,2.2,2.2,2.2h76.8c1.2,0,2.2-1,2.2-2.2V631.4z M2047.3,631.4c0-1.3-1-2.3-2.3-2.3l0,0l-101.8,0.2
					c-1.3,0-2.3,1-2.3,2.3l0,0.1c0,1.3,1,2.3,2.3,2.3l101.8-0.2c1.3,0,2.3-1,2.3-2.3L2047.3,631.4z M2091.6,631.1
					c0-1-0.8-1.7-1.7-1.7l-22.3,0c-1,0-1.7,0.8-1.7,1.7c0,0,0,0,0,0l0,0.8c0,1,0.8,1.7,1.7,1.7l22.3,0c1,0,1.7-0.8,1.7-1.7
					c0,0,0,0,0,0L2091.6,631.1z M1844.9,654.1c0-1.4-1.1-2.5-2.5-2.5l0,0h-0.8c-1.4,0-2.5,1.1-2.5,2.5l0,0v71.2
					c0,1.4,1.1,2.5,2.5,2.5l0,0h0.8c1.4,0,2.5-1.1,2.5-2.5l0,0V654.1z M1946.7,654.2c0-1.3-1.1-2.4-2.4-2.4l0,0h-78.5
					c-1.3,0-2.4,1.1-2.4,2.4l0,0v0.3c0,1.3,1.1,2.4,2.4,2.4l0,0h78.5c1.3,0,2.4-1.1,2.4-2.4l0,0V654.2z M2032.4,654.1
					c0-1.1-0.9-2-2-2l-65-0.1c-1.1,0-2,0.9-2,2l0,0.9c0,1.1,0.9,2,2,2l0,0l65,0.1c1.1,0,2-0.9,2-2L2032.4,654.1z M2109.3,654.4
					c0-1.4-1.2-2.6-2.6-2.6h-59.9c-1.4,0-2.6,1.2-2.6,2.6v0.2c0,1.4,1.2,2.6,2.6,2.6c0,0,0,0,0,0h59.9c1.4,0,2.6-1.2,2.6-2.6V654.4z
					 M1943.3,677.8c0-1.4-1.1-2.5-2.5-2.5c0,0,0,0,0,0h-74.9c-1.4,0-2.5,1.1-2.5,2.5l0,0v0.9c0,1.4,1.1,2.5,2.5,2.5h74.9
					c1.4,0,2.5-1.1,2.5-2.5V677.8z M2004.2,678.2c0-1.6-1.3-2.9-2.9-2.9h-37.4c-1.6,0-2.9,1.3-2.9,2.9v0.1c0,1.6,1.3,2.9,2.9,2.9
					h37.4c1.6,0,2.9-1.3,2.9-2.9V678.2z M2064.9,678c0-1.5-1.2-2.7-2.7-2.7l0,0l-45.6-0.1c-1.5,0-2.7,1.2-2.7,2.7c0,0,0,0,0,0l0,0.6
					c0,1.5,1.2,2.7,2.7,2.7l0,0l45.6,0.1c1.5,0,2.7-1.2,2.7-2.7c0,0,0,0,0,0L2064.9,678z M2148.5,678.2c0-1.6-1.3-2.9-2.9-2.9
					c0,0,0,0,0,0l-54-0.1c-1.6,0-2.9,1.3-2.9,2.9l0,0.1c0,1.6,1.3,2.9,2.9,2.9c0,0,0,0,0,0l54,0.1c1.6,0,2.9-1.3,2.9-2.9
					c0,0,0,0,0,0L2148.5,678.2z M1899.6,701.4c0-1.4-1.1-2.5-2.5-2.6c0,0,0,0,0,0l-31.1-0.1c-1.4,0-2.5,1.1-2.6,2.5l0,0l0,0.9
					c0,1.4,1.1,2.5,2.5,2.6c0,0,0,0,0,0l31.1,0.1c1.4,0,2.5-1.1,2.6-2.5l0,0L1899.6,701.4z M2016.6,701.8c0-1.6-1.3-2.9-2.9-2.9
					h-100.9c-1.6,0-2.9,1.3-2.9,2.9v0.1c0,1.6,1.3,2.9,2.9,2.9h100.9c1.6,0,2.9-1.3,2.9-2.9V701.8z M2121.9,701.7
					c0-1.6-1.3-2.9-2.9-2.9l0,0h-82.2c-1.6,0-2.9,1.3-2.9,2.9l0,0v0.2c0,1.6,1.3,2.9,2.9,2.9l0,0h82.2c1.6,0,2.9-1.3,2.9-2.9l0,0
					V701.7z M1929.4,724.7c0-1.6-1.3-2.8-2.8-2.8l0,0h-60.3c-1.6,0-2.8,1.3-2.8,2.8l0,0v0.1c0,1.6,1.3,2.8,2.8,2.8l0,0h60.3
					c1.6,0,2.8-1.3,2.8-2.8l0,0V724.7z M2080.1,724.7c0-1.6-1.3-2.8-2.8-2.8h-122.1c-1.6,0-2.8,1.3-2.8,2.8l0,0v0.1
					c0,1.6,1.3,2.8,2.8,2.8l0,0h122.1c1.6,0,2.8-1.3,2.8-2.8V724.7z M2148.7,724.7c0-1.5-1.2-2.8-2.8-2.8l0,0l-42.6-0.1
					c-1.5,0-2.8,1.2-2.8,2.8l0,0l0,0.2c0,1.5,1.2,2.8,2.8,2.8l0,0l42.6,0.1c1.5,0,2.8-1.2,2.8-2.8l0,0L2148.7,724.7z"/>
				<path class="st20" d="M2176,450.7l16.5,0.2c1.2,0,1.8,0.6,1.8,1.9l-0.1,272c0,0.5-0.4,1-0.9,1c-0.4,0-0.7-0.2-0.9-0.5
					c-1.3-2.7-3.4-4.1-6.3-4.3c-1-0.1-1.8,0.7-1.9,1.7l-2.7,36.3c-0.1,1.3-0.8,2-2.1,2l-3.5,0V450.7z"/>
				<path class="st19" d="M2308.6,453.5l1.7,13.3c0.1,0.6-0.3,1.1-0.9,1.1c-0.3,0-0.6-0.1-0.8-0.3l-9.6-9.3c-0.4-0.4-0.4-1,0-1.4
					c0.1-0.1,0.1-0.1,0.2-0.2l8-4c0.5-0.2,1.1,0,1.3,0.5C2308.5,453.3,2308.6,453.4,2308.6,453.5z"/>
				<path class="st21" d="M1876.8,472.4l-12.3,45.9c-0.6,4-2.2,5.8-4.8,5.3c-1.7-0.3-2.4-1.6-2.2-3.9l13-48.1c0.7-3.8,2.5-5,5.2-3.8
					C1877.3,468.7,1877.6,470.1,1876.8,472.4z"/>
				<path class="st24" d="M1870.6,471.7l-13,48.1l-28.4-1.1c-1.1,0-1.7-0.6-2-1.7c-0.8-3.7-0.4-7.5,1.2-11.4
					c5.9,3.5,11.8,6.6,17.7,9.3c2.3,1,3.5,0.4,3.6-1.8c0.1-1.4-0.6-2.7-1.9-3.4l-22.4-13c-1.2-0.7-1.2-1.4,0-2.1
					c7.5-4.7,15.2-9.2,22.9-13.6c1-0.6,1.6-1.2,1.7-1.9c0.2-1-0.3-2-1.6-3c-0.8-0.6-1.7-0.7-2.6-0.2l-17.9,10
					c-1.3-4.4-1.5-8.5-0.4-12.3c0.3-1,0.9-1.5,2-1.6L1870.6,471.7z"/>
				<path class="st24" d="M1905.9,485.2l-16.3-9.3c-1.5-0.9-3.4-0.3-4.3,1.2c-0.3,0.5-0.4,1.1-0.4,1.7c0,0.3,0.2,0.7,0.6,1.3
					c0.3,0.4,0.6,0.7,1,0.9c7.8,4.6,15.6,9.2,23.4,13.7c0.5,0.3,0.7,0.9,0.4,1.4c-0.1,0.2-0.2,0.3-0.4,0.4
					c-7.7,4.3-15.3,8.7-22.9,13.4c-1.1,0.7-1.7,1.3-2,2.1c-0.4,1.2,0,2.3,1.2,3.3c0.9,0.7,2.1,0.8,3.1,0.2l19.1-10.9l-0.8,12.3
					c-0.1,1.1-0.6,1.6-1.7,1.6l-41.3-0.1l12.3-45.9l28.9,0.1c1,0,1.6,0.5,1.8,1.5C1908.3,478.4,1907.8,482.2,1905.9,485.2z"/>
				<path class="st20" d="M1687.3,566.3v11.6l-56.1-96.5c-0.5-0.8-1.2-1.2-2.1-1.2l-16.2,0c-1.2,0-2.3-0.9-2.5-2.1
					c-0.4-2.3,0.7-3.5,3.3-3.5c13.7-0.2,27.4-0.3,41.1-0.3c1.2,0,1.8,0.6,1.7,1.9l-0.2,2.1c-0.1,1.3-0.8,1.9-2.1,1.9h-14.5
					c-1.4,0-1.8,0.6-1.1,1.8L1687.3,566.3z"/>
				<path class="st21" d="M1828.5,505.6l-12.8-7.6c-1.4-0.8-1.8-2.5-1-3.9c0.3-0.4,0.6-0.8,1-1l12.3-7.1l17.9-10
					c0.9-0.5,1.8-0.5,2.6,0.2c1.3,1,1.8,2,1.6,3c-0.1,0.7-0.7,1.3-1.7,1.9c-7.7,4.4-15.4,8.9-22.9,13.6c-1.1,0.7-1.1,1.4,0,2.1
					l22.4,13c1.2,0.7,1.9,2,1.9,3.4c-0.1,2.2-1.3,2.8-3.6,1.8C1840.3,512.2,1834.4,509.1,1828.5,505.6z"/>
				<path class="st21" d="M1905.9,485.2l13.4,7.8c1.4,0.8,1.8,2.5,1,3.9c-0.2,0.4-0.6,0.8-1,1l-11,6.6l-19.1,10.9
					c-1,0.6-2.2,0.5-3.1-0.2c-1.2-1-1.6-2-1.2-3.3c0.3-0.7,0.9-1.4,2-2.1c7.6-4.6,15.2-9.1,22.9-13.4c0.5-0.3,0.7-0.9,0.4-1.4
					c-0.1-0.2-0.2-0.3-0.4-0.4c-7.8-4.5-15.6-9-23.4-13.7c-0.4-0.3-0.8-0.6-1-0.9c-0.4-0.6-0.6-1-0.6-1.3c-0.1-1.7,1.2-3.2,2.9-3.3
					c0.6,0,1.2,0.1,1.7,0.4L1905.9,485.2z"/>
				<path class="st22" d="M2242,784l0.3,33.8h-541.2c-1.2,0-1.8-0.6-1.8-1.8c0-101.3,0-202.5,0-303.6c0-37.9,28.2-31.7,55.4-31.5
					c1,0,1.5,0.5,1.5,1.5v284.8c0,3.1,2.5,5.5,5.6,5.5h417c0.8,0,1.4,0.6,1.4,1.4c0,0,0,0.1,0,0.1l-2.4,28.7
					c-0.1,1.7,1.1,3.2,2.8,3.3c0.8,0.1,1.5-0.2,2.1-0.6l15.9-11.9c0.7-0.5,1.6-0.4,2.1,0.3c0.1,0.1,0.2,0.3,0.2,0.4l6.1,16.9
					c0.7,1.8,2.7,2.8,4.5,2.1l14.4-5.1c2.1-0.8,3.2-3.1,2.4-5.1c0,0,0,0,0,0l-6.2-16.4c-0.4-1.1,0-1.7,1.1-1.7L2242,784z"/>
				<path class="st22" d="M2263.4,496.5c-8.5,7.1-15.5,14.7-21,22.8c-0.5,0.8-0.8,1.7-0.8,2.6l-0.1,251.9l-34.2-34.9
					c-0.6-0.6-0.9-1.5-0.9-2.4V483.2c0-1.4,0.7-2.1,2-2.1c11.1-0.3,22.5-0.2,34.2,0.2C2249.2,481.5,2256.2,486.6,2263.4,496.5z"/>
				<path class="st23" d="M2263.4,496.5l0.4,319.8c0,1-0.5,1.5-1.6,1.5h-19.8L2242,784c2-0.4,3.3-1.1,4-2.3c0.4-0.9,0.3-1.9-0.3-2.6
					l-4.3-5.1l0.1-251.9c0-1,0.3-1.8,0.8-2.6C2247.9,511.2,2254.9,503.6,2263.4,496.5z"/>
				<path class="st20" d="M2275.6,736.6l0.1-5.8l9.6-0.1c0.9,0,1.4-0.5,1.4-1.4v-179c0-0.9,0.8-1.7,1.7-1.7l11.8-0.3
					c0.9,0,1.6-0.6,1.9-1.4c5.9-19.4,32.4-16.6,34.1,3c1.7,20.9-27.2,25.9-34.2,5.7c-0.3-0.9-1-1.4-2-1.4l-5.9,0
					c-1,0-1.5,0.5-1.5,1.5v49.6c0,2.8,2.3,5.1,5.1,5.1c2.4,0,4.5-1.7,5-4.2c2.9-15.7,28.3-15,32.9,0.4c6.8,22.4-26.7,32.7-33.2,10.3
					c-0.7-2.7-3.5-4.3-6.2-3.5c-2.2,0.6-3.7,2.6-3.7,4.9v48.4c0,2.8,2.3,5.1,5,5.1c2.4,0,4.5-1.7,5-4.1c3.2-16.9,30-15.5,33.4,1
					c4.7,22.5-28.4,30.1-33.3,9.7c-0.7-2.8-3.4-4.4-6.2-3.8c-2.3,0.6-3.9,2.6-3.9,5v47.6c0,2.8,2.2,5.1,5,5.1c2.4,0,4.5-1.7,5-4.1
					c2.2-10.9,17.3-14.7,25.9-9.1c13.1,8.6,9.4,29.1-6.8,31.7c-9.5,1.5-16.1-2.7-19.9-12.8c-0.4-0.9-1-1.4-2-1.4L2275.6,736.6z
					 M2330.3,550.9c0-6.3-5.1-11.4-11.4-11.4l0,0c-6.3,0-11.4,5.1-11.4,11.4c0,6.3,5.1,11.4,11.4,11.4
					C2325.3,562.3,2330.3,557.2,2330.3,550.9C2330.3,550.9,2330.3,550.9,2330.3,550.9z M2330.5,612c0-6.3-5.1-11.4-11.4-11.4l0,0
					c-6.3,0-11.4,5.1-11.4,11.4l0,0c0,6.3,5.1,11.4,11.4,11.4S2330.5,618.3,2330.5,612L2330.5,612z M2330.3,672.8
					c0-6.3-5.1-11.3-11.3-11.3c0,0,0,0,0,0c-6.3,0-11.3,5.1-11.3,11.3s5.1,11.3,11.3,11.3C2325.3,684.1,2330.3,679,2330.3,672.8
					C2330.3,672.8,2330.3,672.8,2330.3,672.8z M2330.4,733.7c0-6.3-5.1-11.4-11.4-11.4l0,0c-6.3,0-11.4,5.1-11.4,11.4l0,0
					c0,6.3,5.1,11.4,11.4,11.4l0,0C2325.3,745.1,2330.4,740,2330.4,733.7L2330.4,733.7z"/>
				<path class="st23" d="M1816.8,537.2H1941c1.2,0,2.1,1,2.1,2.1v1.5c0,1.2-1,2.1-2.1,2.1h-124.2c-1.2,0-2.1-1-2.1-2.1v-1.5
					C1814.7,538.2,1815.6,537.2,1816.8,537.2z"/>
				<circle class="st24" cx="2319" cy="550.9" r="11.4"/>
				<path class="st24" d="M1817.2,558.5h0.8c1.4,0,2.6,1.2,2.6,2.6v164.2c0,1.4-1.2,2.6-2.6,2.6h-0.8c-1.4,0-2.6-1.2-2.6-2.6V561.1
					C1814.6,559.7,1815.8,558.5,1817.2,558.5z"/>
				<path class="st22" d="M1841.5,558.7l37.9-0.1c1.3,0,2.4,1.1,2.4,2.4l0,0.8c0,1.3-1.1,2.4-2.4,2.4l-37.9,0.1
					c-1.3,0-2.4-1.1-2.4-2.4l0-0.8C1839,559.8,1840.1,558.7,1841.5,558.7z"/>
				<path class="st23" d="M1898.6,559l28.4,0c1.1,0,2,0.9,2,2l0,0.7c0,1.1-0.9,2-2,2l-28.4,0c-1.1,0-2-0.9-2-2l0-0.7
					C1896.6,559.8,1897.5,559,1898.6,559z"/>
				<path class="st22" d="M2109.2,559.2l17.7-0.4c0.8,0,1.5,0.6,1.5,1.4l0,1.5c0,0.8-0.6,1.5-1.4,1.5l-17.7,0.4
					c-0.8,0-1.5-0.6-1.5-1.4l0-1.5C2107.8,559.9,2108.4,559.3,2109.2,559.2z"/>
				<path class="st23" d="M1952,559.2l72.8-0.1c1.2,0,2.2,1,2.2,2.2l0,0.1c0,1.2-1,2.2-2.2,2.2l-72.8,0.1c-1.2,0-2.2-1-2.2-2.2
					l0-0.1C1949.8,560.2,1950.8,559.2,1952,559.2z"/>
				<path class="st22" d="M2050.7,559.4l45.8-0.1c1,0,1.8,0.8,1.8,1.8l0,0.2c0,1-0.8,1.8-1.8,1.8l-45.8,0.1c-1,0-1.8-0.8-1.8-1.8
					l0-0.2C2048.8,560.2,2049.7,559.4,2050.7,559.4z"/>
				<path class="st19" d="M1653.4,632.9c0.3-2.1,0.5-3.9,0.7-5.4c0.3-2.3-1-4.6-3.2-5c-1.2-0.2-1.9,0.3-2,1.5l-0.4,8.8
					c-20.9-4.7-31.7-24.4-20-42.7c14.3-22.3,49.3-11.3,49.5,15.8C1678.3,620,1670.1,629,1653.4,632.9z M1647.5,601.4
					c-0.1,0.1-0.2,0.2-0.3,0.3l-9.6,16.4c-0.2,0.4-0.1,1,0.4,1.2c0.3,0.1,0.6,0.1,0.9,0l16.1-9.7c0.1-0.1,0.2-0.2,0.3-0.3l10-16.5
					c0.3-0.4,0.1-1-0.3-1.3c-0.3-0.2-0.6-0.2-0.9,0L1647.5,601.4z M1632.5,607.6c1.4-0.1,1.9-0.8,1.3-2.2c-1-2.2-2.7-3-5.1-2.4
					c-1.3,0.3-2.2,1.6-1.9,2.9c0.2,1.2,1.4,2,2.6,1.9L1632.5,607.6z"/>
				<path class="st23" d="M1841.3,581.9h72.2c1.3,0,2.3,1,2.3,2.3v0.2c0,1.3-1,2.3-2.3,2.3h-72.2c-1.3,0-2.3-1-2.3-2.3v-0.2
					C1839,582.9,1840,581.9,1841.3,581.9z"/>
				<path class="st23" d="M1936.9,582l19.2-0.1c1,0,1.9,0.8,1.9,1.9l0,0.9c0,1-0.8,1.9-1.9,1.9l-19.2,0.1c-1,0-1.9-0.8-1.9-1.9
					l0-0.9C1935,582.8,1935.9,582,1936.9,582z"/>
				<path class="st23" d="M1980.8,582.3l88.4-0.3c1.1,0,2.1,0.9,2.1,2.1l0,0.1c0,1.1-0.9,2.1-2.1,2.1l-88.4,0.3
					c-1.1,0-2.1-0.9-2.1-2.1l0-0.1C1978.8,583.2,1979.7,582.3,1980.8,582.3z"/>
				<path class="st20" d="M1647.5,601.4l16.5-9.9c0.4-0.3,1-0.1,1.3,0.3c0.2,0.3,0.2,0.7,0,0.9l-10,16.5c-0.1,0.1-0.2,0.2-0.3,0.3
					l-16.1,9.7c-0.4,0.2-1,0.1-1.2-0.4c-0.1-0.3-0.1-0.6,0-0.9l9.6-16.4C1647.2,601.6,1647.3,601.5,1647.5,601.4z"/>
				<circle class="st24" cx="2319.1" cy="612" r="11.4"/>
				<path class="st20" d="M1632.5,607.6l-3.1,0.2c-1.3,0.1-2.5-0.8-2.6-2.2c-0.1-1.2,0.7-2.4,1.9-2.6c2.4-0.6,4.1,0.3,5.1,2.4
					C1634.4,606.8,1634,607.5,1632.5,607.6z"/>
				<path class="st23" d="M1898.8,605.6h100.9c1.3,0,2.3,1,2.3,2.3v0.1c0,1.3-1,2.3-2.3,2.3h-100.9c-1.3,0-2.3-1-2.3-2.3v-0.1
					C1896.5,606.6,1897.6,605.6,1898.8,605.6z"/>
				<path class="st23" d="M1841.2,605.7l33.9-0.1c1.2,0,2.1,0.9,2.1,2.1l0,0.3c0,1.2-0.9,2.1-2.1,2.1l-33.9,0.1
					c-1.2,0-2.1-0.9-2.1-2.1l0-0.3C1839.1,606.7,1840,605.7,1841.2,605.7z"/>
				<path class="st23" d="M2015.9,605.7l15,0.2c1,0,1.8,0.8,1.7,1.8l0,0.8c0,1-0.8,1.8-1.8,1.7l-15-0.2c-1,0-1.8-0.8-1.7-1.8l0-0.8
					C2014.1,606.5,2015,605.7,2015.9,605.7z"/>
				<path class="st22" d="M2054.1,605.9l35-0.1c1,0,1.8,0.8,1.8,1.8l0,0.2c0,1-0.8,1.8-1.8,1.8l-35,0.1c-1,0-1.8-0.8-1.8-1.8l0-0.2
					C2052.3,606.7,2053.1,605.9,2054.1,605.9z"/>
				<path class="st20" d="M1653.4,632.9c-1.6-0.8-3.2-0.8-4.8-0.1l0.4-8.8c0.1-1.3,0.7-1.8,2-1.5c2.2,0.4,3.5,2.7,3.2,5
					C1653.9,628.9,1653.7,630.8,1653.4,632.9z"/>
				<path class="st23" d="M1841.2,629.2h76.8c1.2,0,2.2,1,2.2,2.2v0.3c0,1.2-1,2.2-2.2,2.2h-76.8c-1.2,0-2.2-1-2.2-2.2v-0.3
					C1839,630.2,1840,629.2,1841.2,629.2z"/>
				<path class="st23" d="M1943.2,629.2L2045,629c1.3,0,2.3,1,2.3,2.3l0,0.1c0,1.3-1,2.3-2.3,2.3l-101.8,0.2c-1.3,0-2.3-1-2.3-2.3
					l0-0.1C1940.9,630.3,1941.9,629.2,1943.2,629.2z"/>
				<path class="st22" d="M2067.6,629.3l22.3,0c1,0,1.7,0.8,1.7,1.7l0,0.8c0,1-0.8,1.7-1.7,1.7l-22.3,0c-1,0-1.7-0.8-1.7-1.7l0-0.8
					C2065.9,630.1,2066.7,629.3,2067.6,629.3z"/>
				<path class="st24" d="M1841.6,651.6h0.8c1.4,0,2.5,1.1,2.5,2.5v71.2c0,1.4-1.1,2.5-2.5,2.5h-0.8c-1.4,0-2.5-1.1-2.5-2.5v-71.2
					C1839,652.7,1840.2,651.6,1841.6,651.6z"/>
				<path class="st20" d="M1865.8,651.8h78.5c1.3,0,2.4,1.1,2.4,2.4v0.3c0,1.3-1.1,2.4-2.4,2.4h-78.5c-1.3,0-2.4-1.1-2.4-2.4v-0.3
					C1863.4,652.9,1864.4,651.8,1865.8,651.8z"/>
				<path class="st20" d="M1965.4,652l65,0.1c1.1,0,2,0.9,2,2l0,0.9c0,1.1-0.9,2-2,2l-65-0.1c-1.1,0-2-0.9-2-2l0-0.9
					C1963.5,652.9,1964.3,652,1965.4,652z"/>
				<path class="st20" d="M2046.8,651.8h59.9c1.4,0,2.6,1.2,2.6,2.6v0.2c0,1.4-1.2,2.6-2.6,2.6h-59.9c-1.4,0-2.6-1.2-2.6-2.6v-0.2
					C2044.2,653,2045.4,651.8,2046.8,651.8z"/>
				<path class="st19" d="M1678.5,680.9c0,15-12.2,27.2-27.2,27.2c0,0,0,0,0,0c-15,0-27.2-12.2-27.2-27.2l0,0
					c0-15,12.2-27.2,27.2-27.2S1678.5,665.9,1678.5,680.9z M1649.9,663c1.4,0.8,3.3,0,4.2-1.6c0,0,0,0,0,0c0.9-1.6,0.4-3.6-1.1-4.3
					c-1.4-0.8-3.3,0-4.2,1.6c0,0,0,0,0,0C1648,660.3,1648.5,662.2,1649.9,663z M1637.2,693.5c-0.3,0.5-0.2,1.1,0.3,1.5
					c0.4,0.2,0.8,0.2,1.2,0l16.5-10.1c0.1-0.1,0.3-0.2,0.4-0.4l9.5-15.8c0.3-0.5,0.2-1.1-0.3-1.5c-0.4-0.2-0.8-0.2-1.2,0l-16,9.7
					c-0.1,0.1-0.3,0.2-0.4,0.3L1637.2,693.5z M1629.4,678.3c-0.4-0.1-0.8,0-1.1,0.2c-1.3,1-1.5,2.1-0.4,3.3c1.8,2.1,3.8,2.3,5.9,0.6
					c0.8-0.7,0.9-1.8,0.2-2.6c-0.2-0.3-0.5-0.5-0.9-0.6L1629.4,678.3z M1675,679.2c-2.1-1.3-4.2-1.2-6.1,0.3
					c-1.1,0.8-1.3,2.3-0.5,3.3c0.3,0.4,0.8,0.7,1.3,0.9c3.9,1.1,6.1,0.2,6.4-2.6C1676.1,680.3,1675.7,679.5,1675,679.2z"/>
				
					<ellipse transform="matrix(0.4617 -0.887 0.887 0.4617 303.4608 1820.1095)" class="st20" cx="1651.5" cy="660" rx="3.3" ry="3"/>
				<circle class="st24" cx="2319" cy="672.8" r="11.3"/>
				<path class="st20" d="M1637.2,693.5l10.1-16.3c0.1-0.1,0.2-0.2,0.4-0.3l16-9.7c0.5-0.3,1.1-0.2,1.5,0.3c0.2,0.4,0.2,0.8,0,1.2
					l-9.5,15.8c-0.1,0.2-0.2,0.3-0.4,0.4l-16.5,10.1c-0.5,0.3-1.1,0.2-1.5-0.3C1636.9,694.3,1636.9,693.9,1637.2,693.5z"/>
				<path class="st20" d="M1865.9,675.3h74.9c1.4,0,2.5,1.1,2.5,2.5v0.9c0,1.4-1.1,2.5-2.5,2.5h-74.9c-1.4,0-2.5-1.1-2.5-2.5v-0.9
					C1863.4,676.4,1864.5,675.3,1865.9,675.3z"/>
				<path class="st20" d="M1963.9,675.3h37.4c1.6,0,2.9,1.3,2.9,2.9v0.1c0,1.6-1.3,2.9-2.9,2.9h-37.4c-1.6,0-2.9-1.3-2.9-2.9v-0.1
					C1961,676.6,1962.3,675.3,1963.9,675.3z"/>
				<path class="st20" d="M2016.6,675.2l45.6,0.1c1.5,0,2.7,1.2,2.7,2.7l0,0.6c0,1.5-1.2,2.7-2.7,2.7l-45.6-0.1
					c-1.5,0-2.7-1.2-2.7-2.7l0-0.6C2014,676.4,2015.1,675.2,2016.6,675.2z"/>
				<path class="st20" d="M2091.6,675.2l54,0.1c1.6,0,2.9,1.3,2.9,2.9l0,0.1c0,1.6-1.3,2.9-2.9,2.9l-54-0.1c-1.6,0-2.9-1.3-2.9-2.9
					l0-0.1C2088.7,676.5,2090,675.2,2091.6,675.2z"/>
				<path class="st20" d="M1629.4,678.3l3.6,1c1,0.3,1.5,1.3,1.3,2.3c-0.1,0.4-0.3,0.7-0.6,0.9c-2.1,1.7-4,1.5-5.9-0.6
					c-1-1.2-0.9-2.3,0.4-3.3C1628.6,678.2,1629,678.2,1629.4,678.3z"/>
				<path class="st20" d="M1675,679.2c0.7,0.4,1,1.1,1,1.9c-0.3,2.9-2.4,3.8-6.4,2.6c-1.3-0.4-2-1.7-1.6-3c0.1-0.5,0.5-1,0.9-1.3
					C1670.9,678,1672.9,677.9,1675,679.2z"/>
				<path class="st20" d="M1866,698.8l31.1,0.1c1.4,0,2.5,1.1,2.5,2.6l0,0.9c0,1.4-1.1,2.5-2.6,2.5l-31.1-0.1
					c-1.4,0-2.5-1.1-2.5-2.6l0-0.9C1863.4,699.9,1864.6,698.8,1866,698.8z"/>
				<path class="st20" d="M1912.8,698.9h100.9c1.6,0,2.9,1.3,2.9,2.9v0.1c0,1.6-1.3,2.9-2.9,2.9h-100.9c-1.6,0-2.9-1.3-2.9-2.9v-0.1
					C1909.9,700.2,1911.2,698.9,1912.8,698.9z"/>
				<path class="st20" d="M2036.9,698.9h82.2c1.6,0,2.9,1.3,2.9,2.9v0.2c0,1.6-1.3,2.9-2.9,2.9h-82.2c-1.6,0-2.9-1.3-2.9-2.9v-0.2
					C2034,700.2,2035.3,698.9,2036.9,698.9z"/>
				<path class="st20" d="M1866.2,721.9h60.3c1.6,0,2.8,1.3,2.8,2.8v0.1c0,1.6-1.3,2.8-2.8,2.8h-60.3c-1.6,0-2.8-1.3-2.8-2.8v-0.1
					C1863.4,723.2,1864.7,721.9,1866.2,721.9z"/>
				<path class="st20" d="M1955.2,721.9h122.1c1.6,0,2.8,1.3,2.8,2.8v0.1c0,1.6-1.3,2.8-2.8,2.8h-122.1c-1.6,0-2.8-1.3-2.8-2.8v-0.1
					C1952.3,723.2,1953.6,721.9,1955.2,721.9z"/>
				<path class="st20" d="M2103.3,721.9l42.6,0.1c1.5,0,2.8,1.2,2.8,2.8l0,0.2c0,1.5-1.2,2.8-2.8,2.8l-42.6-0.1
					c-1.5,0-2.8-1.2-2.8-2.8l0-0.2C2100.5,723.1,2101.8,721.8,2103.3,721.9z"/>
				<circle class="st24" cx="2319" cy="733.7" r="11.4"/>
				<path class="st24" d="M2209,750.4c3.3,9.8,9.2,19.1,17.6,28c-4.7-0.2-8.5,0.2-11.3,1.4c-1.1,0.5-1.5,1.3-1.1,2.5l7,19.4
					c0.4,1.1,0,1.8-1,2.2l-6.5,2.3c-1.1,0.4-1.9,0-2.3-1.1l-6.9-18.8c-0.5-1.5-2.1-2.2-3.6-1.7c-0.2,0.1-0.5,0.2-0.7,0.4l-13.8,10.1
					c-1.3,0.9-1.9,0.6-1.7-1l4.8-61.3c0.1-1.3,0.6-1.5,1.5-0.6L2209,750.4z"/>
				<path class="st20" d="M1669.1,936h98.3c1,0,1.8-0.7,2.1-1.6c3.5-13.4,19.7-17.1,28.5-8.3c21,20.9-18.9,46.4-28.9,17.1
					c-0.3-0.8-0.9-1.3-1.8-1.3h-113.1c-1.1,0-1.8,0.5-2.1,1.5c-2,6.5-6,10.6-11.9,12.2c-23.5,6.5-32-29.4-8-33.8
					c9.7-1.8,16.3,2.3,19.7,12.2c0.9,2.6,3.7,4,6.3,3.1c2-0.7,3.4-2.6,3.3-4.7v-48.3c0.1-2.6-2-4.8-4.7-4.9c-2.3,0-4.3,1.5-4.8,3.7
					c-4.6,18.6-35.1,15.6-34.2-5.9c0.8-19.3,28.6-22.8,33.5-4.6c0.7,2.8,3.6,4.4,6.3,3.7c2.3-0.6,3.8-2.6,3.8-5v-47.5
					c0-2.7-2.1-4.8-4.8-4.9c-2.3,0-4.2,1.5-4.7,3.7c-4.3,18.3-36.5,15.3-34.1-7.7c2-18.7,29.2-20.5,33.7-3c0.7,2.7,3.5,4.3,6.2,3.5
					c2.2-0.6,3.7-2.5,3.7-4.8V763c0-2.9-2.3-5.2-5.2-5.2c-2.4,0-4.5,1.7-5,4.1c-3.6,16.9-29.4,14.7-33.2-1.7c-5-21.5,27-31.1,34.1-8
					c0.3,0.9,0.9,1.4,1.9,1.4h10c1.8,0,3.3,1.5,3.3,3.3l0,0v177.7C1667.6,935.5,1668.1,936,1669.1,936z M1646.8,756.3
					c0-6.3-5.1-11.4-11.4-11.4s-11.4,5.1-11.4,11.4c0,6.3,5.1,11.4,11.4,11.4c0,0,0,0,0,0C1641.7,767.8,1646.8,762.6,1646.8,756.3
					C1646.8,756.3,1646.8,756.3,1646.8,756.3z M1646.8,817.1c0-6.3-5.1-11.4-11.4-11.4c0,0,0,0,0,0c-6.3,0-11.4,5.1-11.4,11.4
					c0,0,0,0,0,0c0,6.3,5.1,11.4,11.4,11.4S1646.8,823.4,1646.8,817.1z M1646.8,878.2c0-6.3-5.1-11.4-11.4-11.4c0,0,0,0,0,0
					c-6.3,0-11.4,5.1-11.4,11.4l0,0c0,6.3,5.1,11.4,11.4,11.4c0,0,0,0,0,0C1641.7,889.6,1646.8,884.5,1646.8,878.2L1646.8,878.2z
					 M1646.8,938.9c0-6.3-5.1-11.4-11.4-11.4s-11.4,5.1-11.4,11.4c0,6.3,5.1,11.4,11.4,11.4c0,0,0,0,0,0
					C1641.6,950.4,1646.8,945.3,1646.8,938.9C1646.8,938.9,1646.8,938.9,1646.8,938.9z M1797.8,939c0-6.4-5.2-11.6-11.6-11.6
					s-11.6,5.2-11.6,11.6l0,0c0,6.4,5.2,11.6,11.6,11.6C1792.6,950.5,1797.8,945.3,1797.8,939z"/>
				<circle class="st24" cx="1635.4" cy="756.3" r="11.4"/>
				<path class="st19" d="M2209,750.4l25.1,25.4c0.7,0.7,0.6,1.2-0.3,1.5c-2.6,1-5,1.4-7.2,1C2218.1,769.6,2212.2,760.2,2209,750.4z
					"/>
				<path class="st20" d="M2309.6,823.5c-14.7-3.9-23.3-12.6-25.9-25.9c-3.1-16.1,5.9-33.4,22.2-37.3c44.7-10.9,58.6,54.1,14.6,62.9
					c-1.4,0.3-1.6,0.9-0.4,1.8c8,6.3,5.9,16.6,5.7,25.4c-0.3,9.9-12,15.5-18.4,7.7c-5.2-6.3-4.7-27.9,2.5-33.1
					C2310.8,824.3,2310.8,823.8,2309.6,823.5z M2341.5,791.4c0-14.6-11.8-26.4-26.4-26.4s-26.4,11.8-26.4,26.4s11.8,26.4,26.4,26.4
					S2341.5,805.9,2341.5,791.4z M2315.1,856.5c3.1,0,5.6-6.1,5.6-13.6v0c0-7.5-2.6-13.6-5.7-13.6l0,0c-3.1,0-5.6,6.1-5.6,13.6l0,0
					C2309.5,850.5,2312,856.5,2315.1,856.5L2315.1,856.5z"/>
				<path class="st19" d="M2341.5,791.4c0,14.6-11.8,26.4-26.4,26.4s-26.4-11.8-26.4-26.4s11.8-26.4,26.4-26.4
					S2341.5,776.8,2341.5,791.4z M2338.3,791.3c0-12.8-10.4-23.2-23.2-23.2l0,0c-12.8,0-23.2,10.4-23.2,23.2v0
					c0,12.8,10.4,23.2,23.2,23.2l0,0C2327.9,814.5,2338.3,804.1,2338.3,791.3L2338.3,791.3z"/>
				<path class="st20" d="M2338.3,791.3c0,12.8-10.4,23.2-23.2,23.2l0,0c-12.8,0-23.2-10.4-23.2-23.2l0,0
					c0-12.8,10.4-23.2,23.2-23.2l0,0C2327.9,768.1,2338.3,778.5,2338.3,791.3L2338.3,791.3z M2300,792.6c2.9-7,2.3-9.4,8.7-14.5
					c1.3-0.9,1.6-2.7,0.6-4c-0.9-1.2-2.6-1.5-3.9-0.7c-6.8,3.9-10.4,9.9-10.7,18c0,1.5,1.2,2.8,2.7,2.8
					C2298.5,794.3,2299.5,793.6,2300,792.6z"/>
				<path class="st24" d="M2308.7,778.1c-6.4,5.2-5.8,7.6-8.7,14.5c-0.6,1.4-2.2,2-3.6,1.4c-1-0.5-1.7-1.5-1.6-2.6
					c0.3-8.1,3.9-14.1,10.7-18c1.3-0.9,3.1-0.5,3.9,0.8C2310.2,775.5,2309.9,777.2,2308.7,778.1z"/>
				<circle class="st24" cx="1635.3" cy="817.1" r="11.4"/>
				<path class="st19" d="M2241.2,829.7c1,23.1,1,39.4-0.1,48.7c-0.6,4.7-3.9,10.9-9.9,18.4c-164.9,0.1-330,0.1-495.2,0
					c-25.4,0-36.6-5.7-36.6-31.9c0-11.2,0-22.4,0.1-33.6c0-1,0.5-1.6,1.5-1.6H2241.2z M2003.5,863.3c0-12.1-9.8-21.9-21.9-21.9
					s-21.9,9.8-21.9,21.9l0,0c0,12.1,9.8,21.9,21.9,21.9c0,0,0,0,0,0C1993.6,885.2,2003.5,875.4,2003.5,863.3z"/>
				<path class="st20" d="M2241.2,829.7l21,0c1,0,1.5,0.5,1.5,1.5c0.1,15.7,2.8,42.5-4.3,54c-5.3,8.5-14.7,12.4-28.3,11.5
					c6-7.5,9.4-13.7,9.9-18.4C2242.2,869.1,2242.3,852.8,2241.2,829.7z"/>
				
					<ellipse transform="matrix(1 -1.745302e-03 1.745302e-03 1 -1.4677 4.0418)" class="st19" cx="2315.1" cy="843" rx="5.6" ry="13.6"/>
				
					<ellipse transform="matrix(0.1602 -0.9871 0.9871 0.1602 811.9853 2680.9507)" class="st24" cx="1981.5" cy="863.3" rx="21.9" ry="21.9"/>
				<path class="st20" d="M2320.1,931.5l3.6,3.5c0.6,0.6,1,1.3,1.2,2.1c1.8,8.9,4.5,37.8-14.6,30c-7.9-3.2-6.3-22.3-5.8-26.7
					c0.5-3.6,2.3-6.7,5.7-9.4c0.9-0.7,0.8-1.2-0.4-1.4c-15.7-3.1-24.7-12.3-26.8-27.6c-3.7-26.8,25.4-45.1,48.4-32.2
					c26.4,14.8,18.8,53.9-10.9,60C2319.4,930.1,2319.2,930.7,2320.1,931.5z M2299.8,900.1c2.1-7.1,2.7-10.9,9.1-15.4
					c1.1-0.8,1.3-2.3,0.5-3.4c-0.3-0.5-0.8-0.8-1.4-0.9c-7.9-1.9-14.3,12.6-12.7,19.6c0.3,1.2,1.6,2,2.8,1.7
					C2298.9,901.5,2299.5,900.9,2299.8,900.1z"/>
				<circle class="st24" cx="1635.4" cy="878.2" r="11.4"/>
				<path class="st24" d="M2308.9,884.7c-6.5,4.6-7,8.3-9.1,15.4c-0.4,1.2-1.7,1.9-2.9,1.5c-0.8-0.2-1.3-0.9-1.5-1.6
					c-1.6-7,4.8-21.5,12.7-19.6c1.3,0.3,2.1,1.6,1.8,2.9C2309.7,883.9,2309.4,884.3,2308.9,884.7z"/>
				<path class="st25" d="M1936.1,908.7l90.7,0.1c0.6,0,1.1,0.4,1.2,1l9.3,46.2c0.1,0.7-0.3,1.3-1,1.4c-0.1,0-0.2,0-0.2,0
					l-109.4,0.1c-0.7,0-1.2-0.5-1.2-1.2c0-0.1,0-0.2,0-0.2l9.3-46.4C1935,909.1,1935.5,908.7,1936.1,908.7z"/>
				<path class="st19" d="M2122,932.2l18.1,5.8c0.5,0.1,0.8,0.6,0.6,1.1c-0.1,0.3-0.3,0.5-0.6,0.6l-18.1,5.8
					c-0.3,0.1-0.5,0.3-0.6,0.6l-5.8,18.1c-0.1,0.5-0.6,0.8-1.1,0.6c-0.3-0.1-0.5-0.3-0.6-0.6l-5.8-18.1c-0.1-0.3-0.3-0.5-0.6-0.6
					l-18.1-5.8c-0.5-0.1-0.8-0.6-0.6-1.1c0.1-0.3,0.3-0.5,0.6-0.6l18.1-5.8c0.3-0.1,0.5-0.3,0.6-0.6l5.8-18.1
					c0.1-0.5,0.6-0.8,1.1-0.6c0.3,0.1,0.5,0.3,0.6,0.6l5.8,18.1C2121.6,931.9,2121.8,932.1,2122,932.2z"/>
				<path class="st19" d="M2186.6,932.2l17.9,5.8c0.5,0.2,0.7,0.7,0.5,1.2c-0.1,0.2-0.3,0.4-0.5,0.5l-17.9,5.8
					c-0.3,0.1-0.5,0.3-0.6,0.6l-5.8,17.9c-0.2,0.5-0.7,0.7-1.2,0.5c-0.2-0.1-0.4-0.3-0.5-0.5l-5.8-17.9c-0.1-0.3-0.3-0.5-0.6-0.6
					l-17.9-5.8c-0.5-0.2-0.7-0.7-0.5-1.2c0.1-0.2,0.3-0.4,0.5-0.5l17.9-5.8c0.3-0.1,0.5-0.3,0.6-0.6l5.8-17.9
					c0.2-0.5,0.7-0.7,1.2-0.5c0.2,0.1,0.4,0.3,0.5,0.5l5.8,17.9C2186.1,931.9,2186.3,932.1,2186.6,932.2z"/>
				<path class="st19" d="M2252.9,932.2l17.2,5.7c0.5,0.2,0.8,0.8,0.6,1.3c-0.1,0.3-0.3,0.5-0.6,0.6l-17.2,5.7
					c-0.3,0.1-0.5,0.3-0.7,0.7l-5.7,17.2c-0.2,0.5-0.8,0.8-1.3,0.6c-0.3-0.1-0.5-0.3-0.6-0.6l-5.7-17.2c-0.1-0.3-0.3-0.5-0.7-0.7
					l-17.2-5.7c-0.5-0.2-0.8-0.8-0.6-1.3c0.1-0.3,0.3-0.5,0.6-0.6l17.2-5.7c0.3-0.1,0.5-0.3,0.7-0.7l5.7-17.2
					c0.2-0.5,0.8-0.8,1.3-0.6c0.3,0.1,0.5,0.3,0.6,0.6l5.7,17.2C2252.4,931.9,2252.6,932.1,2252.9,932.2z"/>
				<circle class="st24" cx="1635.3" cy="938.9" r="11.4"/>
				<circle class="st24" cx="1786.3" cy="939" r="11.6"/>
			</g>
			<g id="_2-2">
				<path class="st26" d="M2375.5,352.8c74.3,0,134.8-60.6,134.8-134.8s-60.6-134.8-134.8-134.8s-134.8,60.6-134.8,134.8
					S2301.3,352.8,2375.5,352.8z"/>
			</g>
			<g id="_1-2">
				<path class="st6" d="M1923.3,372.2"/>
				<path class="st6" d="M1962.5,372.2"/>
			</g>
		</g>
		<g id="laptop">
			<path class="st27" d="M1869.1,1919.6h627.7c1.5,0,2.8,1.2,2.8,2.8v42.2c0,1.5-1.2,2.8-2.8,2.8h-627.7c-1.5,0-2.8-1.2-2.8-2.8
				v-42.2C1866.3,1920.9,1867.5,1919.6,1869.1,1919.6z"/>
			<path class="st27" d="M2643.9,1245.9l32.6,8.8c1.2,0.3,1.9,1.5,1.6,2.7l-189.3,700c-0.3,1.2-1.5,1.9-2.7,1.6l-32.6-8.8
				c-1.2-0.3-1.9-1.5-1.6-2.7l189.3-700C2641.5,1246.3,2642.7,1245.6,2643.9,1245.9z"/>
		</g>
		<g id="Plant">
			<path class="st28" d="M3440.3,3039.8l-4.4-9.4c-1.4-3-138.3-300.2-44.4-679.4c1.2-4.8,6.1-7.8,11-6.6s7.8,6.1,6.6,11l0,0
				c-82.8,334.2,16.3,602.9,38.8,657.3c42.6-32.2,224.8-187.9,216.1-487.5c-0.1-5,3.8-9.2,8.8-9.3c0,0,0,0,0,0
				c5.2-0.4,9.1,3.8,9.3,8.8c5.3,181.6-58.2,310.4-112.4,386.4c-58.8,82.5-118.2,121.5-120.7,123.1L3440.3,3039.8z"/>
			<path class="st28" d="M3444.1,3035.6c-3.2,0-6.1-1.6-7.7-4.4c-9-14.8-219.9-362.7-246.8-473.9c-1.2-4.9,1.8-9.7,6.7-10.9
				s9.7,1.8,10.9,6.7c26.3,108.5,242.5,465.2,244.7,468.8c2.6,4.2,1.3,9.8-2.9,12.4C3447.5,3035.2,3445.8,3035.6,3444.1,3035.6z"/>
			<path class="st29" d="M3549.6,2917.7c0,0,134.7-145.9,211-103.2s78.6,154.9-38.1,157.1s-204.3-2.2-204.3-2.2L3549.6,2917.7z
				 M3641.6,2769.6l150.4-6.7c101,0,130.2-168.3,18-175.1s-161.6,143.6-161.6,143.6L3641.6,2769.6z M3720.1,2511.5
				c103.2-49.4,85.3-347.9-15.7-262.6c-139.9,118.1-29.2,294-29.2,294L3720.1,2511.5z M3669.6,2613.6
				c-2.2-11.2-58.4-152.6-138-126.8s16.8,184.1,127.9,165L3669.6,2613.6z M3618,2795.4c0,0-62.8-154.9-139.1-152.6
				s-124.6,127.9,12.3,154.9l114.5,28.1L3618,2795.4z M3659.5,2411.6c4.5-41.5-39.3-85.3-126.8-84.2s-165.8,196.2-162.7,197.5
				C3529.4,2594.5,3655.1,2453.1,3659.5,2411.6L3659.5,2411.6z M3476.6,2220.8c-2.2-19.1-57.2-126.8-130.2-21.3
				s43.8,175.1,43.8,175.1C3495.7,2361.1,3478.9,2239.9,3476.6,2220.8z M3384.6,2434c0,0-40.4-106.6-116.7-85.3
				s-32.6,112.3,30.3,112.3S3384.6,2434,3384.6,2434L3384.6,2434z M3317.3,2573.2c43.8-38.2,25.8-114.5-41.5-96.5
				s-52.8,141.4-52.8,141.4S3273.5,2611.3,3317.3,2573.2L3317.3,2573.2z M3202.8,2564.2c5.7-0.5,0-278.9-141.4-207.6
				C2925.6,2425.1,3104,2573.2,3202.8,2564.2L3202.8,2564.2z M3257.8,2700c0,0-133.6-153.8-203.1-94.3s-30.3,171.7,96.5,152.6
				s118.9-29.2,118.9-29.2L3257.8,2700z M3292.6,2757.2c0,0,39.3-33.7,62.9-65.1s35.9-120.1-51.6-116.7s-23.6,167.2-23.6,167.2
				L3292.6,2757.2z M3337.5,2839.1c0,0-151.5-89.8-214.4-35.9s-4.5,144.8,77.4,125.7s148.1-52.7,148.1-52.7L3337.5,2839.1z"/>
			<path class="st30" d="M3369,2979.4h152.3c70.7,0,128.1,57.3,128.1,128.1v354.3c0,70.7-57.3,128.1-128.1,128.1H3369
				c-70.7,0-128.1-57.3-128.1-128.1v-354.3C3240.9,3036.8,3298.2,2979.4,3369,2979.4z"/>
			<path class="st31" d="M3602.3,3057.7h-296.3c-3.5-0.1-6.3-3.1-6.2-6.7c0.1-3.4,2.8-6,6.2-6.2h296.3c3.5,0.1,6.3,3.1,6.2,6.7
				C3608.4,3054.9,3605.7,3057.6,3602.3,3057.7z"/>
			<path class="st31" d="M3329.6,3443.8c-3.5,0-6.4-2.9-6.4-6.4v-383.8c0-3.5,2.9-6.4,6.4-6.4c3.5,0,6.4,2.9,6.4,6.4v383.8
				C3336,3440.9,3333.2,3443.7,3329.6,3443.8C3329.6,3443.8,3329.6,3443.8,3329.6,3443.8z"/>
			<path class="st31" d="M3453,3443.8c-3.5,0-6.4-2.9-6.4-6.4c0,0,0,0,0,0v-383.8c-0.1-3.5,2.6-6.5,6.2-6.7c3.5-0.1,6.5,2.6,6.7,6.2
				c0,0.2,0,0.3,0,0.5v383.8C3459.5,3440.9,3456.6,3443.8,3453,3443.8L3453,3443.8z"/>
			<path class="st31" d="M3576.4,3443.8c-3.5,0-6.4-2.9-6.4-6.4v-383.8c0-3.5,2.9-6.4,6.4-6.4c3.5,0,6.4,2.9,6.4,6.4v383.8
				C3582.9,3440.9,3580,3443.7,3576.4,3443.8C3576.5,3443.8,3576.5,3443.8,3576.4,3443.8z"/>
		</g>
	</g>
	<path class="st32" d="M2606.4,1376.1L2065,1121.6c-64.9-18.6-131,25.5-138.6,92.6l-130.2,447.8c-22,75.7,27.2,153.6,105,166.3
		l577.2,21.1c0.8,0.1-18.8,69.6-18.6,68.8l155.9-576.6C2615.9,1340.8,2607.2,1376.3,2606.4,1376.1z"/>
	<linearGradient id="SVGID_1_" gradientUnits="userSpaceOnUse" x1="1812.4515" y1="1438.1239" x2="2477.9099" y2="1605.7241">
		<stop  offset="0.2333" style="stop-color:#000000"/>
		<stop  offset="0.3263" style="stop-color:#040404"/>
		<stop  offset="0.4193" style="stop-color:#101010"/>
		<stop  offset="0.5124" style="stop-color:#242424"/>
		<stop  offset="0.6057" style="stop-color:#404040"/>
		<stop  offset="0.699" style="stop-color:#656565"/>
		<stop  offset="0.7925" style="stop-color:#919191"/>
		<stop  offset="0.8843" style="stop-color:#C5C5C5"/>
		<stop  offset="0.9744" style="stop-color:#FFFFFF"/>
	</linearGradient>
	<path class="st33" d="M2606.4,1382L2065,1127.5c-64.9-18.6-131,25.5-138.6,92.6l-130.2,447.8c-22,75.7,27.2,153.6,105,166.3
		l577.2,21.1c0.8,0.1-18.8,69.6-18.6,68.8l155.9-576.6C2615.9,1346.7,2607.2,1382.2,2606.4,1382z"/>
	<g id="women">
		<g id="Head">
			<path class="st34" d="M988.3,1247.7c-11.4,22.1-32.3,70.1-33.3,127.4c-0.2,11.4-9.7,20.4-21.1,20.2c-1.5,0-2.9-0.2-4.3-0.6
				c-38.3-9.1-109.5-30-152.3-67.4c-8.5-7.6-9.2-20.7-1.6-29.1c0.3-0.4,0.7-0.7,1.1-1.1c24.7-24.2,72.4-78,90-146.9
				c4-15.7,23.4-21.2,34.8-9.7l83.1,83.1C991,1230,992.5,1239.8,988.3,1247.7z"/>
			<path class="st34" d="M942.2,893.9c9-1.9,18.2-3,27.5-3.4c78.6-2.6,146.3,59.5,148.7,138.5c4.8,162.5-24.5,259.3-90.8,248.5
				c-46-7.5-90.2-56.1-119.2-88.9c-40.4-45.7-80.8-105.8-81.2-169.2C826.8,953.9,881.7,906.7,942.2,893.9z"/>
			<path class="st35" d="M1127.1,1015.2c-16.9,19.3-72.1,72.6-161.7,70.6c-9.3-0.2-17.9,5.2-21.6,13.8
				c-11.8,27.2-42.3,83.4-96.6,92.8c-4.5,0.7-9.1,0-13.1-2c-13.2-6.6-41.5-26.8-53.5-83.2c-15.9-74.9,17.5-211.9,148.2-237.4
				c124.4-24.3,201.2,65.6,204,129.3C1133,1005,1131,1010.8,1127.1,1015.2z"/>
			<path class="st36" d="M1065.2,1084.1c1.5-4.6,4.6-8.5,8.6-11.2c4.1-2.9,9.1-4.5,14.1-4.5c5.3-0.1,10.4,1.7,14.4,5.2
				c3.9,3.1,6.4,7.6,7.1,12.4c-4.8-1.4-8.4-3-11.9-3.7c-3.1-0.8-6.3-1.2-9.5-1.1C1081.6,1081.1,1074.7,1082.7,1065.2,1084.1z"/>
			
				<ellipse transform="matrix(8.993737e-02 -0.9959 0.9959 8.993737e-02 -119.1943 2094.9436)" class="st37" cx="1086.7" cy="1112.7" rx="14.6" ry="11.3"/>
			<path class="st34" d="M1111.8,1116.4c0.2-2.2,2.2-3.9,4.4-3.7c1,0.1,2,0.6,2.7,1.4c9.6,11.1,26.5,32.9,22.5,43.3
				c-4.2,10.8-22,12.6-30.5,12.8c-2.2,0.1-4.1-1.7-4.2-4c0-0.2,0-0.3,0-0.5L1111.8,1116.4z"/>
			<path class="st36" d="M1083.8,1214.4c-5.5,0-12.3-1-17.7-4.9s-8.6-9.8-9.3-17.5c-0.2-2.4,1.5-4.4,3.8-4.7
				c2.3-0.2,4.4,1.5,4.7,3.8c0.5,5.2,2.4,8.9,5.7,11.3c7.7,5.5,20.7,2.5,20.9,2.5c2.3-0.6,4.6,0.8,5.1,3.1c0,0,0,0,0,0
				c0.6,2.3-0.9,4.6-3.2,5.2C1090.5,1214,1087.1,1214.4,1083.8,1214.4z"/>
			<path class="st36" d="M971.4,1259.6c-0.2,0-0.5,0-0.7-0.1c-1.8-0.3-44-8-75.7-55.6c-1.2-2-0.6-4.7,1.4-5.9
				c1.9-1.2,4.4-0.7,5.7,1.1c29.6,44.4,69.7,51.8,70.1,51.9c2.3,0.4,3.9,2.6,3.5,4.9C975.2,1258.1,973.5,1259.6,971.4,1259.6
				L971.4,1259.6z"/>
			<path class="st35" d="M1111.6,972c3.4,1.9,7.7,0.6,9.6-2.9c1-1.8,1.1-4,0.4-5.9c-18.6-47.5-77.4-139.9-247-101.4
				c-224.6,51-194.4,192.8-248.5,262.8s-149.8,130.6-188,148.2c-37.3,17.1-145.7,102.3-25.7,184.8c3.2,2.2,4,6.7,1.8,9.9
				c-0.6,0.9-1.4,1.6-2.3,2.1c-31.8,18-122.8,74.8-63,102.7c71.7,33.5,188,116.3,239-23.9s269.2-259.7,270.8-387.1
				C860.1,1046.3,1043.1,935.2,1111.6,972z"/>
			<path class="st34" d="M995.7,1092.8c0,0,3.2-89.2-47.8-86s-51,76.5-25.5,102S990.9,1180.5,995.7,1092.8z"/>
			<path class="st36" d="M959,1105.1c-1.1,0-2.2-0.4-3-1.2c-12.8-12.2-18.8-24.2-18-35.8c1-13.8,11.6-21.5,12.1-21.8
				c1.9-1.4,4.6-0.9,6,1s0.9,4.6-1,6l0,0c-0.2,0.2-7.8,5.9-8.5,15.6c-0.6,8.9,4.6,18.6,15.3,28.8c1.7,1.6,1.8,4.3,0.1,6.1
				C961.3,1104.6,960.2,1105.1,959,1105.1L959,1105.1z"/>
			<path class="st35" d="M961.9,869.4c-9.1-2.4-15.4-10.7-15.3-20.1c0.7-57.3,12.4-245.8,137.1-203.8c127.6,43-2,195.8-37.7,234.7
				c-5.1,5.6-12.9,7.9-20.3,6L961.9,869.4z"/>
			<path class="st38" d="M947.6,822.7c-0.6,10.5-0.9,19.6-1,26.7c0,2.4,0.4,4.8,1.2,7c33,15.1,77.3,22.3,97,24.9
				c0.4-0.4,0.9-0.6,1.3-1c4.4-4.8,10.3-11.4,17-19.3C1027.2,858.4,973.2,834.7,947.6,822.7z"/>
			<circle class="st39" cx="931.3" cy="1113.6" r="22.3"/>
		</g>
		<g id="Body_2">
			<g id="_1-3">
				<path class="st34" d="M1597.9,3279.1l-11.8,278.8c-1.4,33.1,24.3,61.2,57.4,62.7l388,18c16.5,0.8,30.5-11.9,31.3-28.4
					c0.2-3.9-0.4-7.8-1.7-11.5c-14.1-39.4-62.7-103.2-217.9-175.4c-12.8-5.9-21.3-18.3-22.4-32.3l-8.4-113.1
					c-1.5-20.3-18.4-36-38.7-36h-137C1615.9,3241.9,1598.8,3258.3,1597.9,3279.1z"/>
				<path class="st40" d="M1815.6,3321.8l-3.2-43.9c-1.5-20.3-18.4-36-38.7-36h-137c-20.8,0-37.9,16.4-38.8,37.2l-3.3,77.5
					L1815.6,3321.8z"/>
				<path class="st41" d="M1843.1,3423.3c-12.8-5.9-21.3-18.3-22.4-32.3l-1.2-16.5c-57,16.1-174.4,49.5-228.5,65.6l-5,117.8
					c-1.4,33.1,24.3,61.2,57.4,62.7l388,18c16.5,0.8,30.5-11.9,31.3-28.4c0.2-3.9-0.4-7.8-1.7-11.5
					C2046.9,3559.3,1998.3,3495.5,1843.1,3423.3z"/>
				<path class="st42" d="M1829.6,3412.7c-5.1-6.2-8.2-13.8-8.8-21.8l-1.2-16.5c-57,16.1-174.4,49.5-228.5,65.6l-2.3,53.8
					L1829.6,3412.7z"/>
				<path class="st42" d="M2061,3598.7c-1.1-3.1-2.4-6.3-4-9.7l-470.9-32.4v1.2c-1.4,33.1,24.3,61.2,57.4,62.7l388,18
					c16.5,0.8,30.5-12,31.2-28.4C2062.9,3606.3,2062.3,3602.4,2061,3598.7z"/>
				<path class="st43" d="M1899.7,3498.4c-1.2,0-2.2-0.6-2.8-1.6l-31.9-57.4c-0.9-1.6-0.3-3.5,1.3-4.4c1.6-0.9,3.5-0.3,4.4,1.3
					l31.9,57.4c0.9,1.5,0.3,3.5-1.2,4.4C1900.8,3498.2,1900.3,3498.4,1899.7,3498.4z"/>
				<path class="st43" d="M1952.3,3524.6c-1.2,0-2.2-0.6-2.8-1.6l-31.9-57.4c-0.9-1.6-0.3-3.5,1.3-4.4c1.6-0.9,3.5-0.3,4.4,1.3
					l31.9,57.4c0.9,1.5,0.3,3.5-1.2,4.4C1953.4,3524.5,1952.8,3524.6,1952.3,3524.6z"/>
				<path class="st43" d="M1901.2,3497.5c-1.8-0.1-3.1-1.6-3-3.4c0.1-1.6,1.4-2.9,3-3l65.6-0.6l0,0c1.8,0,3.2,1.5,3.2,3.2
					c0,1.8-1.4,3.2-3.2,3.2L1901.2,3497.5z"/>
				<path class="st43" d="M1854,3478.4c-1.8,0-3.2-1.4-3.2-3.2c0-1.5,1.1-2.9,2.6-3.2l64.4-12.6c1.7-0.4,3.4,0.8,3.8,2.5
					c0,0,0,0,0,0.1c0.3,1.7-0.8,3.4-2.5,3.8l-64.4,12.6C1854.4,3478.4,1854.2,3478.4,1854,3478.4z"/>
				<path class="st44" d="M1066.3,2047.6c2.8-0.4,5.7-0.5,8.5-0.4l727.1,19c1.1,0,2.2,0.1,3.3,0.2c23.8,2.9,271.9,44.3,202.1,487.3
					c-53.6,340-81.8,568.2-99.4,676c-6.8,41.4-43.7,70.9-85.5,68.5l-212.2-12.2c-53-3-93.5-48.5-90.5-101.5c0.1-2.3,0.3-4.6,0.6-6.8
					l72.1-556.6c2.7-20.7-11.9-39.7-32.6-42.4c-4.3-0.6-8.6-0.4-12.9,0.5c-148.3,32.1-573.8,97.4-793.1-147.6
					c-1.2-1.3-2.4-2.5-3.7-3.7c-13.5-12.2-98.8-95.1-130.3-263.6c-5.5-29.5,14-57.9,43.5-63.3c0.9-0.2,1.9-0.3,2.8-0.4
					L1066.3,2047.6z"/>
				<path class="st43" d="M1704.6,3273.8c-0.2,0-0.5,0-0.8,0c-3.5-0.4-6-3.6-5.6-7.1c0.6-4.9,57.7-494.7,89.2-850.5
					c5.8-65.9-13.4-119.7-57.1-160.1c-159.8-147.7-597-75.9-601.3-75.1c-3.5,0.6-6.8-1.8-7.4-5.3c-0.6-3.5,1.8-6.7,5.2-7.3
					c1.1-0.2,111.3-18.6,240.4-18.6h2.5c175.8,0.3,300,32.9,369.2,96.9c46.8,43.2,67.4,100.7,61.2,170.7
					c-31.5,356-88.7,846-89.2,850.9C1710.5,3271.4,1707.8,3273.8,1704.6,3273.8z"/>
			</g>
			<g id="_2-3">
				<path class="st34" d="M2113.4,3222.6l117.2,184.8c2.4,3.7,3.7,8,3.9,12.4l6.4,120.2c1.6,29.3,25.8,52.3,55.2,52.3h384.4
					c22.1,0,33.8-26,19.2-42.6c-33.5-38-97.2-95.6-207.9-147.8c-4.4-2.1-8.1-5.3-10.7-9.4c-23.3-36.9-143.6-228.5-198.5-333.9
					c-6.6-12.5-22-17.4-34.5-10.8c-2,1.1-3.9,2.4-5.6,4l-121.8,113.5C2104.8,3180.1,2101.7,3204.2,2113.4,3222.6z"/>
				<path class="st40" d="M2282.7,3058.6c-6.6-12.5-22-17.4-34.5-10.8c-2,1.1-3.9,2.4-5.6,4l-121.8,113.5c-16,14.9-19,39-7.4,57.4
					l62.6,98.7l152.5-180.1C2311.2,3111.1,2295.2,3082.6,2282.7,3058.6z"/>
				<path class="st41" d="M2699.8,3549.8c-33.5-38-97.2-95.6-207.9-147.8c-4.4-2.1-8.1-5.3-10.7-9.4c-8.9-14-31.7-50.4-59.6-95.8
					l-203.7,90.6l12.8,20.2c2.4,3.7,3.7,8,3.9,12.4l6.4,120.2c1.6,29.3,25.8,52.3,55.2,52.3h384.4
					C2702.6,3592.3,2714.4,3566.3,2699.8,3549.8z"/>
				<path class="st42" d="M2296.2,3592.3h384.4c22.1,0,33.8-26,19.2-42.6c-1.5-1.7-3.1-3.5-4.7-5.2h-453.6
					C2245.2,3571.9,2268.6,3592.3,2296.2,3592.3z"/>
				<path class="st42" d="M2421.6,3296.7l-203.7,90.6l12.8,20.2c2.4,3.7,3.7,8,3.9,12.4l0.2,4.1l211.1-87.9
					C2438.5,3324.1,2430.3,3310.8,2421.6,3296.7z"/>
				<path class="st43" d="M2542.3,3477.8c-1.2,0-2.2-0.6-2.8-1.7l-31.9-57.3c-0.9-1.6-0.3-3.5,1.2-4.4s3.5-0.3,4.4,1.2l31.9,57.3
					c0.9,1.6,0.3,3.5-1.2,4.4c0,0,0,0,0,0C2543.4,3477.6,2542.8,3477.8,2542.3,3477.8z"/>
				<path class="st43" d="M2594.9,3504.1c-1.2,0-2.2-0.6-2.8-1.7l-31.9-57.3c-0.9-1.6-0.3-3.5,1.3-4.4c1.6-0.9,3.5-0.3,4.4,1.3
					l31.9,57.3c0.9,1.5,0.3,3.5-1.2,4.4C2596,3503.9,2595.4,3504.1,2594.9,3504.1z"/>
				<path class="st43" d="M2543.7,3476.9c-1.8,0-3.2-1.5-3.2-3.2c0-1.8,1.4-3.2,3.2-3.2l65.6-0.6l0,0c1.8,0,3.2,1.5,3.2,3.2
					c0,1.8-1.4,3.2-3.2,3.2L2543.7,3476.9z"/>
				<path class="st43" d="M2496.6,3457.8c-1.8,0-3.2-1.4-3.2-3.2c0-1.5,1.1-2.9,2.6-3.2l64.4-12.6c1.7-0.3,3.4,0.8,3.8,2.5
					s-0.8,3.4-2.5,3.8l-64.4,12.6C2497,3457.8,2496.8,3457.8,2496.6,3457.8z"/>
				<path class="st45" d="M534.4,2121.4c-14.7,0.9-25.9,13.6-25,28.3c0.1,2.4,0.6,4.7,1.4,6.9c37.2,110.4,174.6,460.4,429.2,492.6
					c243.6,30.8,565.6-16.9,682-36.6c26.8-4.5,53.5,8.3,66.7,32l300.9,537.4c24.2,43.2,78.8,58.6,121.9,34.4c3.2-1.8,6.4-3.8,9.4-6
					l171.3-126.1c22.2-16.3,31.5-45,23.1-71.2c-49.8-155.6-226-677.4-390.8-809.8c-194.3-156.1-908-111.5-908-111.5L534.4,2121.4z"
					/>
				<path class="st43" d="M2179.3,3133.6c-2.7,0-5.2-1.7-6.1-4.3c-1-2.8-96.7-280-194.3-528.6c-7.2-18.3-13.6-35.2-19.5-50.9
					c-69.4-184.4-73.5-195.4-550.6-148.9c-150.2,14.7-356.2,11.4-485.6-87.3c-78.4-59.8-91.1-125.5-91.6-128.2
					c-0.5-3.5,1.9-6.8,5.4-7.3c3.3-0.5,6.5,1.7,7.2,5c0.1,0.6,12.8,64.3,87.7,121c126.2,95.5,328.3,98.4,475.7,84.1
					c486.9-47.5,492.7-32.1,563.9,157.2c5.9,15.7,12.3,32.6,19.4,50.8c97.7,249,193.5,526.4,194.4,529.2c1.2,3.3-0.6,7-4,8.1
					c0,0,0,0,0,0C2180.7,3133.5,2180,3133.6,2179.3,3133.6z"/>
				<path class="st46" d="M1061,2531.4c-299-34.8-375.4-284.5-394.9-418.1l-131.8,8.1c-14.7,0.9-25.9,13.6-25,28.3
					c0.1,2.4,0.6,4.7,1.4,6.9c37.2,110.4,174.6,460.4,429.2,492.6c239,30.2,553.4-15.1,675.1-35.5
					C1556.3,2537.4,1406.8,2571.6,1061,2531.4z"/>
			</g>
		</g>
		<g id="Body_1">
			<path class="st34" d="M1258,1673.5l67.7,66.6c7.2,7.1,18.3,8.8,27.3,4.1c56.3-29.7,263.5-128.5,464.2-94.2
				c1.2,0.2,2.4,0.3,3.6,0.3c15.1,0,133.4,4.9,195.9,167.3c0,0,23.9,58.9,1.6,66.9c-13.8,4.9-48.2-38.1-72.5-71.8
				c-15.1-20.9-26.3-38.1-26.3-38.1s30.3,33.4,12.8,46.2s-95.6,86-133.8,33.4l-43.8-49.8c-7.8-8.8-20.9-10.6-30.7-4l-317.5,213.1
				c0,0-81.2,52.6-175.2-14.3c-67-47.7-131.6-97.8-163.1-122.7c-10.2-8-11.9-22.7-3.9-32.9c0.4-0.6,0.9-1.1,1.4-1.6l158.8-168
				c8.9-9.4,23.7-9.8,33.1-0.9C1257.8,1673.3,1257.9,1673.4,1258,1673.5z"/>
			<path class="st40" d="M1270.3,1685.7l-12.3-12.1c-9.2-9.1-24-9-33.1,0.3c-0.1,0.1-0.2,0.2-0.3,0.3l-158.8,168
				c-8.9,9.4-8.5,24.2,0.9,33.1c0.5,0.5,1.1,1,1.6,1.4c24.8,19.6,70.2,54.8,121,92.2C1227.4,1924.7,1257.2,1766.3,1270.3,1685.7z"/>
			<path class="st47" d="M1913.3,1833.1c-0.5,0-1-0.1-1.5-0.3c-1.1-0.4-27.7-10.6-32.9-33.3c-0.4-2.3,1.1-4.6,3.5-5
				c2.2-0.4,4.3,0.9,4.9,3.1c4.2,18.2,27.4,27.1,27.6,27.2c2.2,0.8,3.3,3.3,2.5,5.5C1916.6,1832,1915,1833.1,1913.3,1833.1
				L1913.3,1833.1z"/>
			<path class="st47" d="M1889.4,1852.2c-0.5,0-1-0.1-1.5-0.3c-1.1-0.4-27.7-10.6-32.9-33.3c-0.5-2.3,0.9-4.6,3.2-5.1
				s4.6,0.9,5.1,3.2c4.2,18.3,27.4,27.1,27.6,27.2c2.2,0.8,3.3,3.3,2.5,5.5C1892.7,1851.1,1891.1,1852.2,1889.4,1852.2z"/>
			<path class="st47" d="M1865.5,1868.2c-0.5,0-1-0.1-1.5-0.3c-1.1-0.4-27.7-10.6-32.9-33.3c-0.6-2.3,0.8-4.6,3.1-5.2
				c2.3-0.6,4.6,0.8,5.2,3.1c0,0.1,0,0.1,0,0.2c4.2,18.3,27.4,27.1,27.6,27.2c2.2,0.8,3.3,3.3,2.5,5.5
				C1868.8,1867.1,1867.2,1868.2,1865.5,1868.2L1865.5,1868.2z"/>
			<path class="st47" d="M1325.4,1822c-1.7,0-3.2-1-3.9-2.6c-12-27.3,13.6-66.2,14.7-67.8c1.3-1.9,4-2.4,6-1.1
				c1.9,1.3,2.4,3.9,1.2,5.8c-0.2,0.4-24.1,36.6-14,59.6c0.9,2.2,0,4.7-2.2,5.6C1326.6,1821.9,1326,1822,1325.4,1822z"/>
			<path class="st48" d="M731.3,1311.1c9.6-10,24.1-13.9,37.4-9.9c45,13.5,154.6,51.4,271.5,129.4
				c108.4,72.2,195.9,145.3,237.8,181.7c15.1,13.2,17.2,35.8,4.8,51.6l-194.5,248.8c-4.7,6-4.3,14.6,1,20.2l18.2,18.9
				c8.8,5.9,14.8,15.2,16.3,25.8c3.2,22,22.7,58.3,36.1,84.8c6.6,13,1.4,29-11.6,35.6c-1.2,0.6-2.4,1.1-3.7,1.5
				c-98.6,32.6-435.3,137.7-615,112.7c-21.6-3.1-38.6-19.9-41.8-41.5C469.4,2047.8,431.2,1619.1,731.3,1311.1z"/>
			<path class="st49" d="M768.7,1301.2c-13.4-3.9-27.8-0.1-37.4,9.9c-300.1,308.1-261.9,736.7-243.4,859.6
				c3.2,21.6,20.2,38.5,41.8,41.5c33.9,4.7,73.4,4.8,115.9,1.6C433.4,1798.7,768.7,1301.2,768.7,1301.2z"/>
			<path class="st49" d="M792.6,1707.8c-1.2-3.6,0.6-7.5,4.2-8.7c2.2-0.8,4.7-0.3,6.6,1.1l315,258.3c2,1.6,3.3,3.9,3.7,6.4
				l23.6,64.6c1.8,4.8-0.7,10.1-5.5,11.9c-2.3,0.9-4.9,0.8-7.2-0.3C1067.6,2009.9,860.7,1898.5,792.6,1707.8z"/>
			<path class="st24" d="M853.1,1365.2c60,17.7,98.2,21,117.1,21.5c-63.9-35.6-131.5-64.3-201.5-85.6c-12.2-3.6-25.4-0.6-35,7.8
				C749.6,1321.4,786.8,1345.7,853.1,1365.2z"/>
			<path class="st50" d="M1046.5,1854.6c-1,0-2-0.3-2.8-1c-1.8-1.5-2-4.2-0.4-6l205.7-238.9c1.5-1.8,4.2-2.1,6-0.6
				c1.8,1.5,2.1,4.2,0.6,6c0,0-0.1,0.1-0.1,0.1l-205.7,238.9C1048.9,1854.1,1047.8,1854.6,1046.5,1854.6z"/>
			<path class="st50" d="M845.5,2140.6c-0.9,0-1.8-0.3-2.6-0.9l-33.1-25.2c-1.9-1.4-2.2-4.1-0.8-5.9s4.1-2.2,5.9-0.8L848,2133
				c1.9,1.4,2.2,4.1,0.8,5.9C848,2140,846.8,2140.6,845.5,2140.6L845.5,2140.6z M973.1,2116.9c-2.3,0-4.2-1.9-4.2-4.2
				c0-1.3,0.6-2.6,1.7-3.4l33.1-25.2c1.8-1.5,4.5-1.2,5.9,0.6s1.2,4.5-0.6,5.9c-0.1,0.1-0.1,0.1-0.2,0.2l-33.1,25.2
				C974.9,2116.6,974,2116.9,973.1,2116.9L973.1,2116.9z M568.1,2112.2c-0.9,0-1.8-0.3-2.6-0.9l-33.1-25.2c-1.9-1.4-2.3-4-1-5.9
				c1.4-1.9,4-2.3,5.9-1c0.1,0,0.1,0.1,0.2,0.2l33.1,25.2c1.9,1.4,2.2,4.1,0.8,5.9C570.7,2111.6,569.4,2112.2,568.1,2112.2
				L568.1,2112.2z M637.4,2093.3c-2.3,0-4.2-1.9-4.2-4.2c0-1.3,0.6-2.6,1.7-3.4l33.1-25.2c1.8-1.5,4.5-1.2,5.9,0.6
				c1.5,1.8,1.2,4.5-0.6,5.9c-0.1,0.1-0.1,0.1-0.2,0.2l-33.1,25.2C639.3,2093,638.4,2093.3,637.4,2093.3L637.4,2093.3z
				 M932.1,2047.6c-0.9,0-1.8-0.3-2.6-0.9l-33.1-25.2c-1.8-1.5-2-4.2-0.5-6c1.4-1.7,3.9-2,5.6-0.8l33.1,25.2
				c1.9,1.4,2.2,4.1,0.8,5.9C934.7,2047,933.4,2047.6,932.1,2047.6z M749.3,2046c-0.9,0-1.8-0.3-2.6-0.9l-33.1-25.1
				c-1.8-1.5-2.1-4.2-0.6-6c1.4-1.7,3.9-2,5.7-0.8l33.1,25.2c1.9,1.4,2.2,4.1,0.8,5.9C751.9,2045.5,750.6,2046.1,749.3,2046
				L749.3,2046z M813.9,2008.2c-2.3,0-4.2-1.9-4.2-4.2c0-1.3,0.6-2.6,1.7-3.4l33.1-25.2c1.8-1.5,4.5-1.2,5.9,0.6
				c1.5,1.8,1.2,4.5-0.6,5.9c-0.1,0.1-0.1,0.1-0.2,0.2l-33.1,25.2C815.7,2007.9,814.8,2008.2,813.9,2008.2z M561.8,1997.2
				c-0.9,0-1.8-0.3-2.6-0.9l-33.1-25.2c-1.8-1.5-2-4.2-0.5-6c1.4-1.7,3.9-2,5.6-0.8l33.1,25.2c1.9,1.4,2.2,4.1,0.8,5.9
				C564.4,1996.6,563.1,1997.2,561.8,1997.2z M640.6,1956.2c-2.3,0-4.2-1.9-4.2-4.2c0-1.3,0.6-2.6,1.7-3.4l33.1-25.2
				c1.9-1.4,4.5-1,5.9,0.9c1.3,1.8,1,4.4-0.8,5.8l-33.1,25.2C642.4,1955.9,641.5,1956.2,640.6,1956.2L640.6,1956.2z M784,1921.5
				c-0.9,0-1.8-0.3-2.6-0.9l-33.1-25.2c-1.8-1.5-2.1-4.1-0.7-6c1.4-1.8,4-2.1,5.8-0.8l33.1,25.2c1.9,1.4,2.2,4.1,0.8,5.9
				C786.5,1920.9,785.3,1921.5,784,1921.5L784,1921.5z M516.1,1916.8c-2.3,0-4.2-1.9-4.2-4.2c0-1.3,0.6-2.6,1.7-3.4l33.1-25.2
				c1.9-1.3,4.6-0.8,5.9,1.1c1.2,1.8,0.9,4.2-0.8,5.6l-33.1,25.2C517.9,1916.5,517,1916.8,516.1,1916.8z M604.4,1880.6
				c-0.9,0-1.8-0.3-2.6-0.9l-33.1-25.2c-1.8-1.5-2-4.2-0.5-6c1.4-1.7,3.9-2,5.6-0.8l33.1,25.2c1.9,1.4,2.2,4.1,0.8,5.9
				C606.9,1880,605.7,1880.6,604.4,1880.6L604.4,1880.6z M664.2,1839.6c-2.3,0-4.2-1.9-4.2-4.2c0-1.3,0.6-2.6,1.7-3.4l33.1-25.2
				c1.9-1.3,4.6-0.8,5.9,1.1c1.2,1.8,0.9,4.2-0.8,5.6l-33.1,25.2C666.1,1839.3,665.2,1839.6,664.2,1839.6L664.2,1839.6z
				 M962.1,1803.3c-0.9,0-1.8-0.3-2.6-0.9l-33.1-25.2c-1.8-1.5-2-4.2-0.5-6c1.4-1.7,3.9-2,5.6-0.8l33.1,25.2
				c1.9,1.4,2.2,4.1,0.8,5.9C964.6,1802.7,963.4,1803.3,962.1,1803.3L962.1,1803.3z M999.9,1771.8c-2.3,0-4.2-1.9-4.2-4.2
				c0-1.3,0.6-2.6,1.7-3.4l33.1-25.2c1.9-1.3,4.6-0.8,5.9,1.1c1.2,1.8,0.9,4.2-0.8,5.6l-33.1,25.2
				C1001.7,1771.5,1000.8,1771.8,999.9,1771.8L999.9,1771.8z M743,1726.1c-0.9,0-1.8-0.3-2.6-0.9l-33.1-25.2c-1.8-1.5-2-4.2-0.5-6
				c1.4-1.7,3.9-2,5.6-0.8l33.1,25.2c1.9,1.4,2.2,4.1,0.8,5.9C745.6,1725.5,744.3,1726.1,743,1726.1z M594.9,1705.7
				c-0.9,0-1.8-0.3-2.6-0.9l-33.1-25.2c-1.8-1.5-2-4.2-0.5-6c1.4-1.7,3.9-2,5.6-0.8l33.1,25.2c1.9,1.4,2.2,4.1,0.8,5.9
				C597.5,1705,596.2,1705.6,594.9,1705.7L594.9,1705.7z M1061.3,1691.5c-0.9,0-1.8-0.3-2.6-0.9l-33.1-25.2
				c-1.9-1.4-2.2-4.1-0.8-5.9c1.4-1.9,4.1-2.2,5.9-0.8l33.1,25.2c1.9,1.4,2.2,4.1,0.8,5.9
				C1063.9,1690.8,1062.7,1691.5,1061.3,1691.5z M601.2,1680.5c-2.3,0-4.2-1.9-4.2-4.2c0-1.3,0.6-2.6,1.7-3.4l33.1-25.2
				c1.9-1.4,4.5-1.1,5.9,0.8c1.4,1.9,1.1,4.5-0.8,5.9l0,0l-33.1,25.2C603,1680.2,602.1,1680.4,601.2,1680.5L601.2,1680.5z
				 M836,1677.3c-2.3,0-4.2-1.9-4.2-4.2c0-1.3,0.6-2.6,1.7-3.4l33.1-25.2c1.8-1.5,4.5-1.2,5.9,0.6c1.5,1.8,1.2,4.5-0.6,5.9
				c-0.1,0.1-0.1,0.1-0.2,0.2l-33.1,25.2C837.8,1677,836.9,1677.3,836,1677.3L836,1677.3z M1114.9,1675.7c-2.3,0-4.2-1.9-4.2-4.2
				c0-1.3,0.6-2.6,1.7-3.4l33.1-25.2c1.9-1.3,4.6-0.8,5.9,1.1c1.2,1.8,0.9,4.2-0.8,5.6l-33.1,25.2
				C1116.7,1675.4,1115.8,1675.7,1114.9,1675.7L1114.9,1675.7z M894.3,1620.6c-0.9,0-1.8-0.3-2.6-0.9l-33.1-25.2
				c-1.8-1.5-2-4.2-0.5-6c1.4-1.7,3.9-2,5.6-0.8l33.1,25.3c1.9,1.4,2.2,4.1,0.8,5.9C896.9,1620,895.7,1620.6,894.3,1620.6
				L894.3,1620.6z M1190.6,1615.8c-0.9,0-1.8-0.3-2.6-0.9l-33.1-25.2c-1.8-1.5-2-4.2-0.5-6c1.4-1.7,3.9-2,5.6-0.8l33.1,25.2
				c1.9,1.4,2.2,4.1,0.8,5.9C1193.1,1615.2,1191.9,1615.8,1190.6,1615.8z M697.3,1585.9c-2.3,0-4.2-1.9-4.2-4.3
				c0-1.3,0.6-2.6,1.7-3.4l33.1-25.2c1.9-1.3,4.6-0.8,5.9,1.1c1.2,1.8,0.9,4.2-0.8,5.6l-33.1,25.2
				C699.2,1585.6,698.3,1585.9,697.3,1585.9L697.3,1585.9z M1044,1584.3c-2.3,0-4.2-1.9-4.2-4.2c0-1.3,0.6-2.6,1.7-3.4l33.1-25.2
				c1.9-1.3,4.6-0.8,5.9,1.1c1.2,1.8,0.9,4.2-0.8,5.6l-33.1,25.2C1045.8,1584,1044.9,1584.3,1044,1584.3L1044,1584.3z M651.6,1567
				c-0.9,0-1.8-0.3-2.6-0.9l-33.1-25.2c-1.8-1.5-2-4.2-0.5-6c1.4-1.7,3.9-2,5.6-0.8l33.1,25.2c1.9,1.4,2.2,4.1,0.8,5.9
				C654.2,1566.4,652.9,1567,651.6,1567z M884.9,1537c-2.3,0-4.2-1.9-4.2-4.2c0-1.3,0.6-2.6,1.7-3.4l33.1-25.2
				c1.9-1.3,4.6-0.8,5.9,1.1c1.2,1.8,0.9,4.2-0.8,5.6l-33.1,25.2C886.7,1536.7,885.8,1537,884.9,1537z M1021.9,1505.5
				c-0.9,0-1.8-0.3-2.6-0.9l-33.1-25.2c-1.8-1.5-2-4.2-0.5-6c1.4-1.7,3.9-2,5.6-0.8l33.1,25.2c1.9,1.4,2.2,4.1,0.8,5.9c0,0,0,0,0,0
				C1024.5,1504.9,1023.2,1505.5,1021.9,1505.5z M807.6,1477.2c-0.9,0-1.8-0.3-2.6-0.9l-33.1-25.2c-1.8-1.5-2-4.2-0.5-6
				c1.4-1.7,3.9-2,5.6-0.8l33.1,25.2c1.9,1.4,2.2,4.1,0.8,5.9C810.2,1476.5,808.9,1477.2,807.6,1477.2L807.6,1477.2z M662.6,1461.4
				c-2.3,0-4.2-1.9-4.2-4.2c0-1.3,0.6-2.6,1.7-3.4l33.1-25.2c1.9-1.3,4.6-0.8,5.9,1.1c1.2,1.8,0.9,4.2-0.8,5.6l-33.1,25.2
				C664.4,1461.1,663.6,1461.4,662.6,1461.4L662.6,1461.4z M842.2,1420.4c-2.3,0-4.2-1.9-4.2-4.2c0-1.3,0.6-2.6,1.7-3.4l33.1-25.2
				c1.9-1.4,4.5-1.1,5.9,0.8c1.4,1.9,1.1,4.5-0.8,5.9l-33,25.2C844.2,1420.1,843.2,1420.4,842.2,1420.4L842.2,1420.4z"/>
		</g>
	</g>
	<g id="Chair">
		<path class="st51" d="M566.2,2689.7l37.8,4.2c1.4,0.2,2.4,1.4,2.2,2.8l-97.7,888.1c-0.2,1.4-1.4,2.4-2.8,2.2l-37.8-4.2
			c-1.4-0.2-2.4-1.4-2.2-2.8l97.7-888.1C563.6,2690.5,564.9,2689.5,566.2,2689.7z"/>
		<path class="st51" d="M431.3,3555.7h74.2c8.5,0,15.5,6.9,15.5,15.5v7.3c0,8.5-6.9,15.5-15.5,15.5h-74.2c-8.5,0-15.5-6.9-15.5-15.5
			v-7.3C415.8,3562.6,422.7,3555.7,431.3,3555.7z"/>
		<path class="st51" d="M674.4,2711.7l39.8,0.2c1.4,0,2.5,1.1,2.5,2.5l-5.1,949.2c0,1.4-1.1,2.5-2.5,2.5l-39.8-0.2
			c-1.4,0-2.5-1.1-2.5-2.5l5.1-949.2C671.9,2712.8,673,2711.7,674.4,2711.7z"/>
		<path class="st1" d="M705.5,3674l-69.6,7.4c-10.9,1.1-20.6-6.9-21.7-17.8c0-0.1,0-0.1,0-0.2v-0.3c-1.2-11,6.6-20.9,17.6-22.1
			l69.6-7.4c10.9-1.1,20.7,6.9,21.7,17.9c0,0,0,0.1,0,0.1v0.3C724.4,3662.8,716.5,3672.7,705.5,3674z"/>
		<path class="st51" d="M1320,3612.9l-39.6,4.2c-1.4,0.1-2.6-0.9-2.8-2.2l-99.1-944c-0.1-1.4,0.9-2.6,2.2-2.8l39.6-4.2
			c1.4-0.1,2.6,0.9,2.8,2.2l99.1,944C1322.4,3611.6,1321.4,3612.8,1320,3612.9z"/>
		<path class="st1" d="M1284.3,3624.6l70,0.5c11,0,19.9-9,19.8-19.9c0,0,0,0,0-0.1v-0.3c0.1-11-8.7-20.1-19.7-20.3l-70-0.5
			c-11,0-19.9,8.9-19.8,19.9c0,0,0,0.1,0,0.1v0.3C1264.4,3615.4,1273.2,3624.4,1284.3,3624.6z"/>
		<path class="st51" d="M1487.4,3688.6l1.9-0.3c12.6-1.8,21.2-13,19.3-25l-148.2-918.9c-1.9-12-13.7-20.2-26.3-18.4l-1.9,0.3
			c-12.6,1.9-21.2,13-19.3,25l148.2,918.9C1463.1,3682.2,1474.8,3690.4,1487.4,3688.6z"/>
		<path class="st51" d="M1472.1,3698.9l75-2.9c11.7-0.5,20.8-10,20.2-21.4v-0.3c-0.5-11.4-10.4-20.2-22.2-19.7l-75,2.9
			c-11.7,0.5-20.8,10-20.2,21.4v0.3C1450.5,3690.5,1460.4,3699.3,1472.1,3698.9z"/>
		<path class="st52" d="M130.6,1827.2c-2.7-8.4-73.9-175.5-121.6-236.2c-13.3-17-12.1-42.1,4.8-55.6C34.6,1518.7,72,1513,137,1566
			c121.1,98.8,291.8,343.4,373.7,590.7c79.7,240.7,549.6,476.4,909.6,424.3c18.7-2.8,36.9,7.9,43.5,25.6
			c14.7,40.3,11.7,129.5-81,138.3c-133.8,12.7-665.9,3.2-665.9,3.2s-316.6,0.9-439.7-245.3C207.1,2362.5,283.6,2308.3,130.6,1827.2z
			"/>
		<path class="st51" d="M537.8,3111.5h149.9c1.2,0,2.2,1,2.2,2.2v33.4c0,1.2-1,2.2-2.2,2.2H537.8c-1.2,0-2.2-1-2.2-2.2v-33.4
			C535.6,3112.5,536.5,3111.5,537.8,3111.5z"/>
		<path class="st51" d="M1253.7,3111.2h139c1.2,0,2.2,1,2.2,2.2v33.4c0,1.2-1,2.2-2.2,2.2h-139c-1.2,0-2.2-1-2.2-2.2v-33.4
			C1251.5,3112.2,1252.5,3111.2,1253.7,3111.2z"/>
	</g>
	<g id="_x31_">
		<path class="st53" d="M2403.9,324.1h-9.8l-2.9,5.2c-2.3,4.1-6.5,6.6-11.1,6.6h0c-4.6,0-8.8-2.5-11.1-6.6l-2.9-5.2h-9.8v-7h47.6
			L2403.9,324.1L2403.9,324.1z"/>
		<path class="st24" d="M2403.9,311.9h-47.6v-7.4h47.6V311.9z M2403.9,291.6h-47.6v7.4h47.6V291.6z M2469.5,235l-20.8-5.7l1.6-6
			l20.8,5.7L2469.5,235z M2292.1,235l-1.6-6l20.8-5.7l1.6,6L2292.1,235z M2450.3,191.8l-1.6-6l20.8-5.7l1.6,6L2450.3,191.8z
			 M2311.3,191.8l-20.8-5.7l1.6-6l20.8,5.7L2311.3,191.8z M2433.3,158.5l-4.3-4.4l15.2-15.5l4.3,4.4L2433.3,158.5z M2328.4,158.5
			l-15.2-15.5l4.3-4.4l15.2,15.5L2328.4,158.5z M2402.2,138.3l-5.8-1.6l5.6-21.2l5.8,1.6L2402.2,138.3z M2359.5,138.3l-5.6-21.2
			l5.8-1.6l5.6,21.2L2359.5,138.3z"/>
		<path class="st54" d="M2373.7,226h12.8v60.6h-12.8V226z M2380.1,148.3c-31.4-0.9-57.2,25.7-57.2,58.7c0,17,6.8,32.2,17.7,43
			c9.6,9.4,15.7,22.8,15.7,36.6h13.3V226h-9.7c-7.6,0-13.7-6.3-13.7-14c0-7.7,6.1-14,13.7-14c7.6,0,13.7,6.3,13.7,14v9.9h12.8V212
			c0-7.7,6.1-14,13.7-14c7.6,0,13.7,6.3,13.7,14c0,7.7-6.1,14-13.7,14h-9.7v60.6h13.3c0-13.8,6.1-27.2,15.7-36.6
			c10.9-10.7,17.7-26,17.7-43C2437.3,174,2411.5,147.4,2380.1,148.3z M2360,202.1c-5.3,0-9.7,4.4-9.7,9.9c0,5.4,4.3,9.9,9.7,9.9h9.7
			V212C2369.7,206.6,2365.3,202.1,2360,202.1z M2400.2,221.9h-9.7V212c0-5.4,4.3-9.9,9.7-9.9c5.3,0,9.7,4.4,9.7,9.9
			C2409.9,217.4,2405.5,221.9,2400.2,221.9z"/>
	</g>
</g>
<g class="st55">
</g>
</svg>
