<?xml version="1.0" encoding="UTF-8" standalone="no"?>
<!DOCTYPE svg PUBLIC "-//W3C//DTD SVG 1.1//EN" "http://www.w3.org/Graphics/SVG/1.1/DTD/svg11.dtd">
<svg xmlns="http://www.w3.org/2000/svg" version="1.1" viewBox="0.00 0.00 500.00 500.00">
<g stroke-width="2.00" fill="none" stroke-linecap="butt">
<path stroke="#f0a1eb" vector-effect="non-scaling-stroke" d="
  M 246.43 296.09
  Q 246.52 354.33 246.42 410.20
  C 246.41 417.08 243.88 424.23 237.83 427.76
  Q 230.67 431.93 222.91 431.02
  Q 222.64 430.99 222.65 431.26
  L 222.70 433.48
  A 0.27 0.27 0.0 0 0 222.97 433.75
  L 437.50 433.75
  Q 438.00 433.75 438.00 433.25
  L 437.97 376.23
  Q 437.97 375.74 437.48 375.74
  L 434.88 375.75
  Q 434.08 375.75 434.07 376.55
  C 433.87 395.28 429.76 419.56 410.20 426.19
  Q 406.14 427.56 401.51 427.55
  Q 353.76 427.41 308.93 427.55
  Q 308.26 427.55 308.27 426.88
  Q 308.54 313.30 308.64 196.51
  C 308.65 183.47 316.08 175.25 329.98 175.46
  A 0.71 0.71 0.0 0 0 330.70 174.79
  Q 330.80 173.28 330.20 172.06
  Q 330.04 171.75 329.70 171.75
  L 225.47 171.75
  Q 224.97 171.75 224.65 172.15
  Q 223.97 173.00 222.92 173.20
  Q 222.44 173.29 222.52 173.77
  L 222.77 175.26
  Q 222.82 175.59 223.16 175.56
  Q 232.11 174.90 238.93 179.72
  C 244.43 183.61 246.31 190.62 246.34 197.25
  Q 246.54 243.86 246.42 286.97
  A 0.80 0.77 76.1 0 1 246.02 287.66
  Q 236.60 293.02 226.91 296.17
  C 221.08 298.07 214.62 298.79 208.53 298.93
  C 164.61 299.93 143.16 257.35 138.08 219.76
  Q 134.09 190.23 135.51 154.35
  Q 136.51 129.04 141.97 105.98
  Q 146.38 87.36 155.56 73.66
  Q 167.44 55.94 188.81 51.21
  Q 200.60 48.61 211.66 49.93
  C 233.57 52.55 256.70 62.65 270.84 79.83
  Q 281.48 92.76 284.77 111.60
  Q 284.79 111.71 284.89 111.71
  L 287.99 111.77
  Q 288.26 111.78 288.26 111.51
  L 288.26 48.00
  Q 288.26 47.75 288.00 47.75
  L 285.51 47.75
  Q 285.17 47.75 285.15 48.09
  Q 284.74 56.38 283.93 62.82
  C 282.77 72.06 276.36 73.59 269.06 68.92
  Q 264.30 65.87 259.25 62.70
  Q 242.20 51.97 223.01 46.13
  C 203.94 40.32 181.39 39.02 161.29 43.89
  C 136.47 49.91 114.06 61.98 98.38 81.88
  C 73.63 113.33 68.14 156.26 71.98 195.21
  C 75.27 228.61 88.63 262.47 116.68 282.38
  Q 131.87 293.16 149.86 298.51
  Q 173.07 305.41 196.40 306.23
  C 213.80 306.84 230.46 303.56 245.80 295.70
  Q 246.43 295.38 246.43 296.09"
/>
<path stroke="#f0a1eb" vector-effect="non-scaling-stroke" d="
  M 115.44 324.90
  A 2.09 2.09 0.0 0 0 113.35 322.81
  A 2.09 2.09 0.0 0 0 111.26 324.90
  A 2.09 2.09 0.0 0 0 113.35 326.99
  A 2.09 2.09 0.0 0 0 115.44 324.90"
/>
<path stroke="#f0a1eb" vector-effect="non-scaling-stroke" d="
  M 104.00 335.22
  Q 104.00 334.07 105.02 334.59
  Q 105.62 334.90 105.97 334.42
  Q 106.54 333.65 105.58 333.65
  L 97.87 333.61
  Q 97.61 333.61 97.60 333.87
  L 97.60 334.14
  A 0.48 0.48 0.0 0 0 98.11 334.64
  L 99.50 334.57
  A 0.79 0.79 0.0 0 1 100.33 335.37
  L 100.33 339.41
  A 1.22 1.21 -12.7 0 1 99.63 340.51
  Q 95.20 342.58 92.72 339.43
  C 90.90 337.11 91.10 332.64 91.50 329.81
  C 92.17 324.96 96.76 322.66 100.58 326.06
  C 101.65 327.00 101.90 328.57 102.49 329.85
  Q 102.58 330.05 102.78 330.15
  Q 102.92 330.22 103.06 330.18
  Q 103.50 330.07 103.48 329.61
  L 103.28 324.47
  Q 103.25 323.67 102.51 323.96
  C 101.43 324.38 100.52 324.36 99.42 324.04
  Q 92.98 322.21 89.05 326.64
  C 85.99 330.09 86.30 336.91 89.93 340.01
  Q 94.17 343.63 100.08 341.52
  Q 100.60 341.33 101.14 341.44
  L 103.42 341.89
  Q 104.01 342.01 104.01 341.40
  L 104.00 335.22"
/>
<path stroke="#f0a1eb" vector-effect="non-scaling-stroke" d="
  M 134.78 335.42
  A 6.93 6.93 0.0 0 0 127.85 328.49
  A 6.93 6.93 0.0 0 0 120.92 335.42
  A 6.93 6.93 0.0 0 0 127.85 342.35
  A 6.93 6.93 0.0 0 0 134.78 335.42"
/>
<path stroke="#f0a1eb" vector-effect="non-scaling-stroke" d="
  M 166.43 340.43
  C 166.32 337.33 167.56 330.45 163.67 329.06
  Q 159.75 327.66 156.35 329.89
  A 1.42 1.41 66.9 0 0 155.75 331.40
  Q 156.15 333.06 157.66 332.73
  A 1.43 1.40 -84.2 0 0 158.68 331.88
  L 159.30 330.42
  A 1.68 1.68 0.0 0 1 162.25 330.15
  Q 163.24 331.67 162.94 333.99
  Q 162.87 334.54 162.31 334.53
  Q 159.71 334.51 157.22 335.52
  C 154.15 336.76 154.20 341.39 157.55 342.15
  Q 160.89 342.91 162.79 340.36
  Q 163.13 339.90 163.38 340.41
  Q 164.86 343.51 167.86 341.75
  Q 169.25 340.93 168.79 339.56
  Q 168.40 338.42 168.19 339.60
  Q 168.01 340.60 167.24 340.94
  A 0.58 0.57 77.0 0 1 166.43 340.43"
/>
<path stroke="#f0a1eb" vector-effect="non-scaling-stroke" d="
  M 177.14 330.27
  L 177.12 329.61
  A 0.63 0.63 0.0 0 0 176.48 328.99
  L 172.36 329.06
  Q 171.44 329.07 172.07 329.74
  Q 172.43 330.11 172.94 329.99
  Q 173.89 329.78 173.88 330.75
  L 173.80 340.02
  Q 173.79 340.64 173.20 340.80
  Q 172.65 340.95 172.21 341.30
  Q 171.33 342.01 172.46 342.00
  L 178.44 341.98
  Q 179.40 341.98 178.69 341.34
  Q 178.31 341.00 177.81 341.02
  Q 177.26 341.04 177.25 340.49
  Q 177.18 336.68 177.40 333.28
  Q 177.54 331.05 179.74 330.27
  Q 180.06 330.15 180.41 330.21
  Q 182.45 330.58 182.46 332.65
  L 182.49 340.00
  Q 182.49 340.67 181.87 340.91
  Q 181.38 341.09 180.99 341.41
  Q 180.23 342.02 181.20 342.01
  L 187.61 341.96
  Q 187.72 341.96 187.71 341.85
  L 187.70 341.57
  Q 187.68 341.29 187.41 341.25
  L 186.32 341.06
  Q 185.79 340.97 185.80 340.43
  C 185.85 337.81 186.53 331.95 184.73 329.94
  C 182.82 327.80 179.55 328.27 177.87 330.50
  Q 177.16 331.45 177.14 330.27"
/>
<path stroke="#f0a1eb" vector-effect="non-scaling-stroke" d="
  M 196.49 340.37
  C 196.48 337.92 195.48 329.92 199.75 330.23
  A 2.08 2.08 0.0 0 1 201.69 332.29
  L 201.75 340.00
  Q 201.76 340.63 201.15 340.84
  Q 200.68 341.00 200.29 341.34
  Q 199.56 342.00 200.55 342.00
  L 206.65 341.99
  Q 207.07 341.98 206.92 341.60
  L 206.78 341.25
  Q 206.75 341.15 206.65 341.15
  Q 206.03 341.14 205.51 340.99
  Q 204.98 340.83 205.03 340.28
  C 205.36 336.01 206.47 327.06 199.35 328.87
  Q 197.97 329.22 196.96 330.59
  Q 196.43 331.30 196.34 330.42
  Q 196.30 330.05 196.35 329.69
  Q 196.43 328.98 195.72 328.99
  L 191.37 329.05
  Q 191.19 329.05 191.20 329.23
  L 191.23 329.58
  A 0.30 0.30 0.0 0 0 191.52 329.86
  L 192.49 329.89
  A 0.74 0.73 2.3 0 1 193.20 330.65
  Q 193.04 334.98 193.17 339.31
  Q 193.21 340.99 191.53 341.16
  Q 191.21 341.19 191.19 341.54
  Q 191.16 342.00 191.62 341.99
  L 197.69 341.99
  Q 198.51 341.99 197.95 341.39
  Q 197.62 341.05 197.14 341.03
  Q 196.49 341.01 196.49 340.37"
/>
<path stroke="#f0a1eb" vector-effect="non-scaling-stroke" d="
  M 218.87 340.50
  C 220.34 343.25 224.16 342.90 224.46 339.73
  Q 224.53 339.08 223.92 339.32
  Q 223.14 339.63 223.15 340.60
  Q 223.17 341.22 222.56 341.13
  L 222.23 341.08
  Q 221.86 341.03 221.86 340.66
  Q 221.83 336.75 221.76 332.77
  Q 221.72 330.45 219.85 329.44
  Q 216.14 327.42 211.90 329.78
  A 1.44 1.44 0.0 0 0 211.25 331.54
  C 211.77 332.97 213.49 333.30 214.20 331.92
  Q 214.53 331.28 214.71 330.58
  Q 214.84 330.10 215.25 329.82
  C 216.42 329.03 218.06 329.69 218.26 331.11
  Q 218.46 332.50 218.48 333.96
  A 0.55 0.55 0.0 0 1 217.93 334.52
  C 214.93 334.50 209.87 335.35 210.55 339.54
  C 211.15 343.25 216.31 342.94 218.14 340.45
  Q 218.54 339.89 218.87 340.50"
/>
<path stroke="#f0a1eb" vector-effect="non-scaling-stroke" d="
  M 115.17 340.46
  L 115.22 329.48
  Q 115.22 328.99 114.73 328.99
  L 110.00 329.05
  Q 109.80 329.05 109.81 329.26
  L 109.82 329.57
  A 0.36 0.35 -88.2 0 0 110.14 329.92
  L 111.18 330.01
  Q 111.79 330.06 111.78 330.68
  L 111.72 340.01
  A 0.88 0.88 0.0 0 1 111.05 340.85
  Q 110.44 340.99 109.99 341.38
  Q 109.26 342.00 110.21 342.00
  L 116.50 341.99
  Q 117.45 341.98 116.78 341.30
  Q 116.48 340.99 116.07 341.12
  A 0.70 0.69 -8.4 0 1 115.17 340.46"
/>
<path stroke="#f0a1eb" vector-effect="non-scaling-stroke" d="
  M 145.51 338.23
  L 142.76 330.69
  Q 142.51 330.00 143.25 329.97
  Q 143.72 329.95 144.15 329.71
  Q 145.03 329.23 144.03 329.14
  Q 141.21 328.89 138.16 329.07
  Q 137.01 329.14 138.03 329.67
  L 138.73 330.02
  Q 139.19 330.26 139.37 330.75
  L 142.71 339.75
  Q 144.73 345.21 146.79 339.76
  L 150.20 330.74
  A 1.12 1.10 3.8 0 1 151.01 330.04
  Q 151.45 329.95 151.73 329.62
  Q 152.28 328.98 151.43 328.99
  L 147.37 329.06
  A 0.31 0.31 0.0 0 0 147.09 329.48
  L 147.20 329.76
  A 0.32 0.31 -11.4 0 0 147.51 329.96
  L 148.55 329.93
  Q 149.42 329.91 149.11 330.72
  L 146.25 338.24
  Q 145.87 339.23 145.51 338.23"
/>
<path stroke="#f0a1eb" vector-effect="non-scaling-stroke" d="
  M 168.20 351.89
  A 2.09 2.09 0.0 0 0 166.11 349.80
  A 2.09 2.09 0.0 0 0 164.02 351.89
  A 2.09 2.09 0.0 0 0 166.11 353.98
  A 2.09 2.09 0.0 0 0 168.20 351.89"
/>
<path stroke="#f0a1eb" vector-effect="non-scaling-stroke" d="
  M 115.99 366.79
  L 115.97 352.14
  Q 115.96 351.75 116.35 351.74
  L 118.44 351.66
  Q 118.54 351.66 118.56 351.56
  L 118.61 351.22
  A 0.40 0.40 0.0 0 0 118.22 350.76
  L 109.83 350.76
  A 0.30 0.30 0.0 0 0 109.57 351.20
  L 109.79 351.60
  A 0.15 0.13 75.1 0 0 109.91 351.68
  L 111.48 351.72
  Q 112.21 351.75 112.21 352.48
  L 112.21 367.35
  Q 112.21 367.92 111.65 368.01
  L 109.99 368.29
  Q 109.71 368.34 109.78 368.62
  L 109.86 368.87
  Q 109.89 368.97 109.99 368.97
  L 123.55 369.00
  Q 124.21 369.00 124.23 368.34
  Q 124.33 365.42 124.20 362.79
  Q 124.14 361.71 123.61 362.66
  Q 122.87 363.98 122.53 365.57
  Q 122.01 367.97 119.55 367.98
  Q 118.57 367.98 117.60 368.15
  Q 115.99 368.42 115.99 366.79"
/>
<path stroke="#f0a1eb" vector-effect="non-scaling-stroke" d="
  M 159.09 358.19
  C 156.99 354.50 151.16 354.95 148.61 357.84
  C 146.48 360.25 146.40 364.97 148.60 367.21
  Q 151.82 370.48 156.81 368.73
  Q 158.34 368.19 158.91 366.80
  Q 159.77 364.68 158.25 366.39
  C 155.49 369.47 151.36 369.02 150.82 364.43
  Q 150.43 361.15 151.30 358.32
  C 152.04 355.91 155.66 355.55 155.68 358.58
  A 1.86 1.86 0.0 0 0 157.49 360.43
  Q 158.78 360.46 159.19 359.23
  Q 159.38 358.69 159.09 358.19"
/>
<path stroke="#f0a1eb" vector-effect="non-scaling-stroke" d="
  M 181.91 367.55
  C 183.18 370.33 186.85 369.89 187.49 366.75
  Q 187.62 366.11 186.98 366.27
  L 186.60 366.37
  A 0.34 0.33 80.7 0 0 186.36 366.72
  Q 186.44 367.83 185.56 368.09
  A 0.58 0.58 0.0 0 1 184.82 367.52
  Q 184.91 363.20 184.71 359.31
  C 184.43 353.92 173.51 354.89 174.34 358.65
  A 1.46 1.46 0.0 0 0 176.81 359.35
  Q 177.44 358.70 177.68 357.75
  A 1.74 1.73 35.9 0 1 180.83 357.25
  Q 181.71 358.66 181.41 361.03
  Q 181.35 361.54 180.83 361.53
  Q 177.90 361.50 175.39 362.72
  C 173.04 363.85 172.70 367.42 175.00 368.66
  Q 178.53 370.56 181.16 367.44
  Q 181.62 366.90 181.91 367.55"
/>
<path stroke="#f0a1eb" vector-effect="non-scaling-stroke" d="
  M 195.64 357.06
  Q 195.83 356.04 194.81 356.00
  Q 192.76 355.93 190.51 356.19
  Q 190.26 356.21 190.28 356.49
  Q 190.30 356.75 190.56 356.80
  L 191.73 356.99
  Q 192.35 357.10 192.35 357.73
  L 192.30 367.03
  Q 192.30 367.73 191.63 367.93
  Q 191.08 368.09 190.59 368.37
  Q 189.83 368.80 190.70 368.89
  Q 193.67 369.19 196.97 368.93
  Q 197.76 368.87 197.11 368.41
  Q 196.76 368.18 196.34 368.09
  Q 195.74 367.98 195.74 367.37
  C 195.74 364.96 194.71 357.36 198.77 357.21
  A 2.10 2.10 0.0 0 1 200.95 359.29
  L 201.02 366.99
  Q 201.03 367.64 200.43 367.90
  L 199.37 368.36
  A 0.33 0.33 0.0 0 0 199.50 369.00
  L 205.96 368.98
  A 0.28 0.27 -85.0 0 0 206.23 368.75
  Q 206.27 368.55 206.15 368.41
  Q 206.01 368.23 205.79 368.18
  Q 205.31 368.07 204.87 367.99
  Q 204.31 367.89 204.33 367.33
  Q 204.46 363.75 204.35 360.29
  C 204.20 355.56 199.31 353.83 196.42 357.42
  Q 195.33 358.78 195.64 357.06"
/>
<path stroke="#f0a1eb" vector-effect="non-scaling-stroke" d="
  M 223.78 362.42
  A 6.93 6.93 0.0 0 0 216.85 355.49
  A 6.93 6.93 0.0 0 0 209.92 362.42
  A 6.93 6.93 0.0 0 0 216.85 369.35
  A 6.93 6.93 0.0 0 0 223.78 362.42"
/>
<path stroke="#f0a1eb" vector-effect="non-scaling-stroke" d="
  M 137.64 367.23
  Q 138.08 367.72 138.00 368.41
  Q 137.94 369.01 138.54 369.00
  L 142.69 368.98
  Q 143.61 368.97 142.88 368.40
  Q 142.43 368.04 141.83 368.03
  A 0.57 0.57 0.0 0 1 141.26 367.46
  L 141.27 356.50
  A 0.51 0.51 0.0 0 0 140.75 355.99
  L 136.31 356.07
  Q 136.07 356.08 136.07 356.31
  L 136.07 356.58
  Q 136.07 356.91 136.40 356.94
  L 137.36 357.02
  Q 137.89 357.06 137.88 357.60
  L 137.75 364.25
  Q 137.70 366.59 135.44 367.62
  Q 134.98 367.83 134.47 367.70
  Q 132.59 367.22 132.58 365.27
  L 132.55 356.64
  Q 132.55 355.98 131.89 355.99
  L 127.52 356.06
  Q 127.18 356.07 127.24 356.40
  L 127.29 356.72
  Q 127.34 356.96 127.57 356.91
  Q 128.25 356.76 128.85 357.03
  Q 129.22 357.19 129.22 357.60
  Q 129.25 360.70 129.17 364.31
  C 129.10 367.80 131.14 369.99 134.82 369.14
  Q 136.50 368.75 137.07 367.33
  Q 137.28 366.82 137.64 367.23"
/>
<path stroke="#f0a1eb" vector-effect="non-scaling-stroke" d="
  M 164.50 357.68
  L 164.48 367.06
  Q 164.48 367.62 163.96 367.85
  L 162.70 368.39
  Q 161.57 368.87 162.80 368.93
  Q 166.26 369.10 169.51 368.93
  Q 169.65 368.92 169.74 368.82
  Q 169.85 368.72 169.85 368.54
  Q 169.84 368.33 169.64 368.30
  L 168.45 368.11
  Q 167.88 368.02 167.88 367.44
  L 167.92 356.45
  A 0.46 0.46 0.0 0 0 167.45 355.99
  L 162.86 356.06
  Q 162.78 356.06 162.70 356.09
  Q 162.47 356.19 162.45 356.39
  Q 162.41 356.73 162.75 356.78
  L 163.93 356.99
  Q 164.50 357.10 164.50 357.68"
/>
<path stroke="#f0a1eb" vector-effect="non-scaling-stroke" d="
  M 127.8176 341.6399
  A 6.19 3.29 90.3 0 0 131.1400 335.4672
  A 6.19 3.29 90.3 0 0 127.8824 329.2601
  A 6.19 3.29 90.3 0 0 124.5600 335.4328
  A 6.19 3.29 90.3 0 0 127.8176 341.6399"
/>
<path stroke="#f0a1eb" vector-effect="non-scaling-stroke" d="
  M 162.47 335.51
  C 159.59 335.42 157.46 337.23 158.78 340.01
  A 1.69 1.68 -33.8 0 0 161.44 340.53
  Q 163.35 338.80 162.98 335.96
  Q 162.92 335.52 162.47 335.51"
/>
<path stroke="#f0a1eb" vector-effect="non-scaling-stroke" d="
  M 214.31 340.06
  A 1.50 1.50 0.0 0 0 216.52 340.76
  Q 218.97 339.18 218.40 335.89
  Q 218.33 335.48 217.91 335.48
  C 215.08 335.46 213.08 337.01 214.31 340.06"
/>
<path stroke="#f0a1eb" vector-effect="non-scaling-stroke" d="
  M 177.40 367.23
  A 1.42 1.42 0.0 0 0 179.35 367.85
  Q 181.89 366.46 181.45 363.00
  Q 181.38 362.51 180.89 362.50
  C 178.01 362.39 175.95 364.25 177.40 367.23"
/>
<path stroke="#f0a1eb" vector-effect="non-scaling-stroke" d="
  M 216.8176 368.6299
  A 6.19 3.29 90.3 0 0 220.1400 362.4572
  A 6.19 3.29 90.3 0 0 216.8824 356.2501
  A 6.19 3.29 90.3 0 0 213.5600 362.4228
  A 6.19 3.29 90.3 0 0 216.8176 368.6299"
/>
</g>
<path fill="#e042d6" d="
  M 0.00 0.00
  L 500.00 0.00
  L 500.00 500.00
  L 0.00 500.00
  L 0.00 0.00
  Z
  M 246.43 296.09
  Q 246.52 354.33 246.42 410.20
  C 246.41 417.08 243.88 424.23 237.83 427.76
  Q 230.67 431.93 222.91 431.02
  Q 222.64 430.99 222.65 431.26
  L 222.70 433.48
  A 0.27 0.27 0.0 0 0 222.97 433.75
  L 437.50 433.75
  Q 438.00 433.75 438.00 433.25
  L 437.97 376.23
  Q 437.97 375.74 437.48 375.74
  L 434.88 375.75
  Q 434.08 375.75 434.07 376.55
  C 433.87 395.28 429.76 419.56 410.20 426.19
  Q 406.14 427.56 401.51 427.55
  Q 353.76 427.41 308.93 427.55
  Q 308.26 427.55 308.27 426.88
  Q 308.54 313.30 308.64 196.51
  C 308.65 183.47 316.08 175.25 329.98 175.46
  A 0.71 0.71 0.0 0 0 330.70 174.79
  Q 330.80 173.28 330.20 172.06
  Q 330.04 171.75 329.70 171.75
  L 225.47 171.75
  Q 224.97 171.75 224.65 172.15
  Q 223.97 173.00 222.92 173.20
  Q 222.44 173.29 222.52 173.77
  L 222.77 175.26
  Q 222.82 175.59 223.16 175.56
  Q 232.11 174.90 238.93 179.72
  C 244.43 183.61 246.31 190.62 246.34 197.25
  Q 246.54 243.86 246.42 286.97
  A 0.80 0.77 76.1 0 1 246.02 287.66
  Q 236.60 293.02 226.91 296.17
  C 221.08 298.07 214.62 298.79 208.53 298.93
  C 164.61 299.93 143.16 257.35 138.08 219.76
  Q 134.09 190.23 135.51 154.35
  Q 136.51 129.04 141.97 105.98
  Q 146.38 87.36 155.56 73.66
  Q 167.44 55.94 188.81 51.21
  Q 200.60 48.61 211.66 49.93
  C 233.57 52.55 256.70 62.65 270.84 79.83
  Q 281.48 92.76 284.77 111.60
  Q 284.79 111.71 284.89 111.71
  L 287.99 111.77
  Q 288.26 111.78 288.26 111.51
  L 288.26 48.00
  Q 288.26 47.75 288.00 47.75
  L 285.51 47.75
  Q 285.17 47.75 285.15 48.09
  Q 284.74 56.38 283.93 62.82
  C 282.77 72.06 276.36 73.59 269.06 68.92
  Q 264.30 65.87 259.25 62.70
  Q 242.20 51.97 223.01 46.13
  C 203.94 40.32 181.39 39.02 161.29 43.89
  C 136.47 49.91 114.06 61.98 98.38 81.88
  C 73.63 113.33 68.14 156.26 71.98 195.21
  C 75.27 228.61 88.63 262.47 116.68 282.38
  Q 131.87 293.16 149.86 298.51
  Q 173.07 305.41 196.40 306.23
  C 213.80 306.84 230.46 303.56 245.80 295.70
  Q 246.43 295.38 246.43 296.09
  Z
  M 115.44 324.90
  A 2.09 2.09 0.0 0 0 113.35 322.81
  A 2.09 2.09 0.0 0 0 111.26 324.90
  A 2.09 2.09 0.0 0 0 113.35 326.99
  A 2.09 2.09 0.0 0 0 115.44 324.90
  Z
  M 104.00 335.22
  Q 104.00 334.07 105.02 334.59
  Q 105.62 334.90 105.97 334.42
  Q 106.54 333.65 105.58 333.65
  L 97.87 333.61
  Q 97.61 333.61 97.60 333.87
  L 97.60 334.14
  A 0.48 0.48 0.0 0 0 98.11 334.64
  L 99.50 334.57
  A 0.79 0.79 0.0 0 1 100.33 335.37
  L 100.33 339.41
  A 1.22 1.21 -12.7 0 1 99.63 340.51
  Q 95.20 342.58 92.72 339.43
  C 90.90 337.11 91.10 332.64 91.50 329.81
  C 92.17 324.96 96.76 322.66 100.58 326.06
  C 101.65 327.00 101.90 328.57 102.49 329.85
  Q 102.58 330.05 102.78 330.15
  Q 102.92 330.22 103.06 330.18
  Q 103.50 330.07 103.48 329.61
  L 103.28 324.47
  Q 103.25 323.67 102.51 323.96
  C 101.43 324.38 100.52 324.36 99.42 324.04
  Q 92.98 322.21 89.05 326.64
  C 85.99 330.09 86.30 336.91 89.93 340.01
  Q 94.17 343.63 100.08 341.52
  Q 100.60 341.33 101.14 341.44
  L 103.42 341.89
  Q 104.01 342.01 104.01 341.40
  L 104.00 335.22
  Z
  M 134.78 335.42
  A 6.93 6.93 0.0 0 0 127.85 328.49
  A 6.93 6.93 0.0 0 0 120.92 335.42
  A 6.93 6.93 0.0 0 0 127.85 342.35
  A 6.93 6.93 0.0 0 0 134.78 335.42
  Z
  M 166.43 340.43
  C 166.32 337.33 167.56 330.45 163.67 329.06
  Q 159.75 327.66 156.35 329.89
  A 1.42 1.41 66.9 0 0 155.75 331.40
  Q 156.15 333.06 157.66 332.73
  A 1.43 1.40 -84.2 0 0 158.68 331.88
  L 159.30 330.42
  A 1.68 1.68 0.0 0 1 162.25 330.15
  Q 163.24 331.67 162.94 333.99
  Q 162.87 334.54 162.31 334.53
  Q 159.71 334.51 157.22 335.52
  C 154.15 336.76 154.20 341.39 157.55 342.15
  Q 160.89 342.91 162.79 340.36
  Q 163.13 339.90 163.38 340.41
  Q 164.86 343.51 167.86 341.75
  Q 169.25 340.93 168.79 339.56
  Q 168.40 338.42 168.19 339.60
  Q 168.01 340.60 167.24 340.94
  A 0.58 0.57 77.0 0 1 166.43 340.43
  Z
  M 177.14 330.27
  L 177.12 329.61
  A 0.63 0.63 0.0 0 0 176.48 328.99
  L 172.36 329.06
  Q 171.44 329.07 172.07 329.74
  Q 172.43 330.11 172.94 329.99
  Q 173.89 329.78 173.88 330.75
  L 173.80 340.02
  Q 173.79 340.64 173.20 340.80
  Q 172.65 340.95 172.21 341.30
  Q 171.33 342.01 172.46 342.00
  L 178.44 341.98
  Q 179.40 341.98 178.69 341.34
  Q 178.31 341.00 177.81 341.02
  Q 177.26 341.04 177.25 340.49
  Q 177.18 336.68 177.40 333.28
  Q 177.54 331.05 179.74 330.27
  Q 180.06 330.15 180.41 330.21
  Q 182.45 330.58 182.46 332.65
  L 182.49 340.00
  Q 182.49 340.67 181.87 340.91
  Q 181.38 341.09 180.99 341.41
  Q 180.23 342.02 181.20 342.01
  L 187.61 341.96
  Q 187.72 341.96 187.71 341.85
  L 187.70 341.57
  Q 187.68 341.29 187.41 341.25
  L 186.32 341.06
  Q 185.79 340.97 185.80 340.43
  C 185.85 337.81 186.53 331.95 184.73 329.94
  C 182.82 327.80 179.55 328.27 177.87 330.50
  Q 177.16 331.45 177.14 330.27
  Z
  M 196.49 340.37
  C 196.48 337.92 195.48 329.92 199.75 330.23
  A 2.08 2.08 0.0 0 1 201.69 332.29
  L 201.75 340.00
  Q 201.76 340.63 201.15 340.84
  Q 200.68 341.00 200.29 341.34
  Q 199.56 342.00 200.55 342.00
  L 206.65 341.99
  Q 207.07 341.98 206.92 341.60
  L 206.78 341.25
  Q 206.75 341.15 206.65 341.15
  Q 206.03 341.14 205.51 340.99
  Q 204.98 340.83 205.03 340.28
  C 205.36 336.01 206.47 327.06 199.35 328.87
  Q 197.97 329.22 196.96 330.59
  Q 196.43 331.30 196.34 330.42
  Q 196.30 330.05 196.35 329.69
  Q 196.43 328.98 195.72 328.99
  L 191.37 329.05
  Q 191.19 329.05 191.20 329.23
  L 191.23 329.58
  A 0.30 0.30 0.0 0 0 191.52 329.86
  L 192.49 329.89
  A 0.74 0.73 2.3 0 1 193.20 330.65
  Q 193.04 334.98 193.17 339.31
  Q 193.21 340.99 191.53 341.16
  Q 191.21 341.19 191.19 341.54
  Q 191.16 342.00 191.62 341.99
  L 197.69 341.99
  Q 198.51 341.99 197.95 341.39
  Q 197.62 341.05 197.14 341.03
  Q 196.49 341.01 196.49 340.37
  Z
  M 218.87 340.50
  C 220.34 343.25 224.16 342.90 224.46 339.73
  Q 224.53 339.08 223.92 339.32
  Q 223.14 339.63 223.15 340.60
  Q 223.17 341.22 222.56 341.13
  L 222.23 341.08
  Q 221.86 341.03 221.86 340.66
  Q 221.83 336.75 221.76 332.77
  Q 221.72 330.45 219.85 329.44
  Q 216.14 327.42 211.90 329.78
  A 1.44 1.44 0.0 0 0 211.25 331.54
  C 211.77 332.97 213.49 333.30 214.20 331.92
  Q 214.53 331.28 214.71 330.58
  Q 214.84 330.10 215.25 329.82
  C 216.42 329.03 218.06 329.69 218.26 331.11
  Q 218.46 332.50 218.48 333.96
  A 0.55 0.55 0.0 0 1 217.93 334.52
  C 214.93 334.50 209.87 335.35 210.55 339.54
  C 211.15 343.25 216.31 342.94 218.14 340.45
  Q 218.54 339.89 218.87 340.50
  Z
  M 115.17 340.46
  L 115.22 329.48
  Q 115.22 328.99 114.73 328.99
  L 110.00 329.05
  Q 109.80 329.05 109.81 329.26
  L 109.82 329.57
  A 0.36 0.35 -88.2 0 0 110.14 329.92
  L 111.18 330.01
  Q 111.79 330.06 111.78 330.68
  L 111.72 340.01
  A 0.88 0.88 0.0 0 1 111.05 340.85
  Q 110.44 340.99 109.99 341.38
  Q 109.26 342.00 110.21 342.00
  L 116.50 341.99
  Q 117.45 341.98 116.78 341.30
  Q 116.48 340.99 116.07 341.12
  A 0.70 0.69 -8.4 0 1 115.17 340.46
  Z
  M 145.51 338.23
  L 142.76 330.69
  Q 142.51 330.00 143.25 329.97
  Q 143.72 329.95 144.15 329.71
  Q 145.03 329.23 144.03 329.14
  Q 141.21 328.89 138.16 329.07
  Q 137.01 329.14 138.03 329.67
  L 138.73 330.02
  Q 139.19 330.26 139.37 330.75
  L 142.71 339.75
  Q 144.73 345.21 146.79 339.76
  L 150.20 330.74
  A 1.12 1.10 3.8 0 1 151.01 330.04
  Q 151.45 329.95 151.73 329.62
  Q 152.28 328.98 151.43 328.99
  L 147.37 329.06
  A 0.31 0.31 0.0 0 0 147.09 329.48
  L 147.20 329.76
  A 0.32 0.31 -11.4 0 0 147.51 329.96
  L 148.55 329.93
  Q 149.42 329.91 149.11 330.72
  L 146.25 338.24
  Q 145.87 339.23 145.51 338.23
  Z
  M 168.20 351.89
  A 2.09 2.09 0.0 0 0 166.11 349.80
  A 2.09 2.09 0.0 0 0 164.02 351.89
  A 2.09 2.09 0.0 0 0 166.11 353.98
  A 2.09 2.09 0.0 0 0 168.20 351.89
  Z
  M 115.99 366.79
  L 115.97 352.14
  Q 115.96 351.75 116.35 351.74
  L 118.44 351.66
  Q 118.54 351.66 118.56 351.56
  L 118.61 351.22
  A 0.40 0.40 0.0 0 0 118.22 350.76
  L 109.83 350.76
  A 0.30 0.30 0.0 0 0 109.57 351.20
  L 109.79 351.60
  A 0.15 0.13 75.1 0 0 109.91 351.68
  L 111.48 351.72
  Q 112.21 351.75 112.21 352.48
  L 112.21 367.35
  Q 112.21 367.92 111.65 368.01
  L 109.99 368.29
  Q 109.71 368.34 109.78 368.62
  L 109.86 368.87
  Q 109.89 368.97 109.99 368.97
  L 123.55 369.00
  Q 124.21 369.00 124.23 368.34
  Q 124.33 365.42 124.20 362.79
  Q 124.14 361.71 123.61 362.66
  Q 122.87 363.98 122.53 365.57
  Q 122.01 367.97 119.55 367.98
  Q 118.57 367.98 117.60 368.15
  Q 115.99 368.42 115.99 366.79
  Z
  M 159.09 358.19
  C 156.99 354.50 151.16 354.95 148.61 357.84
  C 146.48 360.25 146.40 364.97 148.60 367.21
  Q 151.82 370.48 156.81 368.73
  Q 158.34 368.19 158.91 366.80
  Q 159.77 364.68 158.25 366.39
  C 155.49 369.47 151.36 369.02 150.82 364.43
  Q 150.43 361.15 151.30 358.32
  C 152.04 355.91 155.66 355.55 155.68 358.58
  A 1.86 1.86 0.0 0 0 157.49 360.43
  Q 158.78 360.46 159.19 359.23
  Q 159.38 358.69 159.09 358.19
  Z
  M 181.91 367.55
  C 183.18 370.33 186.85 369.89 187.49 366.75
  Q 187.62 366.11 186.98 366.27
  L 186.60 366.37
  A 0.34 0.33 80.7 0 0 186.36 366.72
  Q 186.44 367.83 185.56 368.09
  A 0.58 0.58 0.0 0 1 184.82 367.52
  Q 184.91 363.20 184.71 359.31
  C 184.43 353.92 173.51 354.89 174.34 358.65
  A 1.46 1.46 0.0 0 0 176.81 359.35
  Q 177.44 358.70 177.68 357.75
  A 1.74 1.73 35.9 0 1 180.83 357.25
  Q 181.71 358.66 181.41 361.03
  Q 181.35 361.54 180.83 361.53
  Q 177.90 361.50 175.39 362.72
  C 173.04 363.85 172.70 367.42 175.00 368.66
  Q 178.53 370.56 181.16 367.44
  Q 181.62 366.90 181.91 367.55
  Z
  M 195.64 357.06
  Q 195.83 356.04 194.81 356.00
  Q 192.76 355.93 190.51 356.19
  Q 190.26 356.21 190.28 356.49
  Q 190.30 356.75 190.56 356.80
  L 191.73 356.99
  Q 192.35 357.10 192.35 357.73
  L 192.30 367.03
  Q 192.30 367.73 191.63 367.93
  Q 191.08 368.09 190.59 368.37
  Q 189.83 368.80 190.70 368.89
  Q 193.67 369.19 196.97 368.93
  Q 197.76 368.87 197.11 368.41
  Q 196.76 368.18 196.34 368.09
  Q 195.74 367.98 195.74 367.37
  C 195.74 364.96 194.71 357.36 198.77 357.21
  A 2.10 2.10 0.0 0 1 200.95 359.29
  L 201.02 366.99
  Q 201.03 367.64 200.43 367.90
  L 199.37 368.36
  A 0.33 0.33 0.0 0 0 199.50 369.00
  L 205.96 368.98
  A 0.28 0.27 -85.0 0 0 206.23 368.75
  Q 206.27 368.55 206.15 368.41
  Q 206.01 368.23 205.79 368.18
  Q 205.31 368.07 204.87 367.99
  Q 204.31 367.89 204.33 367.33
  Q 204.46 363.75 204.35 360.29
  C 204.20 355.56 199.31 353.83 196.42 357.42
  Q 195.33 358.78 195.64 357.06
  Z
  M 223.78 362.42
  A 6.93 6.93 0.0 0 0 216.85 355.49
  A 6.93 6.93 0.0 0 0 209.92 362.42
  A 6.93 6.93 0.0 0 0 216.85 369.35
  A 6.93 6.93 0.0 0 0 223.78 362.42
  Z
  M 137.64 367.23
  Q 138.08 367.72 138.00 368.41
  Q 137.94 369.01 138.54 369.00
  L 142.69 368.98
  Q 143.61 368.97 142.88 368.40
  Q 142.43 368.04 141.83 368.03
  A 0.57 0.57 0.0 0 1 141.26 367.46
  L 141.27 356.50
  A 0.51 0.51 0.0 0 0 140.75 355.99
  L 136.31 356.07
  Q 136.07 356.08 136.07 356.31
  L 136.07 356.58
  Q 136.07 356.91 136.40 356.94
  L 137.36 357.02
  Q 137.89 357.06 137.88 357.60
  L 137.75 364.25
  Q 137.70 366.59 135.44 367.62
  Q 134.98 367.83 134.47 367.70
  Q 132.59 367.22 132.58 365.27
  L 132.55 356.64
  Q 132.55 355.98 131.89 355.99
  L 127.52 356.06
  Q 127.18 356.07 127.24 356.40
  L 127.29 356.72
  Q 127.34 356.96 127.57 356.91
  Q 128.25 356.76 128.85 357.03
  Q 129.22 357.19 129.22 357.60
  Q 129.25 360.70 129.17 364.31
  C 129.10 367.80 131.14 369.99 134.82 369.14
  Q 136.50 368.75 137.07 367.33
  Q 137.28 366.82 137.64 367.23
  Z
  M 164.50 357.68
  L 164.48 367.06
  Q 164.48 367.62 163.96 367.85
  L 162.70 368.39
  Q 161.57 368.87 162.80 368.93
  Q 166.26 369.10 169.51 368.93
  Q 169.65 368.92 169.74 368.82
  Q 169.85 368.72 169.85 368.54
  Q 169.84 368.33 169.64 368.30
  L 168.45 368.11
  Q 167.88 368.02 167.88 367.44
  L 167.92 356.45
  A 0.46 0.46 0.0 0 0 167.45 355.99
  L 162.86 356.06
  Q 162.78 356.06 162.70 356.09
  Q 162.47 356.19 162.45 356.39
  Q 162.41 356.73 162.75 356.78
  L 163.93 356.99
  Q 164.50 357.10 164.50 357.68
  Z"
/>
<path fill="#ffffff" d="
  M 245.80 295.70
  C 230.46 303.56 213.80 306.84 196.40 306.23
  Q 173.07 305.41 149.86 298.51
  Q 131.87 293.16 116.68 282.38
  C 88.63 262.47 75.27 228.61 71.98 195.21
  C 68.14 156.26 73.63 113.33 98.38 81.88
  C 114.06 61.98 136.47 49.91 161.29 43.89
  C 181.39 39.02 203.94 40.32 223.01 46.13
  Q 242.20 51.97 259.25 62.70
  Q 264.30 65.87 269.06 68.92
  C 276.36 73.59 282.77 72.06 283.93 62.82
  Q 284.74 56.38 285.15 48.09
  Q 285.17 47.75 285.51 47.75
  L 288.00 47.75
  Q 288.26 47.75 288.26 48.00
  L 288.26 111.51
  Q 288.26 111.78 287.99 111.77
  L 284.89 111.71
  Q 284.79 111.71 284.77 111.60
  Q 281.48 92.76 270.84 79.83
  C 256.70 62.65 233.57 52.55 211.66 49.93
  Q 200.60 48.61 188.81 51.21
  Q 167.44 55.94 155.56 73.66
  Q 146.38 87.36 141.97 105.98
  Q 136.51 129.04 135.51 154.35
  Q 134.09 190.23 138.08 219.76
  C 143.16 257.35 164.61 299.93 208.53 298.93
  C 214.62 298.79 221.08 298.07 226.91 296.17
  Q 236.60 293.02 246.02 287.66
  A 0.80 0.77 76.1 0 0 246.42 286.97
  Q 246.54 243.86 246.34 197.25
  C 246.31 190.62 244.43 183.61 238.93 179.72
  Q 232.11 174.90 223.16 175.56
  Q 222.82 175.59 222.77 175.26
  L 222.52 173.77
  Q 222.44 173.29 222.92 173.20
  Q 223.97 173.00 224.65 172.15
  Q 224.97 171.75 225.47 171.75
  L 329.70 171.75
  Q 330.04 171.75 330.20 172.06
  Q 330.80 173.28 330.70 174.79
  A 0.71 0.71 0.0 0 1 329.98 175.46
  C 316.08 175.25 308.65 183.47 308.64 196.51
  Q 308.54 313.30 308.27 426.88
  Q 308.26 427.55 308.93 427.55
  Q 353.76 427.41 401.51 427.55
  Q 406.14 427.56 410.20 426.19
  C 429.76 419.56 433.87 395.28 434.07 376.55
  Q 434.08 375.75 434.88 375.75
  L 437.48 375.74
  Q 437.97 375.74 437.97 376.23
  L 438.00 433.25
  Q 438.00 433.75 437.50 433.75
  L 222.97 433.75
  A 0.27 0.27 0.0 0 1 222.70 433.48
  L 222.65 431.26
  Q 222.64 430.99 222.91 431.02
  Q 230.67 431.93 237.83 427.76
  C 243.88 424.23 246.41 417.08 246.42 410.20
  Q 246.52 354.33 246.43 296.09
  Q 246.43 295.38 245.80 295.70
  Z"
/>
<circle fill="#ffffff" cx="113.35" cy="324.90" r="2.09"/>
<path fill="#ffffff" d="
  M 104.00 335.22
  L 104.01 341.40
  Q 104.01 342.01 103.42 341.89
  L 101.14 341.44
  Q 100.60 341.33 100.08 341.52
  Q 94.17 343.63 89.93 340.01
  C 86.30 336.91 85.99 330.09 89.05 326.64
  Q 92.98 322.21 99.42 324.04
  C 100.52 324.36 101.43 324.38 102.51 323.96
  Q 103.25 323.67 103.28 324.47
  L 103.48 329.61
  Q 103.50 330.07 103.06 330.18
  Q 102.92 330.22 102.78 330.15
  Q 102.58 330.05 102.49 329.85
  C 101.90 328.57 101.65 327.00 100.58 326.06
  C 96.76 322.66 92.17 324.96 91.50 329.81
  C 91.10 332.64 90.90 337.11 92.72 339.43
  Q 95.20 342.58 99.63 340.51
  A 1.22 1.21 -12.7 0 0 100.33 339.41
  L 100.33 335.37
  A 0.79 0.79 0.0 0 0 99.50 334.57
  L 98.11 334.64
  A 0.48 0.48 0.0 0 1 97.60 334.14
  L 97.60 333.87
  Q 97.61 333.61 97.87 333.61
  L 105.58 333.65
  Q 106.54 333.65 105.97 334.42
  Q 105.62 334.90 105.02 334.59
  Q 104.00 334.07 104.00 335.22
  Z"
/>
<path fill="#ffffff" d="
  M 134.78 335.42
  A 6.93 6.93 0.0 0 1 127.85 342.35
  A 6.93 6.93 0.0 0 1 120.92 335.42
  A 6.93 6.93 0.0 0 1 127.85 328.49
  A 6.93 6.93 0.0 0 1 134.78 335.42
  Z
  M 127.8176 341.6399
  A 6.19 3.29 90.3 0 0 131.1400 335.4672
  A 6.19 3.29 90.3 0 0 127.8824 329.2601
  A 6.19 3.29 90.3 0 0 124.5600 335.4328
  A 6.19 3.29 90.3 0 0 127.8176 341.6399
  Z"
/>
<path fill="#ffffff" d="
  M 167.24 340.94
  Q 168.01 340.60 168.19 339.60
  Q 168.40 338.42 168.79 339.56
  Q 169.25 340.93 167.86 341.75
  Q 164.86 343.51 163.38 340.41
  Q 163.13 339.90 162.79 340.36
  Q 160.89 342.91 157.55 342.15
  C 154.20 341.39 154.15 336.76 157.22 335.52
  Q 159.71 334.51 162.31 334.53
  Q 162.87 334.54 162.94 333.99
  Q 163.24 331.67 162.25 330.15
  A 1.68 1.68 0.0 0 0 159.30 330.42
  L 158.68 331.88
  A 1.43 1.40 -84.2 0 1 157.66 332.73
  Q 156.15 333.06 155.75 331.40
  A 1.42 1.41 66.9 0 1 156.35 329.89
  Q 159.75 327.66 163.67 329.06
  C 167.56 330.45 166.32 337.33 166.43 340.43
  A 0.58 0.57 77.0 0 0 167.24 340.94
  Z
  M 162.47 335.51
  C 159.59 335.42 157.46 337.23 158.78 340.01
  A 1.69 1.68 -33.8 0 0 161.44 340.53
  Q 163.35 338.80 162.98 335.96
  Q 162.92 335.52 162.47 335.51
  Z"
/>
<path fill="#ffffff" d="
  M 177.87 330.50
  C 179.55 328.27 182.82 327.80 184.73 329.94
  C 186.53 331.95 185.85 337.81 185.80 340.43
  Q 185.79 340.97 186.32 341.06
  L 187.41 341.25
  Q 187.68 341.29 187.70 341.57
  L 187.71 341.85
  Q 187.72 341.96 187.61 341.96
  L 181.20 342.01
  Q 180.23 342.02 180.99 341.41
  Q 181.38 341.09 181.87 340.91
  Q 182.49 340.67 182.49 340.00
  L 182.46 332.65
  Q 182.45 330.58 180.41 330.21
  Q 180.06 330.15 179.74 330.27
  Q 177.54 331.05 177.40 333.28
  Q 177.18 336.68 177.25 340.49
  Q 177.26 341.04 177.81 341.02
  Q 178.31 341.00 178.69 341.34
  Q 179.40 341.98 178.44 341.98
  L 172.46 342.00
  Q 171.33 342.01 172.21 341.30
  Q 172.65 340.95 173.20 340.80
  Q 173.79 340.64 173.80 340.02
  L 173.88 330.75
  Q 173.89 329.78 172.94 329.99
  Q 172.43 330.11 172.07 329.74
  Q 171.44 329.07 172.36 329.06
  L 176.48 328.99
  A 0.63 0.63 0.0 0 1 177.12 329.61
  L 177.14 330.27
  Q 177.16 331.45 177.87 330.50
  Z"
/>
<path fill="#ffffff" d="
  M 197.14 341.03
  Q 197.62 341.05 197.95 341.39
  Q 198.51 341.99 197.69 341.99
  L 191.62 341.99
  Q 191.16 342.00 191.19 341.54
  Q 191.21 341.19 191.53 341.16
  Q 193.21 340.99 193.17 339.31
  Q 193.04 334.98 193.20 330.65
  A 0.74 0.73 2.3 0 0 192.49 329.89
  L 191.52 329.86
  A 0.30 0.30 0.0 0 1 191.23 329.58
  L 191.20 329.23
  Q 191.19 329.05 191.37 329.05
  L 195.72 328.99
  Q 196.43 328.98 196.35 329.69
  Q 196.30 330.05 196.34 330.42
  Q 196.43 331.30 196.96 330.59
  Q 197.97 329.22 199.35 328.87
  C 206.47 327.06 205.36 336.01 205.03 340.28
  Q 204.98 340.83 205.51 340.99
  Q 206.03 341.14 206.65 341.15
  Q 206.75 341.15 206.78 341.25
  L 206.92 341.60
  Q 207.07 341.98 206.65 341.99
  L 200.55 342.00
  Q 199.56 342.00 200.29 341.34
  Q 200.68 341.00 201.15 340.84
  Q 201.76 340.63 201.75 340.00
  L 201.69 332.29
  A 2.08 2.08 0.0 0 0 199.75 330.23
  C 195.48 329.92 196.48 337.92 196.49 340.37
  Q 196.49 341.01 197.14 341.03
  Z"
/>
<path fill="#ffffff" d="
  M 218.14 340.45
  C 216.31 342.94 211.15 343.25 210.55 339.54
  C 209.87 335.35 214.93 334.50 217.93 334.52
  A 0.55 0.55 0.0 0 0 218.48 333.96
  Q 218.46 332.50 218.26 331.11
  C 218.06 329.69 216.42 329.03 215.25 329.82
  Q 214.84 330.10 214.71 330.58
  Q 214.53 331.28 214.20 331.92
  C 213.49 333.30 211.77 332.97 211.25 331.54
  A 1.44 1.44 0.0 0 1 211.90 329.78
  Q 216.14 327.42 219.85 329.44
  Q 221.72 330.45 221.76 332.77
  Q 221.83 336.75 221.86 340.66
  Q 221.86 341.03 222.23 341.08
  L 222.56 341.13
  Q 223.17 341.22 223.15 340.60
  Q 223.14 339.63 223.92 339.32
  Q 224.53 339.08 224.46 339.73
  C 224.16 342.90 220.34 343.25 218.87 340.50
  Q 218.54 339.89 218.14 340.45
  Z
  M 214.31 340.06
  A 1.50 1.50 0.0 0 0 216.52 340.76
  Q 218.97 339.18 218.40 335.89
  Q 218.33 335.48 217.91 335.48
  C 215.08 335.46 213.08 337.01 214.31 340.06
  Z"
/>
<path fill="#ffffff" d="
  M 116.07 341.12
  Q 116.48 340.99 116.78 341.30
  Q 117.45 341.98 116.50 341.99
  L 110.21 342.00
  Q 109.26 342.00 109.99 341.38
  Q 110.44 340.99 111.05 340.85
  A 0.88 0.88 0.0 0 0 111.72 340.01
  L 111.78 330.68
  Q 111.79 330.06 111.18 330.01
  L 110.14 329.92
  A 0.36 0.35 -88.2 0 1 109.82 329.57
  L 109.81 329.26
  Q 109.80 329.05 110.00 329.05
  L 114.73 328.99
  Q 115.22 328.99 115.22 329.48
  L 115.17 340.46
  A 0.70 0.69 -8.4 0 0 116.07 341.12
  Z"
/>
<path fill="#ffffff" d="
  M 145.51 338.23
  Q 145.87 339.23 146.25 338.24
  L 149.11 330.72
  Q 149.42 329.91 148.55 329.93
  L 147.51 329.96
  A 0.32 0.31 -11.4 0 1 147.20 329.76
  L 147.09 329.48
  A 0.31 0.31 0.0 0 1 147.37 329.06
  L 151.43 328.99
  Q 152.28 328.98 151.73 329.62
  Q 151.45 329.95 151.01 330.04
  A 1.12 1.10 3.8 0 0 150.20 330.74
  L 146.79 339.76
  Q 144.73 345.21 142.71 339.75
  L 139.37 330.75
  Q 139.19 330.26 138.73 330.02
  L 138.03 329.67
  Q 137.01 329.14 138.16 329.07
  Q 141.21 328.89 144.03 329.14
  Q 145.03 329.23 144.15 329.71
  Q 143.72 329.95 143.25 329.97
  Q 142.51 330.00 142.76 330.69
  L 145.51 338.23
  Z"
/>
<ellipse fill="#e042d6" cx="0.00" cy="0.00" transform="translate(127.85,335.45) rotate(90.3)" rx="6.19" ry="3.29"/>
<path fill="#e042d6" d="
  M 162.47 335.51
  Q 162.92 335.52 162.98 335.96
  Q 163.35 338.80 161.44 340.53
  A 1.69 1.68 -33.8 0 1 158.78 340.01
  C 157.46 337.23 159.59 335.42 162.47 335.51
  Z"
/>
<path fill="#e042d6" d="
  M 214.31 340.06
  C 213.08 337.01 215.08 335.46 217.91 335.48
  Q 218.33 335.48 218.40 335.89
  Q 218.97 339.18 216.52 340.76
  A 1.50 1.50 0.0 0 1 214.31 340.06
  Z"
/>
<circle fill="#ffffff" cx="166.11" cy="351.89" r="2.09"/>
<path fill="#ffffff" d="
  M 115.99 366.79
  Q 115.99 368.42 117.60 368.15
  Q 118.57 367.98 119.55 367.98
  Q 122.01 367.97 122.53 365.57
  Q 122.87 363.98 123.61 362.66
  Q 124.14 361.71 124.20 362.79
  Q 124.33 365.42 124.23 368.34
  Q 124.21 369.00 123.55 369.00
  L 109.99 368.97
  Q 109.89 368.97 109.86 368.87
  L 109.78 368.62
  Q 109.71 368.34 109.99 368.29
  L 111.65 368.01
  Q 112.21 367.92 112.21 367.35
  L 112.21 352.48
  Q 112.21 351.75 111.48 351.72
  L 109.91 351.68
  A 0.15 0.13 75.1 0 1 109.79 351.60
  L 109.57 351.20
  A 0.30 0.30 0.0 0 1 109.83 350.76
  L 118.22 350.76
  A 0.40 0.40 0.0 0 1 118.61 351.22
  L 118.56 351.56
  Q 118.54 351.66 118.44 351.66
  L 116.35 351.74
  Q 115.96 351.75 115.97 352.14
  L 115.99 366.79
  Z"
/>
<path fill="#ffffff" d="
  M 148.61 357.84
  C 151.16 354.95 156.99 354.50 159.09 358.19
  Q 159.38 358.69 159.19 359.23
  Q 158.78 360.46 157.49 360.43
  A 1.86 1.86 0.0 0 1 155.68 358.58
  C 155.66 355.55 152.04 355.91 151.30 358.32
  Q 150.43 361.15 150.82 364.43
  C 151.36 369.02 155.49 369.47 158.25 366.39
  Q 159.77 364.68 158.91 366.80
  Q 158.34 368.19 156.81 368.73
  Q 151.82 370.48 148.60 367.21
  C 146.40 364.97 146.48 360.25 148.61 357.84
  Z"
/>
<path fill="#ffffff" d="
  M 181.16 367.44
  Q 178.53 370.56 175.00 368.66
  C 172.70 367.42 173.04 363.85 175.39 362.72
  Q 177.90 361.50 180.83 361.53
  Q 181.35 361.54 181.41 361.03
  Q 181.71 358.66 180.83 357.25
  A 1.74 1.73 35.9 0 0 177.68 357.75
  Q 177.44 358.70 176.81 359.35
  A 1.46 1.46 0.0 0 1 174.34 358.65
  C 173.51 354.89 184.43 353.92 184.71 359.31
  Q 184.91 363.20 184.82 367.52
  A 0.58 0.58 0.0 0 0 185.56 368.09
  Q 186.44 367.83 186.36 366.72
  A 0.34 0.33 80.7 0 1 186.60 366.37
  L 186.98 366.27
  Q 187.62 366.11 187.49 366.75
  C 186.85 369.89 183.18 370.33 181.91 367.55
  Q 181.62 366.90 181.16 367.44
  Z
  M 177.40 367.23
  A 1.42 1.42 0.0 0 0 179.35 367.85
  Q 181.89 366.46 181.45 363.00
  Q 181.38 362.51 180.89 362.50
  C 178.01 362.39 175.95 364.25 177.40 367.23
  Z"
/>
<path fill="#ffffff" d="
  M 195.64 357.06
  Q 195.33 358.78 196.42 357.42
  C 199.31 353.83 204.20 355.56 204.35 360.29
  Q 204.46 363.75 204.33 367.33
  Q 204.31 367.89 204.87 367.99
  Q 205.31 368.07 205.79 368.18
  Q 206.01 368.23 206.15 368.41
  Q 206.27 368.55 206.23 368.75
  A 0.28 0.27 -85.0 0 1 205.96 368.98
  L 199.50 369.00
  A 0.33 0.33 0.0 0 1 199.37 368.36
  L 200.43 367.90
  Q 201.03 367.64 201.02 366.99
  L 200.95 359.29
  A 2.10 2.10 0.0 0 0 198.77 357.21
  C 194.71 357.36 195.74 364.96 195.74 367.37
  Q 195.74 367.98 196.34 368.09
  Q 196.76 368.18 197.11 368.41
  Q 197.76 368.87 196.97 368.93
  Q 193.67 369.19 190.70 368.89
  Q 189.83 368.80 190.59 368.37
  Q 191.08 368.09 191.63 367.93
  Q 192.30 367.73 192.30 367.03
  L 192.35 357.73
  Q 192.35 357.10 191.73 356.99
  L 190.56 356.80
  Q 190.30 356.75 190.28 356.49
  Q 190.26 356.21 190.51 356.19
  Q 192.76 355.93 194.81 356.00
  Q 195.83 356.04 195.64 357.06
  Z"
/>
<path fill="#ffffff" d="
  M 223.78 362.42
  A 6.93 6.93 0.0 0 1 216.85 369.35
  A 6.93 6.93 0.0 0 1 209.92 362.42
  A 6.93 6.93 0.0 0 1 216.85 355.49
  A 6.93 6.93 0.0 0 1 223.78 362.42
  Z
  M 216.8176 368.6299
  A 6.19 3.29 90.3 0 0 220.1400 362.4572
  A 6.19 3.29 90.3 0 0 216.8824 356.2501
  A 6.19 3.29 90.3 0 0 213.5600 362.4228
  A 6.19 3.29 90.3 0 0 216.8176 368.6299
  Z"
/>
<path fill="#ffffff" d="
  M 137.07 367.33
  Q 136.50 368.75 134.82 369.14
  C 131.14 369.99 129.10 367.80 129.17 364.31
  Q 129.25 360.70 129.22 357.60
  Q 129.22 357.19 128.85 357.03
  Q 128.25 356.76 127.57 356.91
  Q 127.34 356.96 127.29 356.72
  L 127.24 356.40
  Q 127.18 356.07 127.52 356.06
  L 131.89 355.99
  Q 132.55 355.98 132.55 356.64
  L 132.58 365.27
  Q 132.59 367.22 134.47 367.70
  Q 134.98 367.83 135.44 367.62
  Q 137.70 366.59 137.75 364.25
  L 137.88 357.60
  Q 137.89 357.06 137.36 357.02
  L 136.40 356.94
  Q 136.07 356.91 136.07 356.58
  L 136.07 356.31
  Q 136.07 356.08 136.31 356.07
  L 140.75 355.99
  A 0.51 0.51 0.0 0 1 141.27 356.50
  L 141.26 367.46
  A 0.57 0.57 0.0 0 0 141.83 368.03
  Q 142.43 368.04 142.88 368.40
  Q 143.61 368.97 142.69 368.98
  L 138.54 369.00
  Q 137.94 369.01 138.00 368.41
  Q 138.08 367.72 137.64 367.23
  Q 137.28 366.82 137.07 367.33
  Z"
/>
<path fill="#ffffff" d="
  M 163.93 356.99
  L 162.75 356.78
  Q 162.41 356.73 162.45 356.39
  Q 162.47 356.19 162.70 356.09
  Q 162.78 356.06 162.86 356.06
  L 167.45 355.99
  A 0.46 0.46 0.0 0 1 167.92 356.45
  L 167.88 367.44
  Q 167.88 368.02 168.45 368.11
  L 169.64 368.30
  Q 169.84 368.33 169.85 368.54
  Q 169.85 368.72 169.74 368.82
  Q 169.65 368.92 169.51 368.93
  Q 166.26 369.10 162.80 368.93
  Q 161.57 368.87 162.70 368.39
  L 163.96 367.85
  Q 164.48 367.62 164.48 367.06
  L 164.50 357.68
  Q 164.50 357.10 163.93 356.99
  Z"
/>
<ellipse fill="#e042d6" cx="0.00" cy="0.00" transform="translate(216.85,362.44) rotate(90.3)" rx="6.19" ry="3.29"/>
<path fill="#e042d6" d="
  M 177.40 367.23
  C 175.95 364.25 178.01 362.39 180.89 362.50
  Q 181.38 362.51 181.45 363.00
  Q 181.89 366.46 179.35 367.85
  A 1.42 1.42 0.0 0 1 177.40 367.23
  Z"
/>
</svg>
