<?xml version="1.0" encoding="UTF-8" standalone="no"?>
<!DOCTYPE svg PUBLIC "-//W3C//DTD SVG 1.1//EN" "http://www.w3.org/Graphics/SVG/1.1/DTD/svg11.dtd">
<svg xmlns="http://www.w3.org/2000/svg" version="1.1" viewBox="0.00 0.00 500.00 500.00" width="500.00" height="500.00">
<g stroke-width="2.00" fill="none" stroke-linecap="butt">
<path stroke="#80247a" vector-effect="non-scaling-stroke" d="
  M 88.01 74.10
  C 57.42 101.83 33.66 137.08 20.65 176.41
  Q 20.45 177.01 21.08 177.00
  L 23.39 176.98
  Q 23.93 176.97 24.10 176.46
  C 76.55 26.81 253.91 -30.95 384.53 57.01
  C 427.14 85.71 458.63 127.93 475.85 176.38
  A 0.93 0.93 0.0 0 0 476.74 177.00
  L 478.97 176.99
  Q 479.58 176.98 479.39 176.41
  C 455.67 107.21 401.59 51.45 333.00 26.69
  C 249.04 -3.61 154.31 14.03 88.01 74.10"
/>
<path stroke="#80247a" vector-effect="non-scaling-stroke" d="
  M 235.79 92.98
  Q 239.86 91.25 243.57 93.53
  Q 244.08 93.84 244.46 93.39
  L 244.74 93.06
  A 0.66 0.65 35.6 0 0 244.57 92.07
  C 240.95 90.00 234.76 89.66 232.62 93.91
  Q 231.31 96.50 233.37 99.58
  A 1.22 1.19 79.3 0 0 234.07 100.07
  Q 236.59 100.69 241.95 101.78
  Q 245.83 102.58 244.21 106.72
  A 1.27 1.23 -3.7 0 1 243.61 107.38
  Q 238.73 109.81 233.60 106.62
  Q 232.75 106.10 232.35 107.29
  A 0.71 0.71 0.0 0 0 232.62 108.09
  C 236.29 110.61 244.68 111.61 246.44 106.02
  C 249.41 96.55 230.72 102.39 234.53 94.20
  A 2.46 2.40 -88.3 0 1 235.79 92.98"
/>
<path stroke="#80247a" vector-effect="non-scaling-stroke" d="
  M 263.5808 91.2851
  A 0.49 0.49 0.0 0 0 263.1253 90.7630
  L 262.2274 90.7017
  A 0.49 0.49 0.0 0 0 261.7052 91.1573
  L 260.4592 109.4349
  A 0.49 0.49 0.0 0 0 260.9147 109.9570
  L 261.8126 110.0183
  A 0.49 0.49 0.0 0 0 262.3348 109.5627
  L 263.5808 91.2851"
/>
<path stroke="#80247a" vector-effect="non-scaling-stroke" d="
  M 210.11 113.04
  A 0.33 0.33 0.0 0 1 209.72 112.80
  L 208.21 106.29
  A 0.33 0.33 0.0 0 1 208.46 105.89
  L 217.06 103.87
  A 0.33 0.33 0.0 0 0 217.29 103.43
  L 216.92 102.50
  A 0.33 0.33 0.0 0 0 216.54 102.30
  L 208.07 104.31
  A 0.33 0.33 0.0 0 1 207.67 104.07
  L 206.21 97.95
  A 0.33 0.33 0.0 0 1 206.45 97.55
  L 216.28 95.25
  A 0.33 0.33 0.0 0 0 216.53 94.91
  L 216.47 93.87
  A 0.33 0.33 0.0 0 0 216.06 93.57
  L 204.24 96.35
  A 0.33 0.33 0.0 0 0 204.00 96.75
  L 208.27 114.88
  A 0.33 0.33 0.0 0 0 208.67 115.12
  L 220.51 112.31
  A 0.33 0.33 0.0 0 0 220.76 111.99
  L 220.78 110.93
  A 0.33 0.33 0.0 0 0 220.37 110.61
  L 210.11 113.04"
/>
<path stroke="#80247a" vector-effect="non-scaling-stroke" d="
  M 290.86 112.85
  L 290.52 114.32
  A 0.54 0.54 0.0 0 0 291.09 114.98
  L 291.57 114.94
  A 0.70 0.70 0.0 0 0 292.20 114.39
  L 293.95 106.28
  Q 294.07 105.76 293.55 105.65
  L 288.51 104.63
  A 0.40 0.40 0.0 0 0 288.03 105.01
  L 288.01 105.44
  Q 287.99 106.01 288.55 106.13
  L 291.44 106.75
  Q 291.84 106.83 291.89 107.24
  Q 292.15 109.44 290.94 110.42
  C 287.13 113.51 282.05 112.04 280.09 107.66
  C 276.40 99.41 286.64 90.63 293.31 100.32
  A 0.60 0.60 0.0 0 0 294.20 100.43
  Q 294.94 99.77 294.18 98.55
  Q 291.92 94.89 288.14 94.35
  C 277.58 92.84 273.79 107.63 281.97 112.62
  Q 285.79 114.95 290.31 112.44
  Q 291.05 112.02 290.86 112.85"
/>
<path stroke="#80247a" vector-effect="non-scaling-stroke" d="
  M 318.85 120.72
  L 313.64 101.95
  A 0.86 0.85 48.9 0 0 312.03 101.84
  L 304.97 118.35
  Q 304.71 118.97 305.33 119.23
  L 305.87 119.46
  Q 306.47 119.71 306.72 119.12
  L 312.28 106.05
  Q 312.63 105.22 312.88 106.09
  L 317.94 124.28
  A 1.05 1.05 0.0 0 0 319.91 124.41
  L 326.85 108.15
  A 0.76 0.76 0.0 0 0 326.38 107.13
  L 325.86 106.97
  Q 325.36 106.81 325.16 107.29
  L 319.42 120.76
  Q 319.08 121.54 318.85 120.72"
/>
<path stroke="#80247a" vector-effect="non-scaling-stroke" d="
  M 173.77 108.01
  L 181.04 124.89
  A 0.46 0.46 0.0 0 0 181.64 125.13
  L 187.39 122.65
  A 9.00 8.98 -23.3 0 0 192.10 110.85
  L 191.57 109.62
  A 9.00 8.98 -23.3 0 0 179.76 104.93
  L 174.01 107.40
  A 0.46 0.46 0.0 0 0 173.77 108.01"
/>
<path stroke="#80247a" vector-effect="non-scaling-stroke" d="
  M 172.27 278.08
  Q 172.70 282.44 176.42 283.50
  C 181.43 284.92 183.39 280.75 186.39 278.04
  A 0.27 0.27 0.0 0 1 186.83 278.33
  C 184.09 286.67 181.71 293.09 182.43 302.73
  C 182.75 307.01 184.69 313.39 189.38 314.65
  A 0.50 0.50 0.0 0 0 189.85 313.80
  C 185.41 309.70 185.80 300.45 186.71 295.15
  C 189.28 280.24 198.90 264.57 209.67 254.07
  A 0.70 0.69 42.2 0 0 209.61 253.02
  Q 207.25 251.16 204.81 253.10
  Q 200.00 256.95 195.73 261.35
  C 190.47 266.76 185.26 274.94 179.19 281.30
  A 0.97 0.96 -25.3 0 1 177.53 280.71
  C 176.98 273.26 181.33 264.65 185.42 258.41
  A 1.38 1.37 -59.3 0 0 184.92 256.44
  C 178.55 253.03 173.31 268.56 172.65 272.51
  Q 172.57 273.02 172.20 273.37
  Q 150.03 294.38 120.14 296.15
  C 108.88 296.81 97.23 294.16 86.12 291.00
  A 0.35 0.35 0.0 0 1 85.99 290.39
  C 97.77 280.74 107.43 267.80 116.00 255.26
  C 124.44 242.91 133.03 225.80 140.97 213.23
  Q 150.51 198.14 161.51 185.39
  Q 164.66 181.75 162.32 185.96
  Q 160.01 190.11 158.71 194.77
  A 0.99 0.99 0.0 0 0 160.56 195.46
  Q 166.70 182.63 175.29 171.29
  Q 175.57 170.92 175.24 170.58
  Q 173.50 168.84 171.56 170.34
  C 155.45 182.83 142.67 202.38 132.29 220.05
  C 117.99 244.41 104.76 264.29 87.25 283.00
  C 86.53 283.77 82.71 288.05 80.35 289.14
  Q 79.22 289.66 78.49 289.54
  Q 68.09 287.74 57.77 289.88
  C 52.42 290.99 44.50 297.37 53.70 301.57
  C 62.73 305.69 74.85 299.03 82.06 293.46
  A 2.79 2.76 -55.7 0 1 84.53 292.98
  C 94.32 295.80 105.27 298.54 114.99 298.84
  C 135.85 299.48 157.02 293.27 171.79 277.91
  Q 172.21 277.47 172.27 278.08"
/>
<path stroke="#80247a" vector-effect="non-scaling-stroke" d="
  M 366.4087 254.9938
  A 2.76 1.45 43.9 0 0 365.4254 252.0352
  A 2.76 1.45 43.9 0 0 362.4313 251.1662
  A 2.76 1.45 43.9 0 0 363.4146 254.1248
  A 2.76 1.45 43.9 0 0 366.4087 254.9938"
/>
<path stroke="#80247a" vector-effect="non-scaling-stroke" d="
  M 416.4087 254.9938
  A 2.76 1.45 43.9 0 0 415.4254 252.0352
  A 2.76 1.45 43.9 0 0 412.4313 251.1662
  A 2.76 1.45 43.9 0 0 413.4146 254.1248
  A 2.76 1.45 43.9 0 0 416.4087 254.9938"
/>
<path stroke="#80247a" vector-effect="non-scaling-stroke" d="
  M 399.59 270.84
  C 395.20 278.76 391.34 290.59 395.07 299.52
  C 397.51 305.35 402.44 307.79 407.68 302.90
  Q 415.12 295.95 421.28 289.66
  C 431.10 279.65 440.72 273.29 453.60 268.80
  A 0.75 0.75 0.0 0 0 453.51 267.36
  Q 452.90 267.23 452.05 267.58
  C 442.47 271.65 430.14 276.90 422.83 284.08
  Q 416.71 290.10 410.81 296.28
  Q 406.37 300.93 400.83 301.95
  A 2.32 2.32 0.0 0 1 398.09 299.80
  C 397.27 285.87 403.73 274.54 411.39 263.56
  A 2.52 2.51 29.1 0 0 410.32 259.81
  Q 407.51 258.60 405.72 261.45
  C 403.98 264.23 402.18 267.49 399.06 268.90
  Q 393.69 271.33 388.37 273.87
  C 377.14 279.25 369.60 287.09 361.08 295.82
  C 359.05 297.91 348.41 307.03 348.05 298.26
  C 347.55 285.92 353.67 274.56 360.58 264.76
  C 361.71 263.16 362.24 261.70 360.74 260.24
  C 357.69 257.28 354.31 263.33 352.48 266.23
  Q 352.19 266.68 351.66 266.73
  Q 337.12 268.19 324.89 275.30
  C 316.51 280.17 305.08 290.67 298.43 296.68
  Q 294.19 300.52 289.24 301.59
  C 280.82 303.42 280.33 290.12 281.08 285.21
  C 282.52 275.80 289.47 258.85 299.37 255.25
  A 1.30 1.30 0.0 0 1 301.11 256.49
  Q 301.02 262.16 297.64 266.74
  A 0.73 0.72 41.3 0 0 297.70 267.67
  C 301.48 271.69 307.56 257.96 302.96 253.87
  C 296.79 248.40 286.19 261.42 283.41 265.93
  A 2.01 2.01 0.0 0 1 281.90 266.88
  Q 267.71 268.28 255.63 275.43
  C 247.50 280.24 236.03 290.61 229.57 296.59
  C 224.91 300.90 215.38 305.78 212.81 296.32
  C 209.05 282.49 217.89 262.00 229.98 255.27
  A 1.37 1.36 72.1 0 1 232.00 256.31
  C 232.45 260.23 230.58 263.27 228.90 266.54
  A 1.50 1.50 0.0 0 0 231.26 268.32
  Q 235.22 264.61 235.73 259.01
  C 236.30 252.74 230.01 251.23 225.78 254.03
  C 213.85 261.91 204.76 279.64 209.19 293.91
  C 211.66 301.82 219.04 305.51 226.24 301.19
  C 236.90 294.79 246.99 282.24 258.07 275.82
  Q 269.04 269.46 281.50 268.12
  Q 282.17 268.05 281.84 268.63
  C 277.92 275.61 275.94 284.70 277.80 292.61
  C 279.21 298.59 283.60 303.66 290.06 302.89
  C 296.94 302.07 305.31 293.55 310.88 288.38
  C 322.47 277.63 334.58 269.69 350.61 268.18
  Q 351.25 268.12 350.91 268.67
  Q 345.43 277.40 343.80 288.24
  C 342.99 293.69 344.13 302.07 349.44 304.98
  Q 352.61 306.71 356.03 304.25
  Q 361.27 300.48 371.65 289.14
  Q 382.82 276.95 399.36 270.57
  Q 399.84 270.38 399.59 270.84"
/>
<path stroke="#80247a" vector-effect="non-scaling-stroke" d="
  M 177.01 473.14
  C 105.83 450.79 48.38 394.10 24.11 323.61
  Q 23.90 323.00 23.25 323.00
  L 21.06 323.01
  Q 20.42 323.01 20.63 323.62
  Q 43.73 390.13 97.09 433.64
  C 135.95 465.33 184.66 484.65 235.21 487.45
  C 286.98 490.31 339.12 477.34 382.40 448.57
  Q 451.33 402.75 479.47 323.66
  A 0.50 0.49 -80.3 0 0 479.01 323.00
  L 476.75 323.00
  Q 476.10 323.00 475.89 323.62
  C 432.53 447.13 301.07 512.08 177.01 473.14"
/>
<path stroke="#80247a" vector-effect="non-scaling-stroke" d="
  M 186.43 384.36
  C 184.04 378.09 192.79 378.68 195.93 381.03
  A 0.47 0.47 0.0 0 0 196.67 380.74
  L 196.80 380.04
  Q 196.89 379.53 196.45 379.26
  C 193.00 377.07 186.69 376.54 184.57 380.82
  Q 183.39 383.20 184.97 385.96
  A 1.56 1.52 85.9 0 0 185.70 386.61
  C 188.18 387.65 192.96 388.27 194.84 389.68
  C 196.66 391.04 196.31 394.25 194.23 394.97
  Q 189.15 396.72 184.73 393.13
  Q 184.11 392.63 183.87 393.39
  L 183.68 393.97
  Q 183.52 394.45 183.93 394.74
  Q 189.07 398.50 194.50 396.70
  Q 198.97 395.21 197.91 390.94
  C 196.77 386.34 190.37 386.91 187.06 385.08
  Q 186.62 384.84 186.43 384.36"
/>
<path stroke="#80247a" vector-effect="non-scaling-stroke" d="
  M 159.78 388.01
  Q 163.90 387.94 167.99 387.95
  Q 168.46 387.95 168.68 387.72
  Q 168.99 387.40 168.90 386.91
  A 0.67 0.66 84.8 0 0 168.25 386.36
  L 159.93 386.33
  Q 159.28 386.33 159.29 385.68
  L 159.29 380.07
  Q 159.30 379.43 159.93 379.43
  L 169.68 379.43
  Q 170.30 379.42 170.19 378.81
  L 170.07 378.22
  Q 169.97 377.73 169.47 377.73
  L 157.98 377.73
  Q 157.44 377.73 157.44 378.27
  L 157.42 396.46
  A 0.54 0.54 0.0 0 0 157.96 397.00
  L 169.81 396.99
  A 0.64 0.63 3.6 0 0 170.44 396.44
  L 170.49 396.06
  A 0.69 0.68 3.7 0 0 169.81 395.29
  L 159.79 395.29
  Q 159.29 395.29 159.29 394.79
  L 159.29 388.51
  Q 159.29 388.02 159.78 388.01"
/>
<path stroke="#80247a" vector-effect="non-scaling-stroke" d="
  M 217.04 380.00
  Q 217.07 387.92 217.08 395.85
  Q 217.08 396.51 217.30 396.76
  Q 217.67 397.19 218.48 396.94
  A 0.74 0.73 81.4 0 0 218.99 396.24
  L 219.00 379.96
  Q 219.00 379.42 219.55 379.42
  L 225.29 379.45
  Q 225.87 379.45 225.90 378.87
  L 225.92 378.34
  Q 225.95 377.73 225.34 377.73
  L 210.78 377.73
  Q 210.29 377.73 210.24 378.22
  L 210.17 378.81
  A 0.54 0.54 0.0 0 0 210.70 379.42
  L 216.49 379.45
  Q 217.04 379.46 217.04 380.00"
/>
<path stroke="#80247a" vector-effect="non-scaling-stroke" d="
  M 286.5600 397.3200
  A 8.28 6.84 90.0 0 0 293.4000 389.0400
  A 8.28 6.84 90.0 0 0 286.5600 380.7600
  A 8.28 6.84 90.0 0 0 279.7200 389.0400
  A 8.28 6.84 90.0 0 0 286.5600 397.3200"
/>
<path stroke="#80247a" vector-effect="non-scaling-stroke" d="
  M 256.53 394.73
  C 257.21 391.00 263.54 390.64 265.36 387.23
  C 266.68 384.73 264.96 382.20 262.39 381.53
  Q 258.65 380.54 255.42 383.10
  Q 254.96 383.47 254.92 383.81
  Q 254.86 384.33 255.60 384.75
  A 0.65 0.64 37.5 0 0 256.38 384.65
  Q 259.41 381.66 262.78 383.62
  Q 264.01 384.34 263.79 385.90
  C 263.20 390.14 254.60 389.04 254.53 396.49
  Q 254.52 396.97 255.01 396.98
  Q 260.25 397.04 265.51 396.99
  Q 266.55 396.97 266.05 395.68
  Q 265.89 395.29 265.47 395.29
  L 257.01 395.30
  Q 256.42 395.30 256.53 394.73"
/>
<path stroke="#80247a" vector-effect="non-scaling-stroke" d="
  M 309.05 394.78
  C 309.79 390.02 320.54 390.20 317.92 383.96
  C 316.30 380.11 310.80 380.92 308.11 382.94
  Q 307.60 383.32 307.53 383.76
  Q 307.42 384.41 308.11 384.82
  A 0.65 0.64 -52.4 0 0 308.91 384.71
  Q 311.94 381.45 315.43 383.77
  Q 316.55 384.51 316.31 385.97
  C 315.60 390.21 307.09 389.01 307.03 396.52
  Q 307.03 397.00 307.51 397.00
  L 317.89 396.99
  Q 318.58 396.99 318.70 396.31
  L 318.75 396.03
  A 0.62 0.61 -84.9 0 0 318.15 395.30
  L 309.50 395.30
  Q 308.97 395.30 309.05 394.78"
/>
<path stroke="#80247a" vector-effect="non-scaling-stroke" d="
  M 334.06 394.77
  C 334.45 392.26 338.15 390.83 340.11 389.72
  C 348.33 385.04 339.35 377.80 332.64 383.28
  A 0.62 0.61 53.6 0 0 332.52 384.09
  L 332.94 384.73
  A 0.52 0.52 0.0 0 0 333.76 384.80
  C 337.85 380.27 345.27 385.19 338.73 388.65
  C 335.06 390.59 331.99 392.07 332.05 396.52
  Q 332.05 397.00 332.53 397.00
  L 343.08 396.99
  A 0.57 0.57 0.0 0 0 343.64 396.51
  L 343.76 395.84
  Q 343.86 395.32 343.33 395.32
  L 334.50 395.29
  Q 333.98 395.29 334.06 394.77"
/>
<path stroke="#80247a" vector-effect="non-scaling-stroke" d="
  M 239.13 394.61
  L 239.01 396.65
  A 0.90 0.78 -45.2 0 0 240.69 396.52
  Q 240.77 395.48 240.50 394.47
  A 0.70 0.70 0.0 0 0 239.13 394.61"
/>
<path stroke="#80247a" vector-effect="non-scaling-stroke" d="
  M 176.14 108.77
  L 182.12 122.60
  A 0.45 0.45 0.0 0 0 182.71 122.83
  L 186.54 121.17
  A 7.43 7.34 66.6 0 0 190.33 111.44
  L 189.89 110.43
  A 7.43 7.34 66.6 0 0 180.20 106.53
  L 176.38 108.18
  A 0.45 0.45 0.0 0 0 176.14 108.77"
/>
<path stroke="#80247a" vector-effect="non-scaling-stroke" d="
  M 76.28 291.26
  C 70.30 290.69 58.27 290.06 54.10 296.39
  A 1.20 1.18 52.1 0 0 53.98 297.44
  Q 55.19 300.69 58.71 300.24
  Q 69.01 298.94 76.51 291.93
  Q 77.14 291.34 76.28 291.26"
/>
<path stroke="#80247a" vector-effect="non-scaling-stroke" d="
  M 286.5614 395.6000
  A 6.56 4.99 89.9 0 0 291.5400 389.0313
  A 6.56 4.99 89.9 0 0 286.5386 382.4800
  A 6.56 4.99 89.9 0 0 281.5600 389.0487
  A 6.56 4.99 89.9 0 0 286.5614 395.6000"
/>
</g>
<path fill="#000000" d="
  M 0.00 0.00
  L 500.00 0.00
  L 500.00 500.00
  L 0.00 500.00
  L 0.00 0.00
  Z
  M 88.01 74.10
  C 57.42 101.83 33.66 137.08 20.65 176.41
  Q 20.45 177.01 21.08 177.00
  L 23.39 176.98
  Q 23.93 176.97 24.10 176.46
  C 76.55 26.81 253.91 -30.95 384.53 57.01
  C 427.14 85.71 458.63 127.93 475.85 176.38
  A 0.93 0.93 0.0 0 0 476.74 177.00
  L 478.97 176.99
  Q 479.58 176.98 479.39 176.41
  C 455.67 107.21 401.59 51.45 333.00 26.69
  C 249.04 -3.61 154.31 14.03 88.01 74.10
  Z
  M 235.79 92.98
  Q 239.86 91.25 243.57 93.53
  Q 244.08 93.84 244.46 93.39
  L 244.74 93.06
  A 0.66 0.65 35.6 0 0 244.57 92.07
  C 240.95 90.00 234.76 89.66 232.62 93.91
  Q 231.31 96.50 233.37 99.58
  A 1.22 1.19 79.3 0 0 234.07 100.07
  Q 236.59 100.69 241.95 101.78
  Q 245.83 102.58 244.21 106.72
  A 1.27 1.23 -3.7 0 1 243.61 107.38
  Q 238.73 109.81 233.60 106.62
  Q 232.75 106.10 232.35 107.29
  A 0.71 0.71 0.0 0 0 232.62 108.09
  C 236.29 110.61 244.68 111.61 246.44 106.02
  C 249.41 96.55 230.72 102.39 234.53 94.20
  A 2.46 2.40 -88.3 0 1 235.79 92.98
  Z
  M 263.5808 91.2851
  A 0.49 0.49 0.0 0 0 263.1253 90.7630
  L 262.2274 90.7017
  A 0.49 0.49 0.0 0 0 261.7052 91.1573
  L 260.4592 109.4349
  A 0.49 0.49 0.0 0 0 260.9147 109.9570
  L 261.8126 110.0183
  A 0.49 0.49 0.0 0 0 262.3348 109.5627
  L 263.5808 91.2851
  Z
  M 210.11 113.04
  A 0.33 0.33 0.0 0 1 209.72 112.80
  L 208.21 106.29
  A 0.33 0.33 0.0 0 1 208.46 105.89
  L 217.06 103.87
  A 0.33 0.33 0.0 0 0 217.29 103.43
  L 216.92 102.50
  A 0.33 0.33 0.0 0 0 216.54 102.30
  L 208.07 104.31
  A 0.33 0.33 0.0 0 1 207.67 104.07
  L 206.21 97.95
  A 0.33 0.33 0.0 0 1 206.45 97.55
  L 216.28 95.25
  A 0.33 0.33 0.0 0 0 216.53 94.91
  L 216.47 93.87
  A 0.33 0.33 0.0 0 0 216.06 93.57
  L 204.24 96.35
  A 0.33 0.33 0.0 0 0 204.00 96.75
  L 208.27 114.88
  A 0.33 0.33 0.0 0 0 208.67 115.12
  L 220.51 112.31
  A 0.33 0.33 0.0 0 0 220.76 111.99
  L 220.78 110.93
  A 0.33 0.33 0.0 0 0 220.37 110.61
  L 210.11 113.04
  Z
  M 290.86 112.85
  L 290.52 114.32
  A 0.54 0.54 0.0 0 0 291.09 114.98
  L 291.57 114.94
  A 0.70 0.70 0.0 0 0 292.20 114.39
  L 293.95 106.28
  Q 294.07 105.76 293.55 105.65
  L 288.51 104.63
  A 0.40 0.40 0.0 0 0 288.03 105.01
  L 288.01 105.44
  Q 287.99 106.01 288.55 106.13
  L 291.44 106.75
  Q 291.84 106.83 291.89 107.24
  Q 292.15 109.44 290.94 110.42
  C 287.13 113.51 282.05 112.04 280.09 107.66
  C 276.40 99.41 286.64 90.63 293.31 100.32
  A 0.60 0.60 0.0 0 0 294.20 100.43
  Q 294.94 99.77 294.18 98.55
  Q 291.92 94.89 288.14 94.35
  C 277.58 92.84 273.79 107.63 281.97 112.62
  Q 285.79 114.95 290.31 112.44
  Q 291.05 112.02 290.86 112.85
  Z
  M 318.85 120.72
  L 313.64 101.95
  A 0.86 0.85 48.9 0 0 312.03 101.84
  L 304.97 118.35
  Q 304.71 118.97 305.33 119.23
  L 305.87 119.46
  Q 306.47 119.71 306.72 119.12
  L 312.28 106.05
  Q 312.63 105.22 312.88 106.09
  L 317.94 124.28
  A 1.05 1.05 0.0 0 0 319.91 124.41
  L 326.85 108.15
  A 0.76 0.76 0.0 0 0 326.38 107.13
  L 325.86 106.97
  Q 325.36 106.81 325.16 107.29
  L 319.42 120.76
  Q 319.08 121.54 318.85 120.72
  Z
  M 173.77 108.01
  L 181.04 124.89
  A 0.46 0.46 0.0 0 0 181.64 125.13
  L 187.39 122.65
  A 9.00 8.98 -23.3 0 0 192.10 110.85
  L 191.57 109.62
  A 9.00 8.98 -23.3 0 0 179.76 104.93
  L 174.01 107.40
  A 0.46 0.46 0.0 0 0 173.77 108.01
  Z
  M 172.27 278.08
  Q 172.70 282.44 176.42 283.50
  C 181.43 284.92 183.39 280.75 186.39 278.04
  A 0.27 0.27 0.0 0 1 186.83 278.33
  C 184.09 286.67 181.71 293.09 182.43 302.73
  C 182.75 307.01 184.69 313.39 189.38 314.65
  A 0.50 0.50 0.0 0 0 189.85 313.80
  C 185.41 309.70 185.80 300.45 186.71 295.15
  C 189.28 280.24 198.90 264.57 209.67 254.07
  A 0.70 0.69 42.2 0 0 209.61 253.02
  Q 207.25 251.16 204.81 253.10
  Q 200.00 256.95 195.73 261.35
  C 190.47 266.76 185.26 274.94 179.19 281.30
  A 0.97 0.96 -25.3 0 1 177.53 280.71
  C 176.98 273.26 181.33 264.65 185.42 258.41
  A 1.38 1.37 -59.3 0 0 184.92 256.44
  C 178.55 253.03 173.31 268.56 172.65 272.51
  Q 172.57 273.02 172.20 273.37
  Q 150.03 294.38 120.14 296.15
  C 108.88 296.81 97.23 294.16 86.12 291.00
  A 0.35 0.35 0.0 0 1 85.99 290.39
  C 97.77 280.74 107.43 267.80 116.00 255.26
  C 124.44 242.91 133.03 225.80 140.97 213.23
  Q 150.51 198.14 161.51 185.39
  Q 164.66 181.75 162.32 185.96
  Q 160.01 190.11 158.71 194.77
  A 0.99 0.99 0.0 0 0 160.56 195.46
  Q 166.70 182.63 175.29 171.29
  Q 175.57 170.92 175.24 170.58
  Q 173.50 168.84 171.56 170.34
  C 155.45 182.83 142.67 202.38 132.29 220.05
  C 117.99 244.41 104.76 264.29 87.25 283.00
  C 86.53 283.77 82.71 288.05 80.35 289.14
  Q 79.22 289.66 78.49 289.54
  Q 68.09 287.74 57.77 289.88
  C 52.42 290.99 44.50 297.37 53.70 301.57
  C 62.73 305.69 74.85 299.03 82.06 293.46
  A 2.79 2.76 -55.7 0 1 84.53 292.98
  C 94.32 295.80 105.27 298.54 114.99 298.84
  C 135.85 299.48 157.02 293.27 171.79 277.91
  Q 172.21 277.47 172.27 278.08
  Z
  M 366.4087 254.9938
  A 2.76 1.45 43.9 0 0 365.4254 252.0352
  A 2.76 1.45 43.9 0 0 362.4313 251.1662
  A 2.76 1.45 43.9 0 0 363.4146 254.1248
  A 2.76 1.45 43.9 0 0 366.4087 254.9938
  Z
  M 416.4087 254.9938
  A 2.76 1.45 43.9 0 0 415.4254 252.0352
  A 2.76 1.45 43.9 0 0 412.4313 251.1662
  A 2.76 1.45 43.9 0 0 413.4146 254.1248
  A 2.76 1.45 43.9 0 0 416.4087 254.9938
  Z
  M 399.59 270.84
  C 395.20 278.76 391.34 290.59 395.07 299.52
  C 397.51 305.35 402.44 307.79 407.68 302.90
  Q 415.12 295.95 421.28 289.66
  C 431.10 279.65 440.72 273.29 453.60 268.80
  A 0.75 0.75 0.0 0 0 453.51 267.36
  Q 452.90 267.23 452.05 267.58
  C 442.47 271.65 430.14 276.90 422.83 284.08
  Q 416.71 290.10 410.81 296.28
  Q 406.37 300.93 400.83 301.95
  A 2.32 2.32 0.0 0 1 398.09 299.80
  C 397.27 285.87 403.73 274.54 411.39 263.56
  A 2.52 2.51 29.1 0 0 410.32 259.81
  Q 407.51 258.60 405.72 261.45
  C 403.98 264.23 402.18 267.49 399.06 268.90
  Q 393.69 271.33 388.37 273.87
  C 377.14 279.25 369.60 287.09 361.08 295.82
  C 359.05 297.91 348.41 307.03 348.05 298.26
  C 347.55 285.92 353.67 274.56 360.58 264.76
  C 361.71 263.16 362.24 261.70 360.74 260.24
  C 357.69 257.28 354.31 263.33 352.48 266.23
  Q 352.19 266.68 351.66 266.73
  Q 337.12 268.19 324.89 275.30
  C 316.51 280.17 305.08 290.67 298.43 296.68
  Q 294.19 300.52 289.24 301.59
  C 280.82 303.42 280.33 290.12 281.08 285.21
  C 282.52 275.80 289.47 258.85 299.37 255.25
  A 1.30 1.30 0.0 0 1 301.11 256.49
  Q 301.02 262.16 297.64 266.74
  A 0.73 0.72 41.3 0 0 297.70 267.67
  C 301.48 271.69 307.56 257.96 302.96 253.87
  C 296.79 248.40 286.19 261.42 283.41 265.93
  A 2.01 2.01 0.0 0 1 281.90 266.88
  Q 267.71 268.28 255.63 275.43
  C 247.50 280.24 236.03 290.61 229.57 296.59
  C 224.91 300.90 215.38 305.78 212.81 296.32
  C 209.05 282.49 217.89 262.00 229.98 255.27
  A 1.37 1.36 72.1 0 1 232.00 256.31
  C 232.45 260.23 230.58 263.27 228.90 266.54
  A 1.50 1.50 0.0 0 0 231.26 268.32
  Q 235.22 264.61 235.73 259.01
  C 236.30 252.74 230.01 251.23 225.78 254.03
  C 213.85 261.91 204.76 279.64 209.19 293.91
  C 211.66 301.82 219.04 305.51 226.24 301.19
  C 236.90 294.79 246.99 282.24 258.07 275.82
  Q 269.04 269.46 281.50 268.12
  Q 282.17 268.05 281.84 268.63
  C 277.92 275.61 275.94 284.70 277.80 292.61
  C 279.21 298.59 283.60 303.66 290.06 302.89
  C 296.94 302.07 305.31 293.55 310.88 288.38
  C 322.47 277.63 334.58 269.69 350.61 268.18
  Q 351.25 268.12 350.91 268.67
  Q 345.43 277.40 343.80 288.24
  C 342.99 293.69 344.13 302.07 349.44 304.98
  Q 352.61 306.71 356.03 304.25
  Q 361.27 300.48 371.65 289.14
  Q 382.82 276.95 399.36 270.57
  Q 399.84 270.38 399.59 270.84
  Z
  M 177.01 473.14
  C 105.83 450.79 48.38 394.10 24.11 323.61
  Q 23.90 323.00 23.25 323.00
  L 21.06 323.01
  Q 20.42 323.01 20.63 323.62
  Q 43.73 390.13 97.09 433.64
  C 135.95 465.33 184.66 484.65 235.21 487.45
  C 286.98 490.31 339.12 477.34 382.40 448.57
  Q 451.33 402.75 479.47 323.66
  A 0.50 0.49 -80.3 0 0 479.01 323.00
  L 476.75 323.00
  Q 476.10 323.00 475.89 323.62
  C 432.53 447.13 301.07 512.08 177.01 473.14
  Z
  M 186.43 384.36
  C 184.04 378.09 192.79 378.68 195.93 381.03
  A 0.47 0.47 0.0 0 0 196.67 380.74
  L 196.80 380.04
  Q 196.89 379.53 196.45 379.26
  C 193.00 377.07 186.69 376.54 184.57 380.82
  Q 183.39 383.20 184.97 385.96
  A 1.56 1.52 85.9 0 0 185.70 386.61
  C 188.18 387.65 192.96 388.27 194.84 389.68
  C 196.66 391.04 196.31 394.25 194.23 394.97
  Q 189.15 396.72 184.73 393.13
  Q 184.11 392.63 183.87 393.39
  L 183.68 393.97
  Q 183.52 394.45 183.93 394.74
  Q 189.07 398.50 194.50 396.70
  Q 198.97 395.21 197.91 390.94
  C 196.77 386.34 190.37 386.91 187.06 385.08
  Q 186.62 384.84 186.43 384.36
  Z
  M 159.78 388.01
  Q 163.90 387.94 167.99 387.95
  Q 168.46 387.95 168.68 387.72
  Q 168.99 387.40 168.90 386.91
  A 0.67 0.66 84.8 0 0 168.25 386.36
  L 159.93 386.33
  Q 159.28 386.33 159.29 385.68
  L 159.29 380.07
  Q 159.30 379.43 159.93 379.43
  L 169.68 379.43
  Q 170.30 379.42 170.19 378.81
  L 170.07 378.22
  Q 169.97 377.73 169.47 377.73
  L 157.98 377.73
  Q 157.44 377.73 157.44 378.27
  L 157.42 396.46
  A 0.54 0.54 0.0 0 0 157.96 397.00
  L 169.81 396.99
  A 0.64 0.63 3.6 0 0 170.44 396.44
  L 170.49 396.06
  A 0.69 0.68 3.7 0 0 169.81 395.29
  L 159.79 395.29
  Q 159.29 395.29 159.29 394.79
  L 159.29 388.51
  Q 159.29 388.02 159.78 388.01
  Z
  M 217.04 380.00
  Q 217.07 387.92 217.08 395.85
  Q 217.08 396.51 217.30 396.76
  Q 217.67 397.19 218.48 396.94
  A 0.74 0.73 81.4 0 0 218.99 396.24
  L 219.00 379.96
  Q 219.00 379.42 219.55 379.42
  L 225.29 379.45
  Q 225.87 379.45 225.90 378.87
  L 225.92 378.34
  Q 225.95 377.73 225.34 377.73
  L 210.78 377.73
  Q 210.29 377.73 210.24 378.22
  L 210.17 378.81
  A 0.54 0.54 0.0 0 0 210.70 379.42
  L 216.49 379.45
  Q 217.04 379.46 217.04 380.00
  Z
  M 286.5600 397.3200
  A 8.28 6.84 90.0 0 0 293.4000 389.0400
  A 8.28 6.84 90.0 0 0 286.5600 380.7600
  A 8.28 6.84 90.0 0 0 279.7200 389.0400
  A 8.28 6.84 90.0 0 0 286.5600 397.3200
  Z
  M 256.53 394.73
  C 257.21 391.00 263.54 390.64 265.36 387.23
  C 266.68 384.73 264.96 382.20 262.39 381.53
  Q 258.65 380.54 255.42 383.10
  Q 254.96 383.47 254.92 383.81
  Q 254.86 384.33 255.60 384.75
  A 0.65 0.64 37.5 0 0 256.38 384.65
  Q 259.41 381.66 262.78 383.62
  Q 264.01 384.34 263.79 385.90
  C 263.20 390.14 254.60 389.04 254.53 396.49
  Q 254.52 396.97 255.01 396.98
  Q 260.25 397.04 265.51 396.99
  Q 266.55 396.97 266.05 395.68
  Q 265.89 395.29 265.47 395.29
  L 257.01 395.30
  Q 256.42 395.30 256.53 394.73
  Z
  M 309.05 394.78
  C 309.79 390.02 320.54 390.20 317.92 383.96
  C 316.30 380.11 310.80 380.92 308.11 382.94
  Q 307.60 383.32 307.53 383.76
  Q 307.42 384.41 308.11 384.82
  A 0.65 0.64 -52.4 0 0 308.91 384.71
  Q 311.94 381.45 315.43 383.77
  Q 316.55 384.51 316.31 385.97
  C 315.60 390.21 307.09 389.01 307.03 396.52
  Q 307.03 397.00 307.51 397.00
  L 317.89 396.99
  Q 318.58 396.99 318.70 396.31
  L 318.75 396.03
  A 0.62 0.61 -84.9 0 0 318.15 395.30
  L 309.50 395.30
  Q 308.97 395.30 309.05 394.78
  Z
  M 334.06 394.77
  C 334.45 392.26 338.15 390.83 340.11 389.72
  C 348.33 385.04 339.35 377.80 332.64 383.28
  A 0.62 0.61 53.6 0 0 332.52 384.09
  L 332.94 384.73
  A 0.52 0.52 0.0 0 0 333.76 384.80
  C 337.85 380.27 345.27 385.19 338.73 388.65
  C 335.06 390.59 331.99 392.07 332.05 396.52
  Q 332.05 397.00 332.53 397.00
  L 343.08 396.99
  A 0.57 0.57 0.0 0 0 343.64 396.51
  L 343.76 395.84
  Q 343.86 395.32 343.33 395.32
  L 334.50 395.29
  Q 333.98 395.29 334.06 394.77
  Z
  M 239.13 394.61
  L 239.01 396.65
  A 0.90 0.78 -45.2 0 0 240.69 396.52
  Q 240.77 395.48 240.50 394.47
  A 0.70 0.70 0.0 0 0 239.13 394.61
  Z"
/>
<path fill="#ff48f3" d="
  M 20.65 176.41
  C 33.66 137.08 57.42 101.83 88.01 74.10
  C 154.31 14.03 249.04 -3.61 333.00 26.69
  C 401.59 51.45 455.67 107.21 479.39 176.41
  Q 479.58 176.98 478.97 176.99
  L 476.74 177.00
  A 0.93 0.93 0.0 0 1 475.85 176.38
  C 458.63 127.93 427.14 85.71 384.53 57.01
  C 253.91 -30.95 76.55 26.81 24.10 176.46
  Q 23.93 176.97 23.39 176.98
  L 21.08 177.00
  Q 20.45 177.01 20.65 176.41
  Z"
/>
<path fill="#ff48f3" d="
  M 235.79 92.98
  A 2.46 2.40 -88.3 0 0 234.53 94.20
  C 230.72 102.39 249.41 96.55 246.44 106.02
  C 244.68 111.61 236.29 110.61 232.62 108.09
  A 0.71 0.71 0.0 0 1 232.35 107.29
  Q 232.75 106.10 233.60 106.62
  Q 238.73 109.81 243.61 107.38
  A 1.27 1.23 -3.7 0 0 244.21 106.72
  Q 245.83 102.58 241.95 101.78
  Q 236.59 100.69 234.07 100.07
  A 1.22 1.19 79.3 0 1 233.37 99.58
  Q 231.31 96.50 232.62 93.91
  C 234.76 89.66 240.95 90.00 244.57 92.07
  A 0.66 0.65 35.6 0 1 244.74 93.06
  L 244.46 93.39
  Q 244.08 93.84 243.57 93.53
  Q 239.86 91.25 235.79 92.98
  Z"
/>
<rect fill="#ff48f3" x="-0.94" y="-9.65" transform="translate(262.02,100.36) rotate(3.9)" width="1.88" height="19.30" rx="0.49"/>
<path fill="#ff48f3" d="
  M 210.11 113.04
  L 220.37 110.61
  A 0.33 0.33 0.0 0 1 220.78 110.93
  L 220.76 111.99
  A 0.33 0.33 0.0 0 1 220.51 112.31
  L 208.67 115.12
  A 0.33 0.33 0.0 0 1 208.27 114.88
  L 204.00 96.75
  A 0.33 0.33 0.0 0 1 204.24 96.35
  L 216.06 93.57
  A 0.33 0.33 0.0 0 1 216.47 93.87
  L 216.53 94.91
  A 0.33 0.33 0.0 0 1 216.28 95.25
  L 206.45 97.55
  A 0.33 0.33 0.0 0 0 206.21 97.95
  L 207.67 104.07
  A 0.33 0.33 0.0 0 0 208.07 104.31
  L 216.54 102.30
  A 0.33 0.33 0.0 0 1 216.92 102.50
  L 217.29 103.43
  A 0.33 0.33 0.0 0 1 217.06 103.87
  L 208.46 105.89
  A 0.33 0.33 0.0 0 0 208.21 106.29
  L 209.72 112.80
  A 0.33 0.33 0.0 0 0 210.11 113.04
  Z"
/>
<path fill="#ff48f3" d="
  M 290.31 112.44
  Q 285.79 114.95 281.97 112.62
  C 273.79 107.63 277.58 92.84 288.14 94.35
  Q 291.92 94.89 294.18 98.55
  Q 294.94 99.77 294.20 100.43
  A 0.60 0.60 0.0 0 1 293.31 100.32
  C 286.64 90.63 276.40 99.41 280.09 107.66
  C 282.05 112.04 287.13 113.51 290.94 110.42
  Q 292.15 109.44 291.89 107.24
  Q 291.84 106.83 291.44 106.75
  L 288.55 106.13
  Q 287.99 106.01 288.01 105.44
  L 288.03 105.01
  A 0.40 0.40 0.0 0 1 288.51 104.63
  L 293.55 105.65
  Q 294.07 105.76 293.95 106.28
  L 292.20 114.39
  A 0.70 0.70 0.0 0 1 291.57 114.94
  L 291.09 114.98
  A 0.54 0.54 0.0 0 1 290.52 114.32
  L 290.86 112.85
  Q 291.05 112.02 290.31 112.44
  Z"
/>
<path fill="#ff48f3" d="
  M 319.42 120.76
  L 325.16 107.29
  Q 325.36 106.81 325.86 106.97
  L 326.38 107.13
  A 0.76 0.76 0.0 0 1 326.85 108.15
  L 319.91 124.41
  A 1.05 1.05 0.0 0 1 317.94 124.28
  L 312.88 106.09
  Q 312.63 105.22 312.28 106.05
  L 306.72 119.12
  Q 306.47 119.71 305.87 119.46
  L 305.33 119.23
  Q 304.71 118.97 304.97 118.35
  L 312.03 101.84
  A 0.86 0.85 48.9 0 1 313.64 101.95
  L 318.85 120.72
  Q 319.08 121.54 319.42 120.76
  Z"
/>
<path fill="#ff48f3" d="
  M 173.77 108.01
  A 0.46 0.46 0.0 0 1 174.01 107.40
  L 179.76 104.93
  A 9.00 8.98 -23.3 0 1 191.57 109.62
  L 192.10 110.85
  A 9.00 8.98 -23.3 0 1 187.39 122.65
  L 181.64 125.13
  A 0.46 0.46 0.0 0 1 181.04 124.89
  L 173.77 108.01
  Z
  M 176.14 108.77
  L 182.12 122.60
  A 0.45 0.45 0.0 0 0 182.71 122.83
  L 186.54 121.17
  A 7.43 7.34 66.6 0 0 190.33 111.44
  L 189.89 110.43
  A 7.43 7.34 66.6 0 0 180.20 106.53
  L 176.38 108.18
  A 0.45 0.45 0.0 0 0 176.14 108.77
  Z"
/>
<path fill="#000000" d="
  M 176.14 108.77
  A 0.45 0.45 0.0 0 1 176.38 108.18
  L 180.20 106.53
  A 7.43 7.34 66.6 0 1 189.89 110.43
  L 190.33 111.44
  A 7.43 7.34 66.6 0 1 186.54 121.17
  L 182.71 122.83
  A 0.45 0.45 0.0 0 1 182.12 122.60
  L 176.14 108.77
  Z"
/>
<path fill="#ff48f3" d="
  M 171.79 277.91
  C 157.02 293.27 135.85 299.48 114.99 298.84
  C 105.27 298.54 94.32 295.80 84.53 292.98
  A 2.79 2.76 -55.7 0 0 82.06 293.46
  C 74.85 299.03 62.73 305.69 53.70 301.57
  C 44.50 297.37 52.42 290.99 57.77 289.88
  Q 68.09 287.74 78.49 289.54
  Q 79.22 289.66 80.35 289.14
  C 82.71 288.05 86.53 283.77 87.25 283.00
  C 104.76 264.29 117.99 244.41 132.29 220.05
  C 142.67 202.38 155.45 182.83 171.56 170.34
  Q 173.50 168.84 175.24 170.58
  Q 175.57 170.92 175.29 171.29
  Q 166.70 182.63 160.56 195.46
  A 0.99 0.99 0.0 0 1 158.71 194.77
  Q 160.01 190.11 162.32 185.96
  Q 164.66 181.75 161.51 185.39
  Q 150.51 198.14 140.97 213.23
  C 133.03 225.80 124.44 242.91 116.00 255.26
  C 107.43 267.80 97.77 280.74 85.99 290.39
  A 0.35 0.35 0.0 0 0 86.12 291.00
  C 97.23 294.16 108.88 296.81 120.14 296.15
  Q 150.03 294.38 172.20 273.37
  Q 172.57 273.02 172.65 272.51
  C 173.31 268.56 178.55 253.03 184.92 256.44
  A 1.38 1.37 -59.3 0 1 185.42 258.41
  C 181.33 264.65 176.98 273.26 177.53 280.71
  A 0.97 0.96 -25.3 0 0 179.19 281.30
  C 185.26 274.94 190.47 266.76 195.73 261.35
  Q 200.00 256.95 204.81 253.10
  Q 207.25 251.16 209.61 253.02
  A 0.70 0.69 42.2 0 1 209.67 254.07
  C 198.90 264.57 189.28 280.24 186.71 295.15
  C 185.80 300.45 185.41 309.70 189.85 313.80
  A 0.50 0.50 0.0 0 1 189.38 314.65
  C 184.69 313.39 182.75 307.01 182.43 302.73
  C 181.71 293.09 184.09 286.67 186.83 278.33
  A 0.27 0.27 0.0 0 0 186.39 278.04
  C 183.39 280.75 181.43 284.92 176.42 283.50
  Q 172.70 282.44 172.27 278.08
  Q 172.21 277.47 171.79 277.91
  Z
  M 76.28 291.26
  C 70.30 290.69 58.27 290.06 54.10 296.39
  A 1.20 1.18 52.1 0 0 53.98 297.44
  Q 55.19 300.69 58.71 300.24
  Q 69.01 298.94 76.51 291.93
  Q 77.14 291.34 76.28 291.26
  Z"
/>
<ellipse fill="#ff48f3" cx="0.00" cy="0.00" transform="translate(364.42,253.08) rotate(43.9)" rx="2.76" ry="1.45"/>
<ellipse fill="#ff48f3" cx="0.00" cy="0.00" transform="translate(414.42,253.08) rotate(43.9)" rx="2.76" ry="1.45"/>
<path fill="#ff48f3" d="
  M 399.36 270.57
  Q 382.82 276.95 371.65 289.14
  Q 361.27 300.48 356.03 304.25
  Q 352.61 306.71 349.44 304.98
  C 344.13 302.07 342.99 293.69 343.80 288.24
  Q 345.43 277.40 350.91 268.67
  Q 351.25 268.12 350.61 268.18
  C 334.58 269.69 322.47 277.63 310.88 288.38
  C 305.31 293.55 296.94 302.07 290.06 302.89
  C 283.60 303.66 279.21 298.59 277.80 292.61
  C 275.94 284.70 277.92 275.61 281.84 268.63
  Q 282.17 268.05 281.50 268.12
  Q 269.04 269.46 258.07 275.82
  C 246.99 282.24 236.90 294.79 226.24 301.19
  C 219.04 305.51 211.66 301.82 209.19 293.91
  C 204.76 279.64 213.85 261.91 225.78 254.03
  C 230.01 251.23 236.30 252.74 235.73 259.01
  Q 235.22 264.61 231.26 268.32
  A 1.50 1.50 0.0 0 1 228.90 266.54
  C 230.58 263.27 232.45 260.23 232.00 256.31
  A 1.37 1.36 72.1 0 0 229.98 255.27
  C 217.89 262.00 209.05 282.49 212.81 296.32
  C 215.38 305.78 224.91 300.90 229.57 296.59
  C 236.03 290.61 247.50 280.24 255.63 275.43
  Q 267.71 268.28 281.90 266.88
  A 2.01 2.01 0.0 0 0 283.41 265.93
  C 286.19 261.42 296.79 248.40 302.96 253.87
  C 307.56 257.96 301.48 271.69 297.70 267.67
  A 0.73 0.72 41.3 0 1 297.64 266.74
  Q 301.02 262.16 301.11 256.49
  A 1.30 1.30 0.0 0 0 299.37 255.25
  C 289.47 258.85 282.52 275.80 281.08 285.21
  C 280.33 290.12 280.82 303.42 289.24 301.59
  Q 294.19 300.52 298.43 296.68
  C 305.08 290.67 316.51 280.17 324.89 275.30
  Q 337.12 268.19 351.66 266.73
  Q 352.19 266.68 352.48 266.23
  C 354.31 263.33 357.69 257.28 360.74 260.24
  C 362.24 261.70 361.71 263.16 360.58 264.76
  C 353.67 274.56 347.55 285.92 348.05 298.26
  C 348.41 307.03 359.05 297.91 361.08 295.82
  C 369.60 287.09 377.14 279.25 388.37 273.87
  Q 393.69 271.33 399.06 268.90
  C 402.18 267.49 403.98 264.23 405.72 261.45
  Q 407.51 258.60 410.32 259.81
  A 2.52 2.51 29.1 0 1 411.39 263.56
  C 403.73 274.54 397.27 285.87 398.09 299.80
  A 2.32 2.32 0.0 0 0 400.83 301.95
  Q 406.37 300.93 410.81 296.28
  Q 416.71 290.10 422.83 284.08
  C 430.14 276.90 442.47 271.65 452.05 267.58
  Q 452.90 267.23 453.51 267.36
  A 0.75 0.75 0.0 0 1 453.60 268.80
  C 440.72 273.29 431.10 279.65 421.28 289.66
  Q 415.12 295.95 407.68 302.90
  C 402.44 307.79 397.51 305.35 395.07 299.52
  C 391.34 290.59 395.20 278.76 399.59 270.84
  Q 399.84 270.38 399.36 270.57
  Z"
/>
<path fill="#000000" d="
  M 76.51 291.93
  Q 69.01 298.94 58.71 300.24
  Q 55.19 300.69 53.98 297.44
  A 1.20 1.18 52.1 0 1 54.10 296.39
  C 58.27 290.06 70.30 290.69 76.28 291.26
  Q 77.14 291.34 76.51 291.93
  Z"
/>
<path fill="#ff48f3" d="
  M 24.11 323.61
  C 48.38 394.10 105.83 450.79 177.01 473.14
  C 301.07 512.08 432.53 447.13 475.89 323.62
  Q 476.10 323.00 476.75 323.00
  L 479.01 323.00
  A 0.50 0.49 -80.3 0 1 479.47 323.66
  Q 451.33 402.75 382.40 448.57
  C 339.12 477.34 286.98 490.31 235.21 487.45
  C 184.66 484.65 135.95 465.33 97.09 433.64
  Q 43.73 390.13 20.63 323.62
  Q 20.42 323.01 21.06 323.01
  L 23.25 323.00
  Q 23.90 323.00 24.11 323.61
  Z"
/>
<path fill="#ff48f3" d="
  M 187.06 385.08
  C 190.37 386.91 196.77 386.34 197.91 390.94
  Q 198.97 395.21 194.50 396.70
  Q 189.07 398.50 183.93 394.74
  Q 183.52 394.45 183.68 393.97
  L 183.87 393.39
  Q 184.11 392.63 184.73 393.13
  Q 189.15 396.72 194.23 394.97
  C 196.31 394.25 196.66 391.04 194.84 389.68
  C 192.96 388.27 188.18 387.65 185.70 386.61
  A 1.56 1.52 85.9 0 1 184.97 385.96
  Q 183.39 383.20 184.57 380.82
  C 186.69 376.54 193.00 377.07 196.45 379.26
  Q 196.89 379.53 196.80 380.04
  L 196.67 380.74
  A 0.47 0.47 0.0 0 1 195.93 381.03
  C 192.79 378.68 184.04 378.09 186.43 384.36
  Q 186.62 384.84 187.06 385.08
  Z"
/>
<path fill="#ff48f3" d="
  M 159.29 388.51
  L 159.29 394.79
  Q 159.29 395.29 159.79 395.29
  L 169.81 395.29
  A 0.69 0.68 3.7 0 1 170.49 396.06
  L 170.44 396.44
  A 0.64 0.63 3.6 0 1 169.81 396.99
  L 157.96 397.00
  A 0.54 0.54 0.0 0 1 157.42 396.46
  L 157.44 378.27
  Q 157.44 377.73 157.98 377.73
  L 169.47 377.73
  Q 169.97 377.73 170.07 378.22
  L 170.19 378.81
  Q 170.30 379.42 169.68 379.43
  L 159.93 379.43
  Q 159.30 379.43 159.29 380.07
  L 159.29 385.68
  Q 159.28 386.33 159.93 386.33
  L 168.25 386.36
  A 0.67 0.66 84.8 0 1 168.90 386.91
  Q 168.99 387.40 168.68 387.72
  Q 168.46 387.95 167.99 387.95
  Q 163.90 387.94 159.78 388.01
  Q 159.29 388.02 159.29 388.51
  Z"
/>
<path fill="#ff48f3" d="
  M 216.49 379.45
  L 210.70 379.42
  A 0.54 0.54 0.0 0 1 210.17 378.81
  L 210.24 378.22
  Q 210.29 377.73 210.78 377.73
  L 225.34 377.73
  Q 225.95 377.73 225.92 378.34
  L 225.90 378.87
  Q 225.87 379.45 225.29 379.45
  L 219.55 379.42
  Q 219.00 379.42 219.00 379.96
  L 218.99 396.24
  A 0.74 0.73 81.4 0 1 218.48 396.94
  Q 217.67 397.19 217.30 396.76
  Q 217.08 396.51 217.08 395.85
  Q 217.07 387.92 217.04 380.00
  Q 217.04 379.46 216.49 379.45
  Z"
/>
<path fill="#ff48f3" d="
  M 286.5600 397.3200
  A 8.28 6.84 90.0 0 1 279.7200 389.0400
  A 8.28 6.84 90.0 0 1 286.5600 380.7600
  A 8.28 6.84 90.0 0 1 293.4000 389.0400
  A 8.28 6.84 90.0 0 1 286.5600 397.3200
  Z
  M 286.5614 395.6000
  A 6.56 4.99 89.9 0 0 291.5400 389.0313
  A 6.56 4.99 89.9 0 0 286.5386 382.4800
  A 6.56 4.99 89.9 0 0 281.5600 389.0487
  A 6.56 4.99 89.9 0 0 286.5614 395.6000
  Z"
/>
<path fill="#ff48f3" d="
  M 257.01 395.30
  L 265.47 395.29
  Q 265.89 395.29 266.05 395.68
  Q 266.55 396.97 265.51 396.99
  Q 260.25 397.04 255.01 396.98
  Q 254.52 396.97 254.53 396.49
  C 254.60 389.04 263.20 390.14 263.79 385.90
  Q 264.01 384.34 262.78 383.62
  Q 259.41 381.66 256.38 384.65
  A 0.65 0.64 37.5 0 1 255.60 384.75
  Q 254.86 384.33 254.92 383.81
  Q 254.96 383.47 255.42 383.10
  Q 258.65 380.54 262.39 381.53
  C 264.96 382.20 266.68 384.73 265.36 387.23
  C 263.54 390.64 257.21 391.00 256.53 394.73
  Q 256.42 395.30 257.01 395.30
  Z"
/>
<path fill="#ff48f3" d="
  M 309.50 395.30
  L 318.15 395.30
  A 0.62 0.61 -84.9 0 1 318.75 396.03
  L 318.70 396.31
  Q 318.58 396.99 317.89 396.99
  L 307.51 397.00
  Q 307.03 397.00 307.03 396.52
  C 307.09 389.01 315.60 390.21 316.31 385.97
  Q 316.55 384.51 315.43 383.77
  Q 311.94 381.45 308.91 384.71
  A 0.65 0.64 -52.4 0 1 308.11 384.82
  Q 307.42 384.41 307.53 383.76
  Q 307.60 383.32 308.11 382.94
  C 310.80 380.92 316.30 380.11 317.92 383.96
  C 320.54 390.20 309.79 390.02 309.05 394.78
  Q 308.97 395.30 309.50 395.30
  Z"
/>
<path fill="#ff48f3" d="
  M 334.50 395.29
  L 343.33 395.32
  Q 343.86 395.32 343.76 395.84
  L 343.64 396.51
  A 0.57 0.57 0.0 0 1 343.08 396.99
  L 332.53 397.00
  Q 332.05 397.00 332.05 396.52
  C 331.99 392.07 335.06 390.59 338.73 388.65
  C 345.27 385.19 337.85 380.27 333.76 384.80
  A 0.52 0.52 0.0 0 1 332.94 384.73
  L 332.52 384.09
  A 0.62 0.61 53.6 0 1 332.64 383.28
  C 339.35 377.80 348.33 385.04 340.11 389.72
  C 338.15 390.83 334.45 392.26 334.06 394.77
  Q 333.98 395.29 334.50 395.29
  Z"
/>
<ellipse fill="#000000" cx="0.00" cy="0.00" transform="translate(286.55,389.04) rotate(89.9)" rx="6.56" ry="4.99"/>
<path fill="#ff48f3" d="
  M 239.13 394.61
  A 0.70 0.70 0.0 0 1 240.50 394.47
  Q 240.77 395.48 240.69 396.52
  A 0.90 0.78 -45.2 0 1 239.01 396.65
  L 239.13 394.61
  Z"
/>
</svg>
